# Pieza completa de un material COLLADA para Raylib
o CourseSelectW1_ZShadowMat
v 1.7015721 0.1076175 -0.2958563
v 1.6986082 0.1076175 -0.2958563
v 1.6986082 0.1047427 -0.2930212
v 1.6651605 0.1047427 -0.2928928
v 1.6651605 0.1076175 -0.2958563
v 1.6986082 0.1076175 -0.3177431
v 1.6840415 0.1076175 -0.3147375
v 1.6986082 0.1076175 -0.3147375
v 1.6868770 0.1076175 -0.3177431
v 1.7015721 0.1076175 -0.3147375
v 1.6840415 0.1076175 -0.3293041
v 1.6651605 0.1076175 -0.2958563
v 1.6986082 0.1076175 -0.2958563
v 1.7015721 0.1076175 -0.2958563
v 1.6868770 0.1076175 -0.3293041
v 1.6651605 0.1076175 -0.3293041
v 1.6840415 0.1076175 -0.3322674
v 1.6651605 0.1076175 -0.3322674
v 1.6651605 0.1076175 -0.2958563
v 1.6621549 0.1047427 -0.2958563
v 1.6651605 0.1047427 -0.2928928
v 1.6651605 0.1076175 -0.3322674
v 1.6621549 0.1047427 -0.3293041
v 1.6651605 0.1076175 -0.3293041
v 1.6651605 0.1076175 -0.2958563
v 1.6621549 0.1047427 -0.2958563
v 1.3826174 0.1076175 -0.3827644
v 1.3855809 0.1076175 -0.3827644
v 1.3855809 0.1047427 -0.3855994
v 1.4190288 0.1076175 -0.3827644
v 1.4190288 0.1047427 -0.3857279
v 1.3855809 0.1076175 -0.3608775
v 1.4001475 0.1076175 -0.3638832
v 1.3855809 0.1076175 -0.3638832
v 1.3973124 0.1076175 -0.3608775
v 1.3826174 0.1076175 -0.3638832
v 1.4001475 0.1076175 -0.3493167
v 1.4190288 0.1076175 -0.3827644
v 1.3855809 0.1076175 -0.3827644
v 1.3826174 0.1076175 -0.3827644
v 1.3973124 0.1076175 -0.3493167
v 1.4190288 0.1076175 -0.3493167
v 1.4001475 0.1076175 -0.3463533
v 1.4190288 0.1076175 -0.3463533
v 1.4190288 0.1076175 -0.3827644
v 1.4220344 0.1047427 -0.3827644
v 1.4190288 0.1047427 -0.3857279
v 1.4190288 0.1076175 -0.3463533
v 1.4220344 0.1047427 -0.3493167
v 1.4190288 0.1076175 -0.3493167
v 1.4190288 0.1076175 -0.3827644
v 1.4220344 0.1047427 -0.3827644
v 1.3328236 0.1076175 -0.3456503
v 1.3328236 0.1076175 -0.3486137
v 1.3299885 0.1047427 -0.3486137
v 1.3328236 0.1076175 -0.3820614
v 1.3298600 0.1047427 -0.3820614
v 1.3547103 0.1076175 -0.3486137
v 1.3517046 0.1076175 -0.3631804
v 1.3517046 0.1076175 -0.3486137
v 1.3547103 0.1076175 -0.3603452
v 1.3517046 0.1076175 -0.3456503
v 1.3662712 0.1076175 -0.3631804
v 1.3328236 0.1076175 -0.3820614
v 1.3328236 0.1076175 -0.3486137
v 1.3328236 0.1076175 -0.3456503
v 1.3662712 0.1076175 -0.3603453
v 1.3662712 0.1076175 -0.3820614
v 1.3692345 0.1076175 -0.3631804
v 1.3692345 0.1076175 -0.3820614
v 1.3328236 0.1076175 -0.3820614
v 1.3328236 0.1047427 -0.3850671
v 1.3298600 0.1047427 -0.3820614
v 1.3692345 0.1076175 -0.3820614
v 1.3662713 0.1047427 -0.3850672
v 1.3662712 0.1076175 -0.3820614
v 1.3328236 0.1076175 -0.3820614
v 1.3328236 0.1047427 -0.3850671
v 1.3699375 0.1076175 -0.2958563
v 1.3669741 0.1076175 -0.2958563
v 1.3669741 0.1047427 -0.2930212
v 1.3335265 0.1076175 -0.2958563
v 1.3335265 0.1047427 -0.2928928
v 1.3669741 0.1076175 -0.3177431
v 1.3524074 0.1076175 -0.3147375
v 1.3669741 0.1076175 -0.3147375
v 1.3552427 0.1076175 -0.3177431
v 1.3699375 0.1076175 -0.3147375
v 1.3524074 0.1076175 -0.3293041
v 1.3335265 0.1076175 -0.2958563
v 1.3669741 0.1076175 -0.2958563
v 1.3699375 0.1076175 -0.2958563
v 1.3552425 0.1076175 -0.3293041
v 1.3335265 0.1076175 -0.3293041
v 1.3524074 0.1076175 -0.3322674
v 1.3335265 0.1076175 -0.3322674
v 1.3335265 0.1076175 -0.2958563
v 1.3305207 0.1047427 -0.2958563
v 1.3335265 0.1047427 -0.2928928
v 1.3335265 0.1076175 -0.3322674
v 1.3305207 0.1047427 -0.3293041
v 1.3335265 0.1076175 -0.3293041
v 1.3335265 0.1076175 -0.2958563
v 1.3305207 0.1047427 -0.2958563
v 1.4197313 0.1076175 -0.3329704
v 1.4197313 0.1076175 -0.3300070
v 1.4225668 0.1047427 -0.3300070
v 1.4197313 0.1076175 -0.2965593
v 1.4226952 0.1047427 -0.2965593
v 1.3978447 0.1076175 -0.3300070
v 1.4008505 0.1076175 -0.3154404
v 1.4008505 0.1076175 -0.3300070
v 1.3978448 0.1076175 -0.3182756
v 1.4008503 0.1076175 -0.3329704
v 1.3862838 0.1076175 -0.3154404
v 1.4197313 0.1076175 -0.2965593
v 1.4197313 0.1076175 -0.3300070
v 1.4197313 0.1076175 -0.3329704
v 1.3862838 0.1076175 -0.3182755
v 1.3862838 0.1076175 -0.2965593
v 1.3833204 0.1076175 -0.3154404
v 1.3833204 0.1076175 -0.2965593
v 1.4197313 0.1076175 -0.2965593
v 1.4197313 0.1047427 -0.2935535
v 1.4226952 0.1047427 -0.2965593
v 1.3833204 0.1076175 -0.2965593
v 1.3862838 0.1047427 -0.2935536
v 1.3862838 0.1076175 -0.2965593
v 1.4197313 0.1076175 -0.2965593
v 1.4197313 0.1047427 -0.2935535
v 1.6644579 0.1076175 -0.3456503
v 1.6644579 0.1076175 -0.3486137
v 1.6616225 0.1047427 -0.3486137
v 1.6644579 0.1076175 -0.3820614
v 1.6614941 0.1047427 -0.3820614
v 1.6863445 0.1076175 -0.3486137
v 1.6833390 0.1076175 -0.3631804
v 1.6833390 0.1076175 -0.3486137
v 1.6863445 0.1076175 -0.3603452
v 1.6833390 0.1076175 -0.3456503
v 1.6979057 0.1076175 -0.3631804
v 1.6644579 0.1076175 -0.3820614
v 1.6644579 0.1076175 -0.3486137
v 1.6644579 0.1076175 -0.3456503
v 1.6979057 0.1076175 -0.3603453
v 1.6979057 0.1076175 -0.3820614
v 1.7008689 0.1076175 -0.3631804
v 1.7008689 0.1076175 -0.3820614
v 1.6644579 0.1076175 -0.3820614
v 1.6644579 0.1047427 -0.3850671
v 1.6614941 0.1047427 -0.3820614
v 1.7008689 0.1076175 -0.3820614
v 1.6979057 0.1047427 -0.3850672
v 1.6979057 0.1076175 -0.3820614
v 1.6644579 0.1076175 -0.3820614
v 1.6644579 0.1047427 -0.3850671
v 1.7142515 0.1076175 -0.3827644
v 1.7172153 0.1076175 -0.3827644
v 1.7172153 0.1047427 -0.3855994
v 1.7506630 0.1076175 -0.3827644
v 1.7506630 0.1047427 -0.3857279
v 1.7172153 0.1076175 -0.3608775
v 1.7317820 0.1076175 -0.3638832
v 1.7172153 0.1076175 -0.3638832
v 1.7289466 0.1076175 -0.3608775
v 1.7142515 0.1076175 -0.3638832
v 1.7317820 0.1076175 -0.3493167
v 1.7506630 0.1076175 -0.3827644
v 1.7172153 0.1076175 -0.3827644
v 1.7142515 0.1076175 -0.3827644
v 1.7289466 0.1076175 -0.3493167
v 1.7506630 0.1076175 -0.3493167
v 1.7317820 0.1076175 -0.3463533
v 1.7506630 0.1076175 -0.3463533
v 1.7506630 0.1076175 -0.3827644
v 1.7536686 0.1047427 -0.3827644
v 1.7506630 0.1047427 -0.3857279
v 1.7506630 0.1076175 -0.3463533
v 1.7536686 0.1047427 -0.3493167
v 1.7506630 0.1076175 -0.3493167
v 1.7506630 0.1076175 -0.3827644
v 1.7536686 0.1047427 -0.3827644
v 1.7513656 0.1076175 -0.3329704
v 1.7513656 0.1076175 -0.3300070
v 1.7542011 0.1047427 -0.3300070
v 1.7513656 0.1076175 -0.2965593
v 1.7543294 0.1047427 -0.2965593
v 1.7294790 0.1076175 -0.3300070
v 1.7324846 0.1076175 -0.3154404
v 1.7324846 0.1076175 -0.3300070
v 1.7294790 0.1076175 -0.3182756
v 1.7324846 0.1076175 -0.3329704
v 1.7179179 0.1076175 -0.3154404
v 1.7513656 0.1076175 -0.2965593
v 1.7513656 0.1076175 -0.3300070
v 1.7513656 0.1076175 -0.3329704
v 1.7179179 0.1076175 -0.3182755
v 1.7179179 0.1076175 -0.2965593
v 1.7149547 0.1076175 -0.3154404
v 1.7149547 0.1076175 -0.2965593
v 1.7513656 0.1076175 -0.2965593
v 1.7513656 0.1047427 -0.2935535
v 1.7543294 0.1047427 -0.2965593
v 1.7149547 0.1076175 -0.2965593
v 1.7179179 0.1047427 -0.2935536
v 1.7179179 0.1076175 -0.2965593
v 1.7513656 0.1076175 -0.2965593
v 1.7513656 0.1047427 -0.2935535
vt 0.5836118 0.5496605
vt 0.5626154 0.5496605
vt 0.5626154 0.5295644
vt 0.3756466 0.5286641
vt 0.3756466 0.5496605
vt 0.5626154 0.6547189
vt 0.4594186 0.6334172
vt 0.5626154 0.6334172
vt 0.4794995 0.6547189
vt 0.5836118 0.6334172
vt 0.4594186 0.7366293
vt 0.3756466 0.5496605
vt 0.5626154 0.5496605
vt 0.5836118 0.5496605
vt 0.4794995 0.7366293
vt 0.3756466 0.7366293
vt 0.4594186 0.7576257
vt 0.3756466 0.7576257
vt 0.3756466 0.5496605
vt 0.3543603 0.5496605
vt 0.3756466 0.5286641
vt 0.3756466 0.7576257
vt 0.3543603 0.7366293
vt 0.3756466 0.7366293
vt 0.3756466 0.5496605
vt 0.3543603 0.5496605
vt 0.5836118 0.5496605
vt 0.5626154 0.5496605
vt 0.5626154 0.5295644
vt 0.3756466 0.5496605
vt 0.3756466 0.5286641
vt 0.5626154 0.6547189
vt 0.4594186 0.6334172
vt 0.5626154 0.6334172
vt 0.4794995 0.6547189
vt 0.5836118 0.6334172
vt 0.4594186 0.7366293
vt 0.3756466 0.5496605
vt 0.5626154 0.5496605
vt 0.5836118 0.5496605
vt 0.4794995 0.7366293
vt 0.3756466 0.7366293
vt 0.4594186 0.7576257
vt 0.3756466 0.7576257
vt 0.3756466 0.5496605
vt 0.3543603 0.5496605
vt 0.3756466 0.5286641
vt 0.3756466 0.7576257
vt 0.3543603 0.7366293
vt 0.3756466 0.7366293
vt 0.3756466 0.5496605
vt 0.3543603 0.5496605
vt 0.5836118 0.5496605
vt 0.5626154 0.5496605
vt 0.5626154 0.5295644
vt 0.3756466 0.5496605
vt 0.3756466 0.5286641
vt 0.5626154 0.6547189
vt 0.4594186 0.6334172
vt 0.5626154 0.6334172
vt 0.4794995 0.6547189
vt 0.5836118 0.6334172
vt 0.4594186 0.7366293
vt 0.3756466 0.5496605
vt 0.5626154 0.5496605
vt 0.5836118 0.5496605
vt 0.4794995 0.7366293
vt 0.3756466 0.7366293
vt 0.4594186 0.7576257
vt 0.3756466 0.7576257
vt 0.3756466 0.5496605
vt 0.3543603 0.5496605
vt 0.3756466 0.5286641
vt 0.3756466 0.7576257
vt 0.3543603 0.7366293
vt 0.3756466 0.7366293
vt 0.3756466 0.5496605
vt 0.3543603 0.5496605
vt 0.5836118 0.5496605
vt 0.5626154 0.5496605
vt 0.5626154 0.5295644
vt 0.3756466 0.5496605
vt 0.3756466 0.5286641
vt 0.5626154 0.6547189
vt 0.4594186 0.6334172
vt 0.5626154 0.6334172
vt 0.4794995 0.6547189
vt 0.5836118 0.6334172
vt 0.4594186 0.7366293
vt 0.3756466 0.5496605
vt 0.5626154 0.5496605
vt 0.5836118 0.5496605
vt 0.4794995 0.7366293
vt 0.3756466 0.7366293
vt 0.4594186 0.7576257
vt 0.3756466 0.7576257
vt 0.3756466 0.5496605
vt 0.3543603 0.5496605
vt 0.3756466 0.5286641
vt 0.3756466 0.7576257
vt 0.3543603 0.7366293
vt 0.3756466 0.7366293
vt 0.3756466 0.5496605
vt 0.3543603 0.5496605
vt 0.5836118 0.5496605
vt 0.5626154 0.5496605
vt 0.5626154 0.5295644
vt 0.3756466 0.5496605
vt 0.3756466 0.5286641
vt 0.5626154 0.6547189
vt 0.4594186 0.6334172
vt 0.5626154 0.6334172
vt 0.4794995 0.6547189
vt 0.5836118 0.6334172
vt 0.4594186 0.7366293
vt 0.3756466 0.5496605
vt 0.5626154 0.5496605
vt 0.5836118 0.5496605
vt 0.4794995 0.7366293
vt 0.3756466 0.7366293
vt 0.4594186 0.7576257
vt 0.3756466 0.7576257
vt 0.3756466 0.5496605
vt 0.3543603 0.5496605
vt 0.3756466 0.5286641
vt 0.3756466 0.7576257
vt 0.3543603 0.7366293
vt 0.3756466 0.7366293
vt 0.3756466 0.5496605
vt 0.3543603 0.5496605
vt 0.5836118 0.5496605
vt 0.5626154 0.5496605
vt 0.5626154 0.5295644
vt 0.3756466 0.5496605
vt 0.3756466 0.5286641
vt 0.5626154 0.6547189
vt 0.4594186 0.6334172
vt 0.5626154 0.6334172
vt 0.4794995 0.6547189
vt 0.5836118 0.6334172
vt 0.4594186 0.7366293
vt 0.3756466 0.5496605
vt 0.5626154 0.5496605
vt 0.5836118 0.5496605
vt 0.4794995 0.7366293
vt 0.3756466 0.7366293
vt 0.4594186 0.7576257
vt 0.3756466 0.7576257
vt 0.3756466 0.5496605
vt 0.3543603 0.5496605
vt 0.3756466 0.5286641
vt 0.3756466 0.7576257
vt 0.3543603 0.7366293
vt 0.3756466 0.7366293
vt 0.3756466 0.5496605
vt 0.3543603 0.5496605
vt 0.5836118 0.5496605
vt 0.5626154 0.5496605
vt 0.5626154 0.5295644
vt 0.3756466 0.5496605
vt 0.3756466 0.5286641
vt 0.5626154 0.6547189
vt 0.4594186 0.6334172
vt 0.5626154 0.6334172
vt 0.4794995 0.6547189
vt 0.5836118 0.6334172
vt 0.4594186 0.7366293
vt 0.3756466 0.5496605
vt 0.5626154 0.5496605
vt 0.5836118 0.5496605
vt 0.4794995 0.7366293
vt 0.3756466 0.7366293
vt 0.4594186 0.7576257
vt 0.3756466 0.7576257
vt 0.3756466 0.5496605
vt 0.3543603 0.5496605
vt 0.3756466 0.5286641
vt 0.3756466 0.7576257
vt 0.3543603 0.7366293
vt 0.3756466 0.7366293
vt 0.3756466 0.5496605
vt 0.3543603 0.5496605
vt 0.5836118 0.5496605
vt 0.5626154 0.5496605
vt 0.5626154 0.5295644
vt 0.3756466 0.5496605
vt 0.3756466 0.5286641
vt 0.5626154 0.6547189
vt 0.4594186 0.6334172
vt 0.5626154 0.6334172
vt 0.4794995 0.6547189
vt 0.5836118 0.6334172
vt 0.4594186 0.7366293
vt 0.3756466 0.5496605
vt 0.5626154 0.5496605
vt 0.5836118 0.5496605
vt 0.4794995 0.7366293
vt 0.3756466 0.7366293
vt 0.4594186 0.7576257
vt 0.3756466 0.7576257
vt 0.3756466 0.5496605
vt 0.3543603 0.5496605
vt 0.3756466 0.5286641
vt 0.3756466 0.7576257
vt 0.3543603 0.7366293
vt 0.3756466 0.7366293
vt 0.3756466 0.5496605
vt 0.3543603 0.5496605
vn 0.0000000 0.7021999 0.7119799
vn 0.0019560 0.7100333 0.7041653
vn 0.0019560 0.7100333 0.7041653
vn 0.0019560 0.7100333 0.7041653
vn 0.0019560 0.7100333 0.7041653
vn 0.0000000 1.0000000 0.0000000
vn 0.0000000 1.0000000 0.0000000
vn 0.0000000 1.0000000 0.0000000
vn 0.0000000 1.0000000 0.0000000
vn 0.0000000 1.0000000 0.0000000
vn 0.0000000 1.0000000 0.0000000
vn 0.0000000 1.0000000 0.0000000
vn 0.0000000 1.0000000 0.0000000
vn 0.0000000 1.0000000 0.0000000
vn 0.0000000 1.0000000 0.0000000
vn 0.0000000 1.0000000 0.0000000
vn 0.0000000 1.0000000 0.0000000
vn 0.0000000 1.0000000 0.0000000
vn -0.5661510 0.5916181 0.5739870
vn -0.5661510 0.5916181 0.5739870
vn -0.5661510 0.5916181 0.5739870
vn -0.6912671 0.7225993 0.0000000
vn -0.6912671 0.7225993 0.0000000
vn -0.6912671 0.7225993 0.0000000
vn -0.6912671 0.7225993 0.0000000
vn -0.6912671 0.7225993 0.0000000
vn 0.0000000 0.7021999 -0.7119799
vn -0.0019560 0.7100333 -0.7041653
vn -0.0019560 0.7100333 -0.7041653
vn -0.0019560 0.7100333 -0.7041653
vn -0.0019560 0.7100333 -0.7041653
vn 0.0000000 1.0000000 0.0000000
vn 0.0000000 1.0000000 0.0000000
vn 0.0000000 1.0000000 0.0000000
vn 0.0000000 1.0000000 0.0000000
vn 0.0000000 1.0000000 0.0000000
vn 0.0000000 1.0000000 0.0000000
vn 0.0000000 1.0000000 0.0000000
vn 0.0000000 1.0000000 0.0000000
vn 0.0000000 1.0000000 0.0000000
vn 0.0000000 1.0000000 0.0000000
vn 0.0000000 1.0000000 0.0000000
vn 0.0000000 1.0000000 0.0000000
vn 0.0000000 1.0000000 0.0000000
vn 0.5661510 0.5916181 -0.5739870
vn 0.5661510 0.5916181 -0.5739870
vn 0.5661510 0.5916181 -0.5739870
vn 0.6912671 0.7225993 0.0000000
vn 0.6912671 0.7225993 0.0000000
vn 0.6912671 0.7225993 0.0000000
vn 0.6912671 0.7225993 0.0000000
vn 0.6912671 0.7225993 0.0000000
vn -0.7119799 0.7021999 0.0000000
vn -0.7041653 0.7100333 0.0019560
vn -0.7041653 0.7100333 0.0019560
vn -0.7041653 0.7100333 0.0019560
vn -0.7041653 0.7100333 0.0019560
vn 0.0000000 1.0000000 0.0000000
vn 0.0000000 1.0000000 0.0000000
vn 0.0000000 1.0000000 0.0000000
vn 0.0000000 1.0000000 0.0000000
vn 0.0000000 1.0000000 0.0000000
vn 0.0000000 1.0000000 0.0000000
vn 0.0000000 1.0000000 0.0000000
vn 0.0000000 1.0000000 0.0000000
vn 0.0000000 1.0000000 0.0000000
vn 0.0000000 1.0000000 0.0000000
vn 0.0000000 1.0000000 0.0000000
vn 0.0000000 1.0000000 0.0000000
vn 0.0000000 1.0000000 0.0000000
vn -0.5739870 0.5916181 -0.5661510
vn -0.5739870 0.5916181 -0.5661510
vn -0.5739870 0.5916181 -0.5661510
vn 0.0000000 0.7225993 -0.6912671
vn 0.0000000 0.7225993 -0.6912671
vn 0.0000000 0.7225993 -0.6912671
vn 0.0000000 0.7225993 -0.6912671
vn 0.0000000 0.7225993 -0.6912671
vn 0.0000000 0.7021999 0.7119799
vn 0.0019560 0.7100333 0.7041653
vn 0.0019560 0.7100333 0.7041653
vn 0.0019560 0.7100333 0.7041653
vn 0.0019560 0.7100333 0.7041653
vn 0.0000000 1.0000000 0.0000000
vn 0.0000000 1.0000000 0.0000000
vn 0.0000000 1.0000000 0.0000000
vn 0.0000000 1.0000000 0.0000000
vn 0.0000000 1.0000000 0.0000000
vn 0.0000000 1.0000000 0.0000000
vn 0.0000000 1.0000000 0.0000000
vn 0.0000000 1.0000000 0.0000000
vn 0.0000000 1.0000000 0.0000000
vn 0.0000000 1.0000000 0.0000000
vn 0.0000000 1.0000000 0.0000000
vn 0.0000000 1.0000000 0.0000000
vn 0.0000000 1.0000000 0.0000000
vn -0.5661510 0.5916181 0.5739870
vn -0.5661510 0.5916181 0.5739870
vn -0.5661510 0.5916181 0.5739870
vn -0.6912671 0.7225993 0.0000000
vn -0.6912671 0.7225993 0.0000000
vn -0.6912671 0.7225993 0.0000000
vn -0.6912671 0.7225993 0.0000000
vn -0.6912671 0.7225993 0.0000000
vn 0.7119799 0.7021999 0.0000000
vn 0.7041653 0.7100333 -0.0019560
vn 0.7041653 0.7100333 -0.0019560
vn 0.7041653 0.7100333 -0.0019560
vn 0.7041653 0.7100333 -0.0019560
vn 0.0000000 1.0000000 0.0000000
vn 0.0000000 1.0000000 0.0000000
vn 0.0000000 1.0000000 0.0000000
vn 0.0000000 1.0000000 0.0000000
vn 0.0000000 1.0000000 0.0000000
vn 0.0000000 1.0000000 0.0000000
vn 0.0000000 1.0000000 0.0000000
vn 0.0000000 1.0000000 0.0000000
vn 0.0000000 1.0000000 0.0000000
vn 0.0000000 1.0000000 0.0000000
vn 0.0000000 1.0000000 0.0000000
vn 0.0000000 1.0000000 0.0000000
vn 0.0000000 1.0000000 0.0000000
vn 0.5739870 0.5916181 0.5661510
vn 0.5739870 0.5916181 0.5661510
vn 0.5739870 0.5916181 0.5661510
vn 0.0000000 0.7225993 0.6912671
vn 0.0000000 0.7225993 0.6912671
vn 0.0000000 0.7225993 0.6912671
vn 0.0000000 0.7225993 0.6912671
vn 0.0000000 0.7225993 0.6912671
vn -0.7119799 0.7021999 0.0000000
vn -0.7041653 0.7100333 0.0019560
vn -0.7041653 0.7100333 0.0019560
vn -0.7041653 0.7100333 0.0019560
vn -0.7041653 0.7100333 0.0019560
vn 0.0000000 1.0000000 0.0000000
vn 0.0000000 1.0000000 0.0000000
vn 0.0000000 1.0000000 0.0000000
vn 0.0000000 1.0000000 0.0000000
vn 0.0000000 1.0000000 0.0000000
vn 0.0000000 1.0000000 0.0000000
vn 0.0000000 1.0000000 0.0000000
vn 0.0000000 1.0000000 0.0000000
vn 0.0000000 1.0000000 0.0000000
vn 0.0000000 1.0000000 0.0000000
vn 0.0000000 1.0000000 0.0000000
vn 0.0000000 1.0000000 0.0000000
vn 0.0000000 1.0000000 0.0000000
vn -0.5739870 0.5916181 -0.5661510
vn -0.5739870 0.5916181 -0.5661510
vn -0.5739870 0.5916181 -0.5661510
vn 0.0000000 0.7225993 -0.6912671
vn 0.0000000 0.7225993 -0.6912671
vn 0.0000000 0.7225993 -0.6912671
vn 0.0000000 0.7225993 -0.6912671
vn 0.0000000 0.7225993 -0.6912671
vn 0.0000000 0.7021999 -0.7119799
vn -0.0019560 0.7100333 -0.7041653
vn -0.0019560 0.7100333 -0.7041653
vn -0.0019560 0.7100333 -0.7041653
vn -0.0019560 0.7100333 -0.7041653
vn 0.0000000 1.0000000 0.0000000
vn 0.0000000 1.0000000 0.0000000
vn 0.0000000 1.0000000 0.0000000
vn 0.0000000 1.0000000 0.0000000
vn 0.0000000 1.0000000 0.0000000
vn 0.0000000 1.0000000 0.0000000
vn 0.0000000 1.0000000 0.0000000
vn 0.0000000 1.0000000 0.0000000
vn 0.0000000 1.0000000 0.0000000
vn 0.0000000 1.0000000 0.0000000
vn 0.0000000 1.0000000 0.0000000
vn 0.0000000 1.0000000 0.0000000
vn 0.0000000 1.0000000 0.0000000
vn 0.5661510 0.5916181 -0.5739870
vn 0.5661510 0.5916181 -0.5739870
vn 0.5661510 0.5916181 -0.5739870
vn 0.6912671 0.7225993 0.0000000
vn 0.6912671 0.7225993 0.0000000
vn 0.6912671 0.7225993 0.0000000
vn 0.6912671 0.7225993 0.0000000
vn 0.6912671 0.7225993 0.0000000
vn 0.7119799 0.7021999 0.0000000
vn 0.7041653 0.7100333 -0.0019560
vn 0.7041653 0.7100333 -0.0019560
vn 0.7041653 0.7100333 -0.0019560
vn 0.7041653 0.7100333 -0.0019560
vn 0.0000000 1.0000000 0.0000000
vn 0.0000000 1.0000000 0.0000000
vn 0.0000000 1.0000000 0.0000000
vn 0.0000000 1.0000000 0.0000000
vn 0.0000000 1.0000000 0.0000000
vn 0.0000000 1.0000000 0.0000000
vn 0.0000000 1.0000000 0.0000000
vn 0.0000000 1.0000000 0.0000000
vn 0.0000000 1.0000000 0.0000000
vn 0.0000000 1.0000000 0.0000000
vn 0.0000000 1.0000000 0.0000000
vn 0.0000000 1.0000000 0.0000000
vn 0.0000000 1.0000000 0.0000000
vn 0.5739870 0.5916181 0.5661510
vn 0.5739870 0.5916181 0.5661510
vn 0.5739870 0.5916181 0.5661510
vn 0.0000000 0.7225993 0.6912671
vn 0.0000000 0.7225993 0.6912671
vn 0.0000000 0.7225993 0.6912671
vn 0.0000000 0.7225993 0.6912671
vn 0.0000000 0.7225993 0.6912671
f 1/1/1 2/2/2 3/3/3
f 3/3/3 2/2/2 4/4/4
f 2/2/2 5/5/5 4/4/4
f 6/6/6 7/7/7 8/8/8
f 6/6/6 9/9/9 7/7/7
f 6/6/6 8/8/8 10/10/10
f 7/7/7 11/11/11 12/12/12
f 7/7/7 12/12/12 13/13/13
f 7/7/7 13/13/13 8/8/8
f 7/7/7 9/9/9 11/11/11
f 8/8/8 13/13/13 14/14/14
f 8/8/8 14/14/14 10/10/10
f 9/9/9 15/15/15 11/11/11
f 11/11/11 16/16/16 12/12/12
f 11/11/11 17/17/17 16/16/16
f 11/11/11 15/15/15 17/17/17
f 16/16/16 17/17/17 18/18/18
f 19/19/19 20/20/20 21/21/21
f 22/22/22 23/23/23 24/24/24
f 23/23/23 25/25/25 24/24/24
f 23/23/23 26/26/26 25/25/25
f 27/27/27 28/28/28 29/29/29
f 28/28/28 30/30/30 31/31/31
f 28/28/28 31/31/31 29/29/29
f 32/32/32 33/33/33 34/34/34
f 32/32/32 35/35/35 33/33/33
f 32/32/32 34/34/34 36/36/36
f 33/33/33 37/37/37 38/38/38
f 33/33/33 38/38/38 39/39/39
f 33/33/33 39/39/39 34/34/34
f 33/33/33 35/35/35 37/37/37
f 34/34/34 39/39/39 40/40/40
f 34/34/34 40/40/40 36/36/36
f 35/35/35 41/41/41 37/37/37
f 37/37/37 42/42/42 38/38/38
f 37/37/37 43/43/43 42/42/42
f 37/37/37 41/41/41 43/43/43
f 42/42/42 43/43/43 44/44/44
f 45/45/45 46/46/46 47/47/47
f 48/48/48 49/49/49 50/50/50
f 49/49/49 51/51/51 50/50/50
f 49/49/49 52/52/52 51/51/51
f 53/53/53 54/54/54 55/55/55
f 54/54/54 56/56/56 57/57/57
f 54/54/54 57/57/57 55/55/55
f 58/58/58 59/59/59 60/60/60
f 58/58/58 61/61/61 59/59/59
f 58/58/58 60/60/60 62/62/62
f 59/59/59 63/63/63 64/64/64
f 59/59/59 64/64/64 65/65/65
f 59/59/59 65/65/65 60/60/60
f 59/59/59 61/61/61 63/63/63
f 60/60/60 65/65/65 66/66/66
f 60/60/60 66/66/66 62/62/62
f 61/61/61 67/67/67 63/63/63
f 63/63/63 68/68/68 64/64/64
f 63/63/63 69/69/69 68/68/68
f 63/63/63 67/67/67 69/69/69
f 68/68/68 69/69/69 70/70/70
f 71/71/71 72/72/72 73/73/73
f 74/74/74 75/75/75 76/76/76
f 75/75/75 77/77/77 76/76/76
f 75/75/75 78/78/78 77/77/77
f 79/79/79 80/80/80 81/81/81
f 80/80/80 82/82/82 83/83/83
f 80/80/80 83/83/83 81/81/81
f 84/84/84 85/85/85 86/86/86
f 84/84/84 87/87/87 85/85/85
f 84/84/84 86/86/86 88/88/88
f 85/85/85 89/89/89 90/90/90
f 85/85/85 90/90/90 91/91/91
f 85/85/85 91/91/91 86/86/86
f 85/85/85 87/87/87 89/89/89
f 86/86/86 91/91/91 92/92/92
f 86/86/86 92/92/92 88/88/88
f 87/87/87 93/93/93 89/89/89
f 89/89/89 94/94/94 90/90/90
f 89/89/89 95/95/95 94/94/94
f 89/89/89 93/93/93 95/95/95
f 94/94/94 95/95/95 96/96/96
f 97/97/97 98/98/98 99/99/99
f 100/100/100 101/101/101 102/102/102
f 101/101/101 103/103/103 102/102/102
f 101/101/101 104/104/104 103/103/103
f 105/105/105 106/106/106 107/107/107
f 106/106/106 108/108/108 109/109/109
f 106/106/106 109/109/109 107/107/107
f 110/110/110 111/111/111 112/112/112
f 110/110/110 113/113/113 111/111/111
f 110/110/110 112/112/112 114/114/114
f 111/111/111 115/115/115 116/116/116
f 111/111/111 116/116/116 117/117/117
f 111/111/111 117/117/117 112/112/112
f 111/111/111 113/113/113 115/115/115
f 112/112/112 117/117/117 118/118/118
f 112/112/112 118/118/118 114/114/114
f 113/113/113 119/119/119 115/115/115
f 115/115/115 120/120/120 116/116/116
f 115/115/115 121/121/121 120/120/120
f 115/115/115 119/119/119 121/121/121
f 120/120/120 121/121/121 122/122/122
f 123/123/123 124/124/124 125/125/125
f 126/126/126 127/127/127 128/128/128
f 127/127/127 129/129/129 128/128/128
f 127/127/127 130/130/130 129/129/129
f 131/131/131 132/132/132 133/133/133
f 132/132/132 134/134/134 135/135/135
f 132/132/132 135/135/135 133/133/133
f 136/136/136 137/137/137 138/138/138
f 136/136/136 139/139/139 137/137/137
f 136/136/136 138/138/138 140/140/140
f 137/137/137 141/141/141 142/142/142
f 137/137/137 142/142/142 143/143/143
f 137/137/137 143/143/143 138/138/138
f 137/137/137 139/139/139 141/141/141
f 138/138/138 143/143/143 144/144/144
f 138/138/138 144/144/144 140/140/140
f 139/139/139 145/145/145 141/141/141
f 141/141/141 146/146/146 142/142/142
f 141/141/141 147/147/147 146/146/146
f 141/141/141 145/145/145 147/147/147
f 146/146/146 147/147/147 148/148/148
f 149/149/149 150/150/150 151/151/151
f 152/152/152 153/153/153 154/154/154
f 153/153/153 155/155/155 154/154/154
f 153/153/153 156/156/156 155/155/155
f 157/157/157 158/158/158 159/159/159
f 158/158/158 160/160/160 161/161/161
f 158/158/158 161/161/161 159/159/159
f 162/162/162 163/163/163 164/164/164
f 162/162/162 165/165/165 163/163/163
f 162/162/162 164/164/164 166/166/166
f 163/163/163 167/167/167 168/168/168
f 163/163/163 168/168/168 169/169/169
f 163/163/163 169/169/169 164/164/164
f 163/163/163 165/165/165 167/167/167
f 164/164/164 169/169/169 170/170/170
f 164/164/164 170/170/170 166/166/166
f 165/165/165 171/171/171 167/167/167
f 167/167/167 172/172/172 168/168/168
f 167/167/167 173/173/173 172/172/172
f 167/167/167 171/171/171 173/173/173
f 172/172/172 173/173/173 174/174/174
f 175/175/175 176/176/176 177/177/177
f 178/178/178 179/179/179 180/180/180
f 179/179/179 181/181/181 180/180/180
f 179/179/179 182/182/182 181/181/181
f 183/183/183 184/184/184 185/185/185
f 184/184/184 186/186/186 187/187/187
f 184/184/184 187/187/187 185/185/185
f 188/188/188 189/189/189 190/190/190
f 188/188/188 191/191/191 189/189/189
f 188/188/188 190/190/190 192/192/192
f 189/189/189 193/193/193 194/194/194
f 189/189/189 194/194/194 195/195/195
f 189/189/189 195/195/195 190/190/190
f 189/189/189 191/191/191 193/193/193
f 190/190/190 195/195/195 196/196/196
f 190/190/190 196/196/196 192/192/192
f 191/191/191 197/197/197 193/193/193
f 193/193/193 198/198/198 194/194/194
f 193/193/193 199/199/199 198/198/198
f 193/193/193 197/197/197 199/199/199
f 198/198/198 199/199/199 200/200/200
f 201/201/201 202/202/202 203/203/203
f 204/204/204 205/205/205 206/206/206
f 205/205/205 207/207/207 206/206/206
f 205/205/205 208/208/208 207/207/207
