# Pieza completa de un material COLLADA para Raylib
o CourseSelectWallW1_BridgeMat01
v 0.8042832 -0.0999146 -0.0184241
v 0.8085944 -0.0999146 -0.0184241
v 0.8058999 -0.1010772 -0.0184241
v 0.8042832 -0.1010772 -0.0184241
v 0.8085944 -0.0987571 -0.0184241
v 0.8042832 -0.0987572 -0.0184241
v 0.8026664 -0.1010772 -0.0184241
v 0.7999719 -0.0999146 -0.0184241
v 0.7999719 -0.0987571 -0.0184241
v 0.8042832 -0.1118273 -0.0184241
v 0.8274561 -0.1001396 -0.0184241
v 0.8085944 -0.0978341 -0.0200767
v 0.8042832 -0.0978343 -0.0200767
v 0.7999719 -0.0978341 -0.0200767
v 0.7999719 -0.1118273 -0.0200767
v 0.7999719 -0.1010772 -0.0200767
v 0.8026664 -0.1118273 -0.0184241
v 0.7811102 -0.1001396 -0.0184241
v 0.7811102 -0.1012978 -0.0184241
v 0.8058999 -0.1118273 -0.0184241
v 0.7811102 -0.0992167 -0.0200767
v 0.7811102 -0.0886451 -0.0200767
v 0.7999719 -0.0872619 -0.0200767
v 0.7999719 -0.1131149 -0.0184241
v 0.7811102 -0.1132105 -0.0200767
v 0.7811102 -0.1024604 -0.0200767
v 0.7719488 -0.1028389 -0.0184241
v 0.8085944 -0.1010772 -0.0200767
v 0.8085944 -0.1118273 -0.0200767
v 0.8085944 -0.1131149 -0.0184241
v 0.7784286 -0.0996345 -0.0184241
v 0.7811102 -0.1144981 -0.0184241
v 0.7719488 -0.1147517 -0.0200767
v 0.7719488 -0.1040015 -0.0200767
v 0.8274561 -0.1132105 -0.0200767
v 0.8274561 -0.1012978 -0.0184241
v 0.8274561 -0.1024604 -0.0200767
v 0.8274561 -0.1144981 -0.0184241
v 0.7719488 -0.1016804 -0.0184241
v 0.7719488 -0.1160393 -0.0184241
v 0.7512033 -0.1192332 -0.0200767
v 0.7512033 -0.1084830 -0.0200767
v 0.7523328 -0.1070508 -0.0184241
v 0.8366175 -0.1147517 -0.0200767
v 0.8366175 -0.1028389 -0.0184241
v 0.8366175 -0.1040015 -0.0200767
v 0.8366175 -0.1160393 -0.0184241
v 0.7523332 -0.1058916 -0.0184241
v 0.7512033 -0.1205207 -0.0184241
v 0.7490109 -0.1197565 -0.0184241
v 0.7490109 -0.1090063 -0.0184241
v 0.7512033 -0.1073204 -0.0184241
v 0.8573631 -0.1192332 -0.0200767
v 0.8573631 -0.1084830 -0.0200767
v 0.8562335 -0.1070508 -0.0184241
v 0.8573631 -0.1205207 -0.0184241
v 0.7512033 -0.1061407 -0.0184241
v 0.7512033 -0.1052383 -0.0200767
v 0.7490109 -0.1057385 -0.0184241
v 0.8595554 -0.1197565 -0.0184241
v 0.8595554 -0.1090063 -0.0184241
v 0.8573631 -0.1073204 -0.0184241
v 0.8562332 -0.1058916 -0.0184241
v 0.7719488 -0.0901862 -0.0200767
v 0.7719488 -0.1007576 -0.0200767
v 0.7512033 -0.0946677 -0.0200767
v 0.7747389 -0.1002721 -0.0184241
v 0.7490109 -0.0951910 -0.0184241
v 0.8573631 -0.1061407 -0.0184241
v 0.8366175 -0.1016804 -0.0184241
v 0.7747432 -0.0897032 -0.0184241
v 0.7719453 -0.0887135 -0.0184241
v 0.7512033 -0.0931738 -0.0184241
v 0.7490109 -0.0951910 -0.0184241
v 0.7784342 -0.0890652 -0.0184241
v 0.8595554 -0.1057385 -0.0184241
v 0.8301378 -0.0996345 -0.0184241
v 0.8274561 -0.0992167 -0.0200767
v 0.7811067 -0.0871722 -0.0184241
v 0.8573631 -0.1052383 -0.0200767
v 0.8573631 -0.0946677 -0.0200767
v 0.8595554 -0.0951910 -0.0184241
v 0.8338274 -0.1002721 -0.0184241
v 0.8301322 -0.0890652 -0.0184241
v 0.8274561 -0.0886451 -0.0200767
v 0.8085944 -0.0872619 -0.0200767
v 0.7999719 -0.0857891 -0.0184241
v 0.8042832 -0.0872619 -0.0200767
v 0.8366175 -0.0901862 -0.0200767
v 0.8573631 -0.0931738 -0.0184241
v 0.8338231 -0.0897032 -0.0184241
v 0.8366175 -0.1007576 -0.0200767
v 0.8274596 -0.0871722 -0.0184241
v 0.8085944 -0.0857891 -0.0184241
v 0.8042832 -0.0857891 -0.0184241
v 0.8366210 -0.0887135 -0.0184241
v 0.8595554 -0.1197565 -0.1228273
v 0.8408473 -0.1154828 -0.1228273
v 0.8595554 -0.1197565 -0.2149477
v 0.8225652 -0.1127677 -0.1228273
v 0.8408473 -0.1154828 -0.2149477
v 0.8595554 -0.1197565 -0.2272305
v 0.8042832 -0.1118273 -0.1228273
v 0.8225652 -0.1127677 -0.2149477
v 0.8408473 -0.1154828 -0.2272305
v 0.7860011 -0.1127677 -0.1228273
v 0.8042832 -0.1118273 -0.2149477
v 0.8225652 -0.1127677 -0.2272305
v 0.7677190 -0.1154828 -0.1228273
v 0.7860011 -0.1127677 -0.2149477
v 0.8042832 -0.1118273 -0.2272305
v 0.7490109 -0.1197565 -0.1228273
v 0.7677190 -0.1154828 -0.2149477
v 0.7860011 -0.1127677 -0.2272305
v 0.7490109 -0.1197565 -0.2149477
v 0.7677190 -0.1154828 -0.2272305
v 0.7490109 -0.1197565 -0.2272305
v 0.7490109 -0.0969788 -0.1228273
v 0.7677190 -0.0927052 -0.1228273
v 0.7490109 -0.0969788 -0.2149477
v 0.7860011 -0.0899900 -0.1228273
v 0.7677190 -0.0927052 -0.2149477
v 0.7490109 -0.0969788 -0.2272305
v 0.8042832 -0.0890497 -0.1228273
v 0.7860011 -0.0899900 -0.2149477
v 0.7677190 -0.0927052 -0.2272305
v 0.8225652 -0.0899900 -0.1228273
v 0.8042832 -0.0890497 -0.2149477
v 0.7860011 -0.0899900 -0.2272305
v 0.8408473 -0.0927052 -0.1228273
v 0.8225652 -0.0899900 -0.2149477
v 0.8042832 -0.0890497 -0.2272305
v 0.8595554 -0.0969788 -0.1228273
v 0.8408473 -0.0927052 -0.2149477
v 0.8225652 -0.0899900 -0.2272305
v 0.8595554 -0.0969788 -0.2149477
v 0.8408473 -0.0927052 -0.2272305
v 0.8595554 -0.0969788 -0.2272305
v 0.7490109 -0.1197565 -0.0184241
v 0.7490109 -0.0969788 -0.0184241
v 0.7490109 -0.1197565 -0.0307068
v 0.7490109 -0.0969788 -0.0307068
v 0.7490109 -0.1197565 -0.1228273
v 0.7490109 -0.0969788 -0.1228273
v 0.7490109 -0.1197565 -0.2149477
v 0.7490109 -0.0969788 -0.2149477
v 0.7490109 -0.0969788 -0.2272305
v 0.7490109 -0.1197565 -0.2272305
v 0.8595554 -0.1197565 -0.0184241
v 0.8408473 -0.1154828 -0.0184241
v 0.8595554 -0.1197565 -0.0307068
v 0.8225652 -0.1127677 -0.0184241
v 0.8408473 -0.1154828 -0.0307068
v 0.8595554 -0.1197565 -0.1228273
v 0.8042832 -0.1118273 -0.0184241
v 0.8225652 -0.1127677 -0.0307068
v 0.8408473 -0.1154828 -0.1228273
v 0.7860011 -0.1127677 -0.0184241
v 0.8042832 -0.1118273 -0.0307068
v 0.8225652 -0.1127677 -0.1228273
v 0.7677190 -0.1154828 -0.0184241
v 0.7860011 -0.1127677 -0.0307068
v 0.8042832 -0.1118273 -0.1228273
v 0.7490109 -0.1197565 -0.0184241
v 0.7677190 -0.1154828 -0.0307068
v 0.7860011 -0.1127677 -0.1228273
v 0.7490109 -0.1197565 -0.0307068
v 0.7677190 -0.1154828 -0.1228273
v 0.7490109 -0.1197565 -0.1228273
v 0.8595554 -0.1197565 -0.1228273
v 0.8595554 -0.0969788 -0.1228273
v 0.8595554 -0.1197565 -0.0307068
v 0.8595554 -0.0969788 -0.2149477
v 0.8595554 -0.1197565 -0.2149477
v 0.8595554 -0.0969788 -0.0307068
v 0.8595554 -0.0969788 -0.0184241
v 0.8595554 -0.1197565 -0.0184241
v 0.8595554 -0.0969788 -0.2272305
v 0.8595554 -0.1197565 -0.2272305
v 0.8595554 -0.0969788 -0.1228273
v 0.8408473 -0.0927052 -0.1228273
v 0.8595554 -0.0969788 -0.0307068
v 0.8225652 -0.0899900 -0.1228273
v 0.8408473 -0.0927052 -0.0307068
v 0.8595554 -0.0969788 -0.0184241
v 0.8042832 -0.0890497 -0.1228273
v 0.8225652 -0.0899900 -0.0307068
v 0.8408473 -0.0927052 -0.0184241
v 0.7860011 -0.0899900 -0.1228273
v 0.8042832 -0.0890497 -0.0307068
v 0.8225652 -0.0899900 -0.0184241
v 0.7677190 -0.0927052 -0.1228273
v 0.7860011 -0.0899900 -0.0307068
v 0.8042832 -0.0890497 -0.0184241
v 0.7490109 -0.0969788 -0.1228273
v 0.7677190 -0.0927052 -0.0307068
v 0.7860011 -0.0899900 -0.0184241
v 0.7490109 -0.0969788 -0.0307068
v 0.7677190 -0.0927052 -0.0184241
v 0.7490109 -0.0969788 -0.0184241
v 0.8595554 -0.0969788 -0.0184241
v 0.8408473 -0.0927052 -0.0184241
v 0.8595554 -0.1197565 -0.0184241
v 0.8225652 -0.0899900 -0.0184241
v 0.8408473 -0.1154828 -0.0184241
v 0.8042832 -0.0890497 -0.0184241
v 0.8225652 -0.1127677 -0.0184241
v 0.7860011 -0.0899900 -0.0184241
v 0.8042832 -0.1118273 -0.0184241
v 0.7677190 -0.0927052 -0.0184241
v 0.7860011 -0.1127677 -0.0184241
v 0.7490109 -0.0969788 -0.0184241
v 0.7677190 -0.1154828 -0.0184241
v 0.7490109 -0.1197565 -0.0184241
v 0.8338248 -0.0897035 -0.2456546
v 0.8338231 -0.0897032 -0.2272305
v 0.8366210 -0.0887135 -0.2272305
v 0.8366210 -0.0887135 -0.2456546
v 0.8301351 -0.0890657 -0.2456546
v 0.8301322 -0.0890652 -0.2272305
v 0.8573631 -0.0931927 -0.2456546
v 0.8573631 -0.0931738 -0.2272305
v 0.8274596 -0.0871722 -0.2456546
v 0.8274596 -0.0871722 -0.2272305
v 0.8085944 -0.0857891 -0.2456546
v 0.8085944 -0.0857891 -0.2272305
v 0.8042832 -0.0857891 -0.2456546
v 0.8042832 -0.0857891 -0.2272305
v 0.7999719 -0.0857891 -0.2456546
v 0.7999719 -0.0857891 -0.2272305
v 0.7811067 -0.0871722 -0.2272305
v 0.7811067 -0.0871722 -0.2456546
v 0.7784342 -0.0890652 -0.2272305
v 0.7784312 -0.0890657 -0.2456546
v 0.7747415 -0.0897035 -0.2456546
v 0.7747432 -0.0897032 -0.2272305
v 0.7719453 -0.0887135 -0.2456546
v 0.7719453 -0.0887135 -0.2272305
v 0.7512033 -0.0931927 -0.2456546
v 0.7512033 -0.0931738 -0.2272305
v 0.7999719 -0.0978341 -0.2473036
v 0.7811102 -0.0992167 -0.2473036
v 0.7811102 -0.0886451 -0.2473036
v 0.7999719 -0.0872619 -0.2473036
v 0.7811102 -0.1001396 -0.2456546
v 0.7999719 -0.0987571 -0.2456546
v 0.8042832 -0.0978343 -0.2473036
v 0.8042832 -0.0987572 -0.2456546
v 0.7784286 -0.0996345 -0.2456546
v 0.7811067 -0.0871722 -0.2456546
v 0.7784312 -0.0890657 -0.2456546
v 0.7999719 -0.0857891 -0.2456546
v 0.8042832 -0.0872619 -0.2473036
v 0.7999719 -0.0999146 -0.2456546
v 0.8042832 -0.0999146 -0.2456546
v 0.8085944 -0.0872619 -0.2473036
v 0.8085944 -0.0978341 -0.2473036
v 0.8085944 -0.0987571 -0.2456546
v 0.7719488 -0.1016804 -0.2456546
v 0.7747389 -0.1002721 -0.2456546
v 0.7747415 -0.0897035 -0.2456546
v 0.8042832 -0.0857891 -0.2456546
v 0.8085944 -0.0857891 -0.2456546
v 0.8274596 -0.0871722 -0.2456546
v 0.8274561 -0.0886451 -0.2473036
v 0.8274561 -0.0992167 -0.2473036
v 0.8274561 -0.1001396 -0.2456546
v 0.8085944 -0.0999146 -0.2456546
v 0.7719488 -0.1007576 -0.2473036
v 0.7719488 -0.0901862 -0.2473036
v 0.7719453 -0.0887135 -0.2456546
v 0.8301351 -0.0890657 -0.2456546
v 0.8301378 -0.0996345 -0.2456546
v 0.8366175 -0.1016804 -0.2456546
v 0.8366175 -0.1028389 -0.2456546
v 0.8274561 -0.1012978 -0.2456546
v 0.8058999 -0.1010772 -0.2456546
v 0.8085944 -0.1010772 -0.2473036
v 0.7512033 -0.1052383 -0.2473036
v 0.7512033 -0.0931927 -0.2456546
v 0.7512033 -0.0946677 -0.2473036
v 0.8338248 -0.0897035 -0.2456546
v 0.8338274 -0.1002721 -0.2456546
v 0.8274561 -0.1024604 -0.2473036
v 0.8085944 -0.1118273 -0.2473036
v 0.8274561 -0.1132105 -0.2473036
v 0.7490109 -0.1057582 -0.2456546
v 0.7523332 -0.1058916 -0.2456546
v 0.7719488 -0.1028389 -0.2456546
v 0.7490109 -0.0951910 -0.2456546
v 0.8366175 -0.0901862 -0.2473036
v 0.8366175 -0.1007576 -0.2473036
v 0.8366210 -0.0887135 -0.2456546
v 0.7523328 -0.1070508 -0.2456546
v 0.7512033 -0.1073204 -0.2456546
v 0.7512033 -0.1061596 -0.2456546
v 0.7811102 -0.1012978 -0.2456546
v 0.7490109 -0.0951910 -0.2272305
v 0.7512033 -0.0931738 -0.2272305
v 0.7512033 -0.0931927 -0.2456546
v 0.8573631 -0.1052383 -0.2473036
v 0.8573631 -0.0931927 -0.2456546
v 0.8562332 -0.1058916 -0.2456546
v 0.7512033 -0.1084830 -0.2473036
v 0.7490109 -0.1090063 -0.2456546
v 0.8026664 -0.1010772 -0.2456546
v 0.7999719 -0.1010772 -0.2473036
v 0.7490109 -0.1057385 -0.2272305
v 0.8595554 -0.0951910 -0.2456546
v 0.8573631 -0.0946677 -0.2473036
v 0.8573631 -0.0946677 -0.2473036
v 0.8042832 -0.1010772 -0.2456546
v 0.7512033 -0.1061596 -0.2456546
v 0.7512033 -0.1061407 -0.2272305
v 0.8595554 -0.0951910 -0.2272305
v 0.8595554 -0.1057582 -0.2456546
v 0.8573631 -0.0931738 -0.2272305
v 0.8573631 -0.0931927 -0.2456546
v 0.8058999 -0.1118273 -0.2456546
v 0.8042832 -0.1118273 -0.2456546
v 0.7512033 -0.1073204 -0.2272305
v 0.7512033 -0.1073204 -0.2456546
v 0.8595554 -0.1057385 -0.2272305
v 0.8573631 -0.1061596 -0.2456546
v 0.8573631 -0.1061596 -0.2456546
v 0.8085944 -0.1131149 -0.2456546
v 0.8026664 -0.1118273 -0.2456546
v 0.7999719 -0.1118273 -0.2473036
v 0.7490109 -0.1090063 -0.2272305
v 0.8573631 -0.1061407 -0.2272305
v 0.8573631 -0.1073204 -0.2456546
v 0.8562335 -0.1070508 -0.2456546
v 0.8573631 -0.1073204 -0.2272305
v 0.8573631 -0.1073204 -0.2456546
v 0.8274561 -0.1144981 -0.2456546
v 0.7999719 -0.1131149 -0.2456546
v 0.7811102 -0.1132105 -0.2473036
v 0.7811102 -0.1024604 -0.2473036
v 0.7490109 -0.1197565 -0.2456546
v 0.7490109 -0.1197565 -0.2272305
v 0.8573631 -0.1084830 -0.2473036
v 0.8595554 -0.1090063 -0.2456546
v 0.8366175 -0.1040015 -0.2473036
v 0.8595554 -0.1090063 -0.2272305
v 0.7811102 -0.1144981 -0.2456546
v 0.7719488 -0.1147517 -0.2473036
v 0.8595554 -0.1197565 -0.2456546
v 0.8366175 -0.1147517 -0.2473036
v 0.8573631 -0.1192332 -0.2473036
v 0.8595554 -0.1197565 -0.2272305
v 0.7719488 -0.1160393 -0.2456546
v 0.7719488 -0.1040015 -0.2473036
v 0.7512033 -0.1192332 -0.2473036
v 0.8573631 -0.1205207 -0.2456546
v 0.8366175 -0.1160393 -0.2456546
v 0.7512033 -0.1205207 -0.2456546
v 0.8026664 -0.1118273 -0.2272305
v 0.7999719 -0.1131149 -0.2272305
v 0.8026664 -0.1118273 -0.2456546
v 0.8042832 -0.1118273 -0.2456546
v 0.8042832 -0.1118273 -0.2272305
v 0.7999719 -0.1131149 -0.2456546
v 0.7811102 -0.1144981 -0.2272305
v 0.8058999 -0.1118273 -0.2272305
v 0.8058999 -0.1118273 -0.2456546
v 0.7811102 -0.1144981 -0.2456546
v 0.7719488 -0.1160393 -0.2272305
v 0.8085944 -0.1131149 -0.2272305
v 0.8085944 -0.1131149 -0.2456546
v 0.7719488 -0.1160393 -0.2456546
v 0.7512033 -0.1205207 -0.2456546
v 0.7512033 -0.1205207 -0.2272305
v 0.8274561 -0.1144981 -0.2272305
v 0.8274561 -0.1144981 -0.2456546
v 0.7490109 -0.1197565 -0.2272305
v 0.7490109 -0.1197565 -0.2456546
v 0.8366175 -0.1160393 -0.2272305
v 0.8366175 -0.1160393 -0.2456546
v 0.8573631 -0.1205207 -0.2456546
v 0.8573631 -0.1205207 -0.2272305
v 0.8595554 -0.1197565 -0.2456546
v 0.8595554 -0.1197565 -0.2272305
v 0.7999719 -0.0978341 -0.2255779
v 0.7811102 -0.0886451 -0.2255779
v 0.7811102 -0.0992167 -0.2255779
v 0.7999719 -0.0872619 -0.2255779
v 0.7811102 -0.1001396 -0.2272305
v 0.7999719 -0.0987571 -0.2272305
v 0.8042832 -0.0978343 -0.2255779
v 0.8042832 -0.0987572 -0.2272305
v 0.7811067 -0.0871722 -0.2272305
v 0.7784342 -0.0890652 -0.2272305
v 0.7784286 -0.0996345 -0.2272305
v 0.7999719 -0.0857891 -0.2272305
v 0.8042832 -0.0872619 -0.2255779
v 0.7999719 -0.0999146 -0.2272305
v 0.8042832 -0.0999146 -0.2272305
v 0.8085944 -0.0978341 -0.2255779
v 0.8085944 -0.0872619 -0.2255779
v 0.8085944 -0.0987571 -0.2272305
v 0.7747432 -0.0897032 -0.2272305
v 0.7747389 -0.1002721 -0.2272305
v 0.7719488 -0.1016804 -0.2272305
v 0.8042832 -0.0857891 -0.2272305
v 0.8085944 -0.0857891 -0.2272305
v 0.8274561 -0.0886451 -0.2255779
v 0.8274596 -0.0871722 -0.2272305
v 0.8085944 -0.0999146 -0.2272305
v 0.8274561 -0.1001396 -0.2272305
v 0.7719488 -0.0901862 -0.2255779
v 0.7719488 -0.1007576 -0.2255779
v 0.7719453 -0.0887135 -0.2272305
v 0.7719488 -0.1028389 -0.2272305
v 0.7811102 -0.1012978 -0.2272305
v 0.8301322 -0.0890652 -0.2272305
v 0.7512033 -0.1052383 -0.2255779
v 0.7512033 -0.0946677 -0.2255779
v 0.7512033 -0.0931738 -0.2272305
v 0.7811102 -0.1024604 -0.2255779
v 0.7999719 -0.1010772 -0.2255779
v 0.8026664 -0.1010772 -0.2272305
v 0.8338274 -0.1002721 -0.2272305
v 0.8338231 -0.0897032 -0.2272305
v 0.8301378 -0.0996345 -0.2272305
v 0.7490109 -0.0951910 -0.2272305
v 0.7490109 -0.0951910 -0.2272305
v 0.7490109 -0.1057385 -0.2272305
v 0.8058999 -0.1010772 -0.2272305
v 0.8042832 -0.1010772 -0.2272305
v 0.8366175 -0.1007576 -0.2255779
v 0.8366175 -0.0901862 -0.2255779
v 0.8366210 -0.0887135 -0.2272305
v 0.8274561 -0.0992167 -0.2255779
v 0.7512033 -0.1061407 -0.2272305
v 0.7523332 -0.1058916 -0.2272305
v 0.8085944 -0.1010772 -0.2255779
v 0.8274561 -0.1012978 -0.2272305
v 0.8042832 -0.1118273 -0.2272305
v 0.8573631 -0.0931738 -0.2272305
v 0.7512033 -0.1073204 -0.2272305
v 0.7523328 -0.1070508 -0.2272305
v 0.8366175 -0.1028389 -0.2272305
v 0.8274561 -0.1024604 -0.2255779
v 0.8366175 -0.1016804 -0.2272305
v 0.8058999 -0.1118273 -0.2272305
v 0.8026664 -0.1118273 -0.2272305
v 0.8085944 -0.1118273 -0.2255779
v 0.8573631 -0.0946677 -0.2255779
v 0.8595554 -0.0951910 -0.2272305
v 0.8085944 -0.1131149 -0.2272305
v 0.7999719 -0.1118273 -0.2255779
v 0.7999719 -0.1131149 -0.2272305
v 0.8274561 -0.1132105 -0.2255779
v 0.8573631 -0.1052383 -0.2255779
v 0.8595554 -0.1057385 -0.2272305
v 0.8274561 -0.1144981 -0.2272305
v 0.7811102 -0.1132105 -0.2255779
v 0.7811102 -0.1144981 -0.2272305
v 0.8366175 -0.1147517 -0.2255779
v 0.8366175 -0.1040015 -0.2255779
v 0.8562332 -0.1058916 -0.2272305
v 0.8573631 -0.1061407 -0.2272305
v 0.8366175 -0.1160393 -0.2272305
v 0.7719488 -0.1147517 -0.2255779
v 0.7719488 -0.1160393 -0.2272305
v 0.8573631 -0.1192332 -0.2255779
v 0.8573631 -0.1084830 -0.2255779
v 0.8562335 -0.1070508 -0.2272305
v 0.8573631 -0.1073204 -0.2272305
v 0.8573631 -0.1205207 -0.2272305
v 0.7719488 -0.1040015 -0.2255779
v 0.7512033 -0.1192332 -0.2255779
v 0.7512033 -0.1084830 -0.2255779
v 0.7512033 -0.1205207 -0.2272305
v 0.8595554 -0.1197565 -0.2272305
v 0.8595554 -0.1090063 -0.2272305
v 0.7490109 -0.1197565 -0.2272305
v 0.7490109 -0.1090063 -0.2272305
v 0.8338248 -0.0897035 0.0000000
v 0.8366210 -0.0887135 -0.0184241
v 0.8338231 -0.0897032 -0.0184241
v 0.8366210 -0.0887135 0.0000000
v 0.8301351 -0.0890657 0.0000000
v 0.8573631 -0.0931927 0.0000000
v 0.8573631 -0.0931738 -0.0184241
v 0.8301322 -0.0890652 -0.0184241
v 0.8274596 -0.0871722 0.0000000
v 0.8274596 -0.0871722 -0.0184241
v 0.8085944 -0.0857891 0.0000000
v 0.8085944 -0.0857891 -0.0184241
v 0.8042832 -0.0857891 -0.0184241
v 0.8042832 -0.0857891 0.0000000
v 0.7999719 -0.0857891 -0.0184241
v 0.7999719 -0.0857891 0.0000000
v 0.7811067 -0.0871722 -0.0184241
v 0.7811067 -0.0871722 0.0000000
v 0.7784342 -0.0890652 -0.0184241
v 0.7784312 -0.0890657 0.0000000
v 0.7747415 -0.0897035 0.0000000
v 0.7747432 -0.0897032 -0.0184241
v 0.7719453 -0.0887135 0.0000000
v 0.7719453 -0.0887135 -0.0184241
v 0.7512033 -0.0931927 0.0000000
v 0.7512033 -0.0931738 -0.0184241
v 0.7999719 -0.0978341 0.0016490
v 0.7811102 -0.0886451 0.0016490
v 0.7811102 -0.0992167 0.0016490
v 0.7999719 -0.0872619 0.0016490
v 0.7811102 -0.1001396 0.0000000
v 0.7999719 -0.0987571 0.0000000
v 0.8042832 -0.0978343 0.0016490
v 0.8042832 -0.0987572 0.0000000
v 0.7811067 -0.0871722 0.0000000
v 0.7784312 -0.0890657 0.0000000
v 0.7784286 -0.0996345 0.0000000
v 0.7999719 -0.0857891 0.0000000
v 0.8042832 -0.0872619 0.0016490
v 0.7999719 -0.0999146 0.0000000
v 0.8042832 -0.0999146 0.0000000
v 0.8085944 -0.0978341 0.0016490
v 0.8085944 -0.0872619 0.0016490
v 0.8085944 -0.0987571 0.0000000
v 0.7747415 -0.0897035 0.0000000
v 0.7747389 -0.1002721 0.0000000
v 0.7719488 -0.1016804 0.0000000
v 0.8042832 -0.0857891 0.0000000
v 0.8085944 -0.0857891 0.0000000
v 0.8274561 -0.0886451 0.0016490
v 0.8274596 -0.0871722 0.0000000
v 0.8085944 -0.0999146 0.0000000
v 0.8274561 -0.1001396 0.0000000
v 0.7719488 -0.0901862 0.0016490
v 0.7719488 -0.1007576 0.0016490
v 0.7719453 -0.0887135 0.0000000
v 0.7719488 -0.1028389 0.0000000
v 0.7811102 -0.1012978 0.0000000
v 0.8301351 -0.0890657 0.0000000
v 0.7512033 -0.1052383 0.0016490
v 0.7512033 -0.0946677 0.0016490
v 0.7512033 -0.0931927 0.0000000
v 0.7811102 -0.1024604 0.0016490
v 0.7999719 -0.1010772 0.0016490
v 0.8026664 -0.1010772 0.0000000
v 0.8338274 -0.1002721 0.0000000
v 0.8338248 -0.0897035 0.0000000
v 0.8301378 -0.0996345 0.0000000
v 0.7490109 -0.0951910 0.0000000
v 0.7490109 -0.1057582 0.0000000
v 0.7523332 -0.1058916 0.0000000
v 0.8058999 -0.1010772 0.0000000
v 0.8042832 -0.1010772 0.0000000
v 0.8366175 -0.1007576 0.0016490
v 0.8366175 -0.0901862 0.0016490
v 0.8366210 -0.0887135 0.0000000
v 0.8274561 -0.0992167 0.0016490
v 0.7719488 -0.1040015 0.0016490
v 0.7523328 -0.1070508 0.0000000
v 0.8085944 -0.1010772 0.0016490
v 0.8274561 -0.1012978 0.0000000
v 0.8042832 -0.1118273 0.0000000
v 0.8573631 -0.0931927 0.0000000
v 0.7719488 -0.1147517 0.0016490
v 0.7811102 -0.1132105 0.0016490
v 0.8366175 -0.1028389 0.0000000
v 0.8274561 -0.1024604 0.0016490
v 0.8366175 -0.1016804 0.0000000
v 0.8058999 -0.1118273 0.0000000
v 0.8026664 -0.1118273 0.0000000
v 0.8085944 -0.1118273 0.0016490
v 0.8573631 -0.0946677 0.0016490
v 0.8595554 -0.0951910 0.0000000
v 0.8573631 -0.0946677 0.0016490
v 0.7999719 -0.1118273 0.0016490
v 0.8085944 -0.1131149 0.0000000
v 0.7999719 -0.1131149 0.0000000
v 0.8274561 -0.1132105 0.0016490
v 0.8573631 -0.1052383 0.0016490
v 0.8595554 -0.1057582 0.0000000
v 0.7811102 -0.1144981 0.0000000
v 0.8274561 -0.1144981 0.0000000
v 0.8366175 -0.1147517 0.0016490
v 0.8366175 -0.1040015 0.0016490
v 0.8562332 -0.1058916 0.0000000
v 0.7719488 -0.1160393 0.0000000
v 0.7512033 -0.1192332 0.0016490
v 0.7512033 -0.1084830 0.0016490
v 0.8366175 -0.1160393 0.0000000
v 0.8573631 -0.1084830 0.0016490
v 0.8562335 -0.1070508 0.0000000
v 0.8573631 -0.1073204 0.0000000
v 0.8573631 -0.1061596 0.0000000
v 0.7512033 -0.1205207 0.0000000
v 0.7490109 -0.1197565 0.0000000
v 0.8573631 -0.1192332 0.0016490
v 0.8573631 -0.1205207 0.0000000
v 0.8595554 -0.1090063 0.0000000
v 0.8595554 -0.0951910 -0.0184241
v 0.8595554 -0.1057385 -0.0184241
v 0.8573631 -0.1061596 0.0000000
v 0.7490109 -0.1090063 0.0000000
v 0.7490109 -0.1090063 -0.0184241
v 0.7490109 -0.1197565 -0.0184241
v 0.8595554 -0.1197565 0.0000000
v 0.8573631 -0.0931738 -0.0184241
v 0.8573631 -0.0931927 0.0000000
v 0.8573631 -0.1061407 -0.0184241
v 0.8573631 -0.1073204 -0.0184241
v 0.8573631 -0.1073204 0.0000000
v 0.7512033 -0.1073204 -0.0184241
v 0.7512033 -0.1073204 0.0000000
v 0.7512033 -0.1073204 0.0000000
v 0.8595554 -0.1090063 -0.0184241
v 0.8595554 -0.1197565 -0.0184241
v 0.7512033 -0.1061596 0.0000000
v 0.7512033 -0.1061407 -0.0184241
v 0.7512033 -0.1061596 0.0000000
v 0.7490109 -0.1057385 -0.0184241
v 0.7490109 -0.0951910 -0.0184241
v 0.7512033 -0.0931738 -0.0184241
v 0.7512033 -0.0931927 0.0000000
v 0.8026664 -0.1118273 -0.0184241
v 0.8026664 -0.1118273 0.0000000
v 0.7999719 -0.1131149 -0.0184241
v 0.8042832 -0.1118273 -0.0184241
v 0.8042832 -0.1118273 0.0000000
v 0.7999719 -0.1131149 0.0000000
v 0.7811102 -0.1144981 -0.0184241
v 0.8058999 -0.1118273 -0.0184241
v 0.8058999 -0.1118273 0.0000000
v 0.7811102 -0.1144981 0.0000000
v 0.7719488 -0.1160393 -0.0184241
v 0.8085944 -0.1131149 -0.0184241
v 0.8085944 -0.1131149 0.0000000
v 0.7719488 -0.1160393 0.0000000
v 0.7512033 -0.1205207 0.0000000
v 0.7512033 -0.1205207 -0.0184241
v 0.8274561 -0.1144981 -0.0184241
v 0.8274561 -0.1144981 0.0000000
v 0.7490109 -0.1197565 0.0000000
v 0.7490109 -0.1197565 -0.0184241
v 0.8366175 -0.1160393 -0.0184241
v 0.8366175 -0.1160393 0.0000000
v 0.8573631 -0.1205207 0.0000000
v 0.8573631 -0.1205207 -0.0184241
v 0.8595554 -0.1197565 -0.0184241
v 0.8595554 -0.1197565 0.0000000
vt 0.8281603 1.1912569
vt 0.8281603 1.1510499
vt 0.8407390 1.1738716
vt 0.8407390 1.1912569
vt 0.8156367 1.1510526
vt 0.8156387 1.1912566
vt 0.8407390 1.2085608
vt 0.8281603 1.2313825
vt 0.8156367 1.2313799
vt 0.9559343 1.1912569
vt 0.8156291 0.9762403
vt 0.8056510 1.1482273
vt 0.8056523 1.1912568
vt 0.8056511 1.2342050
vt 0.9609791 1.2314390
vt 0.8407390 1.2314156
vt 0.9559333 1.2085856
vt 0.8156291 1.4061919
vt 0.8281604 1.4061921
vt 0.9559333 1.1738468
vt 0.8056440 1.4061921
vt 0.6853906 1.4061921
vt 0.6853973 1.2341822
vt 0.9952823 1.2314109
vt 0.9609712 1.4061921
vt 0.8407391 1.4061919
vt 0.8281602 1.4911921
vt 0.8407390 1.1510168
vt 0.9609791 1.1509935
vt 0.9952821 1.1510216
vt 0.8056079 1.4310725
vt 0.9952822 1.4061921
vt 0.9609680 1.4911921
vt 0.8407390 1.4911921
vt 0.9609712 0.9762403
vt 0.8281603 0.9762403
vt 0.8407390 0.9762403
vt 0.9952821 0.9762403
vt 0.8156258 1.4911921
vt 0.9952822 1.4911921
vt 0.9609606 1.6821796
vt 0.8407390 1.6821550
vt 0.8281604 1.6707121
vt 0.9609680 0.8912402
vt 0.8281603 0.8912402
vt 0.8407390 0.8912402
vt 0.9952821 0.8912402
vt 0.8156191 1.6707088
vt 0.9952822 1.6821517
vt 0.9609243 1.7248814
vt 0.8407390 1.7248561
vt 0.8281603 1.6821088
vt 0.9609606 0.7002532
vt 0.8407390 0.7002775
vt 0.8281603 0.7117201
vt 0.9952823 0.7002808
vt 0.8156005 1.6821059
vt 0.8056326 1.6821485
vt 0.8055963 1.7248483
vt 0.9609243 0.6576695
vt 0.8407391 0.6576695
vt 0.8281603 0.7003238
vt 0.8156191 0.7117236
vt 0.6853871 1.4911921
vt 0.8056411 1.4911921
vt 0.6853790 1.6821237
vt 0.8056059 1.4653058
vt 0.6853424 1.7248234
vt 0.8156005 0.7003269
vt 0.8156259 0.8912401
vt 0.6853526 1.4652815
vt 0.6753304 1.4911921
vt 0.6753143 1.6763787
vt 0.6853424 1.7248234
vt 0.6853541 1.4310483
vt 0.8055964 0.6576695
vt 0.8056079 0.9513599
vt 0.8056440 0.9762403
vt 0.6753333 1.4061921
vt 0.8056327 0.7002842
vt 0.6853789 0.7003092
vt 0.6853422 0.6576695
vt 0.8056061 0.9171268
vt 0.6853541 0.9513842
vt 0.6853906 0.9762403
vt 0.6853973 1.1482502
vt 0.6753409 1.2313489
vt 0.6853993 1.1912569
vt 0.6853871 0.8912402
vt 0.6753143 0.7060541
vt 0.6853526 0.9171506
vt 0.8056411 0.8912401
vt 0.6753331 0.9762404
vt 0.6753410 1.1510836
vt 0.6753426 1.1912568
vt 0.6753304 0.8912401
vt 0.0132849 -0.2812500
vt 0.0902974 -0.2812500
vt 0.0132849 -0.9058400
vt 0.1655625 -0.2812500
vt 0.0902975 -0.9058390
vt 0.0132844 -0.9891180
vt 0.2408136 -0.2812500
vt 0.1655554 -0.9058400
vt 0.0902966 -0.9891180
vt 0.3160643 -0.2812500
vt 0.2408134 -0.9058400
vt 0.1655551 -0.9891180
vt 0.3913295 -0.2812500
vt 0.3160715 -0.9058400
vt 0.2408134 -0.9891180
vt 0.4683420 -0.2812500
vt 0.3913294 -0.9058400
vt 0.3160719 -0.9891180
vt 0.4683420 -0.9058400
vt 0.3913303 -0.9891180
vt 0.4683425 -0.9891180
vt 0.0262513 -0.2812500
vt 0.0903212 -0.2812500
vt 0.0262513 -0.9058380
vt 0.1655625 -0.2812500
vt 0.0903214 -0.9058380
vt 0.0262510 -0.9891160
vt 0.2408136 -0.2812500
vt 0.1655625 -0.9058380
vt 0.0903405 -0.9891170
vt 0.3160643 -0.2812500
vt 0.2408136 -0.9058380
vt 0.1655700 -0.9891170
vt 0.3913052 -0.2812500
vt 0.3160644 -0.9058380
vt 0.2408137 -0.9891170
vt 0.4553756 -0.2812500
vt 0.3913050 -0.9058380
vt 0.3160568 -0.9891170
vt 0.4553756 -0.9058380
vt 0.3912860 -0.9891170
vt 0.4553759 -0.9891160
vt 1.2052060 0.7204888
vt 1.2879110 0.7204876
vt 1.2052070 0.6193647
vt 1.2879110 0.6193647
vt 1.2052070 0.3665546
vt 1.2879110 0.3665546
vt 1.2052070 0.1137446
vt 1.2879110 0.1137446
vt 1.2879110 0.0126217
vt 1.2052060 0.0126204
vt 0.0132844 0.7202698
vt 0.0902966 0.7202698
vt 0.0132849 0.6376989
vt 0.1655551 0.7202698
vt 0.0902974 0.6376989
vt 0.0132849 0.0156250
vt 0.2408137 0.7202685
vt 0.1655554 0.6376989
vt 0.0902974 0.0156251
vt 0.3160719 0.7202698
vt 0.2408134 0.6376989
vt 0.1655554 0.0156250
vt 0.3913303 0.7202698
vt 0.3160715 0.6376989
vt 0.2408134 0.0156250
vt 0.4683425 0.7202698
vt 0.3913295 0.6376989
vt 0.3160715 0.0156250
vt 0.4683420 0.6376989
vt 0.3913295 0.0156250
vt 0.4683420 0.0156250
vt 1.3541680 0.3665546
vt 1.2653830 0.3665546
vt 1.3541680 0.6193647
vt 1.2653830 0.1137446
vt 1.3541680 0.1137446
vt 1.2653830 0.6193647
vt 1.2653830 0.7204876
vt 1.3541680 0.7204888
vt 1.2653830 0.0126217
vt 1.3541680 0.0126204
vt 0.4553756 0.0156250
vt 0.3913052 0.0156249
vt 0.4553756 0.6376975
vt 0.3160643 0.0156250
vt 0.3913054 0.6376977
vt 0.4553759 0.7202673
vt 0.2408136 0.0156250
vt 0.3160643 0.6376978
vt 0.3912867 0.7202685
vt 0.1655625 0.0156250
vt 0.2408136 0.6376978
vt 0.3160566 0.7202685
vt 0.0903212 0.0156249
vt 0.1655625 0.6376978
vt 0.2408137 0.7202685
vt 0.0262513 0.0156250
vt 0.0903210 0.6376977
vt 0.1655701 0.7202685
vt 0.0262512 0.6376976
vt 0.0903398 0.7202685
vt 0.0262510 0.7202673
vt 0.6928430 1.5022436
vt 0.6909315 1.5848753
vt 0.8811144 1.5022428
vt 0.6905749 1.6666133
vt 0.8811144 1.5844278
vt 0.6904499 1.7487986
vt 0.8811144 1.6666135
vt 0.6905749 1.8309839
vt 0.8811146 1.7487986
vt 0.6909315 1.9127219
vt 0.8811144 1.8309839
vt 0.6928431 1.9953535
vt 0.8811145 1.9131694
vt 0.8811144 1.9953544
vt 1.4937000 1.5327473
vt 1.6724240 1.5327473
vt 1.6724240 1.5045371
vt 1.4937000 1.5045371
vt 1.4937000 1.5609578
vt 1.6724250 1.5609574
vt 1.4937000 1.3154269
vt 1.6724250 1.3154269
vt 1.4937000 1.5891678
vt 1.6724240 1.5891676
vt 1.4937000 1.7634717
vt 1.6724240 1.7634717
vt 1.4937000 1.8029993
vt 1.6724240 1.8029994
vt 1.4937000 1.8425273
vt 1.6724240 1.8425273
vt 1.6724240 2.0168310
vt 1.4937000 2.0168310
vt 1.6724250 2.0450410
vt 1.4937000 2.0450420
vt 1.4937000 2.0732520
vt 1.6724240 2.0732520
vt 1.4937000 2.1014620
vt 1.6724250 2.1014620
vt 1.4937000 2.2905720
vt 1.6724240 2.2905720
vt 1.8022420 1.8473189
vt 1.8022340 2.0193060
vt 1.6819810 2.0193060
vt 1.6819880 1.8472961
vt 1.8122190 2.0193060
vt 1.8122270 1.8444937
vt 1.8022430 1.8043706
vt 1.8122290 1.8043705
vt 1.8021980 2.0441860
vt 1.6719240 2.0193060
vt 1.6819440 2.0441620
vt 1.6719310 1.8444628
vt 1.6819900 1.8043708
vt 1.8247510 1.8444964
vt 1.8247510 1.8043708
vt 1.6819880 1.7613641
vt 1.8022410 1.7613412
vt 1.8122270 1.7641665
vt 1.8122160 2.1043060
vt 1.8021960 2.0784200
vt 1.6819430 2.0783950
vt 1.6719330 1.8043706
vt 1.6719310 1.7641975
vt 1.6719230 1.5893543
vt 1.6819810 1.5893542
vt 1.8022340 1.5893542
vt 1.8122190 1.5893542
vt 1.8247510 1.7641637
vt 1.8022310 2.1043060
vt 1.6819770 2.1043060
vt 1.6719210 2.1043060
vt 1.6819440 1.5644981
vt 1.8021980 1.5644737
vt 1.8122160 1.5043540
vt 1.8247510 1.5043541
vt 1.8247510 1.5893542
vt 1.8373290 1.7869855
vt 1.8373290 1.7641307
vt 1.8022230 2.2952620
vt 1.6719050 2.2894930
vt 1.6819690 2.2952380
vt 1.6819430 1.5302645
vt 1.8021970 1.5302407
vt 1.8373290 1.5893542
vt 1.9575690 1.7641073
vt 1.9575610 1.5893542
vt 1.8021870 2.3376250
vt 1.8122090 2.2838230
vt 1.8247500 2.1043060
vt 1.6819330 2.3376090
vt 1.6819770 1.5043541
vt 1.8022310 1.5043540
vt 1.6719210 1.5043540
vt 1.8247510 2.2838260
vt 1.8247510 2.2952230
vt 1.8121910 2.2952200
vt 1.8247510 2.0193060
vt 1.6815080 2.5070740
vt 1.6714870 2.5070740
vt 1.6718960 2.3439870
vt 1.8022230 1.3133980
vt 1.6719050 1.3191680
vt 1.8122090 1.3248374
vt 1.8373290 2.2952690
vt 1.8373300 2.3376300
vt 1.8373290 1.8216747
vt 1.8373290 1.8445295
vt 1.8017610 2.5070740
vt 1.6819330 1.2707834
vt 1.6819690 1.3134230
vt 1.6819690 1.3134230
vt 1.8373290 1.8043708
vt 1.8121910 2.3446840
vt 1.8117830 2.5070740
vt 1.6815080 1.1020309
vt 1.8021870 1.2707834
vt 1.6714870 1.1020991
vt 1.6718960 1.2637484
vt 1.9525240 1.7869607
vt 1.9525250 1.8043708
vt 1.8247510 2.5070740
vt 1.8247510 2.3447590
vt 1.8017610 1.1014330
vt 1.8121910 1.3134407
vt 1.8121910 1.2630512
vt 1.9918720 1.7641355
vt 1.9525240 1.8216995
vt 1.9575690 1.8445529
vt 1.8373300 2.5070740
vt 1.8117830 1.1014016
vt 1.8247510 1.3134376
vt 1.8247510 1.3248340
vt 1.8247510 1.1013267
vt 1.8247510 1.2629765
vt 1.9918720 1.5893542
vt 1.9918730 1.8445247
vt 1.9575610 2.0193060
vt 1.8373290 2.0193060
vt 1.9575150 2.3376470
vt 1.9570880 2.5070740
vt 1.8373290 1.3133913
vt 1.8373300 1.2707834
vt 1.8373290 1.5043541
vt 1.8373300 1.1012585
vt 1.9918720 2.0193060
vt 1.9575580 2.1043060
vt 1.9575150 1.2707834
vt 1.9575580 1.5043541
vt 1.9575510 1.3133670
vt 1.9570890 1.1006608
vt 1.9918720 2.1043060
vt 1.8373290 2.1043060
vt 1.9575510 2.2952940
vt 1.9918730 1.3133947
vt 1.9918720 1.5043541
vt 1.9918720 2.2952660
vt 1.5010510 -0.9156660
vt 1.5010510 -0.8906660
vt 1.6490080 -0.9156660
vt 1.6490080 -0.9310290
vt 1.5010520 -0.9310290
vt 1.6490080 -0.8906660
vt 1.5010510 -0.7156660
vt 1.5010510 -0.9463920
vt 1.6490080 -0.9463920
vt 1.6490080 -0.7156660
vt 1.5010520 -0.6306660
vt 1.5010510 -0.9713920
vt 1.6490080 -0.9713920
vt 1.6490080 -0.6306660
vt 1.6490080 -0.4406660
vt 1.5010510 -0.4406660
vt 1.5010510 -1.1463920
vt 1.6490080 -1.1463920
vt 1.5008330 -0.4206660
vt 1.6490080 -0.4206660
vt 1.5010520 -1.2313920
vt 1.6490080 -1.2313920
vt 1.6490080 -1.4213920
vt 1.5010520 -1.4213920
vt 1.6490080 -1.4413920
vt 1.5010510 -1.4413920
vt 1.8022420 1.8473189
vt 1.6819810 2.0193060
vt 1.8022340 2.0193060
vt 1.6819880 1.8472961
vt 1.8122190 2.0193060
vt 1.8122270 1.8444937
vt 1.8022430 1.8043706
vt 1.8122290 1.8043705
vt 1.6719240 2.0193060
vt 1.6819440 2.0441620
vt 1.8021980 2.0441860
vt 1.6719310 1.8444628
vt 1.6819900 1.8043708
vt 1.8247510 1.8444964
vt 1.8247510 1.8043708
vt 1.8022410 1.7613412
vt 1.6819880 1.7613641
vt 1.8122270 1.7641665
vt 1.6819430 2.0783950
vt 1.8021960 2.0784200
vt 1.8122160 2.1043060
vt 1.6719330 1.8043706
vt 1.6719310 1.7641975
vt 1.6819810 1.5893542
vt 1.6719230 1.5893543
vt 1.8247510 1.7641637
vt 1.8122190 1.5893542
vt 1.6819770 2.1043060
vt 1.8022310 2.1043060
vt 1.6719210 2.1043060
vt 1.8247500 2.1043060
vt 1.8247510 2.0193060
vt 1.6819440 1.5644981
vt 1.8022230 2.2952620
vt 1.6819690 2.2952380
vt 1.6719050 2.2894930
vt 1.8373290 2.0193060
vt 1.8373290 1.8445295
vt 1.8373290 1.8216747
vt 1.8021970 1.5302407
vt 1.6819430 1.5302645
vt 1.8021980 1.5644737
vt 1.6819330 2.3379370
vt 1.6819330 2.3379370
vt 1.8021870 2.3379620
vt 1.8373290 1.7869855
vt 1.8373290 1.8043708
vt 1.8022310 1.5043540
vt 1.6819770 1.5043541
vt 1.6719210 1.5043540
vt 1.8022340 1.5893542
vt 1.8121910 2.2952200
vt 1.8122090 2.2838230
vt 1.8373290 1.7641307
vt 1.8247510 1.5893542
vt 1.9525250 1.8043708
vt 1.6719050 1.3191680
vt 1.8247510 2.2952230
vt 1.8247510 2.2838260
vt 1.8247510 1.5043541
vt 1.8373290 1.5893542
vt 1.8122160 1.5043540
vt 1.9525240 1.7869607
vt 1.9525240 1.8216995
vt 1.9575690 1.7641073
vt 1.6819690 1.3134230
vt 1.6819320 1.2707834
vt 1.9918720 1.7641355
vt 1.9575690 1.8445529
vt 1.9918730 1.8445247
vt 1.9575610 1.5893542
vt 1.8022230 1.3133980
vt 1.8021870 1.2707834
vt 1.9918720 1.5893542
vt 1.9575610 2.0193060
vt 1.9918720 2.0193060
vt 1.9575580 1.5043541
vt 1.8373290 1.5043541
vt 1.8122090 1.3248374
vt 1.8121910 1.3134407
vt 1.9918720 1.5043541
vt 1.9575580 2.1043060
vt 1.9918720 2.1043060
vt 1.9575510 1.3133670
vt 1.8373290 1.3133913
vt 1.8247510 1.3248340
vt 1.8247510 1.3134376
vt 1.9918730 1.3133947
vt 1.8373290 2.1043060
vt 1.9575510 2.2952940
vt 1.8373290 2.2952690
vt 1.9918720 2.2952660
vt 1.9575150 1.2707834
vt 1.8373290 1.2707834
vt 1.9575150 2.3379950
vt 1.8373290 2.3379700
vt 0.6749089 0.9196334
vt 0.4961843 0.8914232
vt 0.4961844 0.9196334
vt 0.6749091 0.8914232
vt 0.6749089 0.9478439
vt 0.6749089 0.7023131
vt 0.4961840 0.7016052
vt 0.4961844 0.9478435
vt 0.6749091 0.9760539
vt 0.4961844 0.9760537
vt 0.6749089 1.1503578
vt 0.4961843 1.1503578
vt 0.4961845 1.1898855
vt 0.6749089 1.1898854
vt 0.4961843 1.2294134
vt 0.6749089 1.2294134
vt 0.4961843 1.4037173
vt 0.6749089 1.4037175
vt 0.4961844 1.4319274
vt 0.6749089 1.4319277
vt 0.6749089 1.4601381
vt 0.4961844 1.4601378
vt 0.6749089 1.4883482
vt 0.4961842 1.4883480
vt 0.6749091 1.6774584
vt 0.4961847 1.6774579
vt 0.8056511 1.2342050
vt 0.6853906 1.4061921
vt 0.8056440 1.4061921
vt 0.6853973 1.2341822
vt 0.8156291 1.4061919
vt 0.8156367 1.2313799
vt 0.8056523 1.1912568
vt 0.8156387 1.1912566
vt 0.6753333 1.4061921
vt 0.6853541 1.4310483
vt 0.8056079 1.4310725
vt 0.6753409 1.2313489
vt 0.6853993 1.1912569
vt 0.8281603 1.2313825
vt 0.8281603 1.1912569
vt 0.8056510 1.1482273
vt 0.6853973 1.1482502
vt 0.8156367 1.1510526
vt 0.6853526 1.4652815
vt 0.8056059 1.4653058
vt 0.8156258 1.4911921
vt 0.6753426 1.1912568
vt 0.6753410 1.1510836
vt 0.6853906 0.9762403
vt 0.6753331 0.9762404
vt 0.8281603 1.1510499
vt 0.8156291 0.9762403
vt 0.6853871 1.4911921
vt 0.8056411 1.4911921
vt 0.6753304 1.4911921
vt 0.8281602 1.4911921
vt 0.8281604 1.4061921
vt 0.6853541 0.9513842
vt 0.8056326 1.6821485
vt 0.6853790 1.6821237
vt 0.6753143 1.6763787
vt 0.8407391 1.4061919
vt 0.8407390 1.2314156
vt 0.8407390 1.2085608
vt 0.8056061 0.9171268
vt 0.6853526 0.9171506
vt 0.8056079 0.9513599
vt 0.6853426 1.7244947
vt 0.8055965 1.7245114
vt 0.8156191 1.6707088
vt 0.8407390 1.1738716
vt 0.8407390 1.1912569
vt 0.8056411 0.8912401
vt 0.6853871 0.8912402
vt 0.6753304 0.8912401
vt 0.8056440 0.9762403
vt 0.8407390 1.4911921
vt 0.8281604 1.6707121
vt 0.8407390 1.1510168
vt 0.8281603 0.9762403
vt 0.9559343 1.1912569
vt 0.6753143 0.7060541
vt 0.9609680 1.4911921
vt 0.9609712 1.4061921
vt 0.8281603 0.8912402
vt 0.8407390 0.9762403
vt 0.8156259 0.8912401
vt 0.9559333 1.1738468
vt 0.9559333 1.2085856
vt 0.9609791 1.1509935
vt 0.6853789 0.7003092
vt 0.6853424 0.6576695
vt 0.6853789 0.7003092
vt 0.9609791 1.2314390
vt 0.9952821 1.1510216
vt 0.9952823 1.2314109
vt 0.9609712 0.9762403
vt 0.8056327 0.7002842
vt 0.8055965 0.6576695
vt 0.9952822 1.4061921
vt 0.9952821 0.9762403
vt 0.9609680 0.8912402
vt 0.8407390 0.8912402
vt 0.8156191 0.7117236
vt 0.9952822 1.4911921
vt 0.9609606 1.6821796
vt 0.8407390 1.6821550
vt 0.9952821 0.8912402
vt 0.8407390 0.7002775
vt 0.8281603 0.7117201
vt 0.8281603 0.7003238
vt 0.8156005 0.7003269
vt 0.9952822 1.6821517
vt 0.9609244 1.7245334
vt 0.9609606 0.7002532
vt 0.9952823 0.7002808
vt 0.8407393 0.6576695
vt 0.6849173 0.4889171
vt 0.8051705 0.4883192
vt 0.8156011 0.6499373
vt 0.8407392 1.7245166
vt 0.8407395 1.8939600
vt 0.9604982 1.8939601
vt 0.9609244 0.6576695
vt 0.6748972 0.4889853
vt 0.6753056 0.6506345
vt 0.8151925 0.4882877
vt 0.8281607 0.4882129
vt 0.8281608 0.6498626
vt 0.8281607 1.8939601
vt 0.8281607 1.7316450
vt 0.8281603 1.6821088
vt 0.8407395 0.4881448
vt 0.9604983 0.4875470
vt 0.8156009 1.7315701
vt 0.8151925 1.8939600
vt 0.8156005 1.6821059
vt 0.8051705 1.8939600
vt 0.6849173 1.8939600
vt 0.6748971 1.8939600
vt 0.6753056 1.7308730
vt 0.6487898 -0.5340370
vt 0.5008334 -0.5340370
vt 0.6487899 -0.5090370
vt 0.6487896 -0.5494000
vt 0.5008334 -0.5494000
vt 0.5008334 -0.5090370
vt 0.6487899 -0.3340370
vt 0.6487898 -0.5647630
vt 0.5008335 -0.5647630
vt 0.5008334 -0.3340370
vt 0.6487896 -0.2490370
vt 0.6487898 -0.5897630
vt 0.5008335 -0.5897630
vt 0.5008335 -0.2490370
vt 0.5008335 -0.0590370
vt 0.6487898 -0.0590370
vt 0.6487898 -0.7647630
vt 0.5008334 -0.7647630
vt 0.5008335 -0.0390370
vt 0.6490079 -0.0390370
vt 0.6487895 -0.8497630
vt 0.5008334 -0.8497630
vt 0.5008333 -1.0397620
vt 0.6487896 -1.0397620
vt 0.6487898 -1.0597630
vt 0.5008333 -1.0597620
vn 0.0000000 0.0000000 -1.0000000
vn 0.0273700 0.6275555 -0.7780906
vn -0.3249746 0.0176191 -0.9455586
vn 0.0000000 0.0000000 -1.0000000
vn -0.0430391 -0.7238390 -0.6886253
vn 0.0000000 -0.6223056 -0.7827744
vn 0.3249746 0.0176191 -0.9455586
vn -0.0273700 0.6275555 -0.7780906
vn 0.0430391 -0.7238390 -0.6886253
vn 0.0000000 -0.8631393 -0.5049658
vn -0.0352246 -0.6262147 -0.7788545
vn -0.0078324 -0.1351091 -0.9907998
vn 0.0000000 -0.1427904 -0.9897529
vn 0.0078324 -0.1351091 -0.9907998
vn 0.0762980 -0.1193379 -0.9899177
vn 0.0646097 0.1350931 -0.9887242
vn 0.4107396 -0.7862728 -0.4615930
vn 0.0352246 -0.6262147 -0.7788545
vn -0.0665876 0.6443330 -0.7618406
vn -0.4107396 -0.7862728 -0.4615930
vn -0.0704366 -0.1369601 -0.9880691
vn -0.0723893 0.1213010 -0.9899727
vn -0.0078239 0.1427860 -0.9897227
vn 0.1213958 -0.9907466 -0.0606979
vn 0.0137058 -0.1351006 -0.9907371
vn -0.0136985 0.1389420 -0.9902058
vn -0.1115336 0.5615815 -0.8198698
vn -0.0646097 0.1350931 -0.9887242
vn -0.0762980 -0.1193379 -0.9899177
vn -0.1213958 -0.9907466 -0.0606979
vn -0.1976074 -0.0117391 -0.9802109
vn 0.1037528 -0.9925029 -0.0646008
vn 0.0254309 -0.1251983 -0.9918057
vn -0.0293680 0.1468402 -0.9887242
vn -0.0137058 -0.1351006 -0.9907371
vn 0.0665876 0.6443330 -0.7618406
vn 0.0136985 0.1389420 -0.9902058
vn -0.1037528 -0.9925029 -0.0646008
vn 0.1311085 -0.5713980 -0.8101327
vn 0.1975878 -0.9781571 -0.0645584
vn -0.0489754 -0.1508441 -0.9873436
vn -0.0743543 0.0802244 -0.9939997
vn -0.1486881 0.6475759 -0.7473535
vn -0.0254309 -0.1251983 -0.9918057
vn 0.1115336 0.5615815 -0.8198698
vn 0.0293680 0.1468402 -0.9887242
vn -0.1975878 -0.9781571 -0.0645584
vn 0.1331864 -0.6522219 -0.7462359
vn 0.1625633 -0.9851729 -0.0548406
vn -0.9797366 -0.1779562 -0.0919114
vn -0.9805037 0.1643959 -0.1076401
vn -0.7735690 0.6306057 -0.0626689
vn 0.0489754 -0.1508441 -0.9873436
vn 0.0743543 0.0802244 -0.9939997
vn 0.1486881 0.6475759 -0.7473535
vn -0.1625633 -0.9851729 -0.0548406
vn -0.5403658 -0.8379586 -0.0763560
vn -0.0625982 -0.1115031 -0.9917906
vn -0.9775456 -0.1876887 -0.0957995
vn 0.9797366 -0.1779562 -0.0919114
vn 0.9805037 0.1643959 -0.1076401
vn 0.7735690 0.6306057 -0.0626689
vn -0.1331864 -0.6522219 -0.7462359
vn 0.0449918 0.1486685 -0.9878631
vn 0.0783133 -0.1115964 -0.9906630
vn -0.0783469 0.1077270 -0.9910886
vn 0.2406768 -0.0117403 -0.9705343
vn -0.9816059 0.1603420 -0.1036357
vn 0.5403658 -0.8379586 -0.0763560
vn -0.1311085 -0.5713980 -0.8101327
vn 0.1603580 0.8506793 -0.5006297
vn -0.1488149 0.9868779 -0.0626589
vn -0.2680515 0.9606808 -0.0723935
vn -0.9816059 0.1603420 -0.1036357
vn -0.4386250 0.7832590 -0.4405831
vn 0.9775456 -0.1876887 -0.0957995
vn 0.1976074 -0.0117391 -0.9802109
vn 0.0704366 -0.1369601 -0.9880691
vn -0.1468427 0.9867833 -0.0685266
vn 0.0625982 -0.1115031 -0.9917906
vn 0.0783469 0.1077270 -0.9910886
vn 0.9816059 0.1603420 -0.1036357
vn -0.2406768 -0.0117403 -0.9705343
vn 0.4386250 0.7832590 -0.4405831
vn 0.0723893 0.1213010 -0.9899727
vn 0.0078239 0.1427860 -0.9897227
vn -0.0586909 0.9957887 -0.0704291
vn 0.0000000 0.1351133 -0.9908302
vn -0.0449918 0.1486685 -0.9878631
vn 0.2680515 0.9606808 -0.0723935
vn -0.1603580 0.8506793 -0.5006297
vn -0.0783133 -0.1115964 -0.9906630
vn 0.1468427 0.9867833 -0.0685266
vn 0.0586909 0.9957887 -0.0704291
vn 0.0000000 0.9973787 -0.0723588
vn 0.1488149 0.9868779 -0.0626589
vn -0.2231437 -0.9747856 0.0000000
vn -0.1859428 -0.9825606 0.0000000
vn -0.2231437 -0.9747856 0.0000000
vn -0.0998916 -0.9949983 0.0000000
vn -0.1859428 -0.9825606 0.0000000
vn -0.2231437 -0.9747856 0.0000000
vn 0.0000000 -1.0000000 0.0000000
vn -0.0998916 -0.9949983 0.0000000
vn -0.1859428 -0.9825606 0.0000000
vn 0.0998916 -0.9949983 0.0000000
vn 0.0000000 -1.0000000 0.0000000
vn -0.0998916 -0.9949983 0.0000000
vn 0.1859428 -0.9825606 0.0000000
vn 0.0998916 -0.9949983 0.0000000
vn 0.0000000 -1.0000000 0.0000000
vn 0.2231437 -0.9747856 0.0000000
vn 0.1859428 -0.9825606 0.0000000
vn 0.0998916 -0.9949983 0.0000000
vn 0.2231437 -0.9747856 0.0000000
vn 0.1859428 -0.9825606 0.0000000
vn 0.2231437 -0.9747856 0.0000000
vn -0.2231437 0.9747856 0.0000000
vn -0.1859428 0.9825606 0.0000000
vn -0.2231437 0.9747856 0.0000000
vn -0.0998916 0.9949983 0.0000000
vn -0.1859428 0.9825606 0.0000000
vn -0.2231437 0.9747856 0.0000000
vn 0.0000000 1.0000000 0.0000000
vn -0.0998916 0.9949983 0.0000000
vn -0.1859428 0.9825606 0.0000000
vn 0.0998916 0.9949983 0.0000000
vn 0.0000000 1.0000000 0.0000000
vn -0.0998916 0.9949983 0.0000000
vn 0.1859428 0.9825606 0.0000000
vn 0.0998916 0.9949983 0.0000000
vn 0.0000000 1.0000000 0.0000000
vn 0.2231437 0.9747856 0.0000000
vn 0.1859428 0.9825606 0.0000000
vn 0.0998916 0.9949983 0.0000000
vn 0.2231437 0.9747856 0.0000000
vn 0.1859428 0.9825606 0.0000000
vn 0.2231437 0.9747856 0.0000000
vn -1.0000000 0.0000000 0.0000000
vn -1.0000000 0.0000000 0.0000000
vn -1.0000000 0.0000000 0.0000000
vn -1.0000000 0.0000000 0.0000000
vn -1.0000000 0.0000000 0.0000000
vn -1.0000000 0.0000000 0.0000000
vn -1.0000000 0.0000000 0.0000000
vn -1.0000000 0.0000000 0.0000000
vn -1.0000000 0.0000000 0.0000000
vn -1.0000000 0.0000000 0.0000000
vn -0.2231437 -0.9747856 0.0000000
vn -0.1859428 -0.9825606 0.0000000
vn -0.2231437 -0.9747856 0.0000000
vn -0.0998916 -0.9949983 0.0000000
vn -0.1859428 -0.9825606 0.0000000
vn -0.2231437 -0.9747856 0.0000000
vn 0.0000000 -1.0000000 0.0000000
vn -0.0998916 -0.9949983 0.0000000
vn -0.1859428 -0.9825606 0.0000000
vn 0.0998916 -0.9949983 0.0000000
vn 0.0000000 -1.0000000 0.0000000
vn -0.0998916 -0.9949983 0.0000000
vn 0.1859428 -0.9825606 0.0000000
vn 0.0998916 -0.9949983 0.0000000
vn 0.0000000 -1.0000000 0.0000000
vn 0.2231437 -0.9747856 0.0000000
vn 0.1859428 -0.9825606 0.0000000
vn 0.0998916 -0.9949983 0.0000000
vn 0.2231437 -0.9747856 0.0000000
vn 0.1859428 -0.9825606 0.0000000
vn 0.2231437 -0.9747856 0.0000000
vn 1.0000000 0.0000000 0.0000000
vn 1.0000000 0.0000000 0.0000000
vn 1.0000000 0.0000000 0.0000000
vn 1.0000000 0.0000000 0.0000000
vn 1.0000000 0.0000000 0.0000000
vn 1.0000000 0.0000000 0.0000000
vn 1.0000000 0.0000000 0.0000000
vn 1.0000000 0.0000000 0.0000000
vn 1.0000000 0.0000000 0.0000000
vn 1.0000000 0.0000000 0.0000000
vn 0.2231437 0.9747856 0.0000000
vn 0.1859428 0.9825606 0.0000000
vn 0.2231437 0.9747856 0.0000000
vn 0.0998916 0.9949983 0.0000000
vn 0.1859428 0.9825606 0.0000000
vn 0.2231437 0.9747856 0.0000000
vn 0.0000000 1.0000000 0.0000000
vn 0.0998916 0.9949983 0.0000000
vn 0.1859428 0.9825606 0.0000000
vn -0.0998916 0.9949983 0.0000000
vn 0.0000000 1.0000000 0.0000000
vn 0.0998916 0.9949983 0.0000000
vn -0.1859428 0.9825606 0.0000000
vn -0.0998916 0.9949983 0.0000000
vn 0.0000000 1.0000000 0.0000000
vn -0.2231437 0.9747856 0.0000000
vn -0.1859428 0.9825606 0.0000000
vn -0.0998916 0.9949983 0.0000000
vn -0.2231437 0.9747856 0.0000000
vn -0.1859428 0.9825606 0.0000000
vn -0.2231437 0.9747856 0.0000000
vn 0.0000000 0.0000000 1.0000000
vn 0.0000000 0.0000000 1.0000000
vn 0.0000000 0.0000000 1.0000000
vn 0.0000000 0.0000000 1.0000000
vn 0.0000000 0.0000000 1.0000000
vn 0.0000000 0.0000000 1.0000000
vn 0.0000000 0.0000000 1.0000000
vn 0.0000000 0.0000000 1.0000000
vn 0.0000000 0.0000000 1.0000000
vn 0.0000000 0.0000000 1.0000000
vn 0.0000000 0.0000000 1.0000000
vn 0.0000000 0.0000000 1.0000000
vn 0.0000000 0.0000000 1.0000000
vn 0.0000000 0.0000000 1.0000000
vn -0.1603580 0.8506793 -0.5006297
vn -0.1603580 0.8506793 0.5006297
vn 0.1488149 0.9868779 0.0626589
vn 0.1488149 0.9868779 -0.0626589
vn 0.4386250 0.7832590 -0.4405831
vn 0.4386250 0.7832590 0.4405831
vn 0.2680515 0.9606808 -0.0723935
vn 0.2680515 0.9606808 0.0723935
vn 0.1468427 0.9867833 -0.0685266
vn 0.1468427 0.9867833 0.0685266
vn 0.0586909 0.9957887 -0.0704291
vn 0.0586909 0.9957887 0.0704291
vn 0.0000000 0.9973787 -0.0723588
vn 0.0000000 0.9973787 0.0723588
vn -0.0586909 0.9957887 -0.0704291
vn -0.0586909 0.9957887 0.0704291
vn -0.1468427 0.9867833 0.0685266
vn -0.1468427 0.9867833 -0.0685266
vn -0.4386250 0.7832590 0.4405831
vn -0.4386250 0.7832590 -0.4405831
vn 0.1603580 0.8506793 -0.5006297
vn 0.1603580 0.8506793 0.5006297
vn -0.1488149 0.9868779 -0.0626589
vn -0.1488149 0.9868779 0.0626589
vn -0.2680515 0.9606808 -0.0723935
vn -0.2680515 0.9606808 0.0723935
vn 0.0078324 -0.1351091 -0.9907998
vn -0.0704366 -0.1369601 -0.9880691
vn -0.0724064 0.1193727 -0.9902058
vn -0.0078239 0.1427860 -0.9897227
vn 0.0352246 -0.6262147 -0.7788545
vn 0.0430419 -0.7219297 -0.6906265
vn 0.0000000 -0.1427904 -0.9897529
vn 0.0000000 -0.6211044 -0.7837279
vn -0.1957262 -0.0117436 -0.9805883
vn -0.1468427 0.9867833 -0.0685266
vn -0.4386250 0.7832590 -0.4405831
vn -0.0586909 0.9957887 -0.0704291
vn 0.0000000 0.1351133 -0.9908302
vn -0.0274036 0.6263682 -0.7790455
vn 0.0000000 0.0000000 -1.0000000
vn 0.0078239 0.1427860 -0.9897227
vn -0.0078324 -0.1351091 -0.9907998
vn -0.0430419 -0.7219297 -0.6906265
vn 0.1312551 -0.5700778 -0.8110385
vn 0.2406768 -0.0117403 -0.9705343
vn 0.1603580 0.8506793 -0.5006297
vn 0.0000000 0.9973787 -0.0723588
vn 0.0586909 0.9957887 -0.0704291
vn 0.1468427 0.9867833 -0.0685266
vn 0.0724064 0.1193727 -0.9902058
vn 0.0704366 -0.1369601 -0.9880691
vn -0.0352246 -0.6262147 -0.7788545
vn 0.0274036 0.6263682 -0.7790455
vn 0.0783133 -0.1115964 -0.9906630
vn 0.0449918 0.1486685 -0.9878631
vn -0.1488149 0.9868779 -0.0626589
vn 0.4386250 0.7832590 -0.4405831
vn 0.1957262 -0.0117436 -0.9805883
vn -0.1312551 -0.5700778 -0.8110385
vn 0.1116562 0.5602397 -0.8207706
vn 0.0664883 0.6433726 -0.7626605
vn -0.3232220 0.0176303 -0.9461589
vn -0.0646097 0.1350931 -0.9887242
vn -0.0625982 -0.1115031 -0.9917906
vn -0.2680515 0.9606808 -0.0723935
vn -0.0783469 0.1077270 -0.9910886
vn -0.1603580 0.8506793 -0.5006297
vn -0.2406768 -0.0117403 -0.9705343
vn 0.0137022 0.1370220 -0.9904732
vn -0.0762980 -0.1193379 -0.9899177
vn -0.0137058 -0.1351006 -0.9907371
vn -0.9775456 -0.1876887 -0.0957995
vn 0.1329920 -0.6512695 -0.7471019
vn -0.1116562 0.5602397 -0.8207706
vn -0.9816059 0.1603420 -0.1036357
vn -0.0449918 0.1486685 -0.9878631
vn -0.0783133 -0.1115964 -0.9906630
vn 0.1488149 0.9868779 -0.0626589
vn -0.1486881 0.6475759 -0.7473535
vn -0.7735690 0.6306057 -0.0626689
vn -0.5403658 -0.8379586 -0.0763560
vn -0.0664883 0.6433726 -0.7626605
vn -0.9816059 0.1603420 0.1036357
vn -0.2680515 0.9606808 0.0723935
vn -0.2680515 0.9606808 -0.0723935
vn 0.0625982 -0.1115031 -0.9917906
vn 0.2680515 0.9606808 -0.0723935
vn -0.1329920 -0.6512695 -0.7471019
vn -0.0743543 0.0802244 -0.9939997
vn -0.9805037 0.1643959 -0.1076401
vn 0.3232220 0.0176303 -0.9461589
vn 0.0646097 0.1350931 -0.9887242
vn -0.9775456 -0.1876887 0.0957995
vn 0.9816059 0.1603420 -0.1036357
vn 0.0783469 0.1077270 -0.9910886
vn 0.0783469 0.1077270 -0.9910886
vn 0.0000000 0.0000000 -1.0000000
vn -0.5403658 -0.8379586 -0.0763560
vn -0.5403658 -0.8379586 0.0763560
vn 0.9816059 0.1603420 0.1036357
vn 0.9775456 -0.1876887 -0.0957995
vn 0.2680515 0.9606808 0.0723935
vn 0.2680515 0.9606808 -0.0723935
vn -0.4107396 -0.7862728 -0.4615930
vn 0.0000000 -0.8631393 -0.5049658
vn -0.7735690 0.6306057 0.0626689
vn -0.7735690 0.6306057 -0.0626689
vn 0.9775456 -0.1876887 0.0957995
vn 0.5403658 -0.8379586 -0.0763560
vn 0.5403658 -0.8379586 -0.0763560
vn -0.1213958 -0.9907466 -0.0606979
vn 0.4107396 -0.7862728 -0.4615930
vn 0.0762980 -0.1193379 -0.9899177
vn -0.9805037 0.1643959 0.1076401
vn 0.5403658 -0.8379586 0.0763560
vn 0.7735690 0.6306057 -0.0626689
vn 0.1486881 0.6475759 -0.7473535
vn 0.7735690 0.6306057 0.0626689
vn 0.7735690 0.6306057 -0.0626689
vn -0.1037528 -0.9925029 -0.0646008
vn 0.1213958 -0.9907466 -0.0606979
vn 0.0137058 -0.1351006 -0.9907371
vn -0.0137022 0.1370220 -0.9904732
vn -0.9797366 -0.1779562 -0.0919114
vn -0.9797366 -0.1779562 0.0919114
vn 0.0743543 0.0802244 -0.9939997
vn 0.9805037 0.1643959 -0.1076401
vn 0.0293680 0.1468402 -0.9887242
vn 0.9805037 0.1643959 0.1076401
vn 0.1037528 -0.9925029 -0.0646008
vn 0.0254309 -0.1251983 -0.9918057
vn 0.9797366 -0.1779562 -0.0919114
vn -0.0254309 -0.1251983 -0.9918057
vn 0.0488808 -0.1505529 -0.9873928
vn 0.9797366 -0.1779562 0.0919114
vn 0.1975878 -0.9781571 -0.0645584
vn -0.0293680 0.1468402 -0.9887242
vn -0.0488808 -0.1505529 -0.9873928
vn -0.1625633 -0.9851729 -0.0548406
vn -0.1975878 -0.9781571 -0.0645584
vn 0.1625633 -0.9851729 -0.0548406
vn 0.4107396 -0.7862728 0.4615930
vn 0.1213958 -0.9907466 0.0606979
vn 0.4107396 -0.7862728 -0.4615930
vn 0.0000000 -0.8631393 -0.5049658
vn 0.0000000 -0.8631393 0.5049658
vn 0.1213958 -0.9907466 -0.0606979
vn 0.1037528 -0.9925029 0.0646008
vn -0.4107396 -0.7862728 0.4615930
vn -0.4107396 -0.7862728 -0.4615930
vn 0.1037528 -0.9925029 -0.0646008
vn 0.1975878 -0.9781571 0.0645584
vn -0.1213958 -0.9907466 0.0606979
vn -0.1213958 -0.9907466 -0.0606979
vn 0.1975878 -0.9781571 -0.0645584
vn 0.1625633 -0.9851729 -0.0548406
vn 0.1625633 -0.9851729 0.0548406
vn -0.1037528 -0.9925029 0.0646008
vn -0.1037528 -0.9925029 -0.0646008
vn -0.9797366 -0.1779562 0.0919114
vn -0.9797366 -0.1779562 -0.0919114
vn -0.1975878 -0.9781571 0.0645584
vn -0.1975878 -0.9781571 -0.0645584
vn -0.1625633 -0.9851729 -0.0548406
vn -0.1625633 -0.9851729 0.0548406
vn 0.9797366 -0.1779562 -0.0919114
vn 0.9797366 -0.1779562 0.0919114
vn 0.0078324 -0.1351091 0.9907998
vn -0.0723893 0.1213010 0.9899727
vn -0.0704366 -0.1369601 0.9880691
vn -0.0078239 0.1427860 0.9897227
vn 0.0352246 -0.6262147 0.7788545
vn 0.0430391 -0.7238390 0.6886253
vn 0.0000000 -0.1427904 0.9897529
vn 0.0000000 -0.6223056 0.7827744
vn -0.1468427 0.9867833 0.0685266
vn -0.4386250 0.7832590 0.4405831
vn -0.1976074 -0.0117391 0.9802109
vn -0.0586909 0.9957887 0.0704291
vn 0.0000000 0.1351133 0.9908302
vn -0.0273700 0.6275555 0.7780906
vn 0.0000000 0.0000000 1.0000000
vn -0.0078324 -0.1351091 0.9907998
vn 0.0078239 0.1427860 0.9897227
vn -0.0430391 -0.7238390 0.6886253
vn 0.1603580 0.8506793 0.5006297
vn 0.2406768 -0.0117403 0.9705343
vn 0.1311085 -0.5713980 0.8101327
vn 0.0000000 0.9973787 0.0723588
vn 0.0586909 0.9957887 0.0704291
vn 0.0723893 0.1213010 0.9899727
vn 0.1468427 0.9867833 0.0685266
vn 0.0273700 0.6275555 0.7780906
vn -0.0352246 -0.6262147 0.7788545
vn 0.0449918 0.1486685 0.9878631
vn 0.0783133 -0.1115964 0.9906630
vn -0.1488149 0.9868779 0.0626589
vn -0.1115336 0.5615815 0.8198698
vn -0.0665876 0.6443330 0.7618406
vn 0.4386250 0.7832590 0.4405831
vn -0.0625982 -0.1115031 0.9917906
vn -0.0783469 0.1077270 0.9910886
vn -0.2680515 0.9606808 0.0723935
vn -0.0136985 0.1389420 0.9902058
vn 0.0646097 0.1350931 0.9887242
vn 0.3249746 0.0176191 0.9455586
vn -0.2406768 -0.0117403 0.9705343
vn -0.1603580 0.8506793 0.5006297
vn 0.1976074 -0.0117391 0.9802109
vn -0.9816059 0.1603420 0.1036357
vn -0.9816059 0.1603420 0.1036357
vn -0.9775456 -0.1876887 0.0957995
vn -0.3249746 0.0176191 0.9455586
vn 0.0000000 0.0000000 1.0000000
vn -0.0783133 -0.1115964 0.9906630
vn -0.0449918 0.1486685 0.9878631
vn 0.1488149 0.9868779 0.0626589
vn 0.0704366 -0.1369601 0.9880691
vn -0.5403658 -0.8379586 0.0763560
vn 0.1331864 -0.6522219 0.7462359
vn -0.0646097 0.1350931 0.9887242
vn 0.0665876 0.6443330 0.7618406
vn 0.0000000 -0.8631393 0.5049658
vn 0.2680515 0.9606808 0.0723935
vn -0.7735690 0.6306057 0.0626689
vn -0.1486881 0.6475759 0.7473535
vn 0.1115336 0.5615815 0.8198698
vn 0.0136985 0.1389420 0.9902058
vn -0.1311085 -0.5713980 0.8101327
vn -0.4107396 -0.7862728 0.4615930
vn 0.4107396 -0.7862728 0.4615930
vn -0.0762980 -0.1193379 0.9899177
vn 0.0783469 0.1077270 0.9910886
vn 0.9816059 0.1603420 0.1036357
vn -0.1213958 -0.9907466 0.0606979
vn 0.0762980 -0.1193379 0.9899177
vn 0.1213958 -0.9907466 0.0606979
vn -0.0137058 -0.1351006 0.9907371
vn 0.0625982 -0.1115031 0.9917906
vn 0.9775456 -0.1876887 0.0957995
vn -0.1037528 -0.9925029 0.0646008
vn 0.0137058 -0.1351006 0.9907371
vn 0.1037528 -0.9925029 0.0646008
vn -0.0254309 -0.1251983 0.9918057
vn 0.0293680 0.1468402 0.9887242
vn -0.1331864 -0.6522219 0.7462359
vn 0.5403658 -0.8379586 0.0763560
vn -0.1975878 -0.9781571 0.0645584
vn 0.0254309 -0.1251983 0.9918057
vn 0.1975878 -0.9781571 0.0645584
vn 0.0489754 -0.1508441 0.9873436
vn 0.0743543 0.0802244 0.9939997
vn 0.1486881 0.6475759 0.7473535
vn 0.7735690 0.6306057 0.0626689
vn -0.1625633 -0.9851729 0.0548406
vn -0.0293680 0.1468402 0.9887242
vn -0.0489754 -0.1508441 0.9873436
vn -0.0743543 0.0802244 0.9939997
vn 0.1625633 -0.9851729 0.0548406
vn 0.9797366 -0.1779562 0.0919114
vn 0.9805037 0.1643959 0.1076401
vn -0.9797366 -0.1779562 0.0919114
vn -0.9805037 0.1643959 0.1076401
vn -0.1603580 0.8506793 0.5006297
vn 0.1488149 0.9868779 -0.0626589
vn -0.1603580 0.8506793 -0.5006297
vn 0.1488149 0.9868779 0.0626589
vn 0.4386250 0.7832590 0.4405831
vn 0.2680515 0.9606808 0.0723935
vn 0.2680515 0.9606808 -0.0723935
vn 0.4386250 0.7832590 -0.4405831
vn 0.1468427 0.9867833 0.0685266
vn 0.1468427 0.9867833 -0.0685266
vn 0.0586909 0.9957887 0.0704291
vn 0.0586909 0.9957887 -0.0704291
vn 0.0000000 0.9973787 -0.0723588
vn 0.0000000 0.9973787 0.0723588
vn -0.0586909 0.9957887 -0.0704291
vn -0.0586909 0.9957887 0.0704291
vn -0.1468427 0.9867833 -0.0685266
vn -0.1468427 0.9867833 0.0685266
vn -0.4386250 0.7832590 -0.4405831
vn -0.4386250 0.7832590 0.4405831
vn 0.1603580 0.8506793 0.5006297
vn 0.1603580 0.8506793 -0.5006297
vn -0.1488149 0.9868779 0.0626589
vn -0.1488149 0.9868779 -0.0626589
vn -0.2680515 0.9606808 0.0723935
vn -0.2680515 0.9606808 -0.0723935
vn 0.0078324 -0.1351091 0.9907998
vn -0.0724064 0.1193727 0.9902058
vn -0.0704366 -0.1369601 0.9880691
vn -0.0078239 0.1427860 0.9897227
vn 0.0352246 -0.6262147 0.7788545
vn 0.0430419 -0.7219297 0.6906265
vn 0.0000000 -0.1427904 0.9897529
vn 0.0000000 -0.6211044 0.7837279
vn -0.1468427 0.9867833 0.0685266
vn -0.4386250 0.7832590 0.4405831
vn -0.1957262 -0.0117436 0.9805883
vn -0.0586909 0.9957887 0.0704291
vn 0.0000000 0.1351133 0.9908302
vn -0.0274036 0.6263682 0.7790455
vn 0.0000000 0.0000000 1.0000000
vn -0.0078324 -0.1351091 0.9907998
vn 0.0078239 0.1427860 0.9897227
vn -0.0430419 -0.7219297 0.6906265
vn 0.1603580 0.8506793 0.5006297
vn 0.2406768 -0.0117403 0.9705343
vn 0.1312551 -0.5700778 0.8110385
vn 0.0000000 0.9973787 0.0723588
vn 0.0586909 0.9957887 0.0704291
vn 0.0724064 0.1193727 0.9902058
vn 0.1468427 0.9867833 0.0685266
vn 0.0274036 0.6263682 0.7790455
vn -0.0352246 -0.6262147 0.7788545
vn 0.0449918 0.1486685 0.9878631
vn 0.0783133 -0.1115964 0.9906630
vn -0.1488149 0.9868779 0.0626589
vn -0.1116562 0.5602397 0.8207706
vn -0.0664883 0.6433726 0.7626605
vn 0.4386250 0.7832590 0.4405831
vn -0.0625982 -0.1115031 0.9917906
vn -0.0783469 0.1077270 0.9910886
vn -0.2680515 0.9606808 0.0723935
vn -0.0137022 0.1370220 0.9904732
vn 0.0646097 0.1350931 0.9887242
vn 0.3232220 0.0176303 0.9461589
vn -0.2406768 -0.0117403 0.9705343
vn -0.1603580 0.8506793 0.5006297
vn 0.1957262 -0.0117436 0.9805883
vn -0.9816059 0.1603420 0.1036357
vn -0.9775456 -0.1876887 0.0957995
vn 0.1329920 -0.6512695 0.7471019
vn -0.3232220 0.0176303 0.9461589
vn 0.0000000 0.0000000 1.0000000
vn -0.0783133 -0.1115964 0.9906630
vn -0.0449918 0.1486685 0.9878631
vn 0.1488149 0.9868779 0.0626589
vn 0.0704366 -0.1369601 0.9880691
vn -0.0293680 0.1468402 0.9887242
vn -0.1486881 0.6475759 0.7473535
vn -0.0646097 0.1350931 0.9887242
vn 0.0664883 0.6433726 0.7626605
vn 0.0000000 -0.8631393 0.5049658
vn 0.2680515 0.9606808 0.0723935
vn 0.0254309 -0.1251983 0.9918057
vn 0.0137058 -0.1351006 0.9907371
vn 0.1116562 0.5602397 0.8207706
vn 0.0137022 0.1370220 0.9904732
vn -0.1312551 -0.5700778 0.8110385
vn -0.4107396 -0.7862728 0.4615930
vn 0.4107396 -0.7862728 0.4615930
vn -0.0762980 -0.1193379 0.9899177
vn 0.0783469 0.1077270 0.9910886
vn 0.9816059 0.1603420 0.1036357
vn 0.0783469 0.1077270 0.9910886
vn 0.0762980 -0.1193379 0.9899177
vn -0.1213958 -0.9907466 0.0606979
vn 0.1213958 -0.9907466 0.0606979
vn -0.0137058 -0.1351006 0.9907371
vn 0.0625982 -0.1115031 0.9917906
vn 0.9775456 -0.1876887 0.0957995
vn 0.1037528 -0.9925029 0.0646008
vn -0.1037528 -0.9925029 0.0646008
vn -0.0254309 -0.1251983 0.9918057
vn 0.0293680 0.1468402 0.9887242
vn -0.1329920 -0.6512695 0.7471019
vn 0.1975878 -0.9781571 0.0645584
vn -0.0488808 -0.1505529 0.9873928
vn -0.0743543 0.0802244 0.9939997
vn -0.1975878 -0.9781571 0.0645584
vn 0.0743543 0.0802244 0.9939997
vn 0.1486881 0.6475759 0.7473535
vn 0.7735690 0.6306057 0.0626689
vn 0.5403658 -0.8379586 0.0763560
vn 0.1625633 -0.9851729 0.0548406
vn -0.9797366 -0.1779562 0.0919114
vn 0.0488808 -0.1505529 0.9873928
vn -0.1625633 -0.9851729 0.0548406
vn 0.9805037 0.1643959 0.1076401
vn 0.9816059 0.1603420 -0.1036357
vn 0.9775456 -0.1876887 -0.0957995
vn 0.5403658 -0.8379586 0.0763560
vn -0.9805037 0.1643959 0.1076401
vn -0.9805037 0.1643959 -0.1076401
vn -0.9797366 -0.1779562 -0.0919114
vn 0.9797366 -0.1779562 0.0919114
vn 0.2680515 0.9606808 -0.0723935
vn 0.2680515 0.9606808 0.0723935
vn 0.5403658 -0.8379586 -0.0763560
vn 0.7735690 0.6306057 -0.0626689
vn 0.7735690 0.6306057 0.0626689
vn -0.7735690 0.6306057 -0.0626689
vn -0.7735690 0.6306057 0.0626689
vn -0.7735690 0.6306057 0.0626689
vn 0.9805037 0.1643959 -0.1076401
vn 0.9797366 -0.1779562 -0.0919114
vn -0.5403658 -0.8379586 0.0763560
vn -0.5403658 -0.8379586 -0.0763560
vn -0.5403658 -0.8379586 0.0763560
vn -0.9775456 -0.1876887 -0.0957995
vn -0.9816059 0.1603420 -0.1036357
vn -0.2680515 0.9606808 -0.0723935
vn -0.2680515 0.9606808 0.0723935
vn 0.4107396 -0.7862728 -0.4615930
vn 0.4107396 -0.7862728 0.4615930
vn 0.1213958 -0.9907466 -0.0606979
vn 0.0000000 -0.8631393 -0.5049658
vn 0.0000000 -0.8631393 0.5049658
vn 0.1213958 -0.9907466 0.0606979
vn 0.1037528 -0.9925029 -0.0646008
vn -0.4107396 -0.7862728 -0.4615930
vn -0.4107396 -0.7862728 0.4615930
vn 0.1037528 -0.9925029 0.0646008
vn 0.1975878 -0.9781571 -0.0645584
vn -0.1213958 -0.9907466 -0.0606979
vn -0.1213958 -0.9907466 0.0606979
vn 0.1975878 -0.9781571 0.0645584
vn 0.1625633 -0.9851729 0.0548406
vn 0.1625633 -0.9851729 -0.0548406
vn -0.1037528 -0.9925029 -0.0646008
vn -0.1037528 -0.9925029 0.0646008
vn -0.9797366 -0.1779562 0.0919114
vn -0.9797366 -0.1779562 -0.0919114
vn -0.1975878 -0.9781571 -0.0645584
vn -0.1975878 -0.9781571 0.0645584
vn -0.1625633 -0.9851729 0.0548406
vn -0.1625633 -0.9851729 -0.0548406
vn 0.9797366 -0.1779562 -0.0919114
vn 0.9797366 -0.1779562 0.0919114
f 1/1/1 2/2/2 3/3/3
f 1/1/1 3/3/3 4/4/4
f 1/1/1 5/5/5 2/2/2
f 1/1/1 6/6/6 5/5/5
f 1/1/1 7/7/7 8/8/8
f 1/1/1 4/4/4 7/7/7
f 1/1/1 8/8/8 9/9/9
f 1/1/1 9/9/9 6/6/6
f 4/4/4 3/3/3 10/10/10
f 4/4/4 10/10/10 7/7/7
f 5/5/5 11/11/11 2/2/2
f 5/5/5 12/12/12 11/11/11
f 5/5/5 6/6/6 12/12/12
f 6/6/6 13/13/13 12/12/12
f 6/6/6 9/9/9 14/14/14
f 6/6/6 14/14/14 13/13/13
f 7/7/7 15/15/15 16/16/16
f 7/7/7 17/17/17 15/15/15
f 7/7/7 16/16/16 8/8/8
f 7/7/7 10/10/10 17/17/17
f 8/8/8 18/18/18 9/9/9
f 8/8/8 19/19/19 18/18/18
f 8/8/8 16/16/16 19/19/19
f 9/9/9 18/18/18 14/14/14
f 10/10/10 3/3/3 20/20/20
f 14/14/14 21/21/21 22/22/22
f 14/14/14 22/22/22 23/23/23
f 14/14/14 18/18/18 21/21/21
f 14/14/14 23/23/23 13/13/13
f 15/15/15 17/17/17 24/24/24
f 15/15/15 25/25/25 16/16/16
f 15/15/15 24/24/24 25/25/25
f 16/16/16 26/26/26 19/19/19
f 16/16/16 25/25/25 26/26/26
f 19/19/19 27/27/27 18/18/18
f 19/19/19 26/26/26 27/27/27
f 3/3/3 28/28/28 29/29/29
f 3/3/3 29/29/29 20/20/20
f 3/3/3 2/2/2 28/28/28
f 20/20/20 29/29/29 30/30/30
f 21/21/21 31/31/31 22/22/22
f 21/21/21 18/18/18 31/31/31
f 24/24/24 32/32/32 25/25/25
f 25/25/25 33/33/33 26/26/26
f 25/25/25 32/32/32 33/33/33
f 26/26/26 33/33/33 34/34/34
f 26/26/26 34/34/34 27/27/27
f 29/29/29 28/28/28 35/35/35
f 29/29/29 35/35/35 30/30/30
f 28/28/28 2/2/2 36/36/36
f 28/28/28 36/36/36 37/37/37
f 28/28/28 37/37/37 35/35/35
f 2/2/2 11/11/11 36/36/36
f 30/30/30 35/35/35 38/38/38
f 18/18/18 39/39/39 31/31/31
f 18/18/18 27/27/27 39/39/39
f 32/32/32 40/40/40 33/33/33
f 33/33/33 40/40/40 41/41/41
f 33/33/33 42/42/42 34/34/34
f 33/33/33 41/41/41 42/42/42
f 34/34/34 43/43/43 27/27/27
f 34/34/34 42/42/42 43/43/43
f 35/35/35 37/37/37 44/44/44
f 35/35/35 44/44/44 38/38/38
f 36/36/36 11/11/11 45/45/45
f 36/36/36 45/45/45 37/37/37
f 37/37/37 46/46/46 44/44/44
f 37/37/37 45/45/45 46/46/46
f 38/38/38 44/44/44 47/47/47
f 27/27/27 43/43/43 48/48/48
f 27/27/27 48/48/48 39/39/39
f 40/40/40 49/49/49 41/41/41
f 41/41/41 50/50/50 42/42/42
f 41/41/41 49/49/49 50/50/50
f 42/42/42 50/50/50 51/51/51
f 42/42/42 52/52/52 43/43/43
f 42/42/42 51/51/51 52/52/52
f 43/43/43 52/52/52 48/48/48
f 44/44/44 53/53/53 47/47/47
f 44/44/44 46/46/46 54/54/54
f 44/44/44 54/54/54 53/53/53
f 46/46/46 45/45/45 55/55/55
f 46/46/46 55/55/55 54/54/54
f 47/47/47 53/53/53 56/56/56
f 52/52/52 57/57/57 48/48/48
f 48/48/48 58/58/58 39/39/39
f 48/48/48 57/57/57 59/59/59
f 48/48/48 59/59/59 58/58/58
f 53/53/53 54/54/54 60/60/60
f 53/53/53 60/60/60 56/56/56
f 54/54/54 61/61/61 60/60/60
f 54/54/54 55/55/55 62/62/62
f 54/54/54 62/62/62 61/61/61
f 55/55/55 63/63/63 62/62/62
f 55/55/55 45/45/45 63/63/63
f 58/58/58 64/64/64 65/65/65
f 58/58/58 66/66/66 64/64/64
f 58/58/58 59/59/59 66/66/66
f 58/58/58 65/65/65 39/39/39
f 39/39/39 67/67/67 31/31/31
f 39/39/39 65/65/65 67/67/67
f 59/59/59 68/68/68 66/66/66
f 62/62/62 63/63/63 69/69/69
f 45/45/45 11/11/11 70/70/70
f 45/45/45 70/70/70 63/63/63
f 65/65/65 64/64/64 71/71/71
f 65/65/65 71/71/71 67/67/67
f 64/64/64 72/72/72 71/71/71
f 64/64/64 73/73/73 72/72/72
f 64/64/64 66/66/66 73/73/73
f 66/66/66 74/74/74 73/73/73
f 67/67/67 71/71/71 75/75/75
f 67/67/67 75/75/75 31/31/31
f 31/31/31 75/75/75 22/22/22
f 69/69/69 63/63/63 76/76/76
f 11/11/11 77/77/77 70/70/70
f 11/11/11 78/78/78 77/77/77
f 11/11/11 12/12/12 78/78/78
f 75/75/75 79/79/79 22/22/22
f 22/22/22 79/79/79 23/23/23
f 63/63/63 70/70/70 80/80/80
f 63/63/63 80/80/80 76/76/76
f 76/76/76 81/81/81 82/82/82
f 76/76/76 80/80/80 81/81/81
f 77/77/77 83/83/83 70/70/70
f 77/77/77 84/84/84 83/83/83
f 77/77/77 85/85/85 84/84/84
f 77/77/77 78/78/78 85/85/85
f 78/78/78 12/12/12 85/85/85
f 12/12/12 86/86/86 85/85/85
f 12/12/12 13/13/13 86/86/86
f 79/79/79 87/87/87 23/23/23
f 23/23/23 88/88/88 13/13/13
f 23/23/23 87/87/87 88/88/88
f 81/81/81 80/80/80 89/89/89
f 81/81/81 90/90/90 82/82/82
f 81/81/81 89/89/89 90/90/90
f 83/83/83 84/84/84 91/91/91
f 83/83/83 91/91/91 92/92/92
f 83/83/83 92/92/92 70/70/70
f 70/70/70 92/92/92 80/80/80
f 84/84/84 85/85/85 93/93/93
f 85/85/85 86/86/86 93/93/93
f 86/86/86 94/94/94 93/93/93
f 86/86/86 13/13/13 88/88/88
f 86/86/86 88/88/88 94/94/94
f 87/87/87 95/95/95 88/88/88
f 88/88/88 95/95/95 94/94/94
f 89/89/89 80/80/80 92/92/92
f 89/89/89 92/92/92 91/91/91
f 89/89/89 91/91/91 96/96/96
f 89/89/89 96/96/96 90/90/90
f 97/97/97 98/98/98 99/99/99
f 98/98/98 100/100/100 101/101/101
f 98/98/98 101/101/101 99/99/99
f 99/99/99 101/101/101 102/102/102
f 100/100/100 103/103/103 104/104/104
f 100/100/100 104/104/104 101/101/101
f 101/101/101 104/104/104 105/105/105
f 101/101/101 105/105/105 102/102/102
f 103/103/103 106/106/106 107/107/107
f 103/103/103 107/107/107 104/104/104
f 104/104/104 107/107/107 108/108/108
f 104/104/104 108/108/108 105/105/105
f 106/106/106 109/109/109 110/110/110
f 106/106/106 110/110/110 107/107/107
f 107/107/107 110/110/110 111/111/111
f 107/107/107 111/111/111 108/108/108
f 109/109/109 112/112/112 113/113/113
f 109/109/109 113/113/113 110/110/110
f 110/110/110 113/113/113 114/114/114
f 110/110/110 114/114/114 111/111/111
f 112/112/112 115/115/115 113/113/113
f 113/113/113 115/115/115 116/116/116
f 113/113/113 116/116/116 114/114/114
f 115/115/115 117/117/117 116/116/116
f 118/118/118 119/119/119 120/120/120
f 119/119/119 121/121/121 122/122/122
f 119/119/119 122/122/122 120/120/120
f 120/120/120 122/122/122 123/123/123
f 121/121/121 124/124/124 125/125/125
f 121/121/121 125/125/125 122/122/122
f 122/122/122 126/126/126 123/123/123
f 122/122/122 125/125/125 126/126/126
f 124/124/124 127/127/127 128/128/128
f 124/124/124 128/128/128 125/125/125
f 125/125/125 129/129/129 126/126/126
f 125/125/125 128/128/128 129/129/129
f 127/127/127 130/130/130 131/131/131
f 127/127/127 131/131/131 128/128/128
f 128/128/128 132/132/132 129/129/129
f 128/128/128 131/131/131 132/132/132
f 130/130/130 133/133/133 134/134/134
f 130/130/130 134/134/134 131/131/131
f 131/131/131 135/135/135 132/132/132
f 131/131/131 134/134/134 135/135/135
f 133/133/133 136/136/136 134/134/134
f 134/134/134 137/137/137 135/135/135
f 134/134/134 136/136/136 137/137/137
f 136/136/136 138/138/138 137/137/137
f 139/139/139 140/140/140 141/141/141
f 140/140/140 142/142/142 141/141/141
f 141/141/141 142/142/142 143/143/143
f 142/142/142 144/144/144 143/143/143
f 143/143/143 144/144/144 145/145/145
f 144/144/144 146/146/146 145/145/145
f 145/145/145 147/147/147 148/148/148
f 145/145/145 146/146/146 147/147/147
f 149/149/149 150/150/150 151/151/151
f 150/150/150 152/152/152 153/153/153
f 150/150/150 153/153/153 151/151/151
f 151/151/151 153/153/153 154/154/154
f 152/152/152 155/155/155 156/156/156
f 152/152/152 156/156/156 153/153/153
f 153/153/153 156/156/156 157/157/157
f 153/153/153 157/157/157 154/154/154
f 155/155/155 158/158/158 159/159/159
f 155/155/155 159/159/159 156/156/156
f 156/156/156 159/159/159 160/160/160
f 156/156/156 160/160/160 157/157/157
f 158/158/158 161/161/161 162/162/162
f 158/158/158 162/162/162 159/159/159
f 159/159/159 162/162/162 163/163/163
f 159/159/159 163/163/163 160/160/160
f 161/161/161 164/164/164 165/165/165
f 161/161/161 165/165/165 162/162/162
f 162/162/162 165/165/165 166/166/166
f 162/162/162 166/166/166 163/163/163
f 164/164/164 167/167/167 165/165/165
f 165/165/165 167/167/167 168/168/168
f 165/165/165 168/168/168 166/166/166
f 167/167/167 169/169/169 168/168/168
f 170/170/170 171/171/171 172/172/172
f 170/170/170 173/173/173 171/171/171
f 170/170/170 174/174/174 173/173/173
f 171/171/171 175/175/175 172/172/172
f 172/172/172 176/176/176 177/177/177
f 172/172/172 175/175/175 176/176/176
f 173/173/173 174/174/174 178/178/178
f 174/174/174 179/179/179 178/178/178
f 180/180/180 181/181/181 182/182/182
f 181/181/181 183/183/183 184/184/184
f 181/181/181 184/184/184 182/182/182
f 182/182/182 184/184/184 185/185/185
f 183/183/183 186/186/186 187/187/187
f 183/183/183 187/187/187 184/184/184
f 184/184/184 187/187/187 188/188/188
f 184/184/184 188/188/188 185/185/185
f 186/186/186 189/189/189 190/190/190
f 186/186/186 190/190/190 187/187/187
f 187/187/187 190/190/190 191/191/191
f 187/187/187 191/191/191 188/188/188
f 189/189/189 192/192/192 193/193/193
f 189/189/189 193/193/193 190/190/190
f 190/190/190 193/193/193 194/194/194
f 190/190/190 194/194/194 191/191/191
f 192/192/192 195/195/195 196/196/196
f 192/192/192 196/196/196 193/193/193
f 193/193/193 196/196/196 197/197/197
f 193/193/193 197/197/197 194/194/194
f 195/195/195 198/198/198 196/196/196
f 196/196/196 198/198/198 199/199/199
f 196/196/196 199/199/199 197/197/197
f 198/198/198 200/200/200 199/199/199
f 201/201/201 202/202/202 203/203/203
f 202/202/202 204/204/204 205/205/205
f 202/202/202 205/205/205 203/203/203
f 204/204/204 206/206/206 207/207/207
f 204/204/204 207/207/207 205/205/205
f 206/206/206 208/208/208 209/209/209
f 206/206/206 209/209/209 207/207/207
f 208/208/208 210/210/210 211/211/211
f 208/208/208 211/211/211 209/209/209
f 210/210/210 212/212/212 213/213/213
f 210/210/210 213/213/213 211/211/211
f 212/212/212 214/214/214 213/213/213
f 215/215/215 216/216/216 217/217/217
f 215/215/215 217/217/217 218/218/218
f 215/215/215 219/219/219 216/216/216
f 216/216/216 219/219/219 220/220/220
f 217/217/217 221/221/221 218/218/218
f 217/217/217 222/222/222 221/221/221
f 219/219/219 223/223/223 220/220/220
f 220/220/220 223/223/223 224/224/224
f 223/223/223 225/225/225 224/224/224
f 224/224/224 225/225/225 226/226/226
f 225/225/225 227/227/227 228/228/228
f 225/225/225 228/228/228 226/226/226
f 227/227/227 229/229/229 230/230/230
f 227/227/227 230/230/230 228/228/228
f 229/229/229 231/231/231 230/230/230
f 229/229/229 232/232/232 231/231/231
f 231/231/231 232/232/232 233/233/233
f 232/232/232 234/234/234 233/233/233
f 233/233/233 234/234/234 235/235/235
f 233/233/233 235/235/235 236/236/236
f 235/235/235 237/237/237 236/236/236
f 236/236/236 237/237/237 238/238/238
f 237/237/237 239/239/239 238/238/238
f 238/238/238 239/239/239 240/240/240
f 241/241/241 242/242/242 243/243/243
f 241/241/241 243/243/243 244/244/244
f 241/241/241 245/245/245 242/242/242
f 241/241/241 246/246/246 245/245/245
f 241/241/241 244/244/244 247/247/247
f 241/241/241 248/248/248 246/246/246
f 241/241/241 247/247/247 248/248/248
f 242/242/242 249/249/249 243/243/243
f 242/242/242 245/245/245 249/249/249
f 243/243/243 250/250/250 244/244/244
f 243/243/243 249/249/249 251/251/251
f 243/243/243 251/251/251 250/250/250
f 244/244/244 250/250/250 252/252/252
f 244/244/244 253/253/253 247/247/247
f 244/244/244 252/252/252 253/253/253
f 246/246/246 254/254/254 245/245/245
f 246/246/246 255/255/255 254/254/254
f 246/246/246 248/248/248 255/255/255
f 247/247/247 256/256/256 257/257/257
f 247/247/247 253/253/253 256/256/256
f 247/247/247 257/257/257 248/248/248
f 248/248/248 257/257/257 258/258/258
f 248/248/248 258/258/258 255/255/255
f 249/249/249 259/259/259 260/260/260
f 249/249/249 245/245/245 259/259/259
f 249/249/249 260/260/260 251/251/251
f 251/251/251 260/260/260 261/261/261
f 252/252/252 262/262/262 253/253/253
f 253/253/253 262/262/262 263/263/263
f 253/253/253 263/263/263 256/256/256
f 256/256/256 264/264/264 265/265/265
f 256/256/256 263/263/263 264/264/264
f 256/256/256 265/265/265 257/257/257
f 257/257/257 265/265/265 266/266/266
f 257/257/257 266/266/266 267/267/267
f 257/257/257 267/267/267 258/258/258
f 258/258/258 267/267/267 268/268/268
f 258/258/258 268/268/268 255/255/255
f 260/260/260 269/269/269 261/261/261
f 260/260/260 259/259/259 269/269/269
f 261/261/261 269/269/269 270/270/270
f 261/261/261 270/270/270 271/271/271
f 264/264/264 272/272/272 265/265/265
f 265/265/265 272/272/272 273/273/273
f 265/265/265 273/273/273 266/266/266
f 266/266/266 273/273/273 267/267/267
f 267/267/267 273/273/273 274/274/274
f 267/267/267 275/275/275 276/276/276
f 267/267/267 274/274/274 275/275/275
f 267/267/267 276/276/276 268/268/268
f 268/268/268 277/277/277 255/255/255
f 268/268/268 278/278/278 277/277/277
f 268/268/268 276/276/276 278/278/278
f 269/269/269 279/279/279 270/270/270
f 269/269/269 259/259/259 279/279/279
f 271/271/271 270/270/270 280/280/280
f 270/270/270 279/279/279 281/281/281
f 270/270/270 281/281/281 280/280/280
f 272/272/272 282/282/282 283/283/283
f 272/272/272 283/283/283 273/273/273
f 273/273/273 283/283/283 274/274/274
f 276/276/276 275/275/275 284/284/284
f 276/276/276 284/284/284 278/278/278
f 278/278/278 285/285/285 277/277/277
f 278/278/278 286/286/286 285/285/285
f 278/278/278 284/284/284 286/286/286
f 279/279/279 287/287/287 281/281/281
f 279/279/279 259/259/259 288/288/288
f 279/279/279 288/288/288 287/287/287
f 259/259/259 245/245/245 289/289/289
f 259/259/259 289/289/289 288/288/288
f 280/280/280 281/281/281 290/290/290
f 281/281/281 287/287/287 290/290/290
f 282/282/282 291/291/291 292/292/292
f 282/282/282 292/292/292 283/283/283
f 282/282/282 293/293/293 291/291/291
f 283/283/283 292/292/292 274/274/274
f 288/288/288 294/294/294 295/295/295
f 288/288/288 295/295/295 296/296/296
f 288/288/288 296/296/296 287/287/287
f 288/288/288 289/289/289 294/294/294
f 245/245/245 297/297/297 289/289/289
f 245/245/245 254/254/254 297/297/297
f 290/290/290 287/287/287 298/298/298
f 290/290/290 298/298/298 299/299/299
f 290/290/290 299/299/299 300/300/300
f 292/292/292 291/291/291 301/301/301
f 292/292/292 301/301/301 274/274/274
f 293/293/293 302/302/302 291/291/291
f 274/274/274 301/301/301 303/303/303
f 274/274/274 303/303/303 275/275/275
f 295/295/295 294/294/294 304/304/304
f 295/295/295 304/304/304 305/305/305
f 254/254/254 255/255/255 306/306/306
f 254/254/254 306/306/306 307/307/307
f 254/254/254 307/307/307 297/297/297
f 298/298/298 287/287/287 308/308/308
f 302/302/302 309/309/309 310/310/310
f 302/302/302 311/311/311 291/291/291
f 255/255/255 277/277/277 312/312/312
f 255/255/255 312/312/312 306/306/306
f 287/287/287 313/313/313 308/308/308
f 308/308/308 313/313/313 314/314/314
f 309/309/309 315/315/315 316/316/316
f 309/309/309 317/317/317 315/315/315
f 309/309/309 318/318/318 317/317/317
f 309/309/309 316/316/316 311/311/311
f 311/311/311 301/301/301 291/291/291
f 311/311/311 316/316/316 301/301/301
f 277/277/277 285/285/285 319/319/319
f 277/277/277 320/320/320 312/312/312
f 277/277/277 319/319/319 320/320/320
f 312/312/312 320/320/320 306/306/306
f 313/313/313 321/321/321 314/314/314
f 313/313/313 322/322/322 321/321/321
f 315/315/315 323/323/323 316/316/316
f 301/301/301 316/316/316 303/303/303
f 316/316/316 324/324/324 303/303/303
f 316/316/316 323/323/323 325/325/325
f 285/285/285 326/326/326 319/319/319
f 285/285/285 286/286/286 326/326/326
f 320/320/320 327/327/327 306/306/306
f 306/306/306 328/328/328 307/307/307
f 306/306/306 327/327/327 328/328/328
f 321/321/321 305/305/305 329/329/329
f 321/321/321 322/322/322 305/305/305
f 323/323/323 330/330/330 325/325/325
f 324/324/324 331/331/331 303/303/303
f 303/303/303 331/331/331 332/332/332
f 303/303/303 332/332/332 275/275/275
f 325/325/325 330/330/330 333/333/333
f 325/325/325 333/333/333 334/334/334
f 326/326/326 286/286/286 335/335/335
f 327/327/327 336/336/336 328/328/328
f 328/328/328 337/337/337 307/307/307
f 328/328/328 336/336/336 337/337/337
f 307/307/307 338/338/338 297/297/297
f 307/307/307 337/337/337 338/338/338
f 329/329/329 305/305/305 339/339/339
f 329/329/329 339/339/339 340/340/340
f 331/331/331 341/341/341 332/332/332
f 331/331/331 342/342/342 341/341/341
f 275/275/275 343/343/343 284/284/284
f 275/275/275 332/332/332 343/343/343
f 334/334/334 333/333/333 342/342/342
f 333/333/333 344/344/344 342/342/342
f 336/336/336 345/345/345 337/337/337
f 337/337/337 346/346/346 338/338/338
f 337/337/337 345/345/345 346/346/346
f 297/297/297 338/338/338 289/289/289
f 342/342/342 344/344/344 347/347/347
f 342/342/342 347/347/347 341/341/341
f 343/343/343 348/348/348 284/284/284
f 343/343/343 341/341/341 348/348/348
f 343/343/343 332/332/332 341/341/341
f 341/341/341 347/347/347 349/349/349
f 341/341/341 349/349/349 348/348/348
f 284/284/284 348/348/348 286/286/286
f 344/344/344 350/350/350 347/347/347
f 345/345/345 351/351/351 346/346/346
f 346/346/346 352/352/352 338/338/338
f 346/346/346 351/351/351 353/353/353
f 346/346/346 304/304/304 352/352/352
f 346/346/346 353/353/353 304/304/304
f 289/289/289 338/338/338 352/352/352
f 289/289/289 352/352/352 294/294/294
f 347/347/347 354/354/354 349/349/349
f 349/349/349 355/355/355 348/348/348
f 349/349/349 354/354/354 355/355/355
f 348/348/348 335/335/335 286/286/286
f 348/348/348 355/355/355 335/335/335
f 351/351/351 356/356/356 353/353/353
f 352/352/352 304/304/304 294/294/294
f 353/353/353 339/339/339 304/304/304
f 353/353/353 356/356/356 339/339/339
f 304/304/304 339/339/339 305/305/305
f 357/357/357 358/358/358 359/359/359
f 357/357/357 360/360/360 361/361/361
f 357/357/357 359/359/359 360/360/360
f 358/358/358 362/362/362 359/359/359
f 358/358/358 363/363/363 362/362/362
f 360/360/360 364/364/364 361/361/361
f 360/360/360 365/365/365 364/364/364
f 362/362/362 363/363/363 366/366/366
f 363/363/363 367/367/367 366/366/366
f 364/364/364 365/365/365 368/368/368
f 365/365/365 369/369/369 368/368/368
f 366/366/366 367/367/367 370/370/370
f 367/367/367 371/371/371 370/370/370
f 367/367/367 372/372/372 371/371/371
f 368/368/368 369/369/369 373/373/373
f 369/369/369 374/374/374 373/373/373
f 371/371/371 375/375/375 376/376/376
f 371/371/371 372/372/372 375/375/375
f 373/373/373 374/374/374 377/377/377
f 374/374/374 378/378/378 377/377/377
f 377/377/377 378/378/378 379/379/379
f 377/377/377 379/379/379 380/380/380
f 379/379/379 381/381/381 382/382/382
f 379/379/379 382/382/382 380/380/380
f 383/383/383 384/384/384 385/385/385
f 383/383/383 386/386/386 384/384/384
f 383/383/383 385/385/385 387/387/387
f 383/383/383 387/387/387 388/388/388
f 383/383/383 389/389/389 386/386/386
f 383/383/383 388/388/388 390/390/390
f 383/383/383 390/390/390 389/389/389
f 384/384/384 386/386/386 391/391/391
f 384/384/384 392/392/392 393/393/393
f 384/384/384 393/393/393 385/385/385
f 384/384/384 391/391/391 392/392/392
f 385/385/385 393/393/393 387/387/387
f 386/386/386 394/394/394 391/391/391
f 386/386/386 389/389/389 395/395/395
f 386/386/386 395/395/395 394/394/394
f 388/388/388 387/387/387 396/396/396
f 388/388/388 396/396/396 397/397/397
f 388/388/388 397/397/397 390/390/390
f 389/389/389 398/398/398 399/399/399
f 389/389/389 399/399/399 395/395/395
f 389/389/389 390/390/390 398/398/398
f 390/390/390 400/400/400 398/398/398
f 390/390/390 397/397/397 400/400/400
f 392/392/392 401/401/401 402/402/402
f 392/392/392 402/402/402 393/393/393
f 393/393/393 402/402/402 403/403/403
f 393/393/393 403/403/403 387/387/387
f 394/394/394 395/395/395 404/404/404
f 395/395/395 405/405/405 404/404/404
f 395/395/395 399/399/399 405/405/405
f 399/399/399 406/406/406 407/407/407
f 399/399/399 407/407/407 405/405/405
f 399/399/399 398/398/398 406/406/406
f 400/400/400 408/408/408 409/409/409
f 400/400/400 409/409/409 398/398/398
f 400/400/400 397/397/397 408/408/408
f 401/401/401 410/410/410 411/411/411
f 401/401/401 411/411/411 402/402/402
f 401/401/401 412/412/412 410/410/410
f 402/402/402 411/411/411 403/403/403
f 387/387/387 413/413/413 414/414/414
f 387/387/387 403/403/403 413/413/413
f 387/387/387 414/414/414 396/396/396
f 407/407/407 406/406/406 415/415/415
f 410/410/410 416/416/416 411/411/411
f 410/410/410 417/417/417 416/416/416
f 410/410/410 412/412/412 418/418/418
f 410/410/410 418/418/418 417/417/417
f 411/411/411 416/416/416 403/403/403
f 414/414/414 413/413/413 419/419/419
f 414/414/414 420/420/420 396/396/396
f 414/414/414 419/419/419 420/420/420
f 396/396/396 421/421/421 397/397/397
f 396/396/396 420/420/420 421/421/421
f 415/415/415 422/422/422 423/423/423
f 415/415/415 424/424/424 422/422/422
f 415/415/415 406/406/406 424/424/424
f 418/418/418 425/425/425 417/417/417
f 417/417/417 426/426/426 427/427/427
f 417/417/417 427/427/427 416/416/416
f 397/397/397 428/428/428 408/408/408
f 397/397/397 429/429/429 428/428/428
f 397/397/397 421/421/421 429/429/429
f 423/423/423 430/430/430 431/431/431
f 423/423/423 422/422/422 430/430/430
f 423/423/423 431/431/431 432/432/432
f 406/406/406 433/433/433 424/424/424
f 406/406/406 398/398/398 433/433/433
f 427/427/427 434/434/434 435/435/435
f 427/427/427 435/435/435 416/416/416
f 416/416/416 435/435/435 403/403/403
f 408/408/408 428/428/428 436/436/436
f 408/408/408 437/437/437 409/409/409
f 408/408/408 436/436/436 437/437/437
f 429/429/429 438/438/438 428/428/428
f 429/429/429 421/421/421 438/438/438
f 432/432/432 431/431/431 439/439/439
f 433/433/433 409/409/409 424/424/424
f 433/433/433 398/398/398 409/409/409
f 434/434/434 440/440/440 435/435/435
f 403/403/403 435/435/435 413/413/413
f 435/435/435 440/440/440 441/441/441
f 435/435/435 441/441/441 413/413/413
f 437/437/437 442/442/442 409/409/409
f 437/437/437 443/443/443 442/442/442
f 437/437/437 436/436/436 443/443/443
f 409/409/409 444/444/444 424/424/424
f 409/409/409 442/442/442 444/444/444
f 438/438/438 445/445/445 428/428/428
f 438/438/438 421/421/421 446/446/446
f 428/428/428 447/447/447 436/436/436
f 428/428/428 445/445/445 447/447/447
f 439/439/439 448/448/448 449/449/449
f 439/439/439 431/431/431 448/448/448
f 424/424/424 444/444/444 422/422/422
f 445/445/445 450/450/450 447/447/447
f 446/446/446 421/421/421 451/451/451
f 446/446/446 451/451/451 452/452/452
f 447/447/447 453/453/453 436/436/436
f 447/447/447 450/450/450 453/453/453
f 436/436/436 453/453/453 443/443/443
f 448/448/448 431/431/431 454/454/454
f 448/448/448 455/455/455 449/449/449
f 448/448/448 454/454/454 455/455/455
f 431/431/431 430/430/430 454/454/454
f 422/422/422 444/444/444 430/430/430
f 450/450/450 456/456/456 453/453/453
f 421/421/421 420/420/420 451/451/451
f 451/451/451 420/420/420 457/457/457
f 451/451/451 457/457/457 452/452/452
f 452/452/452 457/457/457 458/458/458
f 453/453/453 459/459/459 443/443/443
f 453/453/453 456/456/456 459/459/459
f 443/443/443 459/459/459 460/460/460
f 443/443/443 460/460/460 442/442/442
f 455/455/455 461/461/461 462/462/462
f 455/455/455 454/454/454 461/461/461
f 430/430/430 444/444/444 454/454/454
f 454/454/454 444/444/444 461/461/461
f 444/444/444 442/442/442 461/461/461
f 456/456/456 463/463/463 459/459/459
f 420/420/420 419/419/419 457/457/457
f 457/457/457 419/419/419 464/464/464
f 457/457/457 464/464/464 458/458/458
f 458/458/458 464/464/464 465/465/465
f 459/459/459 463/463/463 466/466/466
f 459/459/459 467/467/467 460/460/460
f 459/459/459 466/466/466 467/467/467
f 460/460/460 468/468/468 442/442/442
f 460/460/460 467/467/467 468/468/468
f 442/442/442 468/468/468 461/461/461
f 461/461/461 468/468/468 469/469/469
f 461/461/461 469/469/469 462/462/462
f 463/463/463 470/470/470 466/466/466
f 419/419/419 471/471/471 464/464/464
f 419/419/419 413/413/413 471/471/471
f 464/464/464 472/472/472 465/465/465
f 464/464/464 471/471/471 473/473/473
f 464/464/464 473/473/473 472/472/472
f 465/465/465 472/472/472 474/474/474
f 466/466/466 475/475/475 467/467/467
f 466/466/466 470/470/470 475/475/475
f 467/467/467 475/475/475 476/476/476
f 467/467/467 469/469/469 468/468/468
f 467/467/467 476/476/476 469/469/469
f 471/471/471 413/413/413 441/441/441
f 471/471/471 441/441/441 473/473/473
f 472/472/472 473/473/473 477/477/477
f 472/472/472 477/477/477 474/474/474
f 473/473/473 478/478/478 477/477/477
f 473/473/473 441/441/441 440/440/440
f 473/473/473 440/440/440 478/478/478
f 479/479/479 480/480/480 481/481/481
f 479/479/479 482/482/482 480/480/480
f 479/479/479 481/481/481 483/483/483
f 480/480/480 482/482/482 484/484/484
f 480/480/480 484/484/484 485/485/485
f 481/481/481 486/486/486 483/483/483
f 483/483/483 486/486/486 487/487/487
f 486/486/486 488/488/488 487/487/487
f 487/487/487 488/488/488 489/489/489
f 488/488/488 490/490/490 489/489/489
f 489/489/489 491/491/491 492/492/492
f 489/489/489 490/490/490 491/491/491
f 491/491/491 493/493/493 492/492/492
f 492/492/492 493/493/493 494/494/494
f 493/493/493 495/495/495 494/494/494
f 494/494/494 495/495/495 496/496/496
f 495/495/495 497/497/497 496/496/496
f 496/496/496 497/497/497 498/498/498
f 497/497/497 499/499/499 498/498/498
f 497/497/497 500/500/500 499/499/499
f 499/499/499 500/500/500 501/501/501
f 500/500/500 502/502/502 501/501/501
f 501/501/501 502/502/502 503/503/503
f 502/502/502 504/504/504 503/503/503
f 505/505/505 506/506/506 507/507/507
f 505/505/505 508/508/508 506/506/506
f 505/505/505 507/507/507 509/509/509
f 505/505/505 509/509/509 510/510/510
f 505/505/505 511/511/511 508/508/508
f 505/505/505 510/510/510 512/512/512
f 505/505/505 512/512/512 511/511/511
f 506/506/506 508/508/508 513/513/513
f 506/506/506 514/514/514 515/515/515
f 506/506/506 515/515/515 507/507/507
f 506/506/506 513/513/513 514/514/514
f 507/507/507 515/515/515 509/509/509
f 508/508/508 516/516/516 513/513/513
f 508/508/508 511/511/511 517/517/517
f 508/508/508 517/517/517 516/516/516
f 510/510/510 509/509/509 518/518/518
f 510/510/510 518/518/518 519/519/519
f 510/510/510 519/519/519 512/512/512
f 511/511/511 520/520/520 521/521/521
f 511/511/511 521/521/521 517/517/517
f 511/511/511 512/512/512 520/520/520
f 512/512/512 522/522/522 520/520/520
f 512/512/512 519/519/519 522/522/522
f 514/514/514 523/523/523 524/524/524
f 514/514/514 524/524/524 515/515/515
f 515/515/515 524/524/524 525/525/525
f 515/515/515 525/525/525 509/509/509
f 516/516/516 517/517/517 526/526/526
f 517/517/517 527/527/527 526/526/526
f 517/517/517 521/521/521 527/527/527
f 521/521/521 528/528/528 529/529/529
f 521/521/521 529/529/529 527/527/527
f 521/521/521 520/520/520 528/528/528
f 522/522/522 530/530/530 531/531/531
f 522/522/522 531/531/531 520/520/520
f 522/522/522 519/519/519 530/530/530
f 523/523/523 532/532/532 533/533/533
f 523/523/523 533/533/533 524/524/524
f 523/523/523 534/534/534 532/532/532
f 524/524/524 533/533/533 525/525/525
f 509/509/509 535/535/535 536/536/536
f 509/509/509 525/525/525 535/535/535
f 509/509/509 536/536/536 518/518/518
f 529/529/529 528/528/528 537/537/537
f 532/532/532 538/538/538 533/533/533
f 532/532/532 539/539/539 538/538/538
f 532/532/532 534/534/534 540/540/540
f 532/532/532 540/540/540 539/539/539
f 533/533/533 538/538/538 525/525/525
f 536/536/536 535/535/535 541/541/541
f 536/536/536 542/542/542 518/518/518
f 536/536/536 541/541/541 542/542/542
f 518/518/518 543/543/543 519/519/519
f 518/518/518 542/542/542 543/543/543
f 537/537/537 544/544/544 545/545/545
f 537/537/537 546/546/546 544/544/544
f 537/537/537 528/528/528 546/546/546
f 540/540/540 547/547/547 539/539/539
f 539/539/539 547/547/547 548/548/548
f 539/539/539 548/548/548 538/538/538
f 525/525/525 538/538/538 549/549/549
f 525/525/525 549/549/549 535/535/535
f 519/519/519 550/550/550 530/530/530
f 519/519/519 551/551/551 550/550/550
f 519/519/519 543/543/543 551/551/551
f 545/545/545 552/552/552 553/553/553
f 545/545/545 544/544/544 552/552/552
f 545/545/545 553/553/553 554/554/554
f 528/528/528 555/555/555 546/546/546
f 528/528/528 520/520/520 555/555/555
f 535/535/535 556/556/556 541/541/541
f 535/535/535 557/557/557 556/556/556
f 535/535/535 549/549/549 557/557/557
f 530/530/530 550/550/550 558/558/558
f 530/530/530 559/559/559 531/531/531
f 530/530/530 558/558/558 559/559/559
f 551/551/551 560/560/560 550/550/550
f 551/551/551 543/543/543 560/560/560
f 554/554/554 553/553/553 561/561/561
f 555/555/555 531/531/531 546/546/546
f 555/555/555 520/520/520 531/531/531
f 541/541/541 562/562/562 563/563/563
f 541/541/541 556/556/556 562/562/562
f 541/541/541 563/563/563 542/542/542
f 559/559/559 564/564/564 531/531/531
f 559/559/559 565/565/565 564/564/564
f 559/559/559 558/558/558 565/565/565
f 531/531/531 566/566/566 546/546/546
f 531/531/531 564/564/564 566/566/566
f 560/560/560 567/567/567 550/550/550
f 560/560/560 543/543/543 568/568/568
f 550/550/550 569/569/569 558/558/558
f 550/550/550 567/567/567 569/569/569
f 561/561/561 570/570/570 571/571/571
f 561/561/561 553/553/553 572/572/572
f 542/542/542 573/573/573 543/543/543
f 542/542/542 563/563/563 573/573/573
f 567/567/567 574/574/574 569/569/569
f 568/568/568 543/543/543 573/573/573
f 568/568/568 573/573/573 575/575/575
f 569/569/569 576/576/576 558/558/558
f 569/569/569 574/574/574 576/576/576
f 558/558/558 576/576/576 565/565/565
f 553/553/553 552/552/552 577/577/577
f 553/553/553 577/577/577 572/572/572
f 572/572/572 578/578/578 571/571/571
f 572/572/572 577/577/577 578/578/578
f 573/573/573 563/563/563 575/575/575
f 563/563/563 562/562/562 579/579/579
f 563/563/563 579/579/579 575/575/575
f 574/574/574 580/580/580 576/576/576
f 576/576/576 581/581/581 565/565/565
f 576/576/576 580/580/580 581/581/581
f 565/565/565 581/581/581 582/582/582
f 565/565/565 582/582/582 564/564/564
f 552/552/552 544/544/544 566/566/566
f 552/552/552 566/566/566 577/577/577
f 577/577/577 566/566/566 583/583/583
f 577/577/577 583/583/583 578/578/578
f 579/579/579 562/562/562 584/584/584
f 562/562/562 585/585/585 584/584/584
f 562/562/562 556/556/556 586/586/586
f 562/562/562 586/586/586 585/585/585
f 580/580/580 587/587/587 581/581/581
f 582/582/582 581/581/581 588/588/588
f 582/582/582 589/589/589 564/564/564
f 582/582/582 588/588/588 589/589/589
f 564/564/564 589/589/589 583/583/583
f 564/564/564 583/583/583 566/566/566
f 544/544/544 546/546/546 566/566/566
f 583/583/583 589/589/589 590/590/590
f 583/583/583 590/590/590 591/591/591
f 583/583/583 591/591/591 578/578/578
f 584/584/584 585/585/585 592/592/592
f 585/585/585 586/586/586 593/593/593
f 585/585/585 593/593/593 592/592/592
f 556/556/556 557/557/557 586/586/586
f 587/587/587 594/594/594 581/581/581
f 587/587/587 595/595/595 594/594/594
f 589/589/589 588/588/588 590/590/590
f 590/590/590 588/588/588 596/596/596
f 578/578/578 597/597/597 571/571/571
f 578/578/578 598/598/598 597/597/597
f 578/578/578 599/599/599 598/598/598
f 593/593/593 600/600/600 601/601/601
f 593/593/593 601/601/601 602/602/602
f 593/593/593 586/586/586 600/600/600
f 581/581/581 594/594/594 588/588/588
f 595/595/595 603/603/603 594/594/594
f 594/594/594 603/603/603 588/588/588
f 597/597/597 604/604/604 571/571/571
f 571/571/571 604/604/604 605/605/605
f 598/598/598 599/599/599 606/606/606
f 599/599/599 607/607/607 606/606/606
f 599/599/599 608/608/608 607/607/607
f 601/601/601 600/600/600 609/609/609
f 600/600/600 610/610/610 609/609/609
f 600/600/600 586/586/586 611/611/611
f 586/586/586 557/557/557 611/611/611
f 588/588/588 603/603/603 596/596/596
f 603/603/603 612/612/612 596/596/596
f 603/603/603 613/613/613 612/612/612
f 607/607/607 596/596/596 612/612/612
f 607/607/607 608/608/608 596/596/596
f 609/609/609 614/614/614 615/615/615
f 609/609/609 610/610/610 614/614/614
f 611/611/611 557/557/557 549/549/549
f 611/611/611 549/549/549 616/616/616
f 614/614/614 548/548/548 617/617/617
f 614/614/614 617/617/617 615/615/615
f 549/549/549 548/548/548 616/616/616
f 549/549/549 538/538/538 548/548/548
f 548/548/548 547/547/547 618/618/618
f 548/548/548 618/618/618 617/617/617
f 547/547/547 619/619/619 618/618/618
f 547/547/547 620/620/620 619/619/619
f 621/621/621 622/622/622 623/623/623
f 621/621/621 624/624/624 625/625/625
f 621/621/621 625/625/625 622/622/622
f 622/622/622 626/626/626 623/623/623
f 623/623/623 626/626/626 627/627/627
f 624/624/624 628/628/628 625/625/625
f 625/625/625 628/628/628 629/629/629
f 626/626/626 630/630/630 627/627/627
f 627/627/627 630/630/630 631/631/631
f 628/628/628 632/632/632 629/629/629
f 629/629/629 632/632/632 633/633/633
f 630/630/630 634/634/634 631/631/631
f 631/631/631 634/634/634 635/635/635
f 631/631/631 635/635/635 636/636/636
f 632/632/632 637/637/637 633/633/633
f 633/633/633 637/637/637 638/638/638
f 635/635/635 639/639/639 640/640/640
f 635/635/635 640/640/640 636/636/636
f 637/637/637 641/641/641 638/638/638
f 638/638/638 641/641/641 642/642/642
f 641/641/641 643/643/643 642/642/642
f 641/641/641 644/644/644 643/643/643
f 643/643/643 645/645/645 646/646/646
f 643/643/643 644/644/644 645/645/645
