{
  "accessors": [
    {
      "bufferView": 2,
      "componentType": 5126,
      "count": 3023,
      "max": [
        6.055044174194336,
        3.0978379249572754,
        1.5467947721481323
      ],
      "min": [
        -6.055044174194336,
        -0.05629497766494751,
        -1.5467946529388428
      ],
      "type": "VEC3"
    },
    {
      "bufferView": 2,
      "byteOffset": 36276,
      "componentType": 5126,
      "count": 3023,
      "max": [
        0.9998115301132202,
        0.9996888637542725,
        0.9999517798423767
      ],
      "min": [
        -0.9999421238899231,
        -0.9997173547744751,
        -0.9999882578849792
      ],
      "type": "VEC3"
    },
    {
      "bufferView": 1,
      "componentType": 5126,
      "count": 3023,
      "max": [
        0.9893522262573242,
        0.9930419921875
      ],
      "min": [
        0.009267402812838554,
        0.010257840156555176
      ],
      "type": "VEC2"
    },
    {
      "bufferView": 1,
      "byteOffset": 24184,
      "componentType": 5126,
      "count": 3023,
      "max": [
        0.9893522262573242,
        0.9930419921875
      ],
      "min": [
        0.009267402812838554,
        0.010257840156555176
      ],
      "type": "VEC2"
    },
    {
      "bufferView": 1,
      "byteOffset": 48368,
      "componentType": 5126,
      "count": 3023,
      "max": [
        0.9893522262573242,
        0.9930419921875
      ],
      "min": [
        0.009267402812838554,
        0.010257840156555176
      ],
      "type": "VEC2"
    },
    {
      "bufferView": 0,
      "componentType": 5125,
      "count": 17103,
      "type": "SCALAR"
    }
  ],
  "asset": {
    "extras": {
      "author": "JhonnMere (https://sketchfab.com/JhonnMere)",
      "license": "CC-BY-4.0 (http://creativecommons.org/licenses/by/4.0/)",
      "source": "https://sketchfab.com/3d-models/choclo-dc1557cbc05541979dff6355d61c11d8",
      "title": "Choclo"
    },
    "generator": "Sketchfab-16.10.0",
    "version": "2.0"
  },
  "bufferViews": [
    {
      "buffer": 0,
      "byteLength": 68412,
      "name": "floatBufferViews",
      "target": 34963
    },
    {
      "buffer": 0,
      "byteLength": 72552,
      "byteOffset": 68412,
      "byteStride": 8,
      "name": "floatBufferViews",
      "target": 34962
    },
    {
      "buffer": 0,
      "byteLength": 72552,
      "byteOffset": 140964,
      "byteStride": 12,
      "name": "floatBufferViews",
      "target": 34962
    }
  ],
  "buffers": [
    {
      "byteLength": 213516,
      "uri": "gltf.bin"
    }
  ],
  "extensionsRequired": [
    "KHR_materials_pbrSpecularGlossiness"
  ],
  "extensionsUsed": [
    "KHR_materials_pbrSpecularGlossiness"
  ],
  "images": [
    {
      "uri": "textures/material_diffuse.png"
    },
    {
      "uri": "textures/material_specularGlossiness.png"
    }
  ],
  "materials": [
    {
      "doubleSided": true,
      "extensions": {
        "KHR_materials_pbrSpecularGlossiness": {
          "diffuseFactor": [
            1.0,
            1.0,
            1.0,
            1.0
          ],
          "diffuseTexture": {
            "index": 0
          },
          "glossinessFactor": 1.0,
          "specularFactor": [
            1.0,
            1.0,
            1.0
          ],
          "specularGlossinessTexture": {
            "index": 1
          }
        }
      },
      "name": "material"
    }
  ],
  "meshes": [
    {
      "name": "Object_0",
      "primitives": [
        {
          "attributes": {
            "NORMAL": 1,
            "POSITION": 0,
            "TEXCOORD_0": 2,
            "TEXCOORD_1": 3,
            "TEXCOORD_2": 4
          },
          "indices": 5,
          "material": 0,
          "mode": 4
        }
      ]
    }
  ],
  "nodes": [
    {
      "children": [
        1
      ],
      "matrix": [
        1.0,
        0.0,
        0.0,
        0.0,
        0.0,
        2.220446049250313e-16,
        -1.0,
        0.0,
        0.0,
        1.0,
        2.220446049250313e-16,
        0.0,
        0.0,
        0.0,
        0.0,
        1.0
      ],
      "name": "Sketchfab_model"
    },
    {
      "children": [
        2
      ],
      "name": "root"
    },
    {
      "children": [
        3
      ],
      "matrix": [
        1.0,
        0.0,
        0.0,
        0.0,
        0.0,
        2.220446049250313e-16,
        1.0,
        0.0,
        0.0,
        -1.0,
        2.220446049250313e-16,
        0.0,
        0.0,
        0.0,
        0.0,
        1.0
      ],
      "name": "GLTF_SceneRootNode"
    },
    {
      "children": [
        4
      ],
      "name": "root_0"
    },
    {
      "children": [
        5
      ],
      "matrix": [
        6.4262898186042685e-09,
        0.03677967401767611,
        -0.003916101789902366,
        0.0,
        0.0047121516442906386,
        0.0038841903924993625,
        0.03647997279047486,
        0.0,
        0.03750923544074285,
        -0.0005101040236646675,
        -0.004790789327450387,
        0.0,
        0.005577649921178818,
        0.024997767060995102,
        0.20785610377788544,
        1.0
      ],
      "name": "node_id30_1"
    },
    {
      "mesh": 0,
      "name": "Object_5"
    }
  ],
  "samplers": [
    {
      "magFilter": 9729,
      "minFilter": 9987,
      "wrapS": 10497,
      "wrapT": 10497
    }
  ],
  "scene": 0,
  "scenes": [
    {
      "name": "Sketchfab_Scene",
      "nodes": [
        0
      ]
    }
  ],
  "textures": [
    {
      "sampler": 0,
      "source": 0
    },
    {
      "sampler": 0,
      "source": 1
    }
  ]
}
