# Pieza completa de un material COLLADA para Raylib
o Freezeezy_Peak_material_0000-material
v -1.4634381 -1.2785267 0.6153501
v -1.5718804 -1.3992253 0.2505896
v -1.5649529 -1.2846549 0.2505896
v -1.4839542 -1.3992253 0.6230769
v 1.9931268 -0.8386293 0.6960823
v 2.0522771 -0.9079045 0.3744856
v 2.0544086 -1.0160803 0.6787635
v 2.1068979 -1.0832240 0.3744856
v 1.9931268 -0.8386293 0.6960823
v 1.9515617 -0.7456407 0.4624118
v 2.0522771 -0.9079045 0.3744856
v 1.8881482 -0.6766320 0.7816105
v 0.9982286 1.0176790 0.7152662
v 1.0547146 1.0720334 0.4363004
v 1.4106824 1.1223911 0.7387132
v 1.4637045 1.1708837 0.4333695
v 0.8447575 1.3395421 0.6475897
v 0.8141165 1.5934623 0.3321212
v 0.8642078 1.3379435 0.3321212
v 0.8146494 1.5947945 0.6414615
v 0.2106232 1.1183944 0.6750333
v 0.1882420 1.1365126 0.4690729
v 0.3467755 1.2721320 0.6625105
v 0.2860265 1.2668032 0.2924212
v -0.0837963 1.1479696 0.6206789
v -0.0262446 1.3083683 0.1562688
v -0.0398332 1.1535649 0.2828292
v -0.0659446 1.3235555 0.4474910
v -0.0659446 1.3235555 0.4474910
v 0.0816648 1.3875019 0.1562688
v -0.0262446 1.3083683 0.1562688
v 0.0400997 1.4002911 0.4421621
v 0.0377017 2.6320570 -0.0688755
v -0.2905561 2.6099423 -0.3454433
v 0.0270440 2.6621651 -0.3217299
v -0.2593822 2.5686436 -0.0480930
v -0.4879903 2.3293778 -0.0550205
v -0.3534366 2.1362066 -0.6718360
v -0.5426111 2.3291114 -0.3427789
v -0.3214635 2.1572556 -0.2260769
v -0.2412641 1.7106972 0.2775004
v -0.3225292 1.6134455 0.1599990
v -0.2881581 1.7125623 -0.0017319
v -0.2892239 1.6094489 0.4461588
v -0.2892239 1.6094489 0.4461588
v -0.4267084 1.5417723 0.1599990
v -0.3225292 1.6134455 0.1599990
v -0.3934031 1.5364435 0.4408299
v -1.1852716 2.1889624 0.7384467
v -1.6054522 2.1519268 0.4187152
v -1.1823408 2.2598362 0.4187152
v -1.5425717 2.0544086 0.7448414
v -1.5217891 0.7515024 0.7259239
v -1.7719791 0.7355159 0.4189816
v -1.5766764 0.7904031 0.3984655
v -1.7557261 0.6649085 0.6286722
v -1.6089160 1.2593428 0.7453743
v -1.5617556 0.9801105 0.3872749
v -1.7082992 1.2081857 0.4187152
v -1.4863522 1.0254058 0.7115360
v -2.1436670 -0.0829970 0.7467065
v -2.0632013 -0.3161346 0.5204964
v -2.2257315 -0.1464104 0.4245769
v -1.9702127 -0.2463265 0.8793951
v -1.9702127 -0.2463265 0.8793951
v -1.8593724 -0.5391474 0.5204964
v -2.0632013 -0.3161346 0.5204964
v -1.7719791 -0.4682735 0.8727340
v -1.3067696 -0.8857897 0.7717521
v -1.3795086 -1.0688360 0.2540534
v -1.4002911 -0.9593280 0.3955346
v -1.2777273 -1.0904179 0.6174816
v -0.7661568 -2.0786550 0.3979326
v -0.7139340 -1.8660335 0.0459614
v -0.6739675 -2.1021019 0.0374352
v -0.7706863 -1.8673657 0.4099225
v -0.4248433 -1.8503133 0.4296393
v -0.2457937 -2.0067154 0.1293581
v -0.4405635 -1.8604382 0.1293581
v -0.2631124 -1.9486308 0.4333695
v -0.6963487 -1.7578576 0.5777816
v -0.4405635 -1.8604382 0.1293581
v -0.7072729 -1.7725120 0.2703064
v -0.4248433 -1.8503133 0.4296393
v 0.5247595 -1.8154093 0.4666749
v 0.7499038 -1.6265012 0.2553856
v 0.5689890 -1.8772241 0.1626634
v 0.7006118 -1.5617556 0.5604628
vt -0.0156250 0.9843750
vt 0.9843750 1.9843750
vt -0.0151367 1.9843750
vt 0.9843750 0.9843750
vt 0.9843750 1.9843750
vt -0.0156250 0.9843750
vt 0.9838867 0.9843750
vt 0.9838867 1.9843750
vt -0.0156250 0.9843750
vt -0.0156250 0.9843750
vt 0.9838867 1.9843750
vt -0.0156250 1.9843750
vt -0.0151367 0.9843750
vt 0.9843750 1.9838867
vt -0.0151367 1.9838867
vt 0.9843750 0.9843750
vt 0.9843750 1.9838867
vt -0.0151367 0.9843750
vt 0.9838867 0.9843750
vt 0.9838867 1.9843750
vt -0.0156250 0.9843750
vt -0.0156250 0.9843750
vt 0.9838867 1.9843750
vt -0.0156250 1.9843750
vt -0.0151367 0.9848633
vt 0.9843750 1.9843750
vt -0.0151367 1.9843750
vt 0.9843750 0.9848633
vt 0.9843750 1.9843750
vt -0.0151367 0.9848633
vt 0.9838867 0.9843750
vt 0.9843750 1.9838867
vt -0.0156250 0.9843750
vt -0.0156250 0.9843750
vt 0.9843750 1.9838867
vt -0.0156250 1.9838867
vt -0.0156250 0.9843750
vt 0.9843750 1.9843750
vt -0.0151367 1.9843750
vt 0.9843750 0.9843750
vt 0.9843750 1.9843750
vt -0.0156250 0.9843750
vt -0.0151367 0.9843750
vt 0.9838867 1.9838867
vt -0.0156250 1.9838867
vt 0.9838867 0.9843750
vt 0.9838867 1.9838867
vt -0.0151367 0.9843750
vt -0.0156250 0.9843750
vt 0.9838867 1.9843750
vt -0.0156250 1.9843750
vt 0.9843750 0.9843750
vt 0.9838867 1.9843750
vt -0.0156250 0.9843750
vt -0.0156250 0.9848633
vt 0.9843750 1.9843750
vt -0.0156250 1.9843750
vt 0.9843750 0.9848633
vt 0.9843750 1.9843750
vt -0.0156250 0.9848633
vt -0.0151367 0.9843750
vt 0.9838867 1.9838867
vt -0.0151367 1.9838867
vt 0.9838867 0.9843750
vt 0.9838867 1.9838867
vt -0.0151367 0.9843750
vt -0.0151367 0.9843750
vt 0.9843750 1.9843750
vt -0.0151367 1.9843750
vt 0.9843750 0.9843750
vt 0.9843750 1.9843750
vt -0.0151367 0.9843750
vt -0.0156250 0.9843750
vt 0.9838867 1.9838867
vt -0.0156250 1.9838867
vt 0.9838867 0.9848633
vt 0.9838867 1.9838867
vt -0.0156250 0.9843750
vt -0.0151367 0.9848633
vt 0.9843750 1.9916992
vt -0.0151367 1.9916992
vt 0.9843750 0.9848633
vt 0.9843750 1.9916992
vt -0.0151367 0.9848633
vt -0.0156250 0.9843750
vt 0.9838867 1.9838867
vt -0.0156250 1.9838867
vt 0.9838867 0.9843750
vt 0.9838867 1.9838867
vt -0.0156250 0.9843750
vt -0.0156250 0.9843750
vt 0.9838867 1.9843750
vt -0.0156250 1.9843750
vt 0.9838867 0.9843750
vt 0.9838867 1.9843750
vt -0.0156250 0.9843750
vt -0.0151367 0.9843750
vt 0.9838867 1.9838867
vt -0.0156250 1.9838867
vt 0.9838867 0.9843750
vt 0.9838867 1.9838867
vt -0.0151367 0.9843750
vt -0.0151367 0.9843750
vt 0.9843750 1.9843750
vt -0.0151367 1.9843750
vt 0.9843750 0.9843750
vt 0.9843750 1.9843750
vt -0.0151367 0.9843750
vt -0.0151367 0.9848633
vt 0.9838867 1.9838867
vt -0.0151367 1.9838867
vt 0.9843750 0.9848633
vt 0.9838867 1.9838867
vt -0.0151367 0.9848633
vt -0.0156250 0.9843750
vt 0.9843750 1.9843750
vt -0.0156250 1.9843750
vt 0.9843750 0.9843750
vt 0.9843750 1.9843750
vt -0.0156250 0.9843750
vt -0.0156250 0.9843750
vt 0.9838867 1.9838867
vt -0.0156250 1.9838867
vt 0.9838867 0.9843750
vt 0.9838867 1.9838867
vt -0.0156250 0.9843750
vt -0.0156250 0.9843750
vt 0.9838867 1.9843750
vt -0.0156250 1.9843750
vt 0.9838867 0.9843750
vt 0.9838867 1.9843750
vt -0.0156250 0.9843750
vn -0.0000047 -0.0000680 -1.0000000
vn 0.0000057 -0.0000645 -1.0000000
vn 0.0000143 0.0000254 -1.0000000
vn 0.0000166 -0.0000195 -1.0000000
vn 0.0000171 -0.0000122 -1.0000000
vn -0.0000060 0.0000534 -1.0000000
vn -0.0000075 0.0000260 -1.0000000
vn 0.0000050 -0.0000675 -1.0000000
vn 0.0000007 -0.0000279 -1.0000000
vn -0.0000097 0.0000030 -1.0000000
vn 0.0000150 -0.0000422 -1.0000000
vn -0.0000177 0.0000708 -1.0000000
vn 0.0000690 0.0000069 -1.0000000
vn 0.0000605 -0.0000066 -1.0000000
vn -0.0000220 0.0000186 -1.0000000
vn -0.0000565 0.0000067 -1.0000000
vn -0.0000199 -0.0000007 -1.0000000
vn -0.0000330 0.0000622 -1.0000000
vn 0.0000280 -0.0000638 -1.0000000
vn 0.0004197 -0.0040539 -0.9999917
vn -0.0048314 -0.0053891 -0.9999738
vn -0.0000025 0.0000245 -1.0000000
vn -0.0000435 -0.0000241 -1.0000000
vn 0.0000166 -0.0000016 -1.0000000
vn -0.0000108 -0.0000759 -1.0000000
vn -0.0000105 0.0000478 -1.0000000
vn 0.0000111 -0.0000430 -1.0000000
vn -0.0000178 -0.0000136 -1.0000000
vn -0.0000025 0.0000254 -1.0000000
vn 0.0000535 0.0000230 -1.0000000
vn 0.0000034 -0.0000088 -1.0000000
vn -0.0000171 -0.0000050 -1.0000000
vn 0.0000037 -0.0000190 -1.0000000
vn -0.0000161 0.0000165 -1.0000000
vn -0.0000455 0.0000151 -1.0000000
vn -0.0000187 -0.0000133 -1.0000000
vn -0.0000092 -0.0000029 -1.0000000
vn 0.0000025 0.0000164 -1.0000000
vn -0.0000256 0.0000104 -1.0000000
vn -0.0000330 0.0000068 -1.0000000
vn 0.0000384 0.0000169 -1.0000000
vn 0.0000222 0.0000471 -1.0000000
vn -0.0000135 -0.0000221 -1.0000000
vn -0.0000075 -0.0000062 -1.0000000
vn 0.0000438 0.0000541 -1.0000000
vn 0.0000592 0.0000130 -1.0000000
vn 0.0000097 0.0000011 -1.0000000
vn -0.0000175 -0.0000049 -1.0000000
vn -0.0000096 -0.0000115 -1.0000000
vn -0.0000398 -0.0000060 -1.0000000
vn -0.0000128 0.0000128 -1.0000000
vn 0.0000073 -0.0000145 -1.0000000
vn 0.0000611 0.0000413 -1.0000000
vn -0.0000557 -0.0000139 -1.0000000
vn 0.0000202 0.0000268 -1.0000000
vn -0.0000059 -0.0000274 -1.0000000
vn -0.0000098 -0.0000086 -1.0000000
vn 0.0000239 -0.0000631 -1.0000000
vn -0.0000302 0.0000271 -1.0000000
vn 0.0029404 -0.0051833 -0.9999822
vn -0.0000140 -0.0000201 -1.0000000
vn 0.0000218 -0.0000336 -1.0000000
vn 0.0000366 -0.0000762 -1.0000000
vn 0.0017115 -0.0023537 -0.9999958
vn -0.0000048 0.0000089 -1.0000000
vn -0.0000270 0.0000178 -1.0000000
vn -0.0000146 0.0000042 -1.0000000
vn 0.0000072 0.0000044 -1.0000000
vn 0.0000299 -0.0000506 -1.0000000
vn -0.0000207 -0.0000110 -1.0000000
vn 0.0000381 -0.0000279 -1.0000000
vn 0.0000196 -0.0000145 -1.0000000
vn -0.0000232 -0.0000196 -1.0000000
vn 0.0000000 -0.0000117 -1.0000000
vn -0.0000073 -0.0000218 -1.0000000
vn -0.0000011 0.0016574 -0.9999986
vn 0.0000108 -0.0000094 -1.0000000
vn -0.0000417 0.0000445 -1.0000000
vn -0.0000456 0.0000443 -1.0000000
vn 0.0000026 0.0000019 -1.0000000
vn 0.0000015 -0.0000195 -1.0000000
vn -0.0000255 0.0000309 -1.0000000
vn -0.0000310 0.0000295 -1.0000000
vn -0.0000204 0.0000143 -1.0000000
vn 0.0000045 -0.0000072 -1.0000000
vn 0.0000027 -0.0000025 -1.0000000
vn 0.0000168 -0.0000055 -1.0000000
vn -0.0000278 -0.0000681 -1.0000000
f 1/1/1 2/2/2 3/3/3
f 4/4/4 2/5/2 1/6/1
f 5/7/5 6/8/6 7/9/7
f 7/10/7 6/11/6 8/12/8
f 9/13/9 10/14/10 11/15/11
f 12/16/12 10/17/10 9/18/9
f 13/19/13 14/20/14 15/21/15
f 15/22/15 14/23/14 16/24/16
f 17/25/17 18/26/18 19/27/19
f 20/28/20 18/29/18 17/30/17
f 21/31/21 22/32/22 23/33/23
f 23/34/23 22/35/22 24/36/24
f 25/37/25 26/38/26 27/39/27
f 28/40/28 26/41/26 25/42/25
f 29/43/29 30/44/30 31/45/31
f 32/46/32 30/47/30 29/48/29
f 33/49/33 34/50/34 35/51/35
f 36/52/36 34/53/34 33/54/33
f 37/55/37 38/56/38 39/57/39
f 40/58/40 38/59/38 37/60/37
f 41/61/41 42/62/42 43/63/43
f 44/64/44 42/65/42 41/66/41
f 45/67/45 46/68/46 47/69/47
f 48/70/48 46/71/46 45/72/45
f 49/73/49 50/74/50 51/75/51
f 52/76/52 50/77/50 49/78/49
f 53/79/53 54/80/54 55/81/55
f 56/82/56 54/83/54 53/84/53
f 57/85/57 58/86/58 59/87/59
f 60/88/60 58/89/58 57/90/57
f 61/91/61 62/92/62 63/93/63
f 64/94/64 62/95/62 61/96/61
f 65/97/65 66/98/66 67/99/67
f 68/100/68 66/101/66 65/102/65
f 69/103/69 70/104/70 71/105/71
f 72/106/72 70/107/70 69/108/69
f 73/109/73 74/110/74 75/111/75
f 76/112/76 74/113/74 73/114/73
f 77/115/77 78/116/78 79/117/79
f 80/118/80 78/119/78 77/120/77
f 81/121/81 82/122/82 83/123/83
f 84/124/84 82/125/82 81/126/81
f 85/127/85 86/128/86 87/129/87
f 88/130/88 86/131/86 85/132/85
