# Pieza completa de un material COLLADA para Raylib
o Freezeezy_Peak_material_0001_001-material
v -1.4927468 1.8575073 1.1564958
v -0.8266394 1.8575073 1.1564958
v -0.8266394 1.0986777 1.1564958
v -1.4927468 1.0986777 1.1564958
v -0.3038782 -0.9433414 1.1482360
v -0.4272413 -1.0395273 1.1490354
v -0.5322199 -0.4608131 1.1554300
v 0.0864607 -0.8031924 1.1479696
v 0.0864607 -0.4712044 1.1554300
v 0.0864607 -1.6091824 1.1554300
v -0.3038782 -0.9433414 1.1482360
v 0.0864607 -0.8031924 1.1479696
v -0.6006957 -1.6091824 1.1554300
v -0.4704051 -1.1687522 1.1503676
v -0.4272413 -1.0395273 1.1490354
v -0.6004293 -1.2108502 1.1503676
v -0.4704051 -1.1687522 1.1503676
v -0.6004293 -1.2108502 1.1503676
v 0.1586668 -0.6737011 1.1479696
v 0.0864607 -0.8031924 1.1479696
v 0.0864607 -0.4712044 1.1554300
v 0.1386836 -0.5340850 1.1554300
v 0.7736172 -0.5340850 1.1554300
v 0.1586668 -0.6737011 1.1479696
v 0.1386836 -0.5340850 1.1554300
v 0.7736172 -1.6091824 1.1554300
v 0.0864607 -0.8031924 1.1479696
v 0.0864607 -1.6091824 1.1554300
v 0.2543198 -0.3449104 1.1511669
v 0.0864607 -0.4712044 1.1554300
v 0.0864607 0.2090245 1.1554300
v 0.1386836 -0.5340850 1.1554300
v 0.0864607 -0.4712044 1.1554300
v 0.2543198 -0.3449104 1.1511669
v 0.7736172 -0.5340850 1.1554300
v 0.1386836 -0.5340850 1.1554300
v 0.7736172 0.2090245 1.1554300
v 0.0864607 -0.4712044 1.1554300
v -0.5322199 -0.4608131 1.1554300
v -0.6006957 0.2090245 1.1554300
v 0.0864607 0.2090245 1.1554300
v -0.6006957 0.2090245 1.1554300
v -1.2881186 0.2090245 1.1554300
v -1.2881186 0.9521340 1.1554300
v -0.6006957 0.9521340 1.1554300
v -0.9140327 -0.6316031 1.1479696
v -0.8804608 -0.5340850 1.1554300
v -0.5322199 -0.4608131 1.1554300
v -0.8636749 -0.7872058 1.1479696
v -0.6004293 -1.2108502 1.1503676
v -0.8903192 -0.8506192 1.1479696
v -0.8191790 -1.1477032 1.1503676
v -0.6006957 -1.6091824 1.1554300
v -0.8191790 -1.1477032 1.1503676
v -0.6004293 -1.2108502 1.1503676
v -1.2881186 -1.6091824 1.1554300
v -0.8903192 -0.8506192 1.1479696
v -1.2881186 -0.5340850 1.1554300
v -0.8636749 -0.7872058 1.1479696
v -0.9140327 -0.6316031 1.1479696
v -0.8804608 -0.5340850 1.1554300
v 0.7736172 0.2090245 1.1554300
v 0.0864607 0.2090245 1.1554300
v 0.0864607 0.9521340 1.1554300
v 0.7736172 0.9521340 1.1554300
v 0.0864607 0.2090245 1.1554300
v -0.6006957 0.2090245 1.1554300
v -0.6006957 0.9521340 1.1554300
v 0.0864607 0.9521340 1.1554300
v -1.2881186 -0.5340850 1.1554300
v -1.9752751 0.2090245 1.1554300
v -1.2881186 0.2090245 1.1554300
v -1.9752751 -0.5340850 1.1554300
v -0.8804608 -0.5340850 1.1554300
v -1.2881186 -0.5340850 1.1554300
v -1.2881186 0.2090245 1.1554300
v -0.8586125 -0.4730695 1.1479696
v -0.7634924 -0.4176494 1.1479696
v -0.6502541 -0.3806138 1.1482360
v -0.6006957 0.2090245 1.1554300
v -0.5322199 -0.4608131 1.1554300
v -0.7634924 -0.4176494 1.1479696
v -0.6502541 -0.3806138 1.1482360
v -0.5322199 -0.4608131 1.1554300
v -0.8586125 -0.4730695 1.1479696
v -0.8804608 -0.5340850 1.1554300
v 1.4677012 0.6518528 1.0302018
v 1.4677012 -0.2468594 1.0302018
v 0.9052400 -0.2468594 1.0302018
v 0.9766468 0.5047762 1.0302018
v 1.9664825 0.6518528 1.0302018
v 1.9664825 -0.2468594 1.0302018
v 1.4677012 -0.7011447 1.0302018
v 1.1096018 -0.6550501 1.0302018
v 1.4677012 -1.3259535 1.0302018
v 1.0331327 -1.3259535 1.0302018
v 1.9664825 -0.7011447 1.0302018
v 1.9664825 -1.3259535 1.0302018
vt -2.6064450 -0.6489260
vt -1.5253910 -1.0493160
vt -1.0690920 0.1821289
vt -1.0690920 0.1821289
vt -2.1501460 0.5825195
vt -2.6064450 -0.6489260
vt 1.0063480 3.1813960
vt 0.8640137 3.4113770
vt 0.3459473 2.5354000
vt 0.3459473 2.5354000
vt 1.5556640 2.7189940
vt 1.0063480 3.1813960
vt 1.3559570 2.1801760
vt 1.5556640 2.7189940
vt 0.3459473 2.5354000
vt 2.0402830 4.0273440
vt 1.0063480 3.1813960
vt 1.5556640 2.7189940
vt 0.9250488 4.4404300
vt 1.0063480 3.1813960
vt 2.0402830 4.0273440
vt 0.8720703 3.6472170
vt 0.8640137 3.4113770
vt 1.0063480 3.1813960
vt 1.0063480 3.1813960
vt 0.9250488 4.4404300
vt 0.8720703 3.6472170
vt 0.9250488 4.4404300
vt 0.6862793 3.7937010
vt 0.8720703 3.6472170
vt 0.8640137 3.4113770
vt 0.8720703 3.6472170
vt 0.6862793 3.7937010
vt 0.6862793 3.7937010
vt 0.3459473 2.5354000
vt 0.8640137 3.4113770
vt 1.5952150 2.4655760
vt 1.5556640 2.7189940
vt 1.3559570 2.1801760
vt 1.3559570 2.1801760
vt 1.4787600 2.2509770
vt 1.5952150 2.4655760
vt 2.5090330 1.8691406
vt 1.5952150 2.4655760
vt 1.4787600 2.2509770
vt 3.1555180 3.6140140
vt 1.5952150 2.4655760
vt 2.5090330 1.8691406
vt 1.5556640 2.7189940
vt 1.5952150 2.4655760
vt 3.1555180 3.6140140
vt 3.1555180 3.6140140
vt 2.0402830 4.0273440
vt 1.5556640 2.7189940
vt 1.5522460 1.8745117
vt 1.3559570 2.1801760
vt 0.9470215 1.0766601
vt 1.4787600 2.2509770
vt 1.3559570 2.1801760
vt 1.5522460 1.8745117
vt 1.5522460 1.8745117
vt 2.5090330 1.8691406
vt 1.4787600 2.2509770
vt 2.0622560 0.6638184
vt 2.5090330 1.8691406
vt 1.5522460 1.8745117
vt 1.5522460 1.8745117
vt 0.9470215 1.0766601
vt 2.0622560 0.6638184
vt 1.3559570 2.1801760
vt 0.3459473 2.5354000
vt -0.1679688 1.4897461
vt -0.1679688 1.4897461
vt 0.9470215 1.0766601
vt 1.3559570 2.1801760
vt -0.1679688 1.4897461
vt -1.2829590 1.9030762
vt -1.7297360 0.6975098
vt -1.7297360 0.6975098
vt -0.6145020 0.2844238
vt -0.1679688 1.4897461
vt -0.1708984 3.0419920
vt -0.1750488 2.8637700
vt 0.3459473 2.5354000
vt 0.3459473 2.5354000
vt 0.0041504 3.2646480
vt -0.1708984 3.0419920
vt 0.6862793 3.7937010
vt 0.0041504 3.2646480
vt 0.3459473 2.5354000
vt -0.0004883 3.3833010
vt 0.0041504 3.2646480
vt 0.6862793 3.7937010
vt 0.6862793 3.7937010
vt 0.2934570 3.8227540
vt -0.0004883 3.3833010
vt 0.9250488 4.4404300
vt 0.2934570 3.8227540
vt 0.6862793 3.7937010
vt -0.1899414 4.8535160
vt 0.2934570 3.8227540
vt 0.9250488 4.4404300
vt -0.0004883 3.3833010
vt 0.2934570 3.8227540
vt -0.1899414 4.8535160
vt -0.1899414 4.8535160
vt -0.8364258 3.1086430
vt -0.0004883 3.3833010
vt 0.0041504 3.2646480
vt -0.0004883 3.3833010
vt -0.8364258 3.1086430
vt -0.8364258 3.1086430
vt -0.1708984 3.0419920
vt 0.0041504 3.2646480
vt -0.1750488 2.8637700
vt -0.1708984 3.0419920
vt -0.8364258 3.1086430
vt 2.0622560 0.6638184
vt 0.9470215 1.0766601
vt 0.5004883 -0.1289060
vt 0.5004883 -0.1289060
vt 1.6157230 -0.5419920
vt 2.0622560 0.6638184
vt 0.9470215 1.0766601
vt -0.1679688 1.4897461
vt -0.6145020 0.2844238
vt -0.6145020 0.2844238
vt 0.5004883 -0.1289060
vt 0.9470215 1.0766601
vt -0.8364258 3.1086430
vt -2.3981930 2.3161620
vt -1.2829590 1.9030762
vt -1.9516600 3.5219730
vt -2.3981930 2.3161620
vt -0.8364258 3.1086430
vt -0.1750488 2.8637700
vt -0.8364258 3.1086430
vt -1.2829590 1.9030762
vt -1.2829590 1.9030762
vt -0.1760254 2.7514650
vt -0.1750488 2.8637700
vt -0.0549316 2.6042480
vt -0.1760254 2.7514650
vt -1.2829590 1.9030762
vt -1.2829590 1.9030762
vt 0.1062012 2.4760740
vt -0.0549316 2.6042480
vt -0.1679688 1.4897461
vt 0.1062012 2.4760740
vt -1.2829590 1.9030762
vt 0.3459473 2.5354000
vt 0.1062012 2.4760740
vt -0.1679688 1.4897461
vt -0.0549316 2.6042480
vt 0.1062012 2.4760740
vt 0.3459473 2.5354000
vt 0.3459473 2.5354000
vt -0.1760254 2.7514650
vt -0.0549316 2.6042480
vt -0.1750488 2.8637700
vt -0.1760254 2.7514650
vt 0.3459473 2.5354000
vt 2.9816890 -0.3107910
vt 3.4624020 0.9863281
vt 2.5498050 1.3242188
vt 2.5498050 1.3242188
vt 2.2136230 0.0615234
vt 2.9816890 -0.3107910
vt 3.6799320 -0.5693360
vt 4.1604000 0.7277832
vt 3.4624020 0.9863281
vt 3.4624020 0.9863281
vt 2.9816890 -0.3107910
vt 3.6799320 -0.5693360
vt 3.4624020 0.9863281
vt 3.7355960 1.7233887
vt 3.0891110 1.9628906
vt 3.0891110 1.9628906
vt 2.5498050 1.3242188
vt 3.4624020 0.9863281
vt 3.7355960 1.7233887
vt 4.1110840 2.7373050
vt 3.4062500 2.9982910
vt 3.4062500 2.9982910
vt 3.0891110 1.9628906
vt 3.7355960 1.7233887
vt 4.1604000 0.7277832
vt 4.4335940 1.4648438
vt 3.7355960 1.7233887
vt 3.7355960 1.7233887
vt 3.4624020 0.9863281
vt 4.1604000 0.7277832
vt 4.4335940 1.4648438
vt 4.8090820 2.4785160
vt 4.1110840 2.7373050
vt 4.1110840 2.7373050
vt 3.7355960 1.7233887
vt 4.4335940 1.4648438
vn 0.0000000 0.0000000 -1.0000000
vn -0.0000118 0.0000138 -1.0000000
vn 0.0000141 -0.0000063 -1.0000000
vn 0.0000024 -0.0000049 -1.0000000
vn 0.0000004 -0.0000076 -1.0000000
vn 0.0000004 -0.0000118 -1.0000000
vn 0.0000007 -0.0000090 -1.0000000
vn -0.0000032 0.0000173 -1.0000000
vn -0.0000023 0.0000101 -1.0000000
vn 0.0000024 -0.0000254 -1.0000000
vn 0.0000031 -0.0000079 -1.0000000
vn -0.0000010 0.0000049 -1.0000000
vn -0.0000036 0.0000137 -1.0000000
vn 0.0000063 -0.0000202 -1.0000000
vn 0.0000020 0.0000003 -1.0000000
vn -0.0000079 0.0000057 -1.0000000
vn 0.0000066 -0.0000032 -1.0000000
vn -0.0000024 0.0000041 -1.0000000
vn -0.0000062 -0.0000070 -1.0000000
vn -0.0000110 -0.0000077 -1.0000000
vn 0.0000033 0.0000133 -1.0000000
vn 0.0000021 -0.0000190 -1.0000000
vn 0.0000062 -0.0000065 -1.0000000
vn -0.0000040 0.0000044 -1.0000000
vn 0.0000000 -0.0000038 -1.0000000
vn -0.0000002 -0.0000010 -1.0000000
vn 0.0000160 0.0000011 -1.0000000
vn -0.0000154 0.0000205 -1.0000000
vn 0.0000077 0.0000079 -1.0000000
vn 0.0000078 0.0000078 -1.0000000
vn 0.0000087 0.0000067 -1.0000000
vn -0.0000042 0.0000034 -1.0000000
vn -0.0000016 -0.0000004 -1.0000000
vn -0.0000016 -0.0000015 -1.0000000
vn 0.0000000 0.0000000 -1.0000000
vn 0.0000000 0.0000000 -1.0000000
vn 0.0000052 0.0000191 -1.0000000
vn -0.0000020 -0.0000002 -1.0000000
vn 0.0000002 0.0000008 -1.0000000
vn 0.0000051 0.0000015 -1.0000000
vn 0.0000130 -0.0000023 -1.0000000
vn 0.0000029 -0.0000020 -1.0000000
vn -0.0000034 -0.0000121 -1.0000000
vn -0.0000003 -0.0000057 -1.0000000
vn -0.0000011 -0.0000072 -1.0000000
vn 0.0000014 0.0000062 -1.0000000
vn 0.0000009 0.0000012 -1.0000000
vn -0.0000154 0.0000000 -1.0000000
vn 0.0000180 -0.0000136 -1.0000000
vn -0.0000213 0.0000036 -1.0000000
vn -0.0000087 0.0000197 -1.0000000
vn -0.0000051 -0.0000118 -1.0000000
vn 0.0000000 0.0000000 -1.0000000
vn 0.0000000 0.0000000 -1.0000000
vn 0.0000000 0.0000000 -1.0000000
vn 0.0000000 0.0000012 -1.0000000
vn 0.0000000 0.0000000 -1.0000000
vn -0.0000078 0.0000063 -1.0000000
vn -0.0000024 -0.0000013 -1.0000000
vn -0.0000032 0.0000118 -1.0000000
vn -0.0000189 -0.0000064 -1.0000000
vn 0.0000080 0.0000124 -1.0000000
vn 0.0000200 0.0000050 -1.0000000
vn -0.0000058 0.0000080 -1.0000000
vn 0.0000019 -0.0000060 -1.0000000
vn 0.0000043 0.0000004 -1.0000000
vn -0.0000034 0.0000227 -1.0000000
vn -0.0000004 0.0000082 -1.0000000
vn 0.0000000 0.0000000 -1.0000000
f 1/1/1 2/2/1 3/3/1
f 3/4/1 4/5/1 1/6/1
f 5/7/2 6/8/3 7/9/4
f 7/10/4 8/11/5 5/12/2
f 9/13/6 8/14/5 7/15/4
f 10/16/7 11/17/8 12/18/9
f 13/19/10 11/20/8 10/21/7
f 14/22/11 15/23/12 11/24/8
f 11/25/8 13/26/10 14/27/11
f 13/28/10 16/29/13 14/30/11
f 6/31/3 17/32/14 18/33/15
f 18/34/15 7/35/4 6/36/3
f 19/37/16 20/38/17 21/39/18
f 21/40/18 22/41/19 19/42/16
f 23/43/20 24/44/21 25/45/22
f 26/46/23 24/47/21 23/48/20
f 27/49/24 24/50/21 26/51/23
f 26/52/23 28/53/25 27/54/24
f 29/55/26 30/56/27 31/57/28
f 32/58/29 33/59/30 34/60/31
f 29/61/26 35/62/32 36/63/33
f 37/64/34 35/65/32 29/66/26
f 29/67/26 31/68/28 37/69/34
f 38/70/35 39/71/35 40/72/35
f 40/73/35 41/74/35 38/75/35
f 42/76/36 43/77/36 44/78/36
f 44/79/36 45/80/36 42/81/36
f 46/82/37 47/83/38 48/84/39
f 48/85/39 49/86/40 46/87/37
f 50/88/41 49/89/40 48/90/39
f 51/91/42 49/92/40 50/93/41
f 50/94/41 52/95/43 51/96/42
f 53/97/44 54/98/45 55/99/46
f 56/100/47 54/101/45 53/102/44
f 57/103/48 54/104/45 56/105/47
f 56/106/47 58/107/49 57/108/48
f 59/109/50 57/110/48 58/111/49
f 58/112/49 60/113/51 59/114/50
f 61/115/52 60/116/51 58/117/49
f 62/118/53 63/119/53 64/120/53
f 64/121/53 65/122/53 62/123/53
f 66/124/54 67/125/54 68/126/54
f 68/127/54 69/128/54 66/129/54
f 70/130/55 71/131/55 72/132/55
f 73/133/55 71/134/55 70/135/55
f 74/136/56 75/137/57 76/138/58
f 76/139/58 77/140/59 74/141/56
f 78/142/60 77/143/59 76/144/58
f 76/145/58 79/146/61 78/147/60
f 80/148/62 79/149/61 76/150/58
f 81/151/63 79/152/61 80/153/62
f 82/154/64 83/155/65 84/156/66
f 84/157/66 85/158/67 82/159/64
f 86/160/68 85/161/67 84/162/66
f 87/163/69 88/164/69 89/165/69
f 89/166/69 90/167/69 87/168/69
f 91/169/69 92/170/69 88/171/69
f 88/172/69 87/173/69 91/174/69
f 88/175/69 93/176/69 94/177/69
f 94/178/69 89/179/69 88/180/69
f 93/181/69 95/182/69 96/183/69
f 96/184/69 94/185/69 93/186/69
f 92/187/69 97/188/69 93/189/69
f 93/190/69 88/191/69 92/192/69
f 97/193/69 98/194/69 95/195/69
f 95/196/69 93/197/69 97/198/69
