# Pieza completa de un material COLLADA para Raylib
o Freezeezy_Peak_material_0003_001-material
v -2.1060986 0.1709232 1.0696354
v -2.0978389 -0.0702077 0.7411112
v -2.1631174 0.1615977 0.7392461
v -2.0488133 -0.0347708 1.0696354
v -1.9702127 -0.2463265 0.8793951
v -2.0632013 -0.3161346 0.5204964
v -2.1801697 -0.1333547 0.4189816
v -2.1074308 -0.3470420 0.0795332
v -2.1972221 -0.1413480 0.0062614
v -2.2561060 0.1386836 0.4189816
v -2.2747570 0.1362856 0.0059950
v -2.1703113 0.4456259 0.4189816
v -2.1631174 0.1615977 0.7392461
v -2.1801697 -0.1333547 0.4189816
v -2.2561060 0.1386836 0.4189816
v -2.0978389 -0.0702077 0.7411112
v -2.1060986 0.1709232 1.0696354
v -2.1631174 0.1615977 0.7392461
v -2.0488133 0.3766172 1.0696354
v -2.1202201 0.4171165 0.7395125
v -2.2561060 0.1386836 0.4189816
v -2.1703113 0.4456259 0.4189816
vt 0.4768066 -0.4726560
vt 1.5991210 0.1149902
vt 0.9328613 0.4628906
vt 1.0710450 -0.7763670
vt 1.5991210 0.1149902
vt 0.4768066 -0.4726560
vt 1.0710450 -0.7763670
vt 1.9479980 -0.6037600
vt 1.5991210 0.1149902
vt 1.9479980 -0.6037600
vt 2.5988770 0.3793945
vt 1.5991210 0.1149902
vt 1.5991210 0.1149902
vt 2.5988770 0.3793945
vt 2.1855470 0.9953613
vt 2.5988770 0.3793945
vt 3.2697750 1.5698242
vt 2.1855470 0.9953613
vt 2.1855470 0.9953613
vt 3.2697750 1.5698242
vt 2.7639160 2.1054690
vt 2.1855470 0.9953613
vt 2.7639160 2.1054690
vt 1.3999020 1.3967285
vt 1.3999020 1.3967285
vt 2.7639160 2.1054690
vt 1.9626460 2.5158690
vt 1.3999020 1.3967285
vt 1.9626460 2.5158690
vt 0.5739746 1.6530762
vt 0.9328613 0.4628906
vt 2.1855470 0.9953613
vt 1.3999020 1.3967285
vt 1.5991210 0.1149902
vt 2.1855470 0.9953613
vt 0.9328613 0.4628906
vt 0.4768066 -0.4726560
vt 0.9328613 0.4628906
vt -0.0764160 -0.3010250
vt -0.0764160 -0.3010250
vt 0.9328613 0.4628906
vt 0.2346191 0.7080078
vt 0.2346191 0.7080078
vt 1.3999020 1.3967285
vt 0.5739746 1.6530762
vt 0.9328613 0.4628906
vt 1.3999020 1.3967285
vt 0.2346191 0.7080078
vn -0.0000017 0.0000101 -1.0000000
vn -0.0000097 0.0000133 -1.0000000
vn 0.0000036 0.0000646 -1.0000000
vn 0.0000045 -0.0000365 -1.0000000
vn -0.0000044 -0.0000270 -1.0000000
vn -0.0000037 -0.0000168 -1.0000000
vn -0.0000094 0.0000639 -1.0000000
vn 0.0000107 -0.0000345 -1.0000000
vn 0.0000023 0.0000343 -1.0000000
vn 0.0000408 0.0000013 -1.0000000
vn 0.0000227 -0.0000403 -1.0000000
vn -0.0000259 -0.0000615 -1.0000000
vn 0.0000219 -0.0000006 -1.0000000
vn 0.0000147 0.0000166 -1.0000000
vn 0.0000184 -0.0000025 -1.0000000
vn -0.0000103 -0.0000130 -1.0000000
vn 0.0000146 0.0000054 -1.0000000
vn -0.0000146 0.0000199 -1.0000000
vn -0.0000108 -0.0000020 -1.0000000
vn -0.0000124 -0.0000300 -1.0000000
vn -0.0000008 -0.0000190 -1.0000000
vn 0.0000183 0.0000309 -1.0000000
f 1/1/1 2/2/2 3/3/3
f 4/4/4 2/5/2 1/6/1
f 4/7/4 5/8/5 2/9/2
f 5/10/5 6/11/6 2/12/2
f 2/13/2 6/14/6 7/15/7
f 6/16/6 8/17/8 7/18/7
f 7/19/7 8/20/8 9/21/9
f 7/22/7 9/23/9 10/24/10
f 10/25/10 9/26/9 11/27/11
f 10/28/10 11/29/11 12/30/12
f 13/31/13 14/32/14 15/33/15
f 16/34/16 14/35/14 13/36/13
f 17/37/17 18/38/18 19/39/19
f 19/40/19 18/41/18 20/42/20
f 20/43/20 21/44/21 22/45/22
f 18/46/18 21/47/21 20/48/20
