# Pieza completa de un material COLLADA para Raylib
o Freezeezy_Peak_material_0011-material
v -1.4290670 -1.2268367 0.9228253
v -1.3739133 -1.2007253 0.9230917
v -1.4357280 -1.3619233 0.9230917
v -1.4242710 -1.3981596 0.9209602
v -1.3392757 -1.1786105 0.9209602
v -1.4474515 -1.2231065 0.9228253
v -1.6238368 -1.2388267 0.9217595
v -1.5961267 -1.1660877 0.9217595
v -1.4754280 -1.2958455 0.9228253
v -1.4591750 -1.3057039 0.9228253
v 0.0568856 -1.6432871 0.7078058
v -0.1152366 -1.6427542 0.7078058
v -0.1101742 -1.4381260 1.0376622
v -0.2551192 -1.6622046 0.7078058
v -0.2985494 -1.3728475 0.9987615
v -0.3116051 -1.1655548 1.1130656
v -0.1101742 -1.4381260 1.0376622
v -0.2985494 -1.3728475 0.9987615
v -0.0971185 -1.1676864 1.1127991
v 0.0766024 -1.2540139 1.1114669
v 0.0696748 -1.3872354 0.9987615
v 0.0696748 -1.3872354 0.9987615
v -1.0720334 0.5729856 1.1341146
v -1.0597770 0.6635763 1.1306508
v -1.0179454 0.6355997 1.1205260
v -1.0941481 0.9827750 1.1119998
v -1.1434401 0.9667884 1.1306508
v -1.1487689 0.7102038 1.1338481
v -1.1860710 0.9571964 1.1338481
v -1.1844723 0.6489219 1.1341146
v -1.3057039 0.7592293 1.1341146
v -1.3720482 0.8881877 1.1341146
v -1.5500321 0.6233434 1.0784280
v -1.4559777 0.5399467 1.0672374
v -1.6773918 0.5823111 1.0696354
v -1.4631717 0.5282232 1.0672374
v -1.3062367 0.3776829 1.0672374
v -1.3062367 0.4858588 1.0992105
v -1.2929146 0.6190803 1.1261213
v -1.4461193 0.7035427 1.1021414
v -1.3182267 0.7504367 1.1341146
v -1.3930972 0.8221098 1.1226575
v -1.2396260 0.6590467 1.1293186
v -1.4415898 1.0467213 1.0826911
v -1.4940790 0.7347165 1.0536488
v -1.1450387 1.2028569 1.1205260
v -1.1780777 1.1921991 1.1306508
v -1.1455716 1.2127153 1.1266542
v -1.0941481 0.9827750 1.1119998
v -1.1434401 0.9667884 1.1306508
v -1.1860710 0.9571964 1.1338481
v -1.2129817 1.2244387 1.1341146
v -1.3720482 0.8881877 1.1341146
v -1.3811072 1.0725662 1.1341146
v -1.4194750 1.1839394 1.1341146
v -1.4906153 1.3136971 1.1341146
v -1.3944294 1.3448710 1.1341146
v -1.5393744 1.5052697 1.1341146
v -1.4405240 1.5609562 1.1341146
v -1.4906153 1.6901811 1.1341146
v -1.3475354 1.8399220 1.1341146
v -1.3200918 1.7464006 1.1341146
v -1.4415898 1.0467213 1.0826911
v -1.5494992 1.2899837 1.1053387
v -1.6811220 1.5372428 1.1151971
v -1.6973750 1.7743771 1.1053387
v -1.5050032 1.9960576 1.1341146
v -1.0296689 1.2388267 1.1266542
v -1.0259387 1.2295012 1.1205260
v -1.1455716 1.2127153 1.1266542
v -1.1450387 1.2028569 1.1205260
v -0.9915676 1.2337642 1.1306508
v -1.1628904 1.8852173 1.1341146
v -0.9428085 1.9001382 1.1341146
v -1.1037401 1.7922287 1.1341146
v -0.9182958 1.6720630 1.1341146
v -0.8245078 1.7005724 1.1341146
v -0.8724676 1.4557113 1.1341146
v -0.7792125 1.5052697 1.1341146
v -0.8418266 1.3171609 1.1341146
v -0.9915676 1.2769280 1.1341146
v -0.8383629 1.2404253 1.1341146
v -1.2129817 1.2244387 1.1341146
v -1.3475354 1.8399220 1.1341146
v -1.3200918 1.7464006 1.1341146
v -1.5050032 1.9960576 1.1341146
v -1.1743475 2.0810529 1.1341146
v -0.9182958 1.9624858 1.1053387
v -0.7653575 1.7365422 1.1053387
v -0.6966152 1.5052697 1.1053387
v -0.7744165 1.3267528 1.1029407
v -0.9278877 1.0203434 1.1306508
v -0.7128682 1.1218582 1.1341146
v -0.6667736 0.9468052 1.1365126
v -0.8732669 0.7054078 1.1306508
v -0.6968816 0.7373810 1.1335817
v -0.8245078 0.6427937 1.1341146
v -0.8911186 0.6190803 1.1306508
v -0.8309025 0.5026447 1.1341146
v -0.9111018 0.4397641 1.1341146
v -1.0123501 0.4573494 1.1341146
v -1.0720334 0.5729856 1.1341146
v -0.9782454 1.0086199 1.1119998
v -1.0259387 1.2295012 1.1205260
v -0.9915676 1.2337642 1.1306508
v -0.8988454 0.6622440 1.1205260
v -1.0179454 0.6355997 1.1205260
v -0.8383629 1.2404253 1.1341146
v -0.7744165 1.3267528 1.1029407
v -0.6542508 1.1442394 1.1053387
v -0.4083239 0.8951152 1.1365126
v -0.4789313 0.6790300 1.1301179
v -0.5343514 0.8394286 1.1365126
v -0.5343514 0.8394286 1.1365126
v -1.9944590 -0.1322889 1.0672374
v -1.7434697 0.2076923 1.0672374
v -1.6715301 -0.1397493 1.0672374
v -1.3656535 0.0379681 1.0672374
v -1.7434697 0.2076923 1.0672374
v -1.3112992 0.1813145 1.0672374
v -1.3062367 0.3776829 1.0672374
v -1.4631717 0.5282232 1.0672374
v -1.6773918 0.5823111 1.0696354
v -1.8921449 0.5282232 1.0672374
v -2.0490798 0.3776829 1.0672374
v -2.1063650 0.1719889 1.0672374
v -2.0488133 -0.0347708 1.0696354
v 1.1125327 0.5292890 1.0142152
v 0.9534662 0.5276903 1.0142152
v 0.9401441 0.9638575 1.0118172
v 1.3499334 1.0552474 1.0118172
v 1.2974441 0.5471407 1.0142152
v 1.6685992 0.9334830 1.0118172
v 1.6795234 0.6273400 1.0142152
v 1.4194750 0.3776829 1.0142152
v 1.4378596 0.2175507 1.0142152
v 1.5407066 0.1914393 1.0142152
v 1.8220704 0.6840924 1.0142152
v 1.7916959 0.4011299 1.0142152
v 1.7258844 0.2420635 1.0142152
v 1.9110623 0.2926876 1.0142152
v 0.9401441 0.9638575 1.0118172
v 0.9534662 0.5276903 1.0142152
v 0.9329501 0.5276903 1.0224750
v 0.7501702 0.7738837 1.1375783
v 0.8058568 0.5998964 1.1242562
v 0.7917353 0.5998964 1.1341146
v 0.6318695 1.1202595 1.0270045
v 0.7573642 0.9068387 1.1210589
v 0.6046924 0.9356145 1.1295850
v 0.6745004 0.8295702 1.1874032
v 0.5591306 0.8841910 1.1874032
v 0.2399319 0.7786796 1.1874032
v 0.1973010 0.8037253 1.1301179
v 0.2974836 0.8391622 1.1874032
v 0.2764346 0.8769971 1.1008092
v 0.3976662 0.8791286 1.1874032
v 0.3712883 0.9670548 1.0576454
v 0.4855923 1.0872206 1.0176790
v 0.6497212 1.2329649 0.9587951
v 0.5506044 1.1818079 0.9587951
v 0.8785957 0.8322347 1.0944146
v 0.7160655 0.7293877 1.1874032
v 0.8671387 -0.2705729 1.0142152
v 1.0296689 -0.1144373 1.0142152
v 1.1290522 -0.1786500 1.0142152
v 0.9398776 0.0145211 1.0142152
v 0.8261065 -0.0209158 1.0142152
v 0.9369468 0.2207480 1.0142152
v 0.8546159 0.3028125 1.0142152
v 0.9894360 0.3614299 1.0142152
v 0.9534662 0.5276903 1.0142152
v 1.1125327 0.5292890 1.0142152
v 0.8340998 0.3028125 1.0224750
v 0.9329501 0.5276903 1.0224750
v 0.8055904 -0.0209158 1.0224750
v 0.8463561 -0.2705729 1.0224750
v 0.7488380 0.4621454 1.1341146
v 0.7917353 0.5998964 1.1341146
v 0.8058568 0.5998964 1.1242562
v 0.7626930 0.4621454 1.1242562
v 0.6441259 0.3108057 1.1341146
v 0.5756501 -0.2332708 1.1874032
v 0.5652588 0.0742044 1.1874032
v 0.6750333 0.5354172 1.1874032
v 0.7160655 0.7293877 1.1874032
v 0.5985642 0.3827453 1.1874032
v 0.5026447 0.2942863 1.1874032
v 1.2401589 -0.6097548 1.0142152
v 1.1429072 -0.8849904 1.0142152
v 1.0427246 -0.8722011 1.0142152
v 1.1048058 -0.6638427 1.0142152
v 1.1290522 -0.1786500 1.0142152
v 1.2516159 -0.2202151 1.0142152
v 0.9366803 -0.4959836 1.0142152
v 1.2574777 -0.1418809 1.0142152
v 1.3147629 -0.0718064 1.0142152
v 1.4586421 -0.0707406 1.0179454
v 1.5247200 -0.2623131 1.0142152
v 1.5004737 -0.3598313 1.0142152
v 1.4543790 -0.4224454 1.0142152
v 0.8671387 -0.2705729 1.0142152
v 0.9161642 -0.4959836 1.0224750
v 0.8463561 -0.2705729 1.0224750
v 1.0840233 -0.6638427 1.0224750
v 1.0222085 -0.8722011 1.0224750
v 0.5447427 -0.4685400 1.1874032
v 0.5756501 -0.2332708 1.1874032
v 0.4994474 -0.6531850 1.1874032
v 0.8037253 -0.6891548 1.1074703
v 1.1365126 -1.1996595 1.0142152
v 0.9689199 -1.1711501 0.9894360
v 1.1455716 -1.1104011 1.0142152
v 1.1429072 -0.8849904 1.0142152
v 1.0427246 -0.8722011 1.0142152
v 0.9158978 -1.0195441 0.9952978
v 0.8951152 -1.0195441 1.0035575
v 1.0222085 -0.8722011 1.0224750
v 0.7744165 -1.1439730 0.9356145
v 0.6723689 -1.1604924 0.8767306
v 0.6806286 -1.3003750 0.8793951
v 0.6499877 -1.3139636 0.8676716
v 0.5468742 -1.3075690 0.8676716
v 0.6241427 -1.1293186 0.8676716
v 0.4602803 -1.2305669 0.8676716
v 0.5228944 -1.1114669 0.8676716
v 0.3928702 -1.1218582 0.8676716
v 0.4994474 -0.6531850 1.1874032
v 0.8037253 -0.6891548 1.1074703
v 0.5815118 -0.8378300 1.1874032
v 0.7853407 -0.8730004 1.1074703
v 0.5404796 -1.0592441 1.1874032
v 0.4922534 -1.2060542 1.1874032
v 0.6723689 -1.1604924 0.8767306
v 0.6241427 -1.1293186 0.8676716
v 0.7744165 -1.1439730 0.9356145
v -0.1738540 -0.8596783 1.1341146
v -0.1008487 -1.0970790 1.1255884
v -0.3116051 -1.1655548 1.1130656
v -0.3014802 -0.9428085 1.1341146
v -0.3014802 -0.9428085 1.1341146
v -0.3203977 -0.8330340 1.1341146
v -0.1738540 -0.8596783 1.1341146
v -0.2537869 -0.6731682 1.1341146
v -0.0805990 -0.6731682 1.1341146
v 0.0126560 -0.8197118 1.1341146
v 0.0126560 -0.8197118 1.1341146
v -0.0406326 -0.9262890 1.1341146
v -0.0139883 -1.0595105 1.1341146
v 0.1096413 -1.1775448 1.1341146
v 0.4922534 -1.2060542 1.1874032
v 0.3419796 -1.3195589 1.1114669
v 0.2657769 -1.2460206 1.1341146
v 0.0766024 -1.2540139 1.1114669
v -0.0971185 -1.1676864 1.1127991
v -0.1341540 2.0919771 0.1994326
v -0.0981842 2.0693295 0.1994326
v -0.1757191 2.0701288 0.1994326
v -0.0925889 2.1663147 0.1994326
v -0.1298910 2.1745744 0.1994326
v -0.0571520 2.2678295 0.1994326
v -0.0848621 2.2992697 0.1994326
v 0.0062614 2.3075295 0.1994326
v 0.0011990 2.3469630 0.1994326
v 0.0587507 2.3101939 0.1994326
v 0.0587507 2.3512261 0.1994326
v 0.1157695 2.3072630 0.1994326
v 0.1581339 2.3504268 0.1994326
v 0.1738540 2.2800859 0.1994326
v 0.2095574 2.3512261 0.1994326
v 0.1738540 2.4223664 0.1994326
v 0.1157695 2.3951892 0.1994326
v 0.0582178 2.3933241 0.1994326
v -0.0011990 2.3898604 0.1994326
v -0.1059111 2.3293778 0.1994326
v -0.1615977 2.1820348 0.1994326
v 0.4858588 2.4692604 0.2002319
v 0.4925199 2.2161395 0.2002319
v 0.3233286 2.5593181 0.2002319
v 0.5271574 2.3437657 0.2002319
v 0.2785661 2.1090295 0.2002319
v 0.0345044 2.5899590 0.2002319
v -0.3217299 2.1583214 0.2002319
v -0.0723393 2.0368234 0.2002319
v -0.2154192 2.0682637 0.2002319
v -0.4469581 2.3304436 0.2002319
v -0.4123205 2.4580698 0.2002319
v -0.2378004 2.5404007 0.2002319
v -1.2436226 -1.7698475 0.7102038
v -1.2636059 -2.1449993 0.7102038
v -1.3888341 -1.9419697 0.7102038
v -1.0944146 -1.7551932 0.7102038
v -0.9364139 -1.7978240 0.7102038
v -0.9747817 -2.1743080 0.7102038
v -0.8388957 -1.8881482 0.7102038
v -0.8386293 -2.0584053 0.7102038
v -1.0917501 -1.5289831 0.9209602
v -1.2731978 -1.5447032 0.9233582
v -1.0874870 -1.4104159 0.9209602
v -1.4242710 -1.3981596 0.9209602
v -1.3392757 -1.1786105 0.9209602
v -1.2103173 -1.1080032 0.9095031
v -1.0842897 -1.0898850 0.9209602
v -0.9667884 -1.1338481 0.9209602
v -0.8964474 -1.2284354 0.9209602
v -0.8847239 -1.3573938 0.9209602
v -0.9630582 -1.4621059 0.9209602
v 1.7416046 -1.0262052 0.9721172
v 1.5545616 -1.1053387 1.0600434
v 1.5273844 -0.9542656 1.0600434
v 1.7605220 -1.1317166 0.9721172
v 1.7730449 -0.9230917 0.9721172
v 1.5724133 -0.8071890 1.0600434
v 1.8460502 -0.8439582 0.9721172
v 1.6765925 -0.6939508 1.0600434
v 1.9475650 -0.8077219 0.9721172
v 1.8215375 -0.6425273 1.0600434
v 1.9283811 -0.8860562 0.9721172
v 1.8702965 -0.9015098 0.9721172
v 1.8313959 -0.9553313 0.9721172
v 1.8194059 -1.0675038 0.9721172
v 1.9438348 -1.0986777 0.9721172
v 1.9350422 -1.0656387 0.9721172
v 2.0107120 -0.9830414 0.9721172
v 1.9776731 -0.9918340 0.9721172
v -1.1903340 -0.4107219 1.1341146
v -1.1722159 -0.4994474 1.1341146
v -1.2180441 -0.3616964 1.1341146
v -1.1626240 -0.4597474 1.1341146
v -1.1135985 -0.4320373 1.1341146
v -1.0645730 -0.4043272 1.1341146
v -1.2007253 -0.6062910 1.1341146
v -1.1722159 -0.4994474 1.1341146
v -1.0645730 -0.4043272 1.1341146
v -1.0331327 -0.4981152 1.1341146
v -0.9992944 -0.3345192 1.1341146
v -1.0922830 -0.3553017 1.1341146
v -1.1199931 -0.3062762 1.1341146
v -1.1346475 -0.2367346 1.1341146
v -1.3104998 -0.2625796 1.1341146
v -1.1690186 -0.3339863 1.1341146
v -1.2180441 -0.3616964 1.1341146
v -1.5273844 -0.3856762 1.1341146
v -1.4687670 -0.5548675 1.1341146
v -1.3619233 -0.6292051 1.1341146
v -0.2551192 0.9558642 1.1341146
v -0.1562688 0.6715695 1.1386441
v -0.4083239 0.8951152 1.1365126
v -0.0571520 0.9646568 1.1341146
v 0.0888587 0.9276213 1.1341146
v 0.1973010 0.8037253 1.1301179
v 0.1514728 0.6326689 1.1301179
v 0.0614151 0.4866581 1.1301179
v -0.1309567 0.4136527 1.1301179
v -0.3521044 0.4760004 1.1301179
v -0.4789313 0.6790300 1.1301179
v 0.8143830 1.5958603 0.9587951
v 0.5426111 1.3605911 0.9587951
v 0.5676568 1.7080328 0.9587951
v 0.7941333 1.3406079 0.9587951
v 0.6497212 1.2329649 0.9587951
v 0.5506044 1.1818079 0.9587951
v 0.3710219 1.2745300 0.9587951
v 0.3497064 1.3776435 0.9587951
v 0.3886071 1.5412395 0.9587951
v -0.2700400 -1.9065328 0.7102038
v -0.3651601 -1.7306804 0.7147333
v -0.2551192 -1.6622046 0.7078058
v 0.1293581 -1.9313120 0.7102038
v 0.3198648 -1.7570583 0.7245917
v 0.3958011 -1.8218039 0.7323185
v -0.3651601 -1.7306804 0.7147333
v -0.4029950 -1.8154093 0.7102038
v 0.2050279 -1.6811220 0.7078058
v 0.0568856 -1.6432871 0.7078058
v -0.1152366 -1.6427542 0.7078058
v -0.0949869 -1.9425026 0.7102038
v 0.0568856 -1.6432871 0.7078058
v -0.1152366 -1.6427542 0.7078058
v -0.2551192 -1.6622046 0.7078058
v -0.2700400 -1.9065328 0.7102038
v -1.1626240 -0.4597474 1.0778951
v -1.2180441 -0.3616964 1.0778951
v -1.1199931 -0.3062762 1.0778951
v -1.0645730 -0.4043272 1.0778951
v -0.2167514 -0.3537031 1.1325159
v -0.1759856 -0.5250259 1.1341146
v -0.3395816 -0.4496225 1.1325159
v -0.2385997 -0.1994326 1.1325159
v 0.1179010 -0.4498890 1.1341146
v -0.3830118 -0.1408151 1.1325159
v -0.3507722 0.1626634 1.1341146
v -0.5817783 0.0054621 1.1341146
v -0.5058420 -0.2370010 1.1325159
v -0.6883555 -0.1917057 1.1341146
v -0.6414615 -0.3758178 1.1341146
v -0.4842601 -0.3912715 1.1325159
v -0.4538856 -0.4978487 1.1341146
v 0.1043124 -0.1314896 1.1325159
v 0.2420635 -0.3385158 1.1335817
v 0.2212809 0.2106232 1.1341146
v 0.0608822 0.1773178 1.1325159
v -0.0566191 0.2378004 1.1341146
v 0.2055608 0.1189668 1.1325159
v 0.3025460 0.0307742 1.1330488
v 0.3161346 -0.1533379 1.1330488
v 0.2271426 -0.0355701 1.1325159
v 0.2420635 -0.3385158 1.1335817
v -0.0400997 -0.0731386 1.1325159
v -0.0619480 0.0813983 1.1325159
v -0.7464400 -0.0667440 -0.3401145
v -0.8151823 0.0707406 -0.3084078
v -0.6329353 0.1370849 -0.2793655
v -0.5665910 0.0086594 -0.3081413
v -0.7104702 -0.2010312 -0.4051266
v -0.5282232 -0.1445453 -0.3795480
v -0.6086890 -0.4251098 -0.4712044
v -0.4264420 -0.3584990 -0.4424286
v -0.0446292 0.0891252 -0.6052252
v -0.1272265 0.1040460 -0.6052252
v -0.0965856 0.2322051 -0.6052252
v -0.0286426 0.2199487 -0.6052252
v -0.0174520 0.3441111 -0.6052252
v -0.0635467 0.3526373 -0.6052252
v -0.0270440 0.4232447 -0.6001628
v -0.0009326 -0.0659446 -1.1866038
v -0.1410816 0.0038634 -1.2119159
v -0.1104406 0.1424138 -1.1898012
v 0.1075097 0.0030641 -1.1996595
v -0.1706567 -0.1925051 -1.1908669
v 0.0049292 -0.2279420 -1.2057877
v 0.1647950 -0.2484581 -1.1823408
v -0.0294419 -0.3752849 -1.1551636
v 0.0275768 -0.4653427 -1.1482360
v -0.2183500 -0.3774165 -1.1687522
v -0.2231460 -0.5202299 -1.1170622
v -0.3659594 -0.2908225 -1.1282528
v -0.4410964 -0.3808802 -1.1074703
v -0.3478413 -0.1368185 -1.1442394
v -0.4981152 -0.1293581 -1.1245226
v -0.2647111 -0.0584842 -1.1932649
v -0.3611635 0.0875265 -1.1588938
v -0.1328218 -0.1581339 -0.8197118
v -0.1059111 0.1405487 -0.8500863
v -0.0840628 0.1266936 -0.8511521
v -0.3811467 0.1949030 -0.8266394
v -0.1117728 0.1658608 -0.8516850
v -0.0979178 0.1874426 -0.8551488
v -0.0606158 0.2649775 -0.8663394
v -0.0728722 0.1930379 -0.8583461
v -0.0510238 0.1791829 -0.8594119
v 0.2175507 0.0872601 -0.8785957
v -0.0454285 0.1538708 -0.8575468
v -0.0590171 0.1322889 -0.8540830
v 0.2908225 -0.2343366 -0.8567474
v 0.1157695 -0.5114373 -0.8130508
v 0.0992500 -0.1986332 -0.8402280
v -0.2047614 -0.5815118 -0.7733508
v -0.1328218 -0.1581339 -0.8197118
v -0.4831944 -0.4035279 -0.7608279
v -0.5561997 -0.0819312 -0.7829427
v -0.3624957 -0.1155030 -0.7999951
v 0.0992500 -0.1986332 -0.8402280
v -0.3624957 -0.1155030 -0.7999951
vt 0.3769531 1.1115723
vt 0.3142090 1.1286621
vt 0.3916016 0.9274902
vt 0.3142090 1.1286621
vt 0.3771973 0.8823242
vt 0.3916016 0.9274902
vt 0.2707520 1.1562500
vt 0.3771973 0.8823242
vt 0.3142090 1.1286621
vt 0.4074707 1.1176758
vt 0.6984863 1.0917969
vt 0.6523438 1.2116699
vt 0.4533691 0.9980469
vt 0.6984863 1.0917969
vt 0.4074707 1.1176758
vt 0.4074707 1.1176758
vt 0.3769531 1.1115723
vt 0.4533691 0.9980469
vt 0.3769531 1.1115723
vt 0.4267578 0.9819336
vt 0.4533691 0.9980469
vt 0.3916016 0.9274902
vt 0.4267578 0.9819336
vt 0.3769531 1.1115723
vt 0.4033203 1.2919922
vt 0.2336426 1.2609863
vt 0.3078613 0.8527833
vt 0.3078613 0.8527833
vt 0.2336426 1.2609863
vt 0.0957031 1.2497559
vt 0.0957031 1.2497559
vt 0.1228027 0.8334961
vt 0.3078613 0.8527833
vt 0.2019042 1.3342285
vt 0.4130859 1.8684082
vt 0.1281738 1.6860352
vt 0.5522461 1.4265137
vt 0.4130859 1.8684082
vt 0.2019042 1.3342285
vt 0.5522461 1.4265137
vt 0.8007813 1.6396484
vt 0.4130859 1.8684082
vt 0.4130859 1.8684082
vt 0.8007813 1.6396484
vt 0.7250977 1.8620605
vt 0.3078613 0.8527833
vt 0.4855957 0.9084473
vt 0.4033203 1.2919922
vt 0.5834961 1.3686523
vt 0.4804688 1.4760742
vt 0.4526367 1.3991699
vt 0.2199707 1.9279785
vt 0.4526367 1.3991699
vt 0.4804688 1.4760742
vt 0.4804688 1.4760742
vt 0.2988281 1.9541016
vt 0.2199707 1.9279785
vt 0.5834961 1.3686523
vt 0.5522461 1.6225586
vt 0.4804688 1.4760742
vt 0.2988281 1.9541016
vt 0.4804688 1.4760742
vt 0.5522461 1.6225586
vt 0.5522461 1.6225586
vt 0.3640137 1.9824219
vt 0.2988281 1.9541016
vt 0.5522461 1.6225586
vt 0.5834961 1.3686523
vt 0.6579590 1.5764160
vt 0.6579590 1.5764160
vt 0.7111816 1.8374023
vt 0.5522461 1.6225586
vt 0.5522461 1.6225586
vt 0.7111816 1.8374023
vt 0.3640137 1.9824219
vt 0.3640137 1.9824219
vt 0.7111816 1.8374023
vt 0.6743164 2.0703130
vt 1.1638180 1.8942871
vt 1.1210940 1.6948242
vt 1.3706050 1.9631348
vt 1.3706050 1.9631348
vt 1.1210940 1.6948242
vt 1.1418460 1.6867676
vt 1.1418460 1.6867676
vt 1.1210940 1.6948242
vt 1.0805660 1.3383789
vt 0.9753418 1.4797363
vt 1.0805660 1.3383789
vt 1.1210940 1.6948242
vt 1.1210940 1.6948242
vt 1.1638180 1.8942871
vt 0.9753418 1.4797363
vt 0.8291016 1.6413574
vt 0.9753418 1.4797363
vt 1.1638180 1.8942871
vt 1.1638180 1.8942871
vt 0.9499512 1.8994141
vt 0.8291016 1.6413574
vt 0.6743164 2.0703130
vt 0.7358398 1.8381348
vt 0.7656250 2.0036620
vt 0.7656250 2.0036620
vt 0.7358398 1.8381348
vt 0.9499512 1.8994141
vt 0.9499512 1.8994141
vt 0.7358398 1.8381348
vt 0.8291016 1.6413574
vt 0.8291016 1.6413574
vt 0.7358398 1.8381348
vt 0.7207031 1.6425781
vt 0.7207031 1.6425781
vt 0.7358398 1.8381348
vt 0.6579590 1.5764160
vt 0.6579590 1.5764160
vt 0.7358398 1.8381348
vt 0.7111816 1.8374023
vt 0.7111816 1.8374023
vt 0.7358398 1.8381348
vt 0.6743164 2.0703130
vt 0.7656250 2.0036620
vt 0.6152344 2.3459470
vt 0.6743164 2.0703130
vt 1.3706050 1.9631348
vt 0.9843750 1.9875488
vt 1.1638180 1.8942871
vt 0.9499512 1.8994141
vt 1.1638180 1.8942871
vt 0.9843750 1.9875488
vt 0.9843750 1.9875488
vt 0.6152344 2.3459470
vt 0.9499512 1.8994141
vt 0.9499512 1.8994141
vt 0.6152344 2.3459470
vt 0.7656250 2.0036620
vt 0.0749512 2.2653810
vt 0.1281738 2.2829590
vt 0.0659180 2.2790530
vt 0.0749512 2.2653810
vt 0.2199707 1.9279785
vt 0.2988281 1.9541016
vt 0.2988281 1.9541016
vt 0.1281738 2.2829590
vt 0.0749512 2.2653810
vt 0.2988281 1.9541016
vt 0.3640137 1.9824219
vt 0.1281738 2.2829590
vt 0.1281738 2.2829590
vt 0.1428223 2.3586430
vt 0.0659180 2.2790530
vt 0.6743164 2.0703130
vt 0.5092773 2.3208010
vt 0.3640137 1.9824219
vt 0.3640137 1.9824219
vt 0.5092773 2.3208010
vt 0.1281738 2.2829590
vt 0.5092773 2.3208010
vt 0.4526367 2.5039060
vt 0.1281738 2.2829590
vt 0.1281738 2.2829590
vt 0.4526367 2.5039060
vt 0.1428223 2.3586430
vt 0.4526367 2.5039060
vt 0.4213867 2.7424320
vt 0.1428223 2.3586430
vt 0.1428223 2.3586430
vt 0.4213867 2.7424320
vt 0.2653809 2.6909180
vt 0.2653809 2.6909180
vt 0.4213867 2.7424320
vt 0.3015137 3.0407710
vt 0.1181641 3.0187990
vt 0.2653809 2.6909180
vt 0.3015137 3.0407710
vt 0.3015137 3.0407710
vt 0.0600586 3.2363280
vt 0.1181641 3.0187990
vt 0.1181641 3.0187990
vt 0.0600586 3.2363280
vt -0.2712402 3.2958980
vt -0.2175292 3.1464840
vt 0.1181641 3.0187990
vt -0.2712402 3.2958980
vt 0.6152344 2.3459470
vt 0.5092773 2.3208010
vt 0.6743164 2.0703130
vt 0.6152344 2.3459470
vt 0.5224609 2.7683110
vt 0.4526367 2.5039060
vt 0.5092773 2.3208010
vt 0.6152344 2.3459470
vt 0.4526367 2.5039060
vt 0.4213867 2.7424320
vt 0.4526367 2.5039060
vt 0.5224609 2.7683110
vt 0.3015137 3.0407710
vt 0.4213867 2.7424320
vt 0.5224609 2.7683110
vt 0.5224609 2.7683110
vt 0.3879395 3.1196290
vt 0.3015137 3.0407710
vt 0.0600586 3.2363280
vt 0.3015137 3.0407710
vt 0.3879395 3.1196290
vt 0.3879395 3.1196290
vt 0.0998535 3.3532710
vt 0.0600586 3.2363280
vt -0.2712402 3.2958980
vt 0.0600586 3.2363280
vt 0.0998535 3.3532710
vt 0.0998535 3.3532710
vt -0.2507324 3.4187010
vt -0.2712402 3.2958980
vt -0.1108398 2.2016600
vt -0.1066895 2.1860350
vt 0.0659180 2.2790530
vt 0.0659180 2.2790530
vt -0.1066895 2.1860350
vt 0.0749512 2.2653810
vt -0.1108398 2.2016600
vt -0.1562500 2.1586910
vt -0.1066895 2.1860350
vt -0.5571289 3.1779790
vt -0.7712402 2.9230960
vt -0.5454102 2.9992680
vt -0.6730957 2.6633300
vt -0.5454102 2.9992680
vt -0.7712402 2.9230960
vt -0.7712402 2.9230960
vt -0.8237305 2.6105960
vt -0.6730957 2.6633300
vt -0.6730957 2.6633300
vt -0.8237305 2.6105960
vt -0.5256348 2.3354490
vt -0.5256348 2.3354490
vt -0.8237305 2.6105960
vt -0.6958008 2.3110350
vt -0.6958008 2.3110350
vt -0.4326172 2.1242680
vt -0.5256348 2.3354490
vt -0.1977539 2.2148440
vt -0.5256348 2.3354490
vt -0.4326172 2.1242680
vt -0.4326172 2.1242680
vt -0.3635254 2.0202640
vt -0.1977539 2.2148440
vt -0.1108398 2.2016600
vt 0.0659180 2.2790530
vt 0.1428223 2.3586430
vt 0.1428223 2.3586430
vt -0.1977539 2.2148440
vt -0.1108398 2.2016600
vt -0.1562500 2.1586910
vt -0.1108398 2.2016600
vt -0.1977539 2.2148440
vt -0.1977539 2.2148440
vt -0.3635254 2.0202640
vt -0.1562500 2.1586910
vt -0.2712402 3.2958980
vt -0.5571289 3.1779790
vt -0.2175292 3.1464840
vt -0.2175292 3.1464840
vt -0.5571289 3.1779790
vt -0.5454102 2.9992680
vt -0.5571289 3.1779790
vt -0.2712402 3.2958980
vt -0.2507324 3.4187010
vt -0.2507324 3.4187010
vt -0.6149902 3.2695310
vt -0.5571289 3.1779790
vt -0.7712402 2.9230960
vt -0.5571289 3.1779790
vt -0.6149902 3.2695310
vt -0.6149902 3.2695310
vt -0.8620605 2.9819340
vt -0.7712402 2.9230960
vt -0.8237305 2.6105960
vt -0.7712402 2.9230960
vt -0.8620605 2.9819340
vt -0.8620605 2.9819340
vt -0.9345703 2.6015630
vt -0.8237305 2.6105960
vt -0.6958008 2.3110350
vt -0.8237305 2.6105960
vt -0.9345703 2.6015630
vt -0.9345703 2.6015630
vt -0.8029785 2.2321780
vt -0.6958008 2.3110350
vt -0.4326172 2.1242680
vt -0.6958008 2.3110350
vt -0.8029785 2.2321780
vt -0.8029785 2.2321780
vt -0.5295410 2.0727540
vt -0.4326172 2.1242680
vt -0.3635254 2.0202640
vt -0.4326172 2.1242680
vt -0.5295410 2.0727540
vt -0.0351562 1.8173828
vt -0.4145508 1.7441406
vt -0.3071289 1.4699707
vt 0.1958008 1.3518066
vt -0.0351562 1.8173828
vt -0.3071289 1.4699707
vt -0.3071289 1.4699707
vt -0.0664062 1.2243652
vt 0.1958008 1.3518066
vt -0.0664062 1.2243652
vt 0.1916504 1.2226563
vt 0.1958008 1.3518066
vt 0.3017578 1.2556152
vt 0.1958008 1.3518066
vt 0.1916504 1.2226563
vt 0.1916504 1.2226563
vt 0.3344727 1.0446777
vt 0.3017578 1.2556152
vt 0.3017578 1.2556152
vt 0.3344727 1.0446777
vt 0.5000000 1.0393066
vt 0.5000000 1.0393066
vt 0.6159668 1.1594238
vt 0.3017578 1.2556152
vt 0.3017578 1.2556152
vt 0.6159668 1.1594238
vt 0.5834961 1.3686523
vt 0.0427246 1.8505859
vt -0.1066895 2.1860350
vt -0.1562500 2.1586910
vt -0.1562500 2.1586910
vt -0.0351562 1.8173828
vt 0.0427246 1.8505859
vt 0.2705078 1.3198242
vt 0.0427246 1.8505859
vt -0.0351562 1.8173828
vt -0.0351562 1.8173828
vt 0.1958008 1.3518066
vt 0.2705078 1.3198242
vt 0.1958008 1.3518066
vt 0.3017578 1.2556152
vt 0.2705078 1.3198242
vt 0.5834961 1.3686523
vt 0.4526367 1.3991699
vt 0.3017578 1.2556152
vt 0.4526367 1.3991699
vt 0.2705078 1.3198242
vt 0.3017578 1.2556152
vt -0.0351562 1.8173828
vt -0.1562500 2.1586910
vt -0.3635254 2.0202640
vt -0.3635254 2.0202640
vt -0.4145508 1.7441406
vt -0.0351562 1.8173828
vt -0.4145508 1.7441406
vt -0.3635254 2.0202640
vt -0.5295410 2.0727540
vt -0.5295410 2.0727540
vt -0.5119629 1.7175293
vt -0.4145508 1.7441406
vt -0.4145508 1.7441406
vt -0.5119629 1.7175293
vt -0.3071289 1.4699707
vt -0.5976563 1.1486816
vt -0.2963867 0.9389648
vt -0.3774414 1.2021484
vt -0.0664062 1.2243652
vt -0.3071289 1.4699707
vt -0.3774414 1.2021484
vt -0.0664062 1.2243652
vt -0.3774414 1.2021484
vt -0.2963867 0.9389648
vt 2.4726560 1.3295898
vt 1.8173830 1.5351563
vt 2.0561520 1.0097656
vt 1.4843750 0.9497070
vt 2.0561520 1.0097656
vt 1.8173830 1.5351563
vt 1.4843750 0.9497070
vt 1.8173830 1.5351563
vt 1.2753910 1.0854492
vt 1.0805660 1.3383789
vt 1.2753910 1.0854492
vt 1.8173830 1.5351563
vt 1.0805660 1.3383789
vt 1.8173830 1.5351563
vt 1.1418460 1.6867676
vt 1.3706050 1.9631348
vt 1.1418460 1.6867676
vt 1.8173830 1.5351563
vt 1.3706050 1.9631348
vt 1.8173830 1.5351563
vt 1.7041020 2.0981450
vt 2.0546880 2.0512700
vt 1.7041020 2.0981450
vt 1.8173830 1.5351563
vt 2.3276370 1.8364258
vt 2.0546880 2.0512700
vt 1.8173830 1.5351563
vt 2.4501950 1.5095215
vt 2.3276370 1.8364258
vt 1.8173830 1.5351563
vt 1.8173830 1.5351563
vt 2.4726560 1.3295898
vt 2.4501950 1.5095215
vt 0.6777344 0.0021973
vt 0.4772949 0.0661621
vt 0.2910156 -0.4797360
vt 0.2910156 -0.4797360
vt 0.7727051 -0.7541500
vt 0.6777344 0.0021973
vt 0.6777344 0.0021973
vt 0.7727051 -0.7541500
vt 0.9040527 -0.0917970
vt 0.9040527 -0.0917970
vt 0.7727051 -0.7541500
vt 1.2224120 -0.7241210
vt 1.2224120 -0.7241210
vt 1.3554690 -0.3420410
vt 0.9040527 -0.0917970
vt 0.9040527 -0.0917970
vt 1.3554690 -0.3420410
vt 1.1240230 0.0744629
vt 1.2094730 0.2695312
vt 1.1240230 0.0744629
vt 1.3493650 0.2624512
vt 1.1240230 0.0744629
vt 1.3554690 -0.3420410
vt 1.3493650 0.2624512
vt 1.2224120 -0.7241210
vt 1.5131840 -0.4689940
vt 1.3554690 -0.3420410
vt 1.3493650 0.2624512
vt 1.3554690 -0.3420410
vt 1.5847170 -0.0996090
vt 1.5637210 0.1264648
vt 1.3493650 0.2624512
vt 1.5847170 -0.0996090
vt 1.5847170 -0.0996090
vt 1.3554690 -0.3420410
vt 1.5131840 -0.4689940
vt 1.5131840 -0.4689940
vt 1.7778320 -0.0095210
vt 1.5847170 -0.0996090
vt 1.5847170 -0.0996090
vt 1.7778320 -0.0095210
vt 1.5637210 0.1264648
vt 0.2910156 -0.4797360
vt 0.4772949 0.0661621
vt 0.4511719 0.0742187
vt 0.1252441 -0.1657710
vt 0.2626953 0.0322266
vt 0.2451172 0.0375977
vt -0.1589355 -0.5571290
vt 0.0825195 -0.3364260
vt -0.1215820 -0.3134770
vt -0.1215820 -0.3134770
vt 0.1252441 -0.1657710
vt 0.0075684 -0.2065430
vt 0.0825195 -0.3364260
vt 0.1252441 -0.1657710
vt -0.1215820 -0.3134770
vt -0.1215820 -0.3134770
vt 0.0075684 -0.2065430
vt -0.1589355 -0.2307130
vt -0.5209961 0.0266113
vt -0.5844727 0.0114746
vt -0.4716797 -0.0722660
vt -0.4716797 -0.0722660
vt -0.5844727 0.0114746
vt -0.5129395 -0.1120610
vt -0.3608398 -0.1618650
vt -0.4716797 -0.0722660
vt -0.5129395 -0.1120610
vt -0.5129395 -0.1120610
vt -0.4284668 -0.2626950
vt -0.3608398 -0.1618650
vt -0.3608398 -0.1618650
vt -0.4284668 -0.2626950
vt -0.1589355 -0.2307130
vt -0.1589355 -0.2307130
vt -0.4284668 -0.2626950
vt -0.1215820 -0.3134770
vt -0.1589355 -0.5571290
vt -0.1215820 -0.3134770
vt -0.4284668 -0.2626950
vt -0.4284668 -0.2626950
vt -0.3305664 -0.4584960
vt -0.1589355 -0.5571290
vt -0.1801758 -0.7065430
vt -0.1589355 -0.5571290
vt -0.3305664 -0.4584960
vt -0.3305664 -0.4584960
vt -0.2851563 -0.6032710
vt -0.1801758 -0.7065430
vt 0.0825195 -0.3364260
vt 0.2644043 -0.2893070
vt 0.1252441 -0.1657710
vt 0.1252441 -0.1657710
vt 0.2644043 -0.2893070
vt 0.2626953 0.0322266
vt 0.4511719 0.0742187
vt 0.2626953 0.0322266
vt 0.2644043 -0.2893070
vt 0.2644043 -0.2893070
vt 0.2910156 -0.4797360
vt 0.4511719 0.0742187
vt 0.0991211 -0.0964360
vt 0.0075684 -0.2065430
vt 0.1252441 -0.1657710
vt 0.1252441 -0.1657710
vt 0.2451172 0.0375977
vt 0.0991211 -0.0964360
vt 0.6784668 1.1076660
vt 0.8229980 0.8474121
vt 0.9733887 0.8898926
vt 0.6594238 0.7194824
vt 0.8229980 0.8474121
vt 0.6784668 1.1076660
vt 0.6784668 1.1076660
vt 0.5295410 0.8083496
vt 0.6594238 0.7194824
vt 0.5756836 0.4602051
vt 0.6594238 0.7194824
vt 0.5295410 0.8083496
vt 0.5295410 0.8083496
vt 0.4399414 0.3884277
vt 0.5756836 0.4602051
vt 0.5874023 0.2619629
vt 0.5756836 0.4602051
vt 0.4399414 0.3884277
vt 0.4399414 0.3884277
vt 0.4772949 0.0661621
vt 0.5874023 0.2619629
vt 0.5874023 0.2619629
vt 0.4772949 0.0661621
vt 0.6777344 0.0021973
vt 0.4140625 0.3964844
vt 0.4511719 0.0742187
vt 0.4772949 0.0661621
vt 0.4772949 0.0661621
vt 0.4399414 0.3884277
vt 0.4140625 0.3964844
vt 0.5036621 0.8161621
vt 0.4140625 0.3964844
vt 0.4399414 0.3884277
vt 0.4399414 0.3884277
vt 0.5295410 0.8083496
vt 0.5036621 0.8161621
vt 0.6523438 1.1154785
vt 0.5036621 0.8161621
vt 0.5295410 0.8083496
vt 0.5295410 0.8083496
vt 0.6784668 1.1076660
vt 0.6523438 1.1154785
vt 0.2441406 0.2282715
vt 0.2451172 0.0375977
vt 0.2626953 0.0322266
vt 0.2626953 0.0322266
vt 0.2617188 0.2229004
vt 0.2441406 0.2282715
vt 0.2441406 0.2282715
vt 0.2617188 0.2229004
vt 0.1711426 0.4602051
vt 0.6523438 1.1154785
vt 0.2958984 1.1735840
vt 0.5036621 0.8161621
vt 0.5036621 0.8161621
vt 0.2958984 1.1735840
vt 0.1633301 0.7895508
vt 0.1633301 0.7895508
vt 0.1711426 0.4602051
vt 0.5036621 0.8161621
vt 0.4140625 0.3964844
vt 0.5036621 0.8161621
vt 0.1711426 0.4602051
vt 0.1711426 0.4602051
vt 0.2617188 0.2229004
vt 0.4140625 0.3964844
vt 0.4140625 0.3964844
vt 0.2617188 0.2229004
vt 0.4511719 0.0742187
vt 0.4511719 0.0742187
vt 0.2617188 0.2229004
vt 0.2626953 0.0322266
vt 0.1228027 0.1645508
vt 0.0991211 -0.0964360
vt 0.2451172 0.0375977
vt 0.2451172 0.0375977
vt 0.2441406 0.2282715
vt 0.1228027 0.1645508
vt 0.0854492 0.3872070
vt 0.1228027 0.1645508
vt 0.2441406 0.2282715
vt 0.2441406 0.2282715
vt 0.1711426 0.4602051
vt 0.0854492 0.3872070
vt 0.0854492 0.3872070
vt 0.1711426 0.4602051
vt -0.0009766 0.5358887
vt -0.0009766 0.5358887
vt 0.1711426 0.4602051
vt 0.1633301 0.7895508
vt 1.2812500 1.3906250
vt 1.2653810 1.7761230
vt 1.1340330 1.7988281
vt 1.1313480 1.5117188
vt 1.2812500 1.3906250
vt 1.1340330 1.7988281
vt 0.9733887 0.8898926
vt 1.1442870 0.8945312
vt 0.8537598 1.3649902
vt 0.9733887 0.8898926
vt 1.1213380 0.7934570
vt 1.1442870 0.8945312
vt 1.1442870 0.8945312
vt 1.1213380 0.7934570
vt 1.1665040 0.6828613
vt 1.1665040 0.6828613
vt 1.3479000 0.6252441
vt 1.1442870 0.8945312
vt 1.3479000 0.6252441
vt 1.5053710 0.8417969
vt 1.1442870 0.8945312
vt 1.1442870 0.8945312
vt 1.5053710 0.8417969
vt 1.5126950 0.9741211
vt 1.5126950 0.9741211
vt 1.4790040 1.0708008
vt 1.1442870 0.8945312
vt 1.4790040 1.0708008
vt 1.2812500 1.3906250
vt 1.1442870 0.8945312
vt 1.1442870 0.8945312
vt 1.2812500 1.3906250
vt 1.1313480 1.5117188
vt 1.1313480 1.5117188
vt 0.8537598 1.3649902
vt 1.1442870 0.8945312
vt 0.9733887 0.8898926
vt 0.8537598 1.3649902
vt 0.6784668 1.1076660
vt 0.8278809 1.3730469
vt 0.6523438 1.1154785
vt 0.6784668 1.1076660
vt 0.6784668 1.1076660
vt 0.8537598 1.3649902
vt 0.8278809 1.3730469
vt 1.1052250 1.5197754
vt 0.8278809 1.3730469
vt 0.8537598 1.3649902
vt 0.8537598 1.3649902
vt 1.1313480 1.5117188
vt 1.1052250 1.5197754
vt 1.1081540 1.8066406
vt 1.1052250 1.5197754
vt 1.1313480 1.5117188
vt 1.1313480 1.5117188
vt 1.1340330 1.7988281
vt 1.1081540 1.8066406
vt 0.3483887 1.4826660
vt 0.2958984 1.1735840
vt 0.8278809 1.3730469
vt 0.8278809 1.3730469
vt 0.2958984 1.1735840
vt 0.6523438 1.1154785
vt 0.3630371 1.7333984
vt 0.3483887 1.4826660
vt 0.7609863 1.6604004
vt 0.7609863 1.6604004
vt 0.3483887 1.4826660
vt 0.8278809 1.3730469
vt 0.8278809 1.3730469
vt 1.1052250 1.5197754
vt 0.7609863 1.6604004
vt 0.7609863 1.6604004
vt 1.1052250 1.5197754
vt 1.1081540 1.8066406
vt 1.3796390 2.1757810
vt 1.1569820 2.2048340
vt 1.3562010 2.0595700
vt 1.2653810 1.7761230
vt 1.3562010 2.0595700
vt 1.1569820 2.2048340
vt 1.1569820 2.2048340
vt 1.1340330 1.7988281
vt 1.2653810 1.7761230
vt 1.1340330 1.7988281
vt 1.1569820 2.2048340
vt 1.0310060 2.0341800
vt 1.0048830 2.0422360
vt 1.1081540 1.8066406
vt 1.1340330 1.7988281
vt 1.1340330 1.7988281
vt 1.0310060 2.0341800
vt 1.0048830 2.0422360
vt 1.0048830 2.0422360
vt 1.0310060 2.0341800
vt 0.9008789 2.2463380
vt -0.7604980 1.4096680
vt -0.6679688 1.7897949
vt -0.7456055 1.8454590
vt -0.7456055 1.8454590
vt -1.0332030 1.8786621
vt -0.7604980 1.4096680
vt -0.9094238 1.3500977
vt -0.7604980 1.4096680
vt -1.0332030 1.8786621
vt -1.0332030 1.8786621
vt -1.3107910 1.7102051
vt -0.9094238 1.3500977
vt -1.1975100 1.3510742
vt -0.9094238 1.3500977
vt -1.3107910 1.7102051
vt -1.3107910 1.7102051
vt -1.5517580 1.4448242
vt -1.1975100 1.3510742
vt 0.3630371 1.7333984
vt 0.7609863 1.6604004
vt 0.5383301 1.9345703
vt 0.5383301 1.9345703
vt 0.7609863 1.6604004
vt 0.8093262 1.8999023
vt 0.8093262 1.8999023
vt 0.7609863 1.6604004
vt 1.1081540 1.8066406
vt 1.1081540 1.8066406
vt 1.0048830 2.0422360
vt 0.8093262 1.8999023
vt 0.5383301 1.9345703
vt 0.8093262 1.8999023
vt 0.5725098 2.2299800
vt 0.5725098 2.2299800
vt 0.8093262 1.8999023
vt 1.0048830 2.0422360
vt 1.0048830 2.0422360
vt 0.9008789 2.2463380
vt 0.5725098 2.2299800
vt 0.5686035 2.4343260
vt 0.5725098 2.2299800
vt 0.9008789 2.2463380
vt -0.4155273 1.5283203
vt -0.4946289 1.4846191
vt -0.2514648 1.4875488
vt 0.5544434 0.8891602
vt 0.5761719 1.3083496
vt 0.2019042 1.3342285
vt 0.2019042 1.3342285
vt 0.3117676 0.9729004
vt 0.5544434 0.8891602
vt 0.3117676 0.9729004
vt 0.3254395 0.7851562
vt 0.5544434 0.8891602
vt 0.3254395 0.7851562
vt 0.5000000 0.5507812
vt 0.5544434 0.8891602
vt 0.5544434 0.8891602
vt 0.5000000 0.5507812
vt 0.7834473 0.6223145
vt 0.7834473 0.6223145
vt 0.8762207 0.9008789
vt 0.5544434 0.8891602
vt 0.5544434 0.8891602
vt 0.8762207 0.9008789
vt 0.7453613 1.0529785
vt 0.7453613 1.0529785
vt 0.7343750 1.2822266
vt 0.5544434 0.8891602
vt 0.5544434 0.8891602
vt 0.7343750 1.2822266
vt 0.5761719 1.3083496
vt 0.7343750 1.2822266
vt 0.8886719 1.5266113
vt 0.5761719 1.3083496
vt 1.5080570 1.7280273
vt 1.2084960 1.8564453
vt 1.1162110 1.7031250
vt 0.8886719 1.5266113
vt 1.1162110 1.7031250
vt 1.2084960 1.8564453
vt 1.2084960 1.8564453
vt 0.8007813 1.6396484
vt 0.8886719 1.5266113
vt 0.5761719 1.3083496
vt 0.8886719 1.5266113
vt 0.8007813 1.6396484
vt 0.8007813 1.6396484
vt 0.5522461 1.4265137
vt 0.5761719 1.3083496
vt 0.2019042 1.3342285
vt 0.5761719 1.3083496
vt 0.5522461 1.4265137
vt -1.5976560 1.3610840
vt -1.7556150 1.7023926
vt -1.8359380 1.0192871
vt -0.8969727 1.6442871
vt -1.7556150 1.7023926
vt -1.5976560 1.3610840
vt -1.5976560 1.3610840
vt -0.8666992 1.3063965
vt -0.8969727 1.6442871
vt 0.0363769 1.8427734
vt -0.8969727 1.6442871
vt -0.8666992 1.3063965
vt -0.8666992 1.3063965
vt 0.2814941 1.5622559
vt 0.0363769 1.8427734
vt 0.4553223 2.3562010
vt 0.0363769 1.8427734
vt 0.2814941 1.5622559
vt 0.2814941 1.5622559
vt 0.7973633 2.2663570
vt 0.4553223 2.3562010
vt 0.5378418 2.8149410
vt 0.4553223 2.3562010
vt 0.7973633 2.2663570
vt 0.7973633 2.2663570
vt 0.8979492 2.7692870
vt 0.5378418 2.8149410
vt 0.5756836 3.3205570
vt 0.5378418 2.8149410
vt 0.8979492 2.7692870
vt 0.8979492 2.7692870
vt 1.0026860 3.6437990
vt 0.5756836 3.3205570
vt 1.0026860 3.6437990
vt 0.4013672 3.8608400
vt 0.5756836 3.3205570
vt 1.0671390 4.0964360
vt 0.4013672 3.8608400
vt 1.0026860 3.6437990
vt 1.0026860 3.6437990
vt 1.6528320 3.7021480
vt 1.0671390 4.0964360
vt 1.3491210 3.2226560
vt 1.6528320 3.7021480
vt 1.0026860 3.6437990
vt 1.0026860 3.6437990
vt 0.8979492 2.7692870
vt 1.3491210 3.2226560
vt 1.2692870 2.7180180
vt 1.3491210 3.2226560
vt 0.8979492 2.7692870
vt 0.8979492 2.7692870
vt 0.7973633 2.2663570
vt 1.2692870 2.7180180
vt 0.7973633 2.2663570
vt 1.1728520 2.1975100
vt 1.2692870 2.7180180
vt 0.2814941 1.5622559
vt 1.1728520 2.1975100
vt 0.7973633 2.2663570
vt 0.5222168 1.3457031
vt 1.1728520 2.1975100
vt 0.2814941 1.5622559
vt 0.2814941 1.5622559
vt -0.8666992 1.3063965
vt 0.5222168 1.3457031
vt -0.8666992 1.3063965
vt -0.8359375 1.0192871
vt 0.5222168 1.3457031
vt -1.5976560 1.3610840
vt -0.8359375 1.0192871
vt -0.8666992 1.3063965
vt -1.8359380 1.0192871
vt -0.8359375 1.0192871
vt -1.5976560 1.3610840
vt 0.0593262 1.6293945
vt -0.2360840 1.4702148
vt 0.2697754 1.5019531
vt -0.1120605 1.5942383
vt -0.2360840 1.4702148
vt 0.0593262 1.6293945
vt -0.2182617 1.1538085
vt 0.2697754 1.5019531
vt -0.2360840 1.4702148
vt -0.2182617 1.1538085
vt 0.4953613 1.1896973
vt 0.2697754 1.5019531
vt 0.2333984 0.4958496
vt -0.0700684 0.7026367
vt 0.0598144 0.5588379
vt 0.4050293 0.5312500
vt -0.0700684 0.7026367
vt 0.2333984 0.4958496
vt 0.5290527 0.6550293
vt 0.5720215 0.8344727
vt -0.0700684 0.7026367
vt 0.4953613 1.1896973
vt -0.0700684 0.7026367
vt 0.5720215 0.8344727
vt -0.2182617 1.1538085
vt -0.0700684 0.7026367
vt 0.4953613 1.1896973
vt 0.5290527 0.6550293
vt -0.0700684 0.7026367
vt 0.4050293 0.5312500
vt 0.1435547 0.8256836
vt -0.0078125 0.3691406
vt -0.0937500 0.6621094
vt 0.1435547 0.8256836
vt 0.3327637 0.7932129
vt -0.0078125 0.3691406
vt 0.3327637 0.7932129
vt 0.5134277 0.6870117
vt -0.0078125 0.3691406
vt 0.3386230 0.2351074
vt -0.0078125 0.3691406
vt 0.5134277 0.6870117
vt 0.5134277 0.6870117
vt 0.6035156 0.5424805
vt 0.3386230 0.2351074
vt 0.5461426 0.3320312
vt 0.3386230 0.2351074
vt 0.6035156 0.5424805
vt 0.2827148 1.2004395
vt 0.0839844 1.3845215
vt 0.1787109 1.0566406
vt 0.0839844 1.3845215
vt -0.2282715 1.3498535
vt 0.1787109 1.0566406
vt -0.2282715 1.3498535
vt -0.3295898 1.0129394
vt 0.1787109 1.0566406
vt -0.3295898 1.0129394
vt -0.2441406 0.8129883
vt 0.1787109 1.0566406
vt -0.2441406 0.8129883
vt -0.1115723 0.6755371
vt 0.1787109 1.0566406
vt -0.1115723 0.6755371
vt 0.0668945 0.6198730
vt 0.1787109 1.0566406
vt 0.1787109 1.0566406
vt 0.0668945 0.6198730
vt 0.2363281 0.6672363
vt 0.2363281 0.6672363
vt 0.3684082 0.8088379
vt 0.1787109 1.0566406
vt 0.3684082 0.8088379
vt 0.3725586 1.0039062
vt 0.1787109 1.0566406
vt 0.3725586 1.0039062
vt 0.2827148 1.2004395
vt 0.1787109 1.0566406
vt 0.1960449 0.7988281
vt -0.1894531 0.5720215
vt 0.0412598 0.3259277
vt 0.0344238 0.9709473
vt -0.1894531 0.5720215
vt 0.1960449 0.7988281
vt 0.4196777 0.7187500
vt 0.1960449 0.7988281
vt 0.0412598 0.3259277
vt 0.0412598 0.3259277
vt 0.3603516 0.2119141
vt 0.4196777 0.7187500
vt 0.6552734 0.7436523
vt 0.4196777 0.7187500
vt 0.3603516 0.2119141
vt 0.3603516 0.2119141
vt 0.6970215 0.2473145
vt 0.6552734 0.7436523
vt 0.8525391 0.8757324
vt 0.6552734 0.7436523
vt 0.6970215 0.2473145
vt 0.6970215 0.2473145
vt 0.9787598 0.4357910
vt 0.8525391 0.8757324
vt 0.6887207 0.9445801
vt 0.6552734 0.7436523
vt 0.8525391 0.8757324
vt 0.5852051 0.8618165
vt 0.6552734 0.7436523
vt 0.6887207 0.9445801
vt 0.4196777 0.7187500
vt 0.6552734 0.7436523
vt 0.5852051 0.8618165
vt 0.5852051 0.8618165
vt 0.4387207 0.8640137
vt 0.4196777 0.7187500
vt 0.1960449 0.7988281
vt 0.4196777 0.7187500
vt 0.4387207 0.8640137
vt 0.2253417 0.9902344
vt 0.0344238 0.9709473
vt 0.1960449 0.7988281
vt 0.1960449 0.7988281
vt 0.4387207 0.8640137
vt 0.2253417 0.9902344
vt 0.3337402 1.2509766
vt 0.0344238 0.9709473
vt 0.2253417 0.9902344
vt 0.2253417 0.9902344
vt 0.3803711 1.1918945
vt 0.3337402 1.2509766
vt 0.6257324 1.2170410
vt 0.3337402 1.2509766
vt 0.3803711 1.1918945
vt 0.3803711 1.1918945
vt 0.5666504 1.1701660
vt 0.6257324 1.2170410
vt 0.8525391 0.8757324
vt 0.6257324 1.2170410
vt 0.5666504 1.1701660
vt 0.5666504 1.1701660
vt 0.6887207 0.9445801
vt 0.8525391 0.8757324
vt 0.5852051 0.8618165
vt 0.6887207 0.9445801
vt 0.5666504 1.1701660
vt 0.3803711 1.1918945
vt 0.2253417 0.9902344
vt 0.4387207 0.8640137
vt 0.4387207 0.8640137
vt 0.5666504 1.1701660
vt 0.3803711 1.1918945
vt 0.5852051 0.8618165
vt 0.5666504 1.1701660
vt 0.4387207 0.8640137
vt 0.2622070 1.0795898
vt 0.1511230 1.0537109
vt 0.3327637 1.0734863
vt 0.1916504 1.0856934
vt 0.1511230 1.0537109
vt 0.2622070 1.0795898
vt 0.1977539 1.1564941
vt 0.1511230 1.0537109
vt 0.1916504 1.0856934
vt 0.2038574 1.2270508
vt 0.1511230 1.0537109
vt 0.1977539 1.1564941
vt 0.0437012 0.9658203
vt 0.1511230 1.0537109
vt 0.2038574 1.2270508
vt 0.2038574 1.2270508
vt 0.0800781 1.2138672
vt 0.0437012 0.9658203
vt 0.2500000 1.3381348
vt 0.0800781 1.2138672
vt 0.2038574 1.2270508
vt 0.2038574 1.2270508
vt 0.2746582 1.2209473
vt 0.2500000 1.3381348
vt 0.3452148 1.2145996
vt 0.2500000 1.3381348
vt 0.2746582 1.2209473
vt 0.4326172 1.2341309
vt 0.2500000 1.3381348
vt 0.3452148 1.2145996
vt 0.3452148 1.2145996
vt 0.4948730 1.0192871
vt 0.4326172 1.2341309
vt 0.3391113 1.1440430
vt 0.4948730 1.0192871
vt 0.3452148 1.2145996
vt 0.3327637 1.0734863
vt 0.4948730 1.0192871
vt 0.3391113 1.1440430
vt 0.3903809 0.6994629
vt 0.4948730 1.0192871
vt 0.3327637 1.0734863
vt 0.3327637 1.0734863
vt 0.1511230 1.0537109
vt 0.3903809 0.6994629
vt 0.2426758 0.6855469
vt 0.3903809 0.6994629
vt 0.1511230 1.0537109
vt 0.1511230 1.0537109
vt 0.1015625 0.7690430
vt 0.2426758 0.6855469
vt 0.0437012 0.9658203
vt 0.1015625 0.7690430
vt 0.1511230 1.0537109
vt -0.8557129 1.0866699
vt -0.7124023 0.6191406
vt -0.5976563 1.1486816
vt -0.8557129 1.0866699
vt -1.1237790 0.9084473
vt -0.7124023 0.6191406
vt -1.1237790 0.9084473
vt -1.2795410 0.7199707
vt -0.7124023 0.6191406
vt -1.2795410 0.7199707
vt -1.3029790 0.4533691
vt -0.7124023 0.6191406
vt -1.0786130 0.2724609
vt -0.7124023 0.6191406
vt -1.3029790 0.4533691
vt -1.0786130 0.2724609
vt -0.8203125 0.1677246
vt -0.7124023 0.6191406
vt -0.4980469 0.2565918
vt -0.7124023 0.6191406
vt -0.8203125 0.1677246
vt -0.4980469 0.2565918
vt -0.2675781 0.5507812
vt -0.7124023 0.6191406
vt -0.2675781 0.5507812
vt -0.2963867 0.9389648
vt -0.7124023 0.6191406
vt -0.5976563 1.1486816
vt -0.7124023 0.6191406
vt -0.2963867 0.9389648
vt -0.1130371 -1.2285160
vt -0.3647461 -0.8261720
vt -0.4682617 -1.2744140
vt -0.0395508 -0.8981930
vt -0.3647461 -0.8261720
vt -0.1130371 -1.2285160
vt -0.1801758 -0.7065430
vt -0.3647461 -0.8261720
vt -0.0395508 -0.8981930
vt -0.2851563 -0.6032710
vt -0.3647461 -0.8261720
vt -0.1801758 -0.7065430
vt -0.5480957 -0.6506350
vt -0.3647461 -0.8261720
vt -0.2851563 -0.6032710
vt -0.5480957 -0.6506350
vt -0.6149902 -0.7724610
vt -0.3647461 -0.8261720
vt -0.6293945 -0.9941410
vt -0.3647461 -0.8261720
vt -0.6149902 -0.7724610
vt -0.6293945 -0.9941410
vt -0.4682617 -1.2744140
vt -0.3647461 -0.8261720
vt 0.1506348 1.4318848
vt -0.1489258 1.3715820
vt -0.1213379 1.1752930
vt 0.5700684 0.9875488
vt 0.5522461 0.5932617
vt 0.7026367 0.5673828
vt -0.1489258 1.3715820
vt 0.1506348 1.4318848
vt -0.0864258 1.4987793
vt 0.3505859 0.6540527
vt 0.5522461 0.5932617
vt 0.5700684 0.9875488
vt 0.3505859 0.6540527
vt 0.5700684 0.9875488
vt 0.1611328 0.7910156
vt -0.0078125 0.9924316
vt 0.5700684 0.9875488
vt 0.3640137 1.2617188
vt 0.1611328 0.7910156
vt 0.5700684 0.9875488
vt -0.0078125 0.9924316
vt -0.0078125 0.9921875
vt 0.3640137 1.2617188
vt -0.1213379 1.1752930
vt 0.1506348 1.4318848
vt -0.1213379 1.1752930
vt 0.3640137 1.2617188
vt -0.0009766 1.2863770
vt -0.0078125 0.9921875
vt 0.2863770 0.9855957
vt 0.2863770 0.9855957
vt 0.2929688 1.2795410
vt -0.0009766 1.2863770
vt 0.3547363 1.0019531
vt 0.3415527 0.8288574
vt 0.4892578 0.9277344
vt 0.3518066 1.1557617
vt 0.0434570 0.8564453
vt 0.3547363 1.0019531
vt 0.3518066 1.1557617
vt 0.4836426 1.2351074
vt 0.4047852 1.5261230
vt 0.6545410 1.4086914
vt 0.4047852 1.5261230
vt 0.4836426 1.2351074
vt 0.4836426 1.2351074
vt 0.6184082 1.1606445
vt 0.6545410 1.4086914
vt 0.7890625 1.2331542
vt 0.6545410 1.4086914
vt 0.6184082 1.1606445
vt 0.6184082 1.1606445
vt 0.7719727 1.0463867
vt 0.7890625 1.2331542
vt 0.6210938 1.0068359
vt 0.7719727 1.0463867
vt 0.6184082 1.1606445
vt 0.6083984 0.8984375
vt 0.7719727 1.0463867
vt 0.6210938 1.0068359
vt 0.6210938 1.0068359
vt 0.4892578 0.9277344
vt 0.6083984 0.8984375
vt 0.3415527 0.8288574
vt 0.6083984 0.8984375
vt 0.4892578 0.9277344
vt 0.3547363 1.0019531
vt 0.0434570 0.8564453
vt 0.3415527 0.8288574
vt 0.0434570 0.8564453
vt 0.0070801 1.1687012
vt -0.0947266 0.9458008
vt -0.1596680 1.4841309
vt 0.0012207 1.4763184
vt 0.1066895 1.5537109
vt -0.1301270 1.3969727
vt 0.0012207 1.4763184
vt -0.1596680 1.4841309
vt -0.1596680 1.4841309
vt -0.2109375 1.2961426
vt -0.1301270 1.3969727
vt -0.1958008 1.1145020
vt -0.1301270 1.3969727
vt -0.2109375 1.2961426
vt -0.1274414 1.2431641
vt -0.1301270 1.3969727
vt -0.1958008 1.1145020
vt -0.1958008 1.1145020
vt -0.0947266 0.9458008
vt -0.1274414 1.2431641
vt 0.0070801 1.1687012
vt -0.1274414 1.2431641
vt -0.0947266 0.9458008
vt 0.0070801 1.1687012
vt 0.0434570 0.8564453
vt 0.1389160 1.2480469
vt 0.3518066 1.1557617
vt 0.1389160 1.2480469
vt 0.0434570 0.8564453
vt 0.4047852 1.5261230
vt 0.1389160 1.2480469
vt 0.3518066 1.1557617
vt 0.1359863 1.4018555
vt 0.1389160 1.2480469
vt 0.4047852 1.5261230
vt 0.4047852 1.5261230
vt 0.1066895 1.5537109
vt 0.1359863 1.4018555
vt 0.0012207 1.4763184
vt 0.1359863 1.4018555
vt 0.1066895 1.5537109
vt 0.6699219 1.1284180
vt 0.8786621 1.2541504
vt 0.7006836 1.5017090
vt 0.7006836 1.5017090
vt 0.5029297 1.3862305
vt 0.6699219 1.1284180
vt 0.5000000 0.9643555
vt 0.6699219 1.1284180
vt 0.5029297 1.3862305
vt 0.5029297 1.3862305
vt 0.3129883 1.1982422
vt 0.5000000 0.9643555
vt 0.1701660 0.7446289
vt 0.5000000 0.9643555
vt 0.3129883 1.1982422
vt 0.3129883 1.1982422
vt -0.0078125 0.9924316
vt 0.1701660 0.7446289
vt 0.1264648 1.2045898
vt 0.0705566 1.0300293
vt 0.3488770 0.9582520
vt 0.3488770 0.9582520
vt 0.3947754 1.1010742
vt 0.1264648 1.2045898
vt 0.6457520 0.9956055
vt 0.3947754 1.1010742
vt 0.3488770 0.9582520
vt 0.3488770 0.9582520
vt 0.6145020 0.8981934
vt 0.6457520 0.9956055
vt 0.6457520 0.9956055
vt 0.6145020 0.8981934
vt 0.7885742 0.8962402
vt 0.4338379 1.2204590
vt 0.3337402 1.1313477
vt 0.3676758 1.0217285
vt 0.3676758 1.0217285
vt 0.5351563 1.1784667
vt 0.4338379 1.2204590
vt 0.2807617 1.2980957
vt 0.3337402 1.1313477
vt 0.4338379 1.2204590
vt 0.4338379 1.2204590
vt 0.4265137 1.3574219
vt 0.2807617 1.2980957
vt 0.5351563 1.1784667
vt 0.4265137 1.3574219
vt 0.4338379 1.2204590
vt 0.5488281 1.4074707
vt 0.4265137 1.3574219
vt 0.5351563 1.1784667
vt 0.3657227 1.4860840
vt 0.2807617 1.2980957
vt 0.4265137 1.3574219
vt 0.4265137 1.3574219
vt 0.5488281 1.4074707
vt 0.3657227 1.4860840
vt 0.5488281 1.4074707
vt 0.4006348 1.5744629
vt 0.3657227 1.4860840
vt 0.2138672 1.4519043
vt 0.2807617 1.2980957
vt 0.3657227 1.4860840
vt 0.3657227 1.4860840
vt 0.4006348 1.5744629
vt 0.2138672 1.4519043
vt 0.4006348 1.5744629
vt 0.1774902 1.5820313
vt 0.2138672 1.4519043
vt 0.0886230 1.3576660
vt 0.2807617 1.2980957
vt 0.2138672 1.4519043
vt 0.2138672 1.4519043
vt 0.1774902 1.5820313
vt 0.0886230 1.3576660
vt 0.1774902 1.5820313
vt 0.0100098 1.4252930
vt 0.0886230 1.3576660
vt 0.1257324 1.2263184
vt 0.2807617 1.2980957
vt 0.0886230 1.3576660
vt 0.0886230 1.3576660
vt 0.0100098 1.4252930
vt 0.1257324 1.2263184
vt 0.0100098 1.4252930
vt -0.0034180 1.1962891
vt 0.1257324 1.2263184
vt 0.2187500 1.1660156
vt 0.2807617 1.2980957
vt 0.1257324 1.2263184
vt 0.1257324 1.2263184
vt -0.0034180 1.1962891
vt 0.2187500 1.1660156
vt -0.0034180 1.1962891
vt 0.1445313 1.0290527
vt 0.2187500 1.1660156
vt 0.3337402 1.1313477
vt 0.2807617 1.2980957
vt 0.2187500 1.1660156
vt 0.2187500 1.1660156
vt 0.1445313 1.0290527
vt 0.3337402 1.1313477
vt 0.1445313 1.0290527
vt 0.3676758 1.0217285
vt 0.3337402 1.1313477
vt 0.4729004 1.2333984
vt 0.6188965 1.5793457
vt 0.5869141 1.5771484
vt 0.9536133 1.4746094
vt 0.6188965 1.5793457
vt 0.4729004 1.2333984
vt 0.6401367 1.6037598
vt 0.6188965 1.5793457
vt 0.9536133 1.4746094
vt 0.9536133 1.4746094
vt 0.6376953 1.6359863
vt 0.6401367 1.6037598
vt 0.9536133 1.4746094
vt 0.6423340 1.7438965
vt 0.6376953 1.6359863
vt 0.6132813 1.6569824
vt 0.6376953 1.6359863
vt 0.6423340 1.7438965
vt 0.6423340 1.7438965
vt 0.5812988 1.6547852
vt 0.6132813 1.6569824
vt 0.2316895 1.7141113
vt 0.5812988 1.6547852
vt 0.6423340 1.7438965
vt 0.5600586 1.6303711
vt 0.5812988 1.6547852
vt 0.2316895 1.7141113
vt 0.2316895 1.7141113
vt 0.5625000 1.5981445
vt 0.5600586 1.6303711
vt 0.4729004 1.2333984
vt 0.5625000 1.5981445
vt 0.2316895 1.7141113
vt 0.5869141 1.5771484
vt 0.5625000 1.5981445
vt 0.4729004 1.2333984
vt -0.0373535 1.4025879
vt 0.4729004 1.2333984
vt 0.2316895 1.7141113
vt -0.0078125 0.9921875
vt 0.1933594 1.3261719
vt -0.0373535 1.4025879
vt 0.3034668 0.7229004
vt 0.4729004 1.2333984
vt -0.0078125 0.9921875
vt 0.7141113 0.7526855
vt 0.4729004 1.2333984
vt 0.3034668 0.7229004
vt 0.9833984 1.0639648
vt 0.7500000 1.1413574
vt 0.7141113 0.7526855
vt 0.9536133 1.4746094
vt 0.4729004 1.2333984
vt 0.9833984 1.0639648
vt -0.0078125 0.9921875
vt 0.4729004 1.2333984
vt 0.1933594 1.3261719
vt 0.7500000 1.1413574
vt 0.4729004 1.2333984
vt 0.7141113 0.7526855
vn -0.0000074 0.0000029 -1.0000000
vn 0.0000201 -0.0000046 -1.0000000
vn 0.0000204 -0.0000112 -1.0000000
vn -0.0000186 -0.0000005 -1.0000000
vn 0.0000090 0.0000003 -1.0000000
vn -0.0000250 0.0000095 -1.0000000
vn 0.0000306 -0.0000112 -1.0000000
vn -0.0000172 0.0000064 -1.0000000
vn 0.0000109 -0.0000054 -1.0000000
vn 0.0000246 -0.0000094 -1.0000000
vn 0.0000237 0.0000041 -1.0000000
vn -0.0000179 -0.0000196 -1.0000000
vn 0.0000325 0.0000073 -1.0000000
vn -0.0000390 -0.0000173 -1.0000000
vn -0.0000489 0.0000261 -1.0000000
vn -0.0000009 -0.0000212 -1.0000000
vn 0.0000020 -0.0000203 -1.0000000
vn 0.0000176 -0.0000232 -1.0000000
vn 0.0000014 -0.0000122 -1.0000000
vn 0.0000202 -0.0000133 -1.0000000
vn 0.0000065 0.0000249 -1.0000000
vn 0.0000179 -0.0000030 -1.0000000
vn -0.0000152 0.0000050 -1.0000000
vn -0.0000083 0.0000112 -1.0000000
vn -0.0000150 0.0000041 -1.0000000
vn 0.0000215 -0.0000187 -1.0000000
vn 0.0000105 -0.0000021 -1.0000000
vn 0.0000157 0.0000042 -1.0000000
vn 0.0000069 0.0000000 -1.0000000
vn -0.0000010 -0.0000018 -1.0000000
vn 0.0000723 0.0000340 -1.0000000
vn 0.0000082 0.0000156 -1.0000000
vn -0.0000211 0.0000078 -1.0000000
vn -0.0000124 0.0000203 -1.0000000
vn 0.0000077 -0.0000007 -1.0000000
vn -0.0000083 0.0000047 -1.0000000
vn 0.0000082 0.0000145 -1.0000000
vn -0.0000211 -0.0000090 -1.0000000
vn 0.0000019 -0.0000068 -1.0000000
vn 0.0000249 0.0000243 -1.0000000
vn -0.0000061 0.0000049 -1.0000000
vn 0.0000125 0.0000186 -1.0000000
vn -0.0000057 -0.0000175 -1.0000000
vn 0.0000022 0.0000250 -1.0000000
vn 0.0000046 -0.0000134 -1.0000000
vn 0.0000104 0.0000074 -1.0000000
vn -0.0000011 -0.0000015 -1.0000000
vn -0.0000049 0.0000239 -1.0000000
vn 0.0000053 0.0000083 -1.0000000
vn -0.0000142 0.0000030 -1.0000000
vn 0.0000155 0.0000046 -1.0000000
vn 0.0000088 -0.0000133 -1.0000000
vn 0.0000065 0.0000008 -1.0000000
vn -0.0000123 -0.0000156 -1.0000000
vn -0.0000146 -0.0000087 -1.0000000
vn 0.0000122 0.0000048 -1.0000000
vn 0.0000000 0.0000000 -1.0000000
vn 0.0000222 0.0000046 -1.0000000
vn 0.0000008 0.0000073 -1.0000000
vn -0.0000090 -0.0000016 -1.0000000
vn 0.0000081 0.0000269 -1.0000000
vn 0.0000099 -0.0000018 -1.0000000
vn -0.0000223 -0.0000072 -1.0000000
vn 0.0000180 -0.0000009 -1.0000000
vn 0.0000056 0.0000000 -1.0000000
vn -0.0000313 0.0000177 -1.0000000
vn -0.0000122 0.0000143 -1.0000000
vn 0.0000057 -0.0000184 -1.0000000
vn 0.0000133 0.0000014 -1.0000000
vn -0.0000014 -0.0000102 -1.0000000
vn 0.0000000 0.0000000 -1.0000000
vn 0.0000109 0.0000058 -1.0000000
vn -0.0000095 -0.0000024 -1.0000000
vn 0.0000050 -0.0000077 -1.0000000
vn 0.0000184 -0.0000086 -1.0000000
vn 0.0000031 0.0000033 -1.0000000
vn 0.0000179 -0.0000065 -1.0000000
vn 0.0000150 0.0000072 -1.0000000
vn 0.0000093 0.0000116 -1.0000000
vn -0.0000164 -0.0000070 -1.0000000
vn -0.0000138 0.0000098 -1.0000000
vn -0.0000100 0.0000026 -1.0000000
vn 0.0000156 0.0000146 -1.0000000
vn -0.0000156 0.0000120 -1.0000000
vn -0.0000196 -0.0000087 -1.0000000
vn 0.0000022 0.0000004 -1.0000000
vn -0.0000054 0.0000052 -1.0000000
vn 0.0000086 0.0000103 -1.0000000
vn 0.0000053 -0.0000014 -1.0000000
vn 0.0000055 0.0000017 -1.0000000
vn 0.0000000 -0.0000011 -1.0000000
vn 0.0000032 -0.0000203 -1.0000000
vn -0.0000089 -0.0000113 -1.0000000
vn -0.0000017 0.0000103 -1.0000000
vn -0.0000044 0.0000040 -1.0000000
vn -0.0000162 0.0000156 -1.0000000
vn -0.0000006 -0.0000060 -1.0000000
vn 0.0000104 0.0000001 -1.0000000
vn 0.0000058 0.0000085 -1.0000000
vn 0.0000103 0.0000162 -1.0000000
vn 0.0000013 -0.0000142 -1.0000000
vn 0.0000025 0.0000067 -1.0000000
vn -0.0000083 0.0000174 -1.0000000
vn -0.0000059 0.0000185 -1.0000000
vn -0.0000073 0.0000178 -1.0000000
vn -0.0000010 -0.0000169 -1.0000000
vn 0.0000003 -0.0000074 -1.0000000
vn 0.0000123 -0.0000081 -1.0000000
vn -0.0000182 -0.0000115 -1.0000000
vn 0.0000000 0.0000000 -1.0000000
vn 0.0000138 -0.0000121 -1.0000000
vn -0.0000072 0.0000067 -1.0000000
vn -0.0000031 0.0000025 -1.0000000
vn -0.0000044 -0.0000021 -1.0000000
vn -0.0000026 -0.0000009 -1.0000000
vn -0.0000031 -0.0000012 -1.0000000
vn -0.0000005 0.0000023 -1.0000000
vn 0.0000012 -0.0000005 -1.0000000
vn -0.0000019 0.0000222 -1.0000000
vn 0.0000004 -0.0000314 -1.0000000
vn 0.0000012 -0.0000089 -1.0000000
vn 0.0000008 0.0000122 -1.0000000
vn 0.0000009 -0.0000178 -1.0000000
vn 0.0000008 -0.0000126 -1.0000000
vn -0.0000050 0.0000167 -1.0000000
vn 0.0000000 0.0000000 -1.0000000
vn -0.0000121 0.0000299 -1.0000000
vn -0.0000185 -0.0000348 -1.0000000
vn -0.0000066 0.0000061 -1.0000000
vn -0.0000189 0.0000003 -1.0000000
vn -0.0000009 -0.0000064 -1.0000000
vn -0.0000046 -0.0000135 -1.0000000
vn -0.0000188 0.0000028 -1.0000000
vn 0.0000100 0.0000257 -1.0000000
vn -0.0000104 -0.0000140 -1.0000000
vn 0.0063049 -0.0008566 -0.9999798
vn 0.0000074 0.0000207 -1.0000000
vn 0.0000008 0.0000089 -1.0000000
vn -0.0000117 0.0000074 -1.0000000
vn -0.0000440 -0.0000120 -1.0000000
vn -0.0000332 -0.0000125 -1.0000000
vn 0.0000190 0.0000190 -1.0000000
vn 0.0000201 -0.0000132 -1.0000000
vn -0.0000066 -0.0000081 -1.0000000
vn -0.0000245 0.0000065 -1.0000000
vn -0.0000092 0.0000101 -1.0000000
vn 0.0000401 0.0000023 -1.0000000
vn -0.0000018 0.0000212 -1.0000000
vn 0.0000065 0.0000103 -1.0000000
vn -0.0000162 -0.0000031 -1.0000000
vn 0.0000000 0.0000000 -1.0000000
vn 0.0000115 -0.0000064 -1.0000000
vn -0.0000070 -0.0000010 -1.0000000
vn 0.0000059 -0.0000003 -1.0000000
vn 0.0000108 0.0000076 -1.0000000
vn 0.0000249 0.0000064 -1.0000000
vn -0.0000201 0.0000320 -1.0000000
vn -0.0000118 0.0000032 -1.0000000
vn -0.0000197 -0.0000184 -1.0000000
vn -0.0000090 -0.0000004 -1.0000000
vn -0.0000048 -0.0000121 -1.0000000
vn 0.0000081 0.0000143 -1.0000000
vn -0.0000015 0.0000163 -1.0000000
vn 0.0000196 -0.0000056 -1.0000000
vn -0.0000109 -0.0000056 -1.0000000
vn 0.0000246 0.0000172 -1.0000000
vn 0.0000030 -0.0000256 -1.0000000
vn -0.0000002 -0.0000341 -1.0000000
vn -0.0000126 0.0000049 -1.0000000
vn 0.0000000 0.0000000 -1.0000000
vn -0.0000209 -0.0000043 -1.0000000
vn -0.0000028 0.0000009 -1.0000000
vn 0.0000108 0.0000062 -1.0000000
vn 0.0000188 -0.0000148 -1.0000000
vn -0.0000158 0.0000082 -1.0000000
vn -0.0000123 -0.0000118 -1.0000000
vn -0.0000007 -0.0000048 -1.0000000
vn -0.0000068 -0.0000106 -1.0000000
vn -0.0000075 -0.0000297 -1.0000000
vn 0.0000070 -0.0000166 -1.0000000
vn -0.0000217 0.0000234 -1.0000000
vn 0.0000162 -0.0000022 -1.0000000
vn 0.0000003 0.0000121 -1.0000000
vn -0.0000110 -0.0000228 -1.0000000
vn 0.0000010 0.0000139 -1.0000000
vn 0.0000153 -0.0000088 -1.0000000
vn 0.0000032 -0.0000012 -1.0000000
vn 0.0000157 0.0000074 -1.0000000
vn -0.0000197 -0.0000013 -1.0000000
vn -0.0000070 -0.0000071 -1.0000000
vn -0.0000090 0.0000002 -1.0000000
vn -0.0000132 -0.0000246 -1.0000000
vn -0.0000392 -0.0000372 -1.0000000
vn 0.0000199 0.0000150 -1.0000000
vn 0.0000289 0.0000397 -1.0000000
vn 0.0000036 0.0000002 -1.0000000
vn 0.0000094 0.0000096 -1.0000000
vn 0.0000096 0.0000027 -1.0000000
vn 0.0000157 0.0000128 -1.0000000
vn 0.0000247 -0.0000065 -1.0000000
vn 0.0000000 0.0000000 -1.0000000
vn -0.0000021 -0.0000096 -1.0000000
vn -0.0000208 0.0000088 -1.0000000
vn 0.0000211 -0.0000038 -1.0000000
vn 0.0000146 0.0000278 -1.0000000
vn -0.0000087 0.0000125 -1.0000000
vn -0.0000212 0.0000005 -1.0000000
vn 0.0000270 -0.0000143 -1.0000000
vn 0.0000345 -0.0000222 -1.0000000
vn -0.0000282 0.0000428 -1.0000000
vn -0.0000015 -0.0000143 -1.0000000
vn -0.0000020 -0.0000164 -1.0000000
vn 0.0000076 0.0000173 -1.0000000
vn -0.0000096 0.0000205 -1.0000000
vn 0.0000000 0.0000000 -1.0000000
vn -0.0000064 -0.0000073 -1.0000000
vn 0.0000109 0.0000168 -1.0000000
vn -0.0000214 -0.0000030 -1.0000000
vn -0.0000114 -0.0000126 -1.0000000
vn 0.0000145 0.0000075 -1.0000000
vn 0.0000167 0.0000123 -1.0000000
vn -0.0000045 -0.0000223 -1.0000000
vn 0.0000000 0.0000000 -1.0000000
vn 0.0000000 0.0000000 -1.0000000
vn 0.0000000 0.0000000 -1.0000000
vn -0.0000003 0.0000004 -1.0000000
vn 0.0000044 0.0000162 -1.0000000
vn 0.0000006 0.0000092 -1.0000000
vn 0.0000003 0.0000139 -1.0000000
vn -0.0000012 -0.0000009 -1.0000000
vn -0.0000004 0.0000012 -1.0000000
vn 0.0000231 0.0000004 -1.0000000
vn 0.0000000 0.0000000 -1.0000000
vn -0.0000132 0.0000201 -1.0000000
vn -0.0000167 -0.0000129 -1.0000000
vn -0.0000251 -0.0000126 -1.0000000
vn 0.0000074 -0.0000017 -1.0000000
vn 0.0000151 -0.0000109 -1.0000000
vn 0.0000009 0.0000160 -1.0000000
vn 0.0000022 -0.0000273 -1.0000000
vn -0.0000086 -0.0000140 -1.0000000
vn 0.0006438 0.0002372 -0.9999998
vn 0.0000162 -0.0000178 -1.0000000
vn 0.0000000 0.0000000 -1.0000000
vn 0.0000000 0.0000000 -1.0000000
vn 0.0000013 0.0000085 -1.0000000
vn -0.0000003 0.0000158 -1.0000000
vn -0.0000021 0.0000000 -1.0000000
vn -0.0000020 -0.0000113 -1.0000000
vn -0.0000155 -0.0000012 -1.0000000
vn -0.0000191 0.0000043 -1.0000000
vn 0.0000010 -0.0000006 -1.0000000
vn -0.0000001 0.0000022 -1.0000000
vn 0.0000017 -0.0000105 -1.0000000
vn -0.0000010 0.0000008 -1.0000000
vn 0.0000000 0.0000006 -1.0000000
vn 0.0000000 0.0000000 -1.0000000
vn 0.0000000 0.0000020 -1.0000000
vn 0.0000003 -0.0000005 -1.0000000
vn 0.0000008 -0.0000046 -1.0000000
vn -0.0000139 0.0000004 -1.0000000
vn -0.0000093 0.0000023 -1.0000000
vn 0.0000069 -0.0000006 -1.0000000
vn 0.0000064 0.0000126 -1.0000000
vn 0.0000072 0.0000120 -1.0000000
vn 0.0000064 0.0000126 -1.0000000
vn -0.0000099 0.0000068 -1.0000000
vn -0.0000063 -0.0000257 -1.0000000
vn -0.0000002 0.0000155 -1.0000000
vn -0.0000007 0.0000047 -1.0000000
vn 0.0000011 -0.0000251 -1.0000000
vn -0.0000002 0.0000093 -1.0000000
vn -0.0000004 0.0000041 -1.0000000
vn -0.0000013 -0.0000132 -1.0000000
vn -0.0000004 -0.0000156 -1.0000000
vn -0.0000038 -0.0000195 -1.0000000
vn 0.0000000 0.0000000 -1.0000000
vn 0.0000177 -0.0000155 -1.0000000
vn 0.0000068 -0.0000244 -1.0000000
vn 0.0000009 0.0000206 -1.0000000
vn 0.0000205 0.0000227 -1.0000000
vn 0.0000012 -0.0000044 -1.0000000
vn 0.0000056 -0.0000216 -1.0000000
vn -0.0000009 0.0000015 -1.0000000
vn 0.0000094 -0.0000097 -1.0000000
vn -0.0000036 0.0000006 -1.0000000
vn 0.0000012 0.0000001 -1.0000000
vn -0.0000161 -0.0000078 -1.0000000
vn -0.0000053 -0.0000058 -1.0000000
vn 0.0000072 0.0000192 -1.0000000
vn 0.0000000 -0.0000062 -1.0000000
vn -0.0000014 0.0000089 -1.0000000
vn 0.0000116 0.0000215 -1.0000000
vn -0.0000006 0.0000000 -1.0000000
vn -0.0000020 0.0000072 -1.0000000
vn -0.0000141 -0.0000144 -1.0000000
vn -0.0000023 -0.0000009 -1.0000000
vn -0.0000036 0.0000038 -1.0000000
vn 0.0000157 0.0000007 -1.0000000
vn -0.0000033 0.0000077 -1.0000000
vn 0.0000197 -0.0000249 -1.0000000
vn 0.0000190 0.0000155 -1.0000000
vn -0.0000179 0.0000172 -1.0000000
vn -0.0000008 0.0000104 -1.0000000
vn -0.0000074 0.0000060 -1.0000000
vn 0.0000014 0.0000116 -1.0000000
vn 0.0000028 0.0000078 -1.0000000
vn -0.0000034 -0.0000096 -1.0000000
vn 0.0000189 0.0000083 -1.0000000
vn 0.0000153 -0.0000038 -1.0000000
vn -0.0000203 0.0000000 -1.0000000
vn 0.0000000 0.0000000 -1.0000000
vn -0.0000002 -0.0000031 -1.0000000
vn 0.0000030 0.0000215 -1.0000000
vn 0.0000020 0.0000096 -1.0000000
vn 0.0000079 -0.0000086 -1.0000000
vn -0.0000058 -0.0000188 -1.0000000
vn 0.0000001 -0.0000031 -1.0000000
vn -0.0000149 -0.0000006 -1.0000000
vn 0.0000061 0.0000240 -1.0000000
vn -0.0000012 -0.0000022 -1.0000000
vn -0.0000172 0.0000178 -1.0000000
vn -0.0000084 0.0000160 -1.0000000
vn -0.0000045 -0.0000020 -1.0000000
vn -0.0000077 0.0000214 -1.0000000
vn 0.0000102 0.0000131 -1.0000000
vn -0.0000017 -0.0000075 -1.0000000
vn 0.0000122 0.0000088 -1.0000000
vn -0.0000039 0.0000100 -1.0000000
vn 0.0000132 0.0000149 -1.0000000
vn 0.0000085 -0.0000103 -1.0000000
vn 0.0000095 -0.0000118 -1.0000000
vn 0.0000021 0.0000060 -1.0000000
vn -0.0000123 -0.0000119 -1.0000000
vn 0.0000145 0.0000136 -1.0000000
vn -0.0000010 -0.0000093 -1.0000000
vn 0.0000187 0.0000149 -1.0000000
vn 0.0000066 0.0000142 -1.0000000
vn -0.0000129 -0.0000120 -1.0000000
vn 0.0000012 0.0000027 -1.0000000
vn 0.0000070 0.0000087 -1.0000000
vn -0.0000126 -0.0000215 -1.0000000
vn 0.0000077 0.0000091 -1.0000000
vn 0.0000141 0.0000062 -1.0000000
vn -0.0000130 -0.0000022 -1.0000000
vn -0.0000033 -0.0000123 -1.0000000
vn -0.0000020 -0.0000137 -1.0000000
vn -0.0000020 -0.0000137 -1.0000000
vn -0.0000173 -0.0000135 -1.0000000
vn 0.0000122 0.0000098 -1.0000000
vn -0.0000110 -0.0000087 -1.0000000
vn -0.0000127 -0.0000070 -1.0000000
vn 0.0000063 -0.0000057 -1.0000000
vn 0.0000075 -0.0000070 -1.0000000
vn 0.0000069 -0.0000064 -1.0000000
vn 0.0000125 0.0000084 -1.0000000
vn 0.0000071 0.0000170 -1.0000000
vn 0.0000057 0.0000160 -1.0000000
f 1/1/1 2/2/2 3/3/3
f 2/4/2 4/5/4 3/6/3
f 5/7/5 4/8/4 2/9/2
f 6/10/6 7/11/7 8/12/8
f 9/13/9 7/14/7 6/15/6
f 6/16/6 1/17/1 9/18/9
f 1/19/1 10/20/10 9/21/9
f 3/22/3 10/23/10 1/24/1
f 11/25/11 12/26/12 13/27/13
f 13/28/13 12/29/12 14/30/14
f 14/31/14 15/32/15 13/33/13
f 16/34/16 17/35/17 18/36/18
f 19/37/19 17/38/17 16/39/16
f 19/40/19 20/41/20 17/42/17
f 17/43/17 20/44/20 21/45/21
f 13/46/13 22/47/22 11/48/11
f 23/49/23 24/50/24 25/51/25
f 26/52/26 25/53/25 24/54/24
f 24/55/24 27/56/27 26/57/26
f 23/58/23 28/59/28 24/60/24
f 27/61/27 24/62/24 28/63/28
f 28/64/28 29/65/29 27/66/27
f 28/67/28 23/68/23 30/69/30
f 30/70/30 31/71/31 28/72/28
f 28/73/28 31/74/31 29/75/29
f 29/76/29 31/77/31 32/78/32
f 33/79/33 34/80/34 35/81/35
f 35/82/35 34/83/34 36/84/36
f 36/85/36 34/86/34 37/87/37
f 38/88/38 37/89/37 34/90/34
f 34/91/34 33/92/33 38/93/38
f 39/94/39 38/95/38 33/96/33
f 33/97/33 40/98/40 39/99/39
f 32/100/32 41/101/41 42/102/42
f 42/103/42 41/104/41 40/105/40
f 40/106/40 41/107/41 39/108/39
f 39/109/39 41/110/41 43/111/43
f 43/112/43 41/113/41 30/114/30
f 30/115/30 41/116/41 31/117/31
f 31/118/31 41/119/41 32/120/32
f 42/121/42 44/122/44 32/123/32
f 35/124/35 45/125/45 33/126/33
f 40/127/40 33/128/33 45/129/45
f 45/130/45 44/131/44 40/132/40
f 40/133/40 44/134/44 42/135/42
f 46/136/46 47/137/47 48/138/48
f 46/139/46 49/140/49 50/141/50
f 50/142/50 47/143/47 46/144/46
f 50/145/50 51/146/51 47/147/47
f 47/148/47 52/149/52 48/150/48
f 53/151/53 54/152/54 51/153/51
f 51/154/51 54/155/54 47/156/47
f 54/157/54 55/158/55 47/159/47
f 47/160/47 55/161/55 52/162/52
f 55/163/55 56/164/56 52/165/52
f 52/166/52 56/167/56 57/168/57
f 57/169/57 56/170/56 58/171/58
f 59/172/57 57/173/57 58/174/58
f 58/175/58 60/176/59 59/177/57
f 59/178/57 60/179/59 61/180/60
f 62/181/57 59/182/57 61/183/60
f 63/184/61 54/185/54 53/186/53
f 63/187/61 64/188/62 55/189/55
f 54/190/54 63/191/61 55/192/55
f 56/193/56 55/194/55 64/195/62
f 58/196/58 56/197/56 64/198/62
f 64/199/62 65/200/63 58/201/58
f 60/202/59 58/203/58 65/204/63
f 65/205/63 66/206/64 60/207/59
f 61/208/60 60/209/59 66/210/64
f 66/211/64 67/212/65 61/213/60
f 68/214/66 69/215/67 70/216/68
f 70/217/68 69/218/67 71/219/69
f 68/220/66 72/221/70 69/222/67
f 73/223/71 74/224/72 75/225/71
f 76/226/71 75/227/71 74/228/72
f 74/229/72 77/230/73 76/231/71
f 76/232/71 77/233/73 78/234/71
f 78/235/71 77/236/73 79/237/74
f 79/238/74 80/239/75 78/240/71
f 81/241/76 78/242/71 80/243/75
f 80/244/75 82/245/77 81/246/76
f 68/247/66 70/248/68 83/249/78
f 83/250/78 81/251/76 68/252/66
f 72/253/70 68/254/66 81/255/76
f 81/256/76 82/257/77 72/258/70
f 84/259/71 73/260/71 85/261/71
f 85/262/71 73/263/71 75/264/71
f 73/265/71 84/266/71 86/267/71
f 86/268/71 87/269/79 73/270/71
f 74/271/72 73/272/71 87/273/79
f 87/274/79 88/275/80 74/276/72
f 77/277/73 74/278/72 88/279/80
f 88/280/80 89/281/81 77/282/73
f 79/283/74 77/284/73 89/285/81
f 89/286/81 90/287/82 79/288/74
f 80/289/75 79/290/74 90/291/82
f 90/292/82 91/293/83 80/294/75
f 82/295/77 80/296/75 91/297/83
f 92/298/84 93/299/85 94/300/86
f 95/301/87 92/302/84 94/303/86
f 94/304/86 96/305/88 95/306/87
f 96/307/88 97/308/89 95/309/87
f 98/310/90 95/311/87 97/312/89
f 97/313/89 99/314/91 98/315/90
f 98/316/90 99/317/91 100/318/92
f 100/319/92 101/320/93 98/321/90
f 98/322/90 101/323/93 102/324/94
f 103/325/95 104/326/96 105/327/97
f 105/328/97 92/329/84 103/330/95
f 106/331/98 103/332/95 92/333/84
f 92/334/84 95/335/87 106/336/98
f 95/337/87 98/338/90 106/339/98
f 102/340/94 107/341/99 98/342/90
f 107/343/99 106/344/98 98/345/90
f 92/346/84 105/347/97 108/348/100
f 108/349/100 93/350/85 92/351/84
f 93/352/85 108/353/100 109/354/101
f 109/355/101 110/356/102 93/357/85
f 93/358/85 110/359/102 94/360/86
f 111/361/103 112/362/104 113/363/105
f 96/364/88 94/365/86 114/366/106
f 96/367/88 114/368/106 112/369/107
f 115/370/108 116/371/109 117/372/110
f 118/373/110 117/374/110 116/375/109
f 118/376/110 119/377/110 120/378/110
f 121/379/110 120/380/110 119/381/110
f 121/382/110 116/383/111 122/384/112
f 123/385/113 122/386/112 116/387/111
f 123/388/114 119/389/115 124/390/116
f 125/391/110 124/392/116 119/393/115
f 126/394/117 125/395/110 116/396/109
f 127/397/118 126/398/117 116/399/109
f 116/400/109 115/401/108 127/402/118
f 128/403/119 129/404/120 130/405/121
f 130/406/121 131/407/122 128/408/119
f 128/409/119 131/410/122 132/411/123
f 132/412/123 131/413/122 133/414/124
f 133/415/124 134/416/125 132/417/123
f 132/418/123 134/419/125 135/420/126
f 136/421/126 135/422/126 137/423/126
f 135/424/126 134/425/125 137/426/126
f 133/427/124 138/428/127 134/429/125
f 137/430/126 134/431/125 139/432/126
f 140/433/126 137/434/126 139/435/126
f 139/436/126 134/437/125 138/438/127
f 138/439/127 141/440/126 139/441/126
f 139/442/126 141/443/126 140/444/126
f 142/445/128 143/446/129 144/447/130
f 145/448/131 146/449/132 147/450/133
f 148/451/134 149/452/135 150/453/136
f 150/454/136 145/455/131 151/456/137
f 149/457/135 145/458/131 150/459/136
f 150/460/136 151/461/137 152/462/138
f 153/463/139 154/464/140 155/465/141
f 155/466/141 154/467/140 156/468/142
f 157/469/143 155/470/141 156/471/142
f 156/472/142 158/473/144 157/474/143
f 157/475/143 158/476/144 152/477/138
f 152/478/138 158/479/144 150/480/136
f 148/481/134 150/482/136 158/483/144
f 158/484/144 159/485/145 148/486/134
f 160/487/146 148/488/134 159/489/145
f 159/490/145 161/491/147 160/492/146
f 149/493/135 162/494/148 145/495/131
f 145/496/131 162/497/148 146/498/132
f 144/499/130 146/500/132 162/501/148
f 162/502/148 142/503/128 144/504/130
f 163/505/149 151/506/137 145/507/131
f 145/508/131 147/509/133 163/510/149
f 164/511/150 165/512/151 166/513/151
f 167/514/151 165/515/151 164/516/150
f 164/517/150 168/518/152 167/519/151
f 169/520/151 167/521/151 168/522/152
f 168/523/152 170/524/153 169/525/151
f 171/526/151 169/527/151 170/528/153
f 170/529/153 172/530/154 171/531/151
f 171/532/151 172/533/154 173/534/151
f 174/535/155 175/536/156 172/537/154
f 172/538/154 170/539/153 174/540/155
f 176/541/157 174/542/155 170/543/153
f 170/544/153 168/545/152 176/546/157
f 177/547/158 176/548/157 168/549/152
f 168/550/152 164/551/150 177/552/158
f 178/553/159 179/554/160 180/555/161
f 180/556/161 181/557/162 178/558/159
f 178/559/159 181/560/162 182/561/163
f 177/562/158 183/563/164 176/564/157
f 176/565/157 183/566/164 184/567/165
f 184/568/165 182/569/163 176/570/157
f 174/571/155 176/572/157 182/573/163
f 182/574/163 181/575/162 174/576/155
f 174/577/155 181/578/162 175/579/156
f 175/580/156 181/581/162 180/582/161
f 185/583/166 186/584/167 179/585/160
f 179/586/160 178/587/159 185/588/166
f 187/589/168 185/590/166 178/591/159
f 178/592/159 182/593/163 187/594/168
f 187/595/168 182/596/163 188/597/169
f 188/598/169 182/599/163 184/600/165
f 189/601/170 190/602/170 191/603/171
f 192/604/172 189/605/170 191/606/171
f 193/607/170 194/608/173 195/609/174
f 193/610/170 196/611/170 194/612/173
f 194/613/173 196/614/170 197/615/175
f 197/616/175 198/617/176 194/618/173
f 198/619/176 199/620/177 194/621/173
f 194/622/173 199/623/177 200/624/170
f 200/625/170 201/626/170 194/627/173
f 201/628/170 189/629/170 194/630/173
f 194/631/173 189/632/170 192/633/172
f 192/634/172 195/635/174 194/636/173
f 193/637/170 195/638/174 202/639/178
f 203/640/179 204/641/180 202/642/178
f 202/643/178 195/644/174 203/645/179
f 205/646/181 203/647/179 195/648/174
f 195/649/174 192/650/172 205/651/181
f 206/652/182 205/653/181 192/654/172
f 192/655/172 191/656/171 206/657/182
f 207/658/183 208/659/184 203/660/179
f 203/661/179 208/662/184 204/663/180
f 209/664/185 207/665/183 210/666/186
f 210/667/186 207/668/183 203/669/179
f 203/670/179 205/671/181 210/672/186
f 210/673/186 205/674/181 206/675/182
f 211/676/187 212/677/188 213/678/189
f 214/679/190 213/680/189 212/681/188
f 212/682/188 215/683/191 214/684/190
f 215/685/191 212/686/188 216/687/192
f 217/688/193 218/689/194 215/690/191
f 215/691/191 216/692/192 217/693/193
f 217/694/193 216/695/192 219/696/195
f 220/697/196 221/698/197 222/699/198
f 222/700/198 223/701/199 220/702/196
f 224/703/200 220/704/196 223/705/199
f 223/706/199 225/707/201 224/708/200
f 226/709/201 224/710/200 225/711/201
f 225/712/201 227/713/201 226/714/201
f 228/715/202 229/716/203 230/717/204
f 230/718/204 229/719/203 231/720/205
f 231/721/205 229/722/203 218/723/194
f 218/724/194 217/725/193 231/726/205
f 230/727/204 231/728/205 232/729/206
f 232/730/206 231/731/205 217/732/193
f 217/733/193 219/734/195 232/735/206
f 233/736/207 232/737/206 219/738/195
f 234/739/208 235/740/209 236/741/210
f 237/742/211 238/743/212 239/744/213
f 239/745/213 240/746/214 237/747/211
f 241/748/215 242/749/215 243/750/215
f 242/751/215 244/752/215 243/753/215
f 243/754/215 244/755/215 245/756/215
f 245/757/215 246/758/215 243/759/215
f 237/760/211 247/761/215 248/762/215
f 248/763/215 249/764/216 237/765/211
f 237/766/211 249/767/216 238/768/212
f 249/769/216 250/770/217 238/771/212
f 251/772/218 252/773/219 253/774/220
f 250/775/217 253/776/220 252/777/219
f 252/778/219 254/779/221 250/780/217
f 238/781/212 250/782/217 254/783/221
f 254/784/221 255/785/222 238/786/212
f 239/787/213 238/788/212 255/789/222
f 256/790/223 257/791/223 258/792/223
f 259/793/223 257/794/223 256/795/223
f 256/796/223 260/797/223 259/798/223
f 261/799/223 259/800/223 260/801/223
f 260/802/223 262/803/223 261/804/223
f 263/805/223 261/806/223 262/807/223
f 262/808/223 264/809/223 263/810/223
f 265/811/223 263/812/223 264/813/223
f 264/814/223 266/815/223 265/816/223
f 267/817/223 265/818/223 266/819/223
f 266/820/223 268/821/223 267/822/223
f 268/823/223 269/824/223 267/825/223
f 270/826/223 269/827/223 268/828/223
f 268/829/223 271/830/223 270/831/223
f 272/832/223 271/833/223 268/834/223
f 268/835/223 266/836/223 272/837/223
f 273/838/223 272/839/223 266/840/223
f 266/841/223 264/842/223 273/843/223
f 264/844/223 274/845/223 273/846/223
f 262/847/223 274/848/223 264/849/223
f 275/850/223 274/851/223 262/852/223
f 262/853/223 260/854/223 275/855/223
f 260/856/223 276/857/223 275/858/223
f 256/859/223 276/860/223 260/861/223
f 258/862/223 276/863/223 256/864/223
f 277/865/224 278/866/224 279/867/224
f 280/868/224 278/869/224 277/870/224
f 281/871/224 279/872/224 278/873/224
f 281/874/224 282/875/224 279/876/224
f 283/877/224 284/878/224 285/879/224
f 286/880/224 284/881/224 283/882/224
f 287/883/224 288/884/224 284/885/224
f 282/886/224 284/887/224 288/888/224
f 281/889/224 284/890/224 282/891/224
f 287/892/224 284/893/224 286/894/224
f 289/895/225 290/896/225 291/897/225
f 289/898/225 292/899/225 290/900/225
f 292/901/225 293/902/225 290/903/225
f 294/904/225 290/905/225 293/906/225
f 293/907/225 295/908/225 294/909/225
f 296/910/225 294/911/225 295/912/225
f 297/913/226 298/914/227 299/915/228
f 298/916/227 300/917/229 299/918/228
f 300/919/229 301/920/230 299/921/228
f 301/922/230 302/923/231 299/924/228
f 302/925/231 303/926/232 299/927/228
f 303/928/232 304/929/233 299/930/228
f 299/931/228 304/932/233 305/933/233
f 305/934/233 306/935/233 299/936/228
f 306/937/233 307/938/233 299/939/228
f 307/940/233 297/941/226 299/942/228
f 308/943/234 309/944/235 310/945/236
f 311/946/237 309/947/235 308/948/234
f 312/949/238 308/950/234 310/951/236
f 310/952/236 313/953/239 312/954/238
f 314/955/240 312/956/238 313/957/239
f 313/958/239 315/959/241 314/960/240
f 316/961/242 314/962/240 315/963/241
f 315/964/241 317/965/243 316/966/242
f 318/967/244 314/968/240 316/969/242
f 319/970/244 314/971/240 318/972/244
f 312/973/238 314/974/240 319/975/244
f 319/976/244 320/977/244 312/978/238
f 308/979/234 312/980/238 320/981/244
f 321/982/244 311/983/237 308/984/234
f 308/985/234 320/986/244 321/987/244
f 322/988/244 311/989/237 321/990/244
f 321/991/244 323/992/244 322/993/244
f 324/994/244 322/995/244 323/996/244
f 323/997/244 325/998/244 324/999/244
f 316/1000/242 324/1001/244 325/1002/244
f 325/1003/244 318/1004/244 316/1005/242
f 319/1006/244 318/1007/244 325/1008/244
f 323/1009/244 321/1010/244 320/1011/244
f 320/1012/244 325/1013/244 323/1014/244
f 319/1015/244 325/1016/244 320/1017/244
f 326/1018/245 327/1019/245 328/1020/245
f 329/1021/245 327/1022/245 326/1023/245
f 330/1024/245 327/1025/245 329/1026/245
f 331/1027/245 327/1028/245 330/1029/245
f 332/1030/245 333/1031/245 334/1032/245
f 334/1033/245 335/1034/245 332/1035/245
f 336/1036/245 335/1037/245 334/1038/245
f 334/1039/245 337/1040/245 336/1041/245
f 338/1042/245 336/1043/245 337/1044/245
f 339/1045/245 336/1046/245 338/1047/245
f 338/1048/245 340/1049/245 339/1050/245
f 341/1051/245 340/1052/245 338/1053/245
f 342/1054/245 340/1055/245 341/1056/245
f 343/1057/245 340/1058/245 342/1059/245
f 342/1060/245 333/1061/245 343/1062/245
f 344/1063/245 343/1064/245 333/1065/245
f 333/1066/245 345/1067/245 344/1068/245
f 332/1069/245 345/1070/245 333/1071/245
f 346/1072/246 347/1073/247 348/1074/248
f 346/1075/246 349/1076/249 347/1077/247
f 349/1078/249 350/1079/250 347/1080/247
f 350/1081/250 351/1082/251 347/1083/247
f 352/1084/252 347/1085/247 351/1086/251
f 352/1087/252 353/1088/253 347/1089/247
f 354/1090/254 347/1091/247 353/1092/253
f 354/1093/254 355/1094/255 347/1095/247
f 355/1096/255 356/1097/256 347/1098/247
f 348/1099/248 347/1100/247 356/1101/256
f 357/1102/257 358/1103/257 359/1104/257
f 360/1105/257 358/1106/257 357/1107/257
f 361/1108/257 358/1109/257 360/1110/257
f 362/1111/257 358/1112/257 361/1113/257
f 363/1114/257 358/1115/257 362/1116/257
f 363/1117/257 364/1118/257 358/1119/257
f 365/1120/257 358/1121/257 364/1122/257
f 365/1123/257 359/1124/257 358/1125/257
f 366/1126/258 367/1127/259 368/1128/260
f 369/1129/261 370/1130/262 371/1131/263
f 372/1132/264 366/1133/265 373/1134/266
f 374/1135/267 370/1136/262 369/1137/261
f 374/1138/267 369/1139/261 375/1140/268
f 376/1141/269 369/1142/270 377/1143/271
f 378/1144/272 369/1145/270 376/1146/269
f 379/1147/273 377/1148/274 380/1149/275
f 381/1150/276 380/1151/275 377/1152/274
f 382/1153/277 383/1154/277 384/1155/277
f 384/1156/277 385/1157/277 382/1158/277
f 386/1159/278 387/1160/279 388/1161/280
f 389/1162/281 390/1163/282 386/1164/278
f 389/1165/281 391/1166/283 392/1167/284
f 393/1168/285 392/1169/284 391/1170/283
f 391/1171/283 394/1172/286 393/1173/285
f 395/1174/287 393/1175/285 394/1176/286
f 394/1177/286 396/1178/288 395/1179/287
f 397/1180/289 396/1181/288 394/1182/286
f 398/1183/290 396/1184/288 397/1185/289
f 397/1186/289 388/1187/280 398/1188/290
f 387/1189/279 398/1190/290 388/1191/280
f 386/1192/278 390/1193/282 387/1194/279
f 390/1195/282 399/1196/291 400/1197/292
f 401/1198/293 402/1199/294 403/1200/295
f 404/1201/296 402/1202/294 401/1203/293
f 401/1204/293 405/1205/297 404/1206/296
f 406/1207/298 404/1208/296 405/1209/297
f 407/1210/299 404/1211/296 406/1212/298
f 406/1213/298 408/1214/300 407/1215/299
f 399/1216/291 407/1217/301 400/1218/292
f 399/1219/291 390/1220/282 409/1221/302
f 389/1222/281 409/1223/302 390/1224/282
f 392/1225/284 409/1226/302 389/1227/281
f 410/1228/303 409/1229/302 392/1230/284
f 392/1231/284 403/1232/295 410/1233/303
f 402/1234/294 410/1235/303 403/1236/295
f 411/1237/304 412/1238/305 413/1239/306
f 413/1240/306 414/1241/307 411/1242/304
f 415/1243/308 411/1244/304 414/1245/307
f 414/1246/307 416/1247/309 415/1248/308
f 417/1249/310 415/1250/308 416/1251/309
f 416/1252/309 418/1253/311 417/1254/310
f 419/1255/312 420/1256/312 421/1257/312
f 421/1258/312 422/1259/312 419/1260/312
f 423/1261/313 422/1262/312 421/1263/312
f 421/1264/312 424/1265/314 423/1266/313
f 423/1267/313 424/1268/314 425/1269/315
f 426/1270/316 427/1271/317 428/1272/318
f 428/1273/318 429/1274/319 426/1275/316
f 430/1276/320 427/1277/317 426/1278/316
f 426/1279/316 431/1280/321 430/1281/320
f 429/1282/319 431/1283/321 426/1284/316
f 432/1285/322 431/1286/321 429/1287/319
f 433/1288/323 430/1289/320 431/1290/321
f 431/1291/321 432/1292/322 433/1293/323
f 432/1294/322 434/1295/324 433/1296/323
f 435/1297/325 430/1298/320 433/1299/323
f 433/1300/323 434/1301/324 435/1302/325
f 434/1303/324 436/1304/326 435/1305/325
f 437/1306/327 430/1307/320 435/1308/325
f 435/1309/325 436/1310/326 437/1311/327
f 436/1312/326 438/1313/328 437/1314/327
f 439/1315/329 430/1316/320 437/1317/327
f 437/1318/327 438/1319/328 439/1320/329
f 438/1321/328 440/1322/330 439/1323/329
f 441/1324/331 430/1325/320 439/1326/329
f 439/1327/329 440/1328/330 441/1329/331
f 440/1330/330 442/1331/332 441/1332/331
f 427/1333/317 430/1334/320 441/1335/331
f 441/1336/331 442/1337/332 427/1338/317
f 442/1339/332 428/1340/318 427/1341/317
f 443/1342/333 444/1343/334 445/1344/335
f 446/1345/336 444/1346/334 443/1347/333
f 447/1348/337 444/1349/334 446/1350/336
f 446/1351/336 448/1352/338 447/1353/337
f 446/1354/336 449/1355/339 448/1356/338
f 450/1357/340 448/1358/338 449/1359/339
f 449/1360/339 451/1361/341 450/1362/340
f 452/1363/342 451/1364/341 449/1365/339
f 453/1366/343 451/1367/341 452/1368/342
f 452/1369/342 454/1370/344 453/1371/343
f 443/1372/333 454/1373/344 452/1374/342
f 445/1375/335 454/1376/344 443/1377/333
f 455/1378/345 443/1379/333 452/1380/342
f 456/1381/346 457/1382/347 455/1383/348
f 458/1384/349 459/1385/350 456/1386/351
f 460/1387/352 459/1388/350 458/1389/349
f 461/1390/353 462/1391/354 460/1392/355
f 446/1393/336 443/1394/333 461/1395/356
f 456/1396/351 459/1397/350 463/1398/357
f 464/1399/358 459/1400/350 460/1401/352
