# Pieza completa de un material COLLADA para Raylib
o Freezeezy_Peak_material_0006-material
v 1.9515617 -0.7456407 0.4624118
v 2.0032516 -0.5839098 0.0379681
v 1.9963241 -0.8007944 0.0379681
v 1.9584892 -0.5287561 0.4624118
v 1.9992549 0.2439286 0.4357675
v 1.9806039 0.7842749 0.0113238
v 2.0440174 0.2351359 0.0113238
v 1.9358415 0.7504367 0.4357675
v 1.7980905 1.0648394 0.4333695
v 1.5084670 1.2308334 0.0089258
v 1.8271328 1.0856219 0.0089258
v 1.4637045 1.1708837 0.4333695
v 1.0547146 1.0720334 0.4363004
v 1.0986777 1.1271871 0.0089258
v 1.4637045 1.1708837 0.4333695
v 1.5084670 1.2308334 0.0089258
v 0.1882420 1.1365126 0.4690729
v 0.1570681 1.1543642 0.0654118
v 0.2860265 1.2668032 0.2924212
v 0.2359353 1.2710663 -0.0712735
v 0.0891252 1.0296689 0.5452756
v 0.0837963 1.0645730 0.1418809
v 0.1882420 1.1365126 0.4690729
v 0.1570681 1.1543642 0.0654118
v -0.0267775 1.6145113 0.1562688
v 0.0065279 1.6739281 -0.4597474
v -0.0099916 1.6193072 -0.1893077
v -0.0227809 1.6829871 -0.0416983
v -0.0145211 1.9846006 -0.3427789
v 0.3262594 1.9755415 -0.7144669
v 0.0030641 1.9686140 -0.6657078
v 0.3275917 2.0429516 -0.3427789
v 0.3275917 2.0429516 -0.3427789
v 0.6297380 2.1660483 -0.7608279
v 0.3262594 1.9755415 -0.7144669
v 0.5911038 2.1801697 -0.3427789
v 0.5825776 2.5137564 -0.3427789
v 0.3875413 2.6592342 -0.9654562
v 0.6292051 2.5364040 -0.8634085
v 0.3843440 2.6632309 -0.3427789
v -0.2905561 2.6099423 -0.3454433
v -0.5303548 2.5129570 -0.7608279
v -0.3166675 2.6448463 -0.8761978
v -0.4970494 2.4972369 -0.3427789
v -0.5426111 2.3291114 -0.3427789
v -0.4421621 2.0783885 -0.7259239
v -0.5801796 2.3291114 -0.7608279
v -0.3534366 2.1362066 -0.6718360
v -0.4267084 1.5417723 0.1599990
v -0.4445601 1.3819065 -0.1893077
v -0.4445601 1.5471012 -0.1893077
v -0.4267084 1.3875019 0.1599990
v -0.2881581 1.7125623 -0.0017319
v -0.3401145 1.6177086 -0.1893077
v -0.3209306 1.7141610 -0.4197809
v -0.3225292 1.6134455 0.1599990
v -0.2878916 1.0909508 0.4898554
v -0.3121380 1.0413924 0.1703903
v -0.3068091 1.0928159 0.1408151
v -0.3078749 1.0318005 0.4416292
v -0.5199635 1.5084670 0.4187152
v -0.5034440 1.5087334 0.0051956
v -0.6278729 1.3390092 0.4187152
v -0.6142843 1.3384763 0.0051956
v -1.1823408 2.2598362 0.4187152
v -1.1831401 2.2766221 0.0051956
v -0.8372971 2.1204865 0.4187152
v -0.8295702 2.1351409 0.0051956
v -0.5551340 1.1708837 0.4187152
v -0.5479400 1.1743475 0.0179849
v -0.5628608 1.0259387 0.4416292
v -0.5530024 1.0411260 0.0259782
v -1.8636355 1.5433710 0.4285735
v -1.7232200 1.2007253 0.0051956
v -1.8806878 1.5439039 0.0150540
v -1.7082992 1.2081857 0.4187152
v -1.7719791 0.7355159 0.4189816
v -1.9390388 0.6942172 0.0059950
v -1.7821039 0.7573642 0.0059950
v -1.9361080 0.6705038 0.4189816
v -2.3016677 0.1256279 0.4245769
v -2.1972221 -0.1413480 0.0062614
v -2.2747570 0.1362856 0.0059950
v -2.2257315 -0.1464104 0.4245769
v -2.0632013 -0.3161346 0.5204964
v -1.9017368 -0.5697883 0.0795332
v -2.1074308 -0.3470420 0.0795332
v -1.8593724 -0.5391474 0.5204964
v -1.5193911 -0.7397790 0.4672078
v -1.4234717 -0.9617260 -0.1115064
v -1.5617556 -0.7706863 0.0262446
v -1.4002911 -0.9593280 0.3955346
v -1.4210737 -1.5447032 0.2505896
v -1.4359945 -1.6027878 -0.2210145
v -1.4661025 -1.5447032 -0.1863769
v -1.3909656 -1.6027878 0.2162185
v -1.5649529 -1.2846549 0.2505896
v -1.6169093 -1.3992253 -0.1863769
v -1.6099817 -1.2846549 -0.1863769
v -1.5718804 -1.3992253 0.2505896
v -1.3696502 -2.2691617 0.0374352
v -0.9390783 -2.1910939 -0.3995313
v -1.3837716 -2.2755563 -0.3995313
v -0.8961810 -2.2958060 0.0374352
v -0.8287709 -1.7485321 0.0374352
v -0.9673213 -1.6757932 -0.2937534
v -0.8487541 -1.7186905 -0.3289239
v -0.9907682 -1.6885824 0.0374352
v -0.7072729 -1.7725120 0.2703064
v -0.7157991 -1.7847683 -0.1432131
v -0.9446736 -1.5566931 0.3425125
v -0.9377461 -1.5910643 -0.0819312
v -0.0587507 -2.0426852 0.1293581
v 0.2108896 -2.0866482 -0.2950856
v -0.0350373 -2.0978389 -0.2950856
v 0.1807816 -2.0314945 0.1293581
v 1.8652341 -1.2318991 0.3744856
v 2.0922435 -1.2529481 -0.0408990
v 1.9099965 -1.2870528 -0.0496916
v 2.0485469 -1.1988602 0.3744856
v 1.6507475 -1.2055213 0.4624118
v 1.9099965 -1.2870528 -0.0496916
v 1.6955099 -1.2604085 0.0379681
v 1.8652341 -1.2318991 0.3744856
v 0.7376474 -1.4152119 0.2892239
v 1.1016085 -1.3275522 -0.0134554
v 0.7824098 -1.4703656 -0.1352198
v 1.0568461 -1.2723985 0.4107219
vt -0.0151367 1.0009766
vt 0.9843750 1.9663086
vt -0.0151367 1.9628906
vt 0.9843750 1.0043945
vt 0.9843750 1.9663086
vt -0.0151367 1.0009766
vt -0.0151367 1.0063477
vt 0.9843750 1.9628906
vt -0.0151367 1.9594727
vt 0.9843750 1.0092773
vt 0.9843750 1.9628906
vt -0.0151367 1.0063477
vt -0.0151367 1.0058594
vt 0.9838867 1.9589844
vt -0.0151367 1.9594727
vt 0.9838867 1.0053711
vt 0.9838867 1.9589844
vt -0.0151367 1.0058594
vt 0.9838867 1.0039062
vt 0.9838867 1.9609375
vt -0.0156250 1.0004883
vt -0.0156250 1.0004883
vt 0.9838867 1.9609375
vt -0.0156250 1.9575195
vt 0.9838867 1.0068359
vt 0.9838867 1.9633789
vt -0.0156250 1.0039062
vt -0.0156250 1.0039062
vt 0.9838867 1.9633789
vt -0.0156250 1.9609375
vt 0.9843750 1.0043945
vt 0.9843750 1.9648438
vt -0.0156250 1.0043945
vt -0.0156250 1.0043945
vt 0.9843750 1.9648438
vt -0.0156250 1.9648438
vt -0.0156250 1.0029297
vt 0.9838867 1.9658203
vt -0.0156250 1.9653320
vt 0.9838867 1.0039062
vt 0.9838867 1.9658203
vt -0.0156250 1.0029297
vt -0.0151367 1.0039062
vt 0.9838867 1.9667969
vt -0.0151367 1.9575195
vt 0.9838867 1.0131836
vt 0.9838867 1.9667969
vt -0.0151367 1.0039062
vt -0.0151367 0.9990234
vt 0.9838867 1.9653320
vt -0.0156250 1.9536133
vt 0.9838867 1.0107422
vt 0.9838867 1.9653320
vt -0.0151367 0.9990234
vt -0.0151367 1.0048828
vt 0.9838867 1.9653320
vt -0.0151367 1.9614258
vt 0.9838867 1.0087891
vt 0.9838867 1.9653320
vt -0.0151367 1.0048828
vt -0.0156250 1.0048828
vt 0.9843750 1.9658203
vt -0.0156250 1.9628906
vt 0.9843750 1.0078125
vt 0.9843750 1.9658203
vt -0.0156250 1.0048828
vt -0.0151367 1.0039062
vt 0.9843750 1.9638672
vt -0.0151367 1.9633789
vt 0.9843750 1.0048828
vt 0.9843750 1.9638672
vt -0.0151367 1.0039062
vt -0.0151367 1.0048828
vt 0.9843750 1.9682617
vt -0.0151367 1.9692383
vt 0.9843750 1.0039062
vt 0.9843750 1.9682617
vt -0.0151367 1.0048828
vt -0.0151367 1.0000000
vt 0.9838867 1.9643555
vt -0.0156250 1.9614258
vt 0.9838867 1.0029297
vt 0.9838867 1.9643555
vt -0.0151367 1.0000000
vt -0.0151367 1.0009766
vt 0.9843750 1.9682617
vt -0.0151367 1.9594727
vt 0.9843750 1.0097656
vt 0.9843750 1.9682617
vt -0.0151367 1.0009766
vt 0.9838867 1.0058594
vt 0.9843750 1.9624023
vt -0.0156250 1.0029297
vt -0.0156250 1.0029297
vt 0.9843750 1.9624023
vt -0.0151367 1.9594727
vt 0.9843750 1.0053711
vt 0.9843750 1.9663086
vt -0.0151367 1.0029297
vt -0.0151367 1.0029297
vt 0.9843750 1.9663086
vt -0.0151367 1.9638672
vt 0.9843750 1.0078125
vt 0.9838867 1.9589844
vt -0.0151367 1.0043945
vt -0.0151367 1.0043945
vt 0.9838867 1.9589844
vt -0.0156250 1.9555664
vt -0.0151367 1.0019531
vt 0.9843750 1.9570313
vt -0.0151367 1.9570313
vt 0.9843750 1.0014648
vt 0.9843750 1.9570313
vt -0.0151367 1.0019531
vt -0.0151367 1.0053711
vt 0.9843750 1.9633789
vt -0.0151367 1.9584961
vt 0.9843750 1.0102539
vt 0.9843750 1.9633789
vt -0.0151367 1.0053711
vt -0.0156250 1.0009766
vt 0.9838867 1.9672852
vt -0.0156250 1.9638672
vt 0.9838867 1.0043945
vt 0.9838867 1.9672852
vt -0.0156250 1.0009766
vt -0.0156250 1.0019531
vt 0.9838867 1.9726563
vt -0.0156250 1.9707031
vt 0.9838867 1.0039062
vt 0.9838867 1.9726563
vt -0.0156250 1.0019531
vt -0.0156250 1.0019531
vt 0.9843750 1.9609375
vt -0.0156250 1.9521484
vt 0.9838867 1.0102539
vt 0.9843750 1.9609375
vt -0.0156250 1.0019531
vt -0.0151367 1.0039062
vt 0.9838867 1.9648438
vt -0.0156250 1.9624023
vt 0.9838867 1.0063477
vt 0.9838867 1.9648438
vt -0.0151367 1.0039062
vt -0.0156250 1.0029297
vt 0.9838867 1.9658203
vt -0.0156250 1.9648438
vt 0.9838867 1.0034180
vt 0.9838867 1.9658203
vt -0.0156250 1.0029297
vt -0.0156250 1.0068359
vt 0.9843750 1.9638672
vt -0.0151367 1.9667969
vt 0.9838867 1.0039062
vt 0.9843750 1.9638672
vt -0.0156250 1.0068359
vt -0.0156250 1.0053711
vt 0.9838867 1.9628906
vt -0.0151367 1.9584961
vt 0.9838867 1.0092773
vt 0.9838867 1.9628906
vt -0.0156250 1.0053711
vt 0.9843750 1.0078125
vt 0.9843750 1.9643555
vt -0.0156250 1.0048828
vt -0.0156250 1.0048828
vt 0.9843750 1.9643555
vt -0.0151367 1.9614258
vt -0.0156250 1.0063477
vt 0.9843750 1.9697266
vt -0.0156250 1.9653320
vt 0.9843750 1.0107422
vt 0.9843750 1.9697266
vt -0.0156250 1.0063477
vt -0.0151367 1.0073242
vt 0.9838867 1.9619141
vt -0.0156250 1.9580078
vt 0.9838867 1.0112305
vt 0.9838867 1.9619141
vt -0.0151367 1.0073242
vt -0.0151367 1.0073242
vt 0.9838867 1.9619141
vt -0.0156250 1.9580078
vt 0.9838867 1.0112305
vt 0.9838867 1.9619141
vt -0.0151367 1.0073242
vt -0.0156250 1.0029297
vt 0.9838867 1.9672852
vt -0.0151367 1.9609375
vt 0.9838867 1.0092773
vt 0.9838867 1.9672852
vt -0.0156250 1.0029297
vn 0.0000130 -0.0000067 -1.0000000
vn 0.0000123 -0.0000281 -1.0000000
vn 0.0000126 -0.0000187 -1.0000000
vn 0.0000114 -0.0000562 -1.0000000
vn -0.0000107 -0.0000030 -1.0000000
vn 0.0000261 -0.0000253 -1.0000000
vn 0.0000280 -0.0000650 -1.0000000
vn 0.0000040 0.0000158 -1.0000000
vn 0.0000047 0.0000117 -1.0000000
vn -0.0000048 0.0000006 -1.0000000
vn -0.0000396 -0.0000017 -1.0000000
vn 0.0000665 -0.0000238 -1.0000000
vn -0.0000234 0.0000094 -1.0000000
vn 0.0000073 -0.0000059 -1.0000000
vn 0.0000021 -0.0000022 -1.0000000
vn 0.0000498 -0.0000118 -1.0000000
vn 0.0000028 -0.0000041 -1.0000000
vn 0.0000416 0.0000168 -1.0000000
vn -0.0000074 -0.0000059 -1.0000000
vn 0.0000341 0.0000249 -1.0000000
vn -0.0000092 -0.0000076 -1.0000000
vn 0.0000220 0.0000584 -1.0000000
vn -0.0000123 0.0000165 -1.0000000
vn 0.0000246 0.0000597 -1.0000000
vn 0.0000182 -0.0000577 -1.0000000
vn 0.0000109 -0.0000573 -1.0000000
vn 0.0000005 -0.0000358 -1.0000000
vn 0.0000087 0.0000369 -1.0000000
vn 0.0000289 -0.0000118 -1.0000000
vn -0.0000245 0.0000010 -1.0000000
vn 0.0000385 -0.0000184 -1.0000000
vn -0.0000260 -0.0000147 -1.0000000
vn 0.0000246 0.0000037 -1.0000000
vn -0.0000342 -0.0000365 -1.0000000
vn 0.0000002 0.0000208 -1.0000000
vn -0.0000022 0.0000147 -1.0000000
vn 0.0000268 0.0000113 -1.0000000
vn 0.0000221 0.0000133 -1.0000000
vn 0.0000101 -0.0000115 -1.0000000
vn 0.0063463 -0.0048112 -0.9999683
vn -0.0000206 -0.0000006 -1.0000000
vn 0.0000276 0.0000002 -1.0000000
vn -0.0000223 -0.0000277 -1.0000000
vn -0.0000223 0.0000074 -1.0000000
vn 0.0000130 -0.0000009 -1.0000000
vn -0.0000084 0.0000103 -1.0000000
vn -0.0000428 0.0000338 -1.0000000
vn -0.0000250 -0.0000263 -1.0000000
vn -0.0000073 -0.0000125 -1.0000000
vn -0.0000073 0.0000553 -1.0000000
vn -0.0000073 -0.0000199 -1.0000000
vn -0.0000073 -0.0000153 -1.0000000
vn -0.0000093 0.0000370 -1.0000000
vn 0.0000214 -0.0000001 -1.0000000
vn 0.0000165 0.0000116 -1.0000000
vn -0.0036077 -0.0082228 -0.9999597
vn -0.0000041 -0.0000765 -1.0000000
vn -0.0000034 0.0000268 -1.0000000
vn -0.0000093 0.0000051 -1.0000000
vn 0.0000292 0.0000503 -1.0000000
vn 0.0000250 0.0000006 -1.0000000
vn -0.0000276 -0.0000620 -1.0000000
vn 0.0000050 0.0000465 -1.0000000
vn 0.0000387 0.0000613 -1.0000000
vn -0.0000241 -0.0000054 -1.0000000
vn -0.0000051 -0.0000118 -1.0000000
vn -0.0000138 0.0000222 -1.0000000
vn 0.0000406 -0.0000315 -1.0000000
vn 0.0004742 0.0095236 -0.9999545
vn -0.0000090 -0.0000495 -1.0000000
vn -0.0000135 0.0000113 -1.0000000
vn 0.0000217 0.0000302 -1.0000000
vn 0.0000054 0.0000136 -1.0000000
vn -0.0000326 0.0000151 -1.0000000
vn 0.0000254 -0.0000443 -1.0000000
vn 0.0004973 -0.0010390 -0.9999993
vn -0.0000653 -0.0000015 -1.0000000
vn 0.0000305 0.0000222 -1.0000000
vn -0.0000417 0.0000003 -1.0000000
vn -0.0000411 -0.0000217 -1.0000000
vn -0.0000488 -0.0000208 -1.0000000
vn 0.0000735 -0.0000318 -1.0000000
vn 0.0000577 0.0000245 -1.0000000
vn 0.0018263 -0.0063795 -0.9999780
vn -0.0000227 0.0000092 -1.0000000
vn -0.0000375 0.0000315 -1.0000000
vn 0.0000440 -0.0000338 -1.0000000
vn -0.0089878 0.0098547 -0.9999110
vn 0.0000226 -0.0000756 -1.0000000
vn -0.0000222 0.0000023 -1.0000000
vn -0.0000029 0.0000125 -1.0000000
vn -0.0000458 0.0000562 -1.0000000
vn 0.0000074 0.0000178 -1.0000000
vn 0.0000236 -0.0000617 -1.0000000
vn 0.0000102 0.0000074 -1.0000000
vn -0.0000333 0.0000553 -1.0000000
vn -0.0000079 0.0000057 -1.0000000
vn -0.0000081 0.0000022 -1.0000000
vn -0.0000056 0.0000444 -1.0000000
vn -0.0003777 -0.0061426 -0.9999811
vn 0.0000095 -0.0000673 -1.0000000
vn 0.0000547 -0.0000224 -1.0000000
vn 0.0000053 -0.0000044 -1.0000000
vn -0.0000038 -0.0000554 -1.0000000
vn 0.0000080 -0.0000068 -1.0000000
vn -0.0000071 -0.0000204 -1.0000000
vn 0.0000013 0.0000078 -1.0000000
vn 0.0000604 0.0000012 -1.0000000
vn 0.0032615 -0.0029330 -0.9999904
vn -0.0000390 0.0000305 -1.0000000
vn 0.0000394 -0.0000449 -1.0000000
vn -0.0000291 0.0000033 -1.0000000
vn 0.0000633 0.0000132 -1.0000000
vn 0.0000474 0.0000213 -1.0000000
vn 0.0000173 0.0000069 -1.0000000
vn 0.0000221 0.0000239 -1.0000000
vn 0.0000677 0.0000203 -1.0000000
vn 0.0000123 -0.0000182 -1.0000000
vn 0.0000112 0.0000182 -1.0000000
vn -0.0000122 0.0000138 -1.0000000
vn 0.0000078 0.0000080 -1.0000000
vn 0.0000774 0.0000049 -1.0000000
vn 0.0000409 -0.0000123 -1.0000000
vn 0.0000219 0.0000100 -1.0000000
vn -0.0000676 -0.0000065 -1.0000000
vn -0.0000445 -0.0000372 -1.0000000
vn -0.0000669 -0.0000306 -1.0000000
vn -0.0000125 -0.0000162 -1.0000000
f 1/1/1 2/2/2 3/3/3
f 4/4/4 2/5/2 1/6/1
f 5/7/5 6/8/6 7/9/7
f 8/10/8 6/11/6 5/12/5
f 9/13/9 10/14/10 11/15/11
f 12/16/12 10/17/10 9/18/9
f 13/19/13 14/20/14 15/21/15
f 15/22/15 14/23/14 16/24/16
f 17/25/17 18/26/18 19/27/19
f 19/28/19 18/29/18 20/30/20
f 21/31/21 22/32/22 23/33/23
f 23/34/23 22/35/22 24/36/24
f 25/37/25 26/38/26 27/39/27
f 28/40/28 26/41/26 25/42/25
f 29/43/29 30/44/30 31/45/31
f 32/46/32 30/47/30 29/48/29
f 33/49/33 34/50/34 35/51/35
f 36/52/36 34/53/34 33/54/33
f 37/55/37 38/56/38 39/57/39
f 40/58/40 38/59/38 37/60/37
f 41/61/41 42/62/42 43/63/43
f 44/64/44 42/65/42 41/66/41
f 45/67/45 46/68/46 47/69/47
f 48/70/48 46/71/46 45/72/45
f 49/73/49 50/74/50 51/75/51
f 52/76/52 50/77/50 49/78/49
f 53/79/53 54/80/54 55/81/55
f 56/82/56 54/83/54 53/84/53
f 57/85/57 58/86/58 59/87/59
f 60/88/60 58/89/58 57/90/57
f 61/91/61 62/92/62 63/93/63
f 63/94/63 62/95/62 64/96/64
f 65/97/65 66/98/66 67/99/67
f 67/100/67 66/101/66 68/102/68
f 69/103/69 70/104/70 71/105/71
f 71/106/71 70/107/70 72/108/72
f 73/109/73 74/110/74 75/111/75
f 76/112/76 74/113/74 73/114/73
f 77/115/77 78/116/78 79/117/79
f 80/118/80 78/119/78 77/120/77
f 81/121/81 82/122/82 83/123/83
f 84/124/84 82/125/82 81/126/81
f 85/127/85 86/128/86 87/129/87
f 88/130/88 86/131/86 85/132/85
f 89/133/89 90/134/90 91/135/91
f 92/136/92 90/137/90 89/138/89
f 93/139/93 94/140/94 95/141/95
f 96/142/96 94/143/94 93/144/93
f 97/145/97 98/146/98 99/147/99
f 100/148/100 98/149/98 97/150/97
f 101/151/101 102/152/102 103/153/103
f 104/154/104 102/155/102 101/156/101
f 105/157/105 106/158/106 107/159/107
f 108/160/108 106/161/106 105/162/105
f 109/163/109 110/164/110 111/165/111
f 111/166/111 110/167/110 112/168/112
f 113/169/113 114/170/114 115/171/115
f 116/172/116 114/173/114 113/174/113
f 117/175/117 118/176/118 119/177/119
f 120/178/120 118/179/118 117/180/117
f 121/181/121 122/182/122 123/183/123
f 124/184/124 122/185/122 121/186/121
f 125/187/125 126/188/126 127/189/127
f 128/190/128 126/191/126 125/192/125
