# Pieza completa de un material COLLADA para Raylib
o Freezeezy_Peak_material_0001-material
v -1.4839542 -1.3992253 0.6230769
v -1.4210737 -1.5447032 0.2505896
v -1.5718804 -1.3992253 0.2505896
v -1.3376770 -1.5447032 0.5961662
v 1.8881482 -0.6766320 0.7816105
v 1.9584892 -0.5287561 0.4624118
v 1.9515617 -0.7456407 0.4624118
v 1.8961415 -0.4605467 0.7762816
v 1.8849509 0.7339172 0.7336508
v 1.7980905 1.0648394 0.4333695
v 1.9358415 0.7504367 0.4357675
v 1.7586569 1.0464548 0.7405783
v 0.8868555 0.8836582 0.7600286
v 0.8951152 0.9297528 0.4482903
v 0.9982286 1.0176790 0.7152662
v 1.0547146 1.0720334 0.4363004
v 0.3467755 1.2721320 0.6625105
v 0.2860265 1.2668032 0.2924212
v 0.3156017 1.3835052 0.6427937
v 0.2519218 1.3891005 0.3321212
v -0.0837963 1.1479696 0.6206789
v -0.0398332 1.1535649 0.2828292
v -0.0201164 1.0086199 0.8522179
v 0.0075936 1.0499186 0.5538017
v 0.5343514 2.2009523 -0.0515567
v 0.6369320 2.3482953 -0.3427789
v 0.5911038 2.1801697 -0.3427789
v 0.5727192 2.3456308 -0.0470272
v -0.0480930 2.0149751 -0.0496916
v 0.3275917 2.0429516 -0.3427789
v -0.0145211 1.9846006 -0.3427789
v 0.2996151 2.0807865 -0.0536883
v -0.3934031 1.5364435 0.4408299
v -0.4267084 1.3875019 0.1599990
v -0.4267084 1.5417723 0.1599990
v -0.3926037 1.4029555 0.4466917
v -1.1852716 2.1889624 0.7384467
v -1.1823408 2.2598362 0.4187152
v -0.8897864 2.0181724 0.7592293
v -0.8372971 2.1204865 0.4187152
v -0.6180145 1.1551636 0.7515024
v -0.5551340 1.1708837 0.4187152
v -0.6273400 0.9806434 0.7701535
v -0.5628608 1.0259387 0.4416292
v -1.7479992 1.5393744 0.7600286
v -1.7082992 1.2081857 0.4187152
v -1.8636355 1.5433710 0.4285735
v -1.6089160 1.2593428 0.7453743
v -1.7557261 0.6649085 0.6286722
v -1.9361080 0.6705038 0.4189816
v -1.7719791 0.7355159 0.4189816
v -1.9137267 0.5772487 0.7357823
v -2.2086791 0.1485420 0.7448414
v -2.2257315 -0.1464104 0.4245769
v -2.3016677 0.1256279 0.4245769
v -2.1436670 -0.0829970 0.7467065
v -1.4343958 -0.6699709 0.8093206
v -1.4002911 -0.9593280 0.3955346
v -1.5193911 -0.7397790 0.4672078
v -1.3067696 -0.8857897 0.7717521
v -0.9289535 -2.2425174 0.3041447
v -0.6739675 -2.1021019 0.0374352
v -0.8961810 -2.2958060 0.0374352
v -0.7661568 -2.0786550 0.3979326
v -1.0333991 -1.5534958 0.6326689
v -0.9811763 -1.5750777 0.3425125
v -1.0515172 -1.6352938 0.5644595
v -1.0110179 -1.6288992 0.3878078
v -1.0333991 -1.5534958 0.6326689
v -0.9446736 -1.5566931 0.3425125
v -0.9811763 -1.5750777 0.3425125
v -0.9526669 -1.5116643 0.6395964
v -0.6963487 -1.7578576 0.5777816
v -0.7072729 -1.7725120 0.2703064
v -0.9526669 -1.5116643 0.6395964
v -0.9446736 -1.5566931 0.3425125
v -0.2631124 -1.9486308 0.4333695
v -0.0587507 -2.0426852 0.1293581
v -0.2457937 -2.0067154 0.1293581
v -0.0819312 -1.9830019 0.4325702
v 1.9963241 -1.1367790 0.6840924
v 2.0485469 -1.1988602 0.3744856
v 1.8060838 -1.1626240 0.6960823
v 1.5982583 -1.1383777 0.7664232
v 1.8652341 -1.2318991 0.3744856
v 1.6507475 -1.2055213 0.4624118
v 1.8060838 -1.1626240 0.6960823
v 1.8652341 -1.2318991 0.3744856
v 0.6899541 -1.3494005 0.5849756
v 1.0568461 -1.2723985 0.4107219
v 0.7376474 -1.4152119 0.2892239
v 1.0099521 -1.2076528 0.6987467
vt -0.0151367 0.9848633
vt 0.9838867 1.9843750
vt -0.0156250 1.9843750
vt 0.9843750 0.9848633
vt 0.9838867 1.9843750
vt -0.0151367 0.9848633
vt -0.0151367 0.9843750
vt 0.9843750 1.9843750
vt -0.0151367 1.9843750
vt 0.9843750 0.9843750
vt 0.9843750 1.9843750
vt -0.0151367 0.9843750
vt -0.0151367 0.9848633
vt 0.9843750 1.9838867
vt -0.0151367 1.9838867
vt 0.9843750 0.9848633
vt 0.9843750 1.9838867
vt -0.0151367 0.9848633
vt 0.9843750 0.9843750
vt 0.9843750 1.9843750
vt -0.0156250 0.9843750
vt -0.0156250 0.9843750
vt 0.9843750 1.9843750
vt -0.0156250 1.9843750
vt 0.9838867 0.9848633
vt 0.9838867 1.9838867
vt -0.0151367 0.9848633
vt -0.0151367 0.9848633
vt 0.9838867 1.9838867
vt -0.0156250 1.9838867
vt 0.9843750 0.9843750
vt 0.9838867 1.9843750
vt -0.0156250 0.9843750
vt -0.0156250 0.9843750
vt 0.9838867 1.9843750
vt -0.0156250 1.9843750
vt -0.0151367 0.9848633
vt 0.9838867 1.9838867
vt -0.0156250 1.9838867
vt 0.9838867 0.9848633
vt 0.9838867 1.9838867
vt -0.0151367 0.9848633
vt -0.0156250 0.9843750
vt 0.9843750 1.9843750
vt -0.0151367 1.9843750
vt 0.9843750 0.9843750
vt 0.9843750 1.9843750
vt -0.0156250 0.9843750
vt -0.0156250 0.9843750
vt 0.9838867 1.9838867
vt -0.0156250 1.9838867
vt 0.9838867 0.9843750
vt 0.9838867 1.9838867
vt -0.0156250 0.9843750
vt 0.9838867 0.9848633
vt 0.9838867 1.9838867
vt -0.0156250 0.9848633
vt -0.0156250 0.9848633
vt 0.9838867 1.9838867
vt -0.0151367 1.9838867
vt 0.9843750 0.9843750
vt 0.9843750 1.9843750
vt -0.0156250 0.9843750
vt -0.0156250 0.9843750
vt 0.9843750 1.9843750
vt -0.0156250 1.9843750
vt -0.0156250 0.9848633
vt 0.9843750 1.9843750
vt -0.0156250 1.9843750
vt 0.9843750 0.9848633
vt 0.9843750 1.9843750
vt -0.0156250 0.9848633
vt -0.0156250 0.9843750
vt 0.9843750 1.9843750
vt -0.0156250 1.9843750
vt 0.9843750 0.9843750
vt 0.9843750 1.9843750
vt -0.0156250 0.9843750
vt -0.0156250 0.9843750
vt 0.9843750 1.9838867
vt -0.0151367 1.9838867
vt 0.9843750 0.9843750
vt 0.9843750 1.9838867
vt -0.0156250 0.9843750
vt -0.0156250 0.9843750
vt 0.9843750 1.9838867
vt -0.0151367 1.9838867
vt 0.9838867 0.9843750
vt 0.9843750 1.9838867
vt -0.0156250 0.9843750
vt -0.0156250 0.9848633
vt 0.9843750 1.9843750
vt -0.0156250 1.9843750
vt 0.9843750 0.9848633
vt 0.9843750 1.9843750
vt -0.0156250 0.9848633
vt 0.9843750 0.9848633
vt 0.9843750 1.9838867
vt -0.0151367 0.9848633
vt -0.0151367 0.9848633
vt 0.9843750 1.9838867
vt -0.0151367 1.9838867
vt -0.0151367 0.9843750
vt 0.9843750 1.9843750
vt -0.0151367 1.9843750
vt 0.9843750 0.9843750
vt 0.9843750 1.9843750
vt -0.0151367 0.9843750
vt 0.9843750 0.9843750
vt 0.9843750 1.9843750
vt -0.0156250 0.9843750
vt -0.0156250 0.9843750
vt 0.9843750 1.9843750
vt -0.0156250 1.9843750
vt -0.0156250 0.9843750
vt 0.9843750 1.9843750
vt -0.0156250 1.9843750
vt 0.9843750 0.9843750
vt 0.9843750 1.9843750
vt -0.0156250 0.9843750
vt 0.9843750 0.9848633
vt 0.9838867 1.9838867
vt -0.0151367 0.9848633
vt -0.0151367 0.9848633
vt 0.9838867 1.9838867
vt -0.0156250 1.9838867
vt 0.9843750 0.9848633
vt 0.9838867 1.9838867
vt -0.0151367 0.9848633
vt -0.0151367 0.9848633
vt 0.9838867 1.9838867
vt -0.0156250 1.9838867
vt -0.0151367 0.9843750
vt 0.9843750 1.9843750
vt -0.0151367 1.9843750
vt 0.9843750 0.9843750
vt 0.9843750 1.9843750
vt -0.0151367 0.9843750
vn -0.0000069 0.0000143 -1.0000000
vn 0.0000381 -0.0000406 -1.0000000
vn 0.0000621 -0.0000293 -1.0000000
vn -0.0000268 0.0000239 -1.0000000
vn 0.0000110 0.0000085 -1.0000000
vn 0.0000095 0.0000306 -1.0000000
vn 0.0000097 0.0000059 -1.0000000
vn 0.0000200 0.0000539 -1.0000000
vn -0.0000174 -0.0000085 -1.0000000
vn 0.0000118 -0.0000584 -1.0000000
vn 0.0000263 -0.0000560 -1.0000000
vn -0.0028318 0.0071079 -0.9999707
vn 0.0000296 0.0000010 -1.0000000
vn 0.0000176 0.0000192 -1.0000000
vn -0.0000157 0.0000044 -1.0000000
vn -0.0000011 -0.0000192 -1.0000000
vn -0.0000216 0.0000597 -1.0000000
vn 0.0000189 -0.0000083 -1.0000000
vn 0.0000009 -0.0000274 -1.0000000
vn 0.0000226 -0.0000241 -1.0000000
vn 0.0000125 -0.0000500 -1.0000000
vn -0.0000200 0.0000161 -1.0000000
vn 0.0000375 -0.0000624 -1.0000000
vn -0.0000363 0.0000238 -1.0000000
vn -0.0000050 0.0000258 -1.0000000
vn -0.0000019 -0.0000715 -1.0000000
vn 0.0000008 0.0000779 -1.0000000
vn -0.0000130 -0.0000171 -1.0000000
vn -0.0000275 -0.0000042 -1.0000000
vn -0.0000178 -0.0000204 -1.0000000
vn -0.0000131 -0.0000264 -1.0000000
vn -0.0000274 0.0000120 -1.0000000
vn 0.0000095 0.0000045 -1.0000000
vn 0.0000117 -0.0000064 -1.0000000
vn -0.0000203 0.0000231 -1.0000000
vn 0.0000125 -0.0000065 -1.0000000
vn -0.0000078 0.0000100 -1.0000000
vn 0.0000186 -0.0000094 -1.0000000
vn -0.0000134 -0.0000113 -1.0000000
vn 0.0000065 -0.0000039 -1.0000000
vn -0.0000144 -0.0000206 -1.0000000
vn 0.0000187 0.0000670 -1.0000000
vn 0.0000153 -0.0000582 -1.0000000
vn -0.0000163 -0.0000565 -1.0000000
vn 0.0000128 -0.0000108 -1.0000000
vn -0.0000095 0.0000012 -1.0000000
vn 0.0000367 -0.0000223 -1.0000000
vn -0.0002496 0.0004379 -0.9999999
vn -0.0000189 0.0000107 -1.0000000
vn -0.0000542 -0.0000210 -1.0000000
vn 0.0000488 -0.0000018 -1.0000000
vn 0.0000535 0.0000085 -1.0000000
vn -0.0000172 0.0000132 -1.0000000
vn -0.0000109 0.0000445 -1.0000000
vn 0.0000164 -0.0000031 -1.0000000
vn -0.0000224 -0.0000081 -1.0000000
vn 0.0000198 -0.0000653 -1.0000000
vn 0.0000512 -0.0000439 -1.0000000
vn -0.0000173 0.0000090 -1.0000000
vn -0.0000097 -0.0000136 -1.0000000
vn -0.0000098 -0.0000324 -1.0000000
vn -0.0000573 -0.0000411 -1.0000000
vn -0.0000375 -0.0000078 -1.0000000
vn 0.0000018 0.0000193 -1.0000000
vn -0.0010269 -0.0025607 -0.9999962
vn -0.0000188 -0.0000268 -1.0000000
vn -0.0000021 -0.0000603 -1.0000000
vn -0.0000071 -0.0000374 -1.0000000
vn -0.0000170 0.0000154 -1.0000000
vn -0.0000599 -0.0000372 -1.0000000
vn -0.0000574 -0.0000067 -1.0000000
vn -0.0000248 -0.0000146 -1.0000000
vn 0.0049415 -0.0046155 -0.9999771
vn 0.0000278 0.0000019 -1.0000000
vn -0.0000197 0.0000434 -1.0000000
vn 0.0000515 -0.0000176 -1.0000000
vn -0.0000673 -0.0000072 -1.0000000
vn -0.0000586 0.0000354 -1.0000000
vn -0.0000118 0.0000193 -1.0000000
vn 0.0000042 -0.0000197 -1.0000000
vn -0.0000133 -0.0000260 -1.0000000
vn 0.0000715 0.0000069 -1.0000000
vn 0.0000000 0.0000024 -1.0000000
vn 0.0000406 -0.0000037 -1.0000000
vn -0.0000266 0.0000250 -1.0000000
vn -0.0000601 0.0000168 -1.0000000
vn 0.0000288 0.0000005 -1.0000000
vn 0.0000613 -0.0000131 -1.0000000
vn 0.0000370 -0.0000013 -1.0000000
vn -0.0000401 0.0000060 -1.0000000
vn 0.0000621 0.0000135 -1.0000000
vn 0.0000050 0.0000095 -1.0000000
f 1/1/1 2/2/2 3/3/3
f 4/4/4 2/5/2 1/6/1
f 5/7/5 6/8/6 7/9/7
f 8/10/8 6/11/6 5/12/5
f 9/13/9 10/14/10 11/15/11
f 12/16/12 10/17/10 9/18/9
f 13/19/13 14/20/14 15/21/15
f 15/22/15 14/23/14 16/24/16
f 17/25/17 18/26/18 19/27/19
f 19/28/19 18/29/18 20/30/20
f 21/31/21 22/32/22 23/33/23
f 23/34/23 22/35/22 24/36/24
f 25/37/25 26/38/26 27/39/27
f 28/40/28 26/41/26 25/42/25
f 29/43/29 30/44/30 31/45/31
f 32/46/32 30/47/30 29/48/29
f 33/49/33 34/50/34 35/51/35
f 36/52/36 34/53/34 33/54/33
f 37/55/37 38/56/38 39/57/39
f 39/58/39 38/59/38 40/60/40
f 41/61/41 42/62/42 43/63/43
f 43/64/43 42/65/42 44/66/44
f 45/67/45 46/68/46 47/69/47
f 48/70/48 46/71/46 45/72/45
f 49/73/49 50/74/50 51/75/51
f 52/76/52 50/77/50 49/78/49
f 53/79/53 54/80/54 55/81/55
f 56/82/56 54/83/54 53/84/53
f 57/85/57 58/86/58 59/87/59
f 60/88/60 58/89/58 57/90/57
f 61/91/61 62/92/62 63/93/63
f 64/94/64 62/95/62 61/96/61
f 65/97/65 66/98/66 67/99/67
f 67/100/67 66/101/66 68/102/68
f 69/103/69 70/104/70 71/105/71
f 72/106/72 70/107/70 69/108/69
f 73/109/73 74/110/74 75/111/75
f 75/112/75 74/113/74 76/114/76
f 77/115/77 78/116/78 79/117/79
f 80/118/80 78/119/78 77/120/77
f 81/121/81 82/122/82 83/123/83
f 84/124/84 85/125/85 86/126/86
f 87/127/87 85/128/85 84/129/84
f 83/130/83 82/131/82 88/132/88
f 89/133/89 90/134/90 91/135/91
f 92/136/92 90/137/90 89/138/89
