# Pieza completa de un material COLLADA para Raylib
o Freezeezy_Peak_material_0005-material
v 2.1068979 -1.0832240 0.3744856
v 2.1516603 -1.1383777 -0.0496916
v 2.0485469 -1.1988602 0.3744856
v 2.0922435 -1.2529481 -0.0408990
v 2.0522771 -0.9079045 0.3744856
v 1.9963241 -0.8007944 0.0379681
v 2.0967731 -0.9630582 -0.0496916
v 1.9515617 -0.7456407 0.4624118
v 2.0522771 -0.9079045 0.3744856
v 2.0967731 -0.9630582 -0.0496916
v 2.1068979 -1.0832240 0.3744856
v 2.1516603 -1.1383777 -0.0496916
v 2.0258992 -0.2127547 0.3169339
v 2.0440174 0.2351359 0.0113238
v 2.0759905 -0.2868259 0.0347708
v 1.9992549 0.2439286 0.4357675
v 0.8951152 0.9297528 0.4482903
v 0.8977796 0.9641239 0.0446292
v 1.0547146 1.0720334 0.4363004
v 1.0986777 1.1271871 0.0089258
v 0.7416441 1.1093354 0.4155178
v 0.7888045 1.1058716 -0.0712735
v 0.7680219 0.9241575 0.5316870
v 0.7959984 0.9641239 0.0989836
v 0.7416441 1.1093354 0.4155178
v 0.8311689 1.2049884 -0.0712735
v 0.7888045 1.1058716 -0.0712735
v 0.7770810 1.2143139 0.3321212
v 0.7770810 1.2143139 0.3321212
v 0.9190951 1.3334139 -0.0712735
v 0.8311689 1.2049884 -0.0712735
v 0.8642078 1.3379435 0.3321212
v 0.8141165 1.5934623 0.3321212
v 0.5780481 1.7802388 -0.0712735
v 0.8556816 1.6291656 -0.0686091
v 0.5679232 1.7069670 0.1085755
v 0.3550353 1.5889327 0.3321212
v 0.3187990 1.6315636 -0.0712735
v 0.5679232 1.7069670 0.1085755
v 0.5780481 1.7802388 -0.0712735
v 0.0075936 1.0499186 0.5538017
v 0.0286426 1.0810924 0.1418809
v 0.0891252 1.0296689 0.5452756
v 0.0837963 1.0645730 0.1418809
v -0.0398332 1.1535649 0.2828292
v -0.0195836 1.1591602 -0.0861943
v 0.0075936 1.0499186 0.5538017
v 0.0286426 1.0810924 0.1418809
v -0.0398332 1.1535649 0.2828292
v -0.0097252 1.2995757 -0.1821138
v -0.0195836 1.1591602 -0.0861943
v -0.0262446 1.3083683 0.1562688
v -0.0262446 1.3083683 0.1562688
v 0.0997829 1.3821730 -0.1850447
v -0.0097252 1.2995757 -0.1821138
v 0.0816648 1.3875019 0.1562688
v 0.3843440 2.6632309 -0.3427789
v 0.0233138 2.7000000 -0.8111857
v 0.3875413 2.6592342 -0.9654562
v 0.0270440 2.6621651 -0.3217299
v 0.5911038 2.1801697 -0.3427789
v 0.6798293 2.3498939 -0.7608279
v 0.6297380 2.1660483 -0.7608279
v 0.6369320 2.3482953 -0.3427789
v 0.6369320 2.3482953 -0.3427789
v 0.6292051 2.5364040 -0.8634085
v 0.6798293 2.3498939 -0.7608279
v 0.5825776 2.5137564 -0.3427789
v -0.4267084 1.3875019 0.1599990
v -0.3441111 1.3057039 0.0110574
v -0.4445601 1.3819065 -0.1893077
v -0.3259930 1.3115656 0.1599990
v -0.3078749 1.0318005 0.4416292
v -0.4762668 0.9697192 0.0259782
v -0.3121380 1.0413924 0.1703903
v -0.4807964 0.9473380 0.4416292
v -0.6156165 1.8305965 0.4187152
v -0.6017615 1.8393892 0.0051956
v -0.5199635 1.5084670 0.4187152
v -0.5034440 1.5087334 0.0051956
v -1.1823408 2.2598362 0.4187152
v -1.6147777 2.1663147 0.0051956
v -1.1831401 2.2766221 0.0051956
v -1.6054522 2.1519268 0.4187152
v -1.6054522 2.1519268 0.4187152
v -1.8718952 1.8761583 0.0051956
v -1.6147777 2.1663147 0.0051956
v -1.8569744 1.8676321 0.4187152
v -1.7082992 1.2081857 0.4187152
v -1.5724133 0.9638575 -0.0270440
v -1.7232200 1.2007253 0.0051956
v -1.5617556 0.9801105 0.3872749
v -1.9361080 0.6705038 0.4189816
v -2.1846993 0.4584152 0.0059950
v -1.9390388 0.6942172 0.0059950
v -2.1703113 0.4456259 0.4189816
v -1.8593724 -0.5391474 0.5204964
v -1.7202891 -0.5871071 0.0475601
v -1.9017368 -0.5697883 0.0795332
v -1.6803227 -0.5556668 0.4917205
v -1.6803227 -0.5556668 0.4917205
v -1.5617556 -0.7706863 0.0262446
v -1.7202891 -0.5871071 0.0475601
v -1.5193911 -0.7397790 0.4672078
v -2.2257315 -0.1464104 0.4245769
v -2.1074308 -0.3470420 0.0795332
v -2.1972221 -0.1413480 0.0062614
v -2.0632013 -0.3161346 0.5204964
v -1.4002911 -0.9593280 0.3955346
v -1.4245374 -1.0592441 -0.1770514
v -1.4234717 -0.9617260 -0.1115064
v -1.3795086 -1.0688360 0.2540534
v -1.3795086 -1.0688360 0.2540534
v -1.5319139 -1.1796763 -0.1863769
v -1.4245374 -1.0592441 -0.1770514
v -1.4866186 -1.1796763 0.2505896
v -1.5718804 -1.3992253 0.2505896
v -1.4661025 -1.5447032 -0.1863769
v -1.6169093 -1.3992253 -0.1863769
v -1.4210737 -1.5447032 0.2505896
v -1.3909656 -1.6027878 0.2162185
v -1.4253368 -1.7138945 -0.3894064
v -1.4359945 -1.6027878 -0.2210145
v -1.3627227 -1.7341442 0.0147876
v -1.3627227 -1.7341442 0.0147876
v -1.6051858 -1.9171905 -0.3995313
v -1.4253368 -1.7138945 -0.3894064
v -1.5601569 -1.9233187 0.0374352
v -0.6739675 -2.1021019 0.0374352
v -0.7565649 -1.8068831 -0.3995313
v -0.7541669 -2.0309617 -0.3995313
v -0.7139340 -1.8660335 0.0459614
v -0.8961810 -2.2958060 0.0374352
v -0.7541669 -2.0309617 -0.3995313
v -0.9390783 -2.1910939 -0.3995313
v -0.6739675 -2.1021019 0.0374352
v -0.9446736 -1.5566931 0.3425125
v -0.9377461 -1.5910643 -0.0819312
v -0.9811763 -1.5750777 0.3425125
v -0.9811763 -1.5750777 0.3425125
v -0.9377461 -1.5910643 -0.0819312
v -1.0110179 -1.6288992 0.3878078
v -0.9364139 -1.6246361 -0.2092910
v -1.0110179 -1.6288992 0.3878078
v -0.9364139 -1.6246361 -0.2092910
v -0.9907682 -1.6885824 0.0374352
v -0.9673213 -1.6757932 -0.2937534
v -0.7072729 -1.7725120 0.2703064
v -0.4554843 -1.8702965 -0.2950856
v -0.7157991 -1.7847683 -0.1432131
v -0.4405635 -1.8604382 0.1293581
v -0.4405635 -1.8604382 0.1293581
v -0.2268762 -2.0618690 -0.2950856
v -0.4554843 -1.8702965 -0.2950856
v -0.2457937 -2.0067154 0.1293581
v 0.1807816 -2.0314945 0.1293581
v 0.6092219 -1.9323778 -0.2617802
v 0.2108896 -2.0866482 -0.2950856
v 0.5689890 -1.8772241 0.1626634
v 0.5689890 -1.8772241 0.1626634
v 0.7946662 -1.6816549 -0.1690581
v 0.6092219 -1.9323778 -0.2617802
v 0.7499038 -1.6265012 0.2553856
v 1.0568461 -1.2723985 0.4107219
v 1.3720482 -1.3725810 0.0113238
v 1.1016085 -1.3275522 -0.0134554
v 1.3272857 -1.3174273 0.4357675
vt 0.9843750 1.0014648
vt 0.9843750 1.9594727
vt -0.0151367 1.0068359
vt -0.0151367 1.0068359
vt 0.9843750 1.9594727
vt -0.0156250 1.9648438
vt -0.0151367 1.0029297
vt 0.9838867 1.9663086
vt -0.0151367 1.9584961
vt 0.9838867 1.0112305
vt 0.9838867 1.9663086
vt -0.0151367 1.0029297
vt 0.9838867 1.0053711
vt 0.9838867 1.9687500
vt -0.0151367 1.0058594
vt -0.0151367 1.0058594
vt 0.9838867 1.9687500
vt -0.0151367 1.9692383
vt -0.0151367 1.0078125
vt 0.9838867 1.9643555
vt -0.0156250 1.9575195
vt 0.9843750 1.0146484
vt 0.9838867 1.9643555
vt -0.0151367 1.0078125
vt 0.9843750 1.0009766
vt 0.9843750 1.9628906
vt -0.0156250 1.0009766
vt -0.0156250 1.0009766
vt 0.9843750 1.9628906
vt -0.0156250 1.9628906
vt 0.9843750 1.0024414
vt 0.9843750 1.9619141
vt -0.0151367 1.0004883
vt -0.0151367 1.0004883
vt 0.9843750 1.9619141
vt -0.0151367 1.9599609
vt -0.0151367 1.0000000
vt 0.9838867 1.9643555
vt -0.0156250 1.9594727
vt 0.9843750 1.0048828
vt 0.9838867 1.9643555
vt -0.0151367 1.0000000
vt -0.0156250 1.0014648
vt 0.9843750 1.9643555
vt -0.0156250 1.9614258
vt 0.9838867 1.0048828
vt 0.9843750 1.9643555
vt -0.0156250 1.0014648
vt -0.0156250 1.0019531
vt 0.9843750 1.9672852
vt -0.0156250 1.9619141
vt 0.9838867 1.0073242
vt 0.9843750 1.9672852
vt -0.0156250 1.0019531
vt 0.9843750 1.0039062
vt 0.9843750 1.9697266
vt -0.0156250 1.0000000
vt -0.0156250 1.0000000
vt 0.9843750 1.9697266
vt -0.0156250 1.9658203
vt 0.9838867 1.0058594
vt 0.9838867 1.9658203
vt -0.0151367 1.0039062
vt -0.0151367 1.0039062
vt 0.9838867 1.9658203
vt -0.0151367 1.9633789
vt 0.9843750 1.0024414
vt 0.9843750 1.9682617
vt -0.0156250 1.0034180
vt -0.0156250 1.0034180
vt 0.9843750 1.9682617
vt -0.0151367 1.9692383
vt -0.0156250 1.0053711
vt 0.9843750 1.9648438
vt -0.0156250 1.9643555
vt 0.9838867 1.0058594
vt 0.9843750 1.9648438
vt -0.0156250 1.0053711
vt -0.0156250 1.0043945
vt 0.9843750 1.9682617
vt -0.0151367 1.9687500
vt 0.9843750 1.0039062
vt 0.9843750 1.9682617
vt -0.0156250 1.0043945
vt -0.0151367 1.0019531
vt 0.9838867 1.9672852
vt -0.0151367 1.9633789
vt 0.9838867 1.0063477
vt 0.9838867 1.9672852
vt -0.0151367 1.0019531
vt -0.0156250 1.0004883
vt 0.9843750 1.9687500
vt -0.0156250 1.9648438
vt 0.9843750 1.0043945
vt 0.9843750 1.9687500
vt -0.0156250 1.0004883
vt -0.0156250 1.0058594
vt 0.9843750 1.9667969
vt -0.0156250 1.9672852
vt 0.9843750 1.0053711
vt 0.9843750 1.9667969
vt -0.0156250 1.0058594
vt -0.0151367 1.0024414
vt 0.9843750 1.9677734
vt -0.0151367 1.9653320
vt 0.9843750 1.0043945
vt 0.9843750 1.9677734
vt -0.0151367 1.0024414
vt -0.0151367 1.0039062
vt 0.9843750 1.9687500
vt -0.0151367 1.9653320
vt 0.9843750 1.0068359
vt 0.9843750 1.9687500
vt -0.0151367 1.0039062
vt 0.9838867 1.0083008
vt 0.9838867 1.9628906
vt -0.0151367 1.0024414
vt -0.0151367 1.0024414
vt 0.9838867 1.9628906
vt -0.0156250 1.9575195
vt -0.0156250 1.0063477
vt 0.9843750 1.9599609
vt -0.0151367 1.9628906
vt 0.9843750 1.0034180
vt 0.9843750 1.9599609
vt -0.0156250 1.0063477
vt -0.0156250 1.0024414
vt 0.9838867 1.9565430
vt -0.0156250 1.9545898
vt 0.9838867 1.0043945
vt 0.9838867 1.9565430
vt -0.0156250 1.0024414
vt -0.0151367 1.0024414
vt 0.9843750 1.9565430
vt -0.0151367 1.9550781
vt 0.9843750 1.0039062
vt 0.9843750 1.9565430
vt -0.0151367 1.0024414
vt -0.0156250 1.0004883
vt 0.9843750 1.9648438
vt -0.0151367 1.9589844
vt 0.9843750 1.0058594
vt 0.9843750 1.9648438
vt -0.0156250 1.0004883
vt -0.0156250 1.0058594
vt 0.9838867 1.9663086
vt -0.0156250 1.9667969
vt 0.9838867 1.0053711
vt 0.9838867 1.9663086
vt -0.0156250 1.0058594
vt -0.0156250 1.0014648
vt 0.9843750 1.9633789
vt -0.0156250 1.9584961
vt 0.9843750 1.0058594
vt 0.9843750 1.9633789
vt -0.0156250 1.0014648
vt -0.0156250 1.0087891
vt 0.9838867 1.9692383
vt -0.0156250 1.9711914
vt 0.9838867 1.0068359
vt 0.9838867 1.9692383
vt -0.0156250 1.0087891
vt -0.0151367 1.0107422
vt 0.9843750 1.9633789
vt -0.0151367 1.9614258
vt 0.9843750 1.0122070
vt 0.9843750 1.9633789
vt -0.0151367 1.0107422
vt -0.0156250 1.0019531
vt 0.9838867 1.9643555
vt -0.0156250 1.9643555
vt 0.9838867 1.0019531
vt 0.9838867 1.9643555
vt -0.0156250 1.0019531
vt -0.0156250 1.0004883
vt 0.9838867 1.9667969
vt -0.0156250 1.9653320
vt 0.9838867 1.0019531
vt 0.9838867 1.9667969
vt -0.0156250 1.0004883
vt -0.0156250 1.0043945
vt 0.9838867 1.9721680
vt -0.0156250 1.9726563
vt 0.9838867 1.0034180
vt 0.9838867 1.9721680
vt -0.0156250 1.0043945
vt -0.0151367 1.0043945
vt 0.9843750 1.9638672
vt -0.0156250 1.9643555
vt 0.9843750 1.0039062
vt 0.9843750 1.9638672
vt -0.0151367 1.0043945
vt -0.0156250 1.0034180
vt 0.9843750 1.9633789
vt -0.0156250 1.9633789
vt 0.9843750 1.0034180
vt 0.9843750 1.9633789
vt -0.0156250 1.0034180
vt -0.0151367 1.0068359
vt 0.9843750 1.9624023
vt -0.0151367 1.9575195
vt 0.9843750 1.0117188
vt 0.9843750 1.9624023
vt -0.0151367 1.0068359
vt 0.9843750 1.0053711
vt 0.9843750 1.9628906
vt -0.0156250 1.0058594
vt 0.9843750 1.0043945
vt 0.9843750 1.9667969
vt -0.0151367 1.0048828
vt -0.0151367 1.0048828
vt 0.9843750 1.9667969
vt -0.0151367 1.9672852
vt 0.9843750 1.0029297
vt 0.9843750 1.9682617
vt -0.0151367 1.0039062
vt -0.0151367 1.0039062
vt 0.9843750 1.9682617
vt -0.0151367 1.9692383
vt -0.0151367 1.0024414
vt 0.9838867 1.9643555
vt -0.0151367 1.9643555
vt 0.9838867 1.0024414
vt 0.9838867 1.9643555
vt -0.0151367 1.0024414
vt -0.0156250 1.0058594
vt 0.9843750 1.9672852
vt -0.0151367 1.9677734
vt 0.9843750 1.0053711
vt 0.9843750 1.9672852
vt -0.0156250 1.0058594
vt -0.0156250 1.0068359
vt 0.9838867 1.9648438
vt -0.0156250 1.9663086
vt 0.9838867 1.0058594
vt 0.9838867 1.9648438
vt -0.0156250 1.0068359
vt -0.0151367 1.0058594
vt 0.9838867 1.9687500
vt -0.0151367 1.9692383
vt 0.9838867 1.0053711
vt 0.9838867 1.9687500
vt -0.0151367 1.0058594
vt -0.0151367 1.0068359
vt 0.9843750 1.9594727
vt -0.0156250 1.9648438
vt 0.9843750 1.0014648
vt 0.9843750 1.9594727
vt -0.0151367 1.0068359
vn 0.0000045 0.0000365 -1.0000000
vn 0.0000142 0.0000108 -1.0000000
vn 0.0000208 0.0000114 -1.0000000
vn 0.0000144 -0.0000124 -1.0000000
vn -0.0000074 -0.0000065 -1.0000000
vn -0.0000097 0.0000009 -1.0000000
vn 0.0000520 -0.0000407 -1.0000000
vn -0.0000087 0.0000095 -1.0000000
vn -0.0000195 0.0000267 -1.0000000
vn 0.0000003 0.0000062 -1.0000000
vn 0.0000002 -0.0000027 -1.0000000
vn 0.0000113 -0.0000738 -1.0000000
vn -0.0000172 0.0000264 -1.0000000
vn 0.0000088 0.0000690 -1.0000000
vn 0.0000062 -0.0000005 -1.0000000
vn -0.0000254 0.0000711 -1.0000000
vn 0.0000271 0.0000263 -1.0000000
vn -0.0000332 -0.0000495 -1.0000000
vn 0.0000217 -0.0000043 -1.0000000
vn 0.0000128 0.0000297 -1.0000000
vn -0.0000057 -0.0000442 -1.0000000
vn 0.0000291 -0.0000298 -1.0000000
vn -0.0000032 -0.0000578 -1.0000000
vn 0.0000071 -0.0000138 -1.0000000
vn 0.0000060 -0.0000173 -1.0000000
vn -0.0000073 0.0000416 -1.0000000
vn -0.0000114 -0.0000602 -1.0000000
vn 0.0015479 0.0068191 -0.9999756
vn -0.0000452 -0.0000314 -1.0000000
vn 0.0000483 0.0000418 -1.0000000
vn 0.0000209 0.0000072 -1.0000000
vn 0.0000043 0.0000281 -1.0000000
vn -0.0000065 0.0000105 -1.0000000
vn -0.0000637 0.0000127 -1.0000000
vn -0.0000475 0.0000375 -1.0000000
vn 0.0000491 -0.0000064 -1.0000000
vn -0.0000153 0.0000025 -1.0000000
vn -0.0000209 -0.0000208 -1.0000000
vn 0.0000062 -0.0000024 -1.0000000
vn 0.0000051 -0.0000176 -1.0000000
vn 0.0000259 0.0000082 -1.0000000
vn 0.0000610 -0.0000118 -1.0000000
vn 0.0000606 -0.0000250 -1.0000000
vn 0.0000501 -0.0000373 -1.0000000
vn -0.0000163 0.0000241 -1.0000000
vn -0.0000445 0.0000473 -1.0000000
vn 0.0000127 -0.0000068 -1.0000000
vn 0.0000190 -0.0000035 -1.0000000
vn -0.0000015 -0.0000760 -1.0000000
vn 0.0000151 0.0000604 -1.0000000
vn 0.0000242 0.0000357 -1.0000000
vn -0.0000123 -0.0000190 -1.0000000
vn -0.0000484 -0.0000345 -1.0000000
vn 0.0000115 0.0000183 -1.0000000
vn -0.0000553 -0.0000190 -1.0000000
vn -0.0000114 -0.0000009 -1.0000000
vn -0.0000190 0.0000201 -1.0000000
vn 0.0000596 -0.0000469 -1.0000000
vn -0.0000009 -0.0000694 -1.0000000
vn -0.0076962 0.0000112 -0.9999704
vn 0.0000162 -0.0000135 -1.0000000
vn -0.0000087 -0.0000060 -1.0000000
vn -0.0000045 0.0000353 -1.0000000
vn -0.0000204 -0.0000190 -1.0000000
vn -0.0000152 0.0000026 -1.0000000
vn -0.0000147 0.0000241 -1.0000000
vn -0.0000216 0.0000394 -1.0000000
vn -0.0041203 0.0125894 -0.9999123
vn -0.0000059 0.0000063 -1.0000000
vn -0.0000282 0.0000354 -1.0000000
vn 0.0000328 -0.0000010 -1.0000000
vn -0.0000362 0.0000107 -1.0000000
vn -0.0000059 -0.0000167 -1.0000000
vn 0.0000786 0.0000221 -1.0000000
vn 0.0000157 -0.0000130 -1.0000000
vn 0.0000627 0.0000270 -1.0000000
vn -0.0030903 0.0103791 -0.9999414
vn -0.0000037 -0.0000403 -1.0000000
vn -0.0000060 0.0000102 -1.0000000
vn 0.0000317 -0.0000728 -1.0000000
vn 0.0000153 0.0000141 -1.0000000
vn -0.0000386 -0.0000230 -1.0000000
vn 0.0000803 0.0000181 -1.0000000
vn -0.0128221 -0.0032675 -0.9999125
vn 0.0000000 -0.0000165 -1.0000000
vn -0.0000233 -0.0000195 -1.0000000
vn 0.0000263 0.0000298 -1.0000000
vn -0.0056088 -0.0063231 -0.9999643
vn 0.0000139 0.0000061 -1.0000000
vn 0.0000282 -0.0000552 -1.0000000
vn -0.0000062 -0.0000067 -1.0000000
vn 0.0000058 -0.0000271 -1.0000000
vn -0.0000113 0.0000196 -1.0000000
vn -0.0000223 -0.0000142 -1.0000000
vn 0.0000286 0.0000236 -1.0000000
vn -0.0026368 -0.0025581 -0.9999933
vn 0.0000149 -0.0000182 -1.0000000
vn 0.0000684 -0.0000088 -1.0000000
vn -0.0000299 0.0000063 -1.0000000
vn 0.0000095 0.0000056 -1.0000000
vn -0.0000112 -0.0000096 -1.0000000
vn -0.0000421 0.0000533 -1.0000000
vn 0.0000080 -0.0000237 -1.0000000
vn -0.0077928 0.0087200 -0.9999316
vn 0.0000376 -0.0000068 -1.0000000
vn 0.0000074 -0.0000039 -1.0000000
vn -0.0000695 0.0000536 -1.0000000
vn -0.0082115 0.0094682 -0.9999215
vn 0.0000007 -0.0000092 -1.0000000
vn -0.0000100 -0.0000146 -1.0000000
vn 0.0000115 -0.0000313 -1.0000000
vn 0.0000154 0.0000264 -1.0000000
vn 0.0000330 0.0000117 -1.0000000
vn 0.0000230 0.0000476 -1.0000000
vn 0.0000325 0.0000012 -1.0000000
vn 0.0000195 -0.0000092 -1.0000000
vn -0.0000028 0.0000103 -1.0000000
vn -0.0000171 0.0000241 -1.0000000
vn -0.0000146 0.0000216 -1.0000000
vn 0.0000535 -0.0000440 -1.0000000
vn -0.0000197 -0.0000046 -1.0000000
vn 0.0000227 -0.0000138 -1.0000000
vn -0.0000061 -0.0000315 -1.0000000
vn -0.0000100 -0.0000013 -1.0000000
vn -0.0000149 -0.0000365 -1.0000000
vn -0.0000224 -0.0000153 -1.0000000
vn -0.0000241 -0.0000044 -1.0000000
vn -0.0000026 -0.0000254 -1.0000000
vn -0.0000015 0.0000577 -1.0000000
vn 0.0000579 0.0000212 -1.0000000
vn -0.0000512 -0.0000052 -1.0000000
vn -0.0000640 -0.0000338 -1.0000000
vn 0.0000374 0.0000069 -1.0000000
vn -0.0000057 -0.0000452 -1.0000000
vn -0.0000145 0.0000628 -1.0000000
vn 0.0000803 0.0000074 -1.0000000
vn 0.0000416 0.0000049 -1.0000000
vn 0.0000037 -0.0000157 -1.0000000
vn 0.0000193 -0.0000104 -1.0000000
vn 0.0032853 0.0071906 -0.9999688
vn -0.0000038 0.0000066 -1.0000000
vn 0.0000121 0.0000237 -1.0000000
vn -0.0000183 -0.0000157 -1.0000000
vn -0.0000140 0.0000038 -1.0000000
vn -0.0000040 0.0000141 -1.0000000
vn -0.0000201 0.0000087 -1.0000000
vn -0.0000002 -0.0000110 -1.0000000
vn -0.0000055 0.0000206 -1.0000000
vn -0.0000111 -0.0000181 -1.0000000
vn 0.0000464 -0.0000201 -1.0000000
vn -0.0000311 -0.0000145 -1.0000000
vn -0.0000251 0.0000023 -1.0000000
vn -0.0000399 0.0000120 -1.0000000
vn -0.0000459 0.0000450 -1.0000000
vn 0.0000168 -0.0000083 -1.0000000
vn -0.0000503 -0.0000158 -1.0000000
vn -0.0000374 -0.0000154 -1.0000000
vn -0.0000327 0.0000030 -1.0000000
vn -0.0000071 -0.0000025 -1.0000000
vn -0.0000001 0.0000089 -1.0000000
vn -0.0000355 -0.0000409 -1.0000000
vn -0.0000517 -0.0000495 -1.0000000
vn 0.0000147 0.0000334 -1.0000000
vn -0.0000025 -0.0000121 -1.0000000
vn -0.0000330 0.0000198 -1.0000000
vn -0.0000062 0.0000111 -1.0000000
vn -0.0000228 -0.0000018 -1.0000000
f 1/1/1 2/2/2 3/3/3
f 3/4/3 2/5/2 4/6/4
f 5/7/5 6/8/6 7/9/7
f 8/10/8 6/11/6 5/12/5
f 9/13/9 10/14/10 11/15/11
f 11/16/11 10/17/10 12/18/12
f 13/19/13 14/20/14 15/21/15
f 16/22/16 14/23/14 13/24/13
f 17/25/17 18/26/18 19/27/19
f 19/28/19 18/29/18 20/30/20
f 21/31/21 22/32/22 23/33/23
f 23/34/23 22/35/22 24/36/24
f 25/37/25 26/38/26 27/39/27
f 28/40/28 26/41/26 25/42/25
f 29/43/29 30/44/30 31/45/31
f 32/46/32 30/47/30 29/48/29
f 33/49/33 34/50/34 35/51/35
f 36/52/36 34/53/34 33/54/33
f 37/55/37 38/56/38 39/57/39
f 39/58/39 38/59/38 40/60/40
f 41/61/41 42/62/42 43/63/43
f 43/64/43 42/65/42 44/66/44
f 45/67/45 46/68/46 47/69/47
f 47/70/47 46/71/46 48/72/48
f 49/73/49 50/74/50 51/75/51
f 52/76/52 50/77/50 49/78/49
f 53/79/53 54/80/54 55/81/55
f 56/82/56 54/83/54 53/84/53
f 57/85/57 58/86/58 59/87/59
f 60/88/60 58/89/58 57/90/57
f 61/91/61 62/92/62 63/93/63
f 64/94/64 62/95/62 61/96/61
f 65/97/65 66/98/66 67/99/67
f 68/100/68 66/101/66 65/102/65
f 69/103/69 70/104/70 71/105/71
f 72/106/72 70/107/70 69/108/69
f 73/109/73 74/110/74 75/111/75
f 76/112/76 74/113/74 73/114/73
f 77/115/77 78/116/78 79/117/79
f 79/118/79 78/119/78 80/120/80
f 81/121/81 82/122/82 83/123/83
f 84/124/84 82/125/82 81/126/81
f 85/127/85 86/128/86 87/129/87
f 88/130/88 86/131/86 85/132/85
f 89/133/89 90/134/90 91/135/91
f 92/136/92 90/137/90 89/138/89
f 93/139/93 94/140/94 95/141/95
f 96/142/96 94/143/94 93/144/93
f 97/145/97 98/146/98 99/147/99
f 100/148/100 98/149/98 97/150/97
f 101/151/101 102/152/102 103/153/103
f 104/154/104 102/155/102 101/156/101
f 105/157/105 106/158/106 107/159/107
f 108/160/108 106/161/106 105/162/105
f 109/163/109 110/164/110 111/165/111
f 112/166/112 110/167/110 109/168/109
f 113/169/113 114/170/114 115/171/115
f 116/172/116 114/173/114 113/174/113
f 117/175/117 118/176/118 119/177/119
f 120/178/120 118/179/118 117/180/117
f 121/181/121 122/182/122 123/183/123
f 124/184/124 122/185/122 121/186/121
f 125/187/125 126/188/126 127/189/127
f 128/190/128 126/191/126 125/192/125
f 129/193/129 130/194/130 131/195/131
f 132/196/132 130/197/130 129/198/129
f 133/199/133 134/200/134 135/201/135
f 136/202/136 134/203/134 133/204/133
f 137/205/137 138/206/138 139/207/139
f 140/208/140 141/209/141 142/210/142
f 142/211/142 141/212/141 143/213/143
f 144/214/144 145/215/145 146/216/146
f 146/217/146 145/218/145 147/219/147
f 148/220/148 149/221/149 150/222/150
f 151/223/151 149/224/149 148/225/148
f 152/226/152 153/227/153 154/228/154
f 155/229/155 153/230/153 152/231/152
f 156/232/156 157/233/157 158/234/158
f 159/235/159 157/236/157 156/237/156
f 160/238/160 161/239/161 162/240/162
f 163/241/163 161/242/161 160/243/160
f 164/244/164 165/245/165 166/246/166
f 167/247/167 165/248/165 164/249/164
