# Pieza completa de un material COLLADA para Raylib
o Freezeezy_Peak_material_0007-material
v 1.9584892 -0.5287561 0.4624118
v 2.0759905 -0.2868259 0.0347708
v 2.0032516 -0.5839098 0.0379681
v 2.0258992 -0.2127547 0.3169339
v 1.9358415 0.7504367 0.4357675
v 1.8271328 1.0856219 0.0089258
v 1.9806039 0.7842749 0.0113238
v 1.7980905 1.0648394 0.4333695
v 0.7680219 0.9241575 0.5316870
v 0.7959984 0.9641239 0.0989836
v 0.8951152 0.9297528 0.4482903
v 0.8977796 0.9641239 0.0446292
v 0.8642078 1.3379435 0.3321212
v 0.8556816 1.6291656 -0.0686091
v 0.9190951 1.3334139 -0.0712735
v 0.8141165 1.5934623 0.3321212
v 0.2860265 1.2668032 0.2924212
v 0.2359353 1.2710663 -0.0712735
v 0.2519218 1.3891005 0.3321212
v 0.1959688 1.3938965 -0.0712735
v 0.2519218 1.3891005 0.3321212
v 0.1959688 1.3938965 -0.0712735
v 0.3550353 1.5889327 0.3321212
v 0.3187990 1.6315636 -0.0712735
v 0.0816648 1.3875019 0.1562688
v 0.0997829 1.5471012 -0.1893077
v 0.0997829 1.3821730 -0.1850447
v 0.0816648 1.5417723 0.1562688
v -0.0227809 1.6829871 -0.0416983
v 0.0030641 1.9686140 -0.6657078
v 0.0065279 1.6739281 -0.4597474
v -0.0145211 1.9846006 -0.3427789
v 0.0816648 1.5417723 0.1562688
v -0.0099916 1.6193072 -0.1893077
v 0.0997829 1.5471012 -0.1893077
v -0.0267775 1.6145113 0.1562688
v 0.0270440 2.6621651 -0.3217299
v -0.3166675 2.6448463 -0.8761978
v 0.0233138 2.7000000 -0.8111857
v -0.2905561 2.6099423 -0.3454433
v -0.3534366 2.1362066 -0.6718360
v -0.3286574 1.9691469 -0.6803622
v -0.4421621 2.0783885 -0.7259239
v -0.2982829 2.0533429 -0.3427789
v -0.4970494 2.4972369 -0.3427789
v -0.5801796 2.3291114 -0.7608279
v -0.5303548 2.5129570 -0.7608279
v -0.5426111 2.3291114 -0.3427789
v -0.2982829 2.0533429 -0.3427789
v -0.3209306 1.7141610 -0.4197809
v -0.3286574 1.9691469 -0.6803622
v -0.2881581 1.7125623 -0.0017319
v -0.3225292 1.6134455 0.1599990
v -0.4445601 1.5471012 -0.1893077
v -0.3401145 1.6177086 -0.1893077
v -0.4267084 1.5417723 0.1599990
v -0.3259930 1.3115656 0.1599990
v -0.3068091 1.0928159 0.1408151
v -0.3441111 1.3057039 0.0110574
v -0.2878916 1.0909508 0.4898554
v -0.4807964 0.9473380 0.4416292
v -0.5530024 1.0411260 0.0259782
v -0.4762668 0.9697192 0.0259782
v -0.5628608 1.0259387 0.4416292
v -0.8372971 2.1204865 0.4187152
v -0.8295702 2.1351409 0.0051956
v -0.6156165 1.8305965 0.4187152
v -0.6017615 1.8393892 0.0051956
v -0.6278729 1.3390092 0.4187152
v -0.6142843 1.3384763 0.0051956
v -0.5551340 1.1708837 0.4187152
v -0.5479400 1.1743475 0.0179849
v -1.8569744 1.8676321 0.4187152
v -1.8806878 1.5439039 0.0150540
v -1.8718952 1.8761583 0.0051956
v -1.8636355 1.5433710 0.4285735
v -1.5766764 0.7904031 0.3984655
v -1.7821039 0.7573642 0.0059950
v -1.6043864 0.8079884 -0.0155869
v -1.7719791 0.7355159 0.4189816
v -1.5617556 0.9801105 0.3872749
v -1.6043864 0.8079884 -0.0155869
v -1.5724133 0.9638575 -0.0270440
v -1.5766764 0.7904031 0.3984655
v -2.1703113 0.4456259 0.4189816
v -2.2747570 0.1362856 0.0059950
v -2.1846993 0.4584152 0.0059950
v -2.3016677 0.1256279 0.4245769
v -1.4866186 -1.1796763 0.2505896
v -1.6099817 -1.2846549 -0.1863769
v -1.5319139 -1.1796763 -0.1863769
v -1.5649529 -1.2846549 0.2505896
v -1.5601569 -1.9233187 0.0374352
v -1.3837716 -2.2755563 -0.3995313
v -1.6051858 -1.9171905 -0.3995313
v -1.3696502 -2.2691617 0.0374352
v -0.7139340 -1.8660335 0.0459614
v -0.8487541 -1.7186905 -0.3289239
v -0.7565649 -1.8068831 -0.3995313
v -0.8287709 -1.7485321 0.0374352
v -0.2457937 -2.0067154 0.1293581
v -0.0350373 -2.0978389 -0.2950856
v -0.2268762 -2.0618690 -0.2950856
v -0.0587507 -2.0426852 0.1293581
v 0.7499038 -1.6265012 0.2553856
v 0.7824098 -1.4703656 -0.1352198
v 0.7946662 -1.6816549 -0.1690581
v 0.7376474 -1.4152119 0.2892239
v 1.3272857 -1.3174273 0.4357675
v 1.6955099 -1.2604085 0.0379681
v 1.3720482 -1.3725810 0.0113238
v 1.6507475 -1.2055213 0.4624118
vt -0.0151367 1.0107422
vt 0.9838867 1.9628906
vt -0.0156250 1.9667969
vt 0.9838867 1.0068359
vt 0.9838867 1.9628906
vt -0.0151367 1.0107422
vt -0.0151367 1.0004883
vt 0.9843750 1.9667969
vt -0.0151367 1.9614258
vt 0.9843750 1.0058594
vt 0.9843750 1.9667969
vt -0.0151367 1.0004883
vt 0.9843750 1.0073242
vt 0.9843750 1.9643555
vt -0.0156250 1.0039062
vt -0.0156250 1.0039062
vt 0.9843750 1.9643555
vt -0.0156250 1.9609375
vt -0.0151367 1.0053711
vt 0.9838867 1.9677734
vt -0.0156250 1.9692383
vt 0.9838867 1.0039062
vt 0.9838867 1.9677734
vt -0.0151367 1.0053711
vt 0.9843750 1.0034180
vt 0.9838867 1.9677734
vt -0.0151367 1.0019531
vt -0.0151367 1.0019531
vt 0.9838867 1.9677734
vt -0.0156250 1.9663086
vt 0.9838867 1.0083008
vt 0.9838867 1.9672852
vt -0.0151367 1.0034180
vt -0.0151367 1.0034180
vt 0.9838867 1.9672852
vt -0.0151367 1.9624023
vt -0.0156250 1.0068359
vt 0.9838867 1.9697266
vt -0.0156250 1.9702148
vt 0.9838867 1.0058594
vt 0.9838867 1.9697266
vt -0.0156250 1.0068359
vt -0.0156250 1.0048828
vt 0.9838867 1.9672852
vt -0.0151367 1.9633789
vt 0.9838867 1.0083008
vt 0.9838867 1.9672852
vt -0.0156250 1.0048828
vt 0.0117188 1.0112305
vt 0.9838867 1.9682617
vt 0.0117188 1.9760742
vt 0.9838867 1.0029297
vt 0.9838867 1.9682617
vt 0.0117188 1.0112305
vt -0.0156250 1.0024414
vt 0.9843750 1.9707031
vt -0.0151367 1.9692383
vt 0.9843750 1.0034180
vt 0.9843750 1.9707031
vt -0.0156250 1.0024414
vt -0.0156250 1.0058594
vt 0.9838867 1.9677734
vt -0.0156250 1.9658203
vt 0.9838867 1.0083008
vt 0.9838867 1.9677734
vt -0.0156250 1.0058594
vt -0.0156250 1.0029297
vt 0.9843750 1.9677734
vt -0.0156250 1.9653320
vt 0.9838867 1.0053711
vt 0.9843750 1.9677734
vt -0.0156250 1.0029297
vt -0.0156250 1.0039062
vt 0.9838867 1.9638672
vt -0.0156250 1.9643555
vt 0.9838867 1.0039062
vt 0.9838867 1.9638672
vt -0.0156250 1.0039062
vt -0.0156250 1.0019531
vt 0.9838867 1.9638672
vt -0.0156250 1.9619141
vt 0.9838867 1.0039062
vt 0.9838867 1.9638672
vt -0.0156250 1.0019531
vt -0.0151367 1.0048828
vt 0.9843750 1.9658203
vt -0.0151367 1.9648438
vt 0.9843750 1.0058594
vt 0.9843750 1.9658203
vt -0.0151367 1.0048828
vt -0.0156250 1.0014648
vt 0.9843750 1.9663086
vt -0.0151367 1.9619141
vt 0.9843750 1.0053711
vt 0.9843750 1.9663086
vt -0.0156250 1.0014648
vt 0.9843750 1.0053711
vt 0.9843750 1.9692383
vt -0.0151367 1.0019531
vt -0.0151367 1.0019531
vt 0.9843750 1.9692383
vt -0.0151367 1.9658203
vt 0.9843750 1.0058594
vt 0.9843750 1.9643555
vt -0.0156250 1.0039062
vt -0.0156250 1.0039062
vt 0.9843750 1.9643555
vt -0.0151367 1.9624023
vt -0.0156250 1.0029297
vt 0.9843750 1.9624023
vt -0.0156250 1.9575195
vt 0.9843750 1.0083008
vt 0.9843750 1.9624023
vt -0.0156250 1.0029297
vt -0.0151367 1.0073242
vt 0.9843750 1.9667969
vt -0.0151367 1.9711914
vt 0.9843750 1.0029297
vt 0.9843750 1.9667969
vt -0.0151367 1.0073242
vt -0.0151367 1.0034180
vt 0.9843750 1.9648438
vt -0.0151367 1.9609375
vt 0.9843750 1.0068359
vt 0.9843750 1.9648438
vt -0.0151367 1.0034180
vt -0.0156250 1.0048828
vt 0.9843750 1.9672852
vt -0.0156250 1.9653320
vt 0.9843750 1.0068359
vt 0.9843750 1.9672852
vt -0.0156250 1.0048828
vt -0.0156250 1.0034180
vt 0.9838867 1.9677734
vt -0.0151367 1.9648438
vt 0.9838867 1.0063477
vt 0.9838867 1.9677734
vt -0.0156250 1.0034180
vt -0.0156250 1.0058594
vt 0.9838867 1.9697266
vt -0.0156250 1.9692383
vt 0.9838867 1.0063477
vt 0.9838867 1.9697266
vt -0.0156250 1.0058594
vt -0.0156250 1.0019531
vt 0.9843750 1.9638672
vt -0.0156250 1.9614258
vt 0.9843750 1.0039062
vt 0.9843750 1.9638672
vt -0.0156250 1.0019531
vt -0.0156250 1.0009766
vt 0.9843750 1.9716797
vt -0.0156250 1.9677734
vt 0.9843750 1.0048828
vt 0.9843750 1.9716797
vt -0.0156250 1.0009766
vt -0.0156250 1.0097656
vt 0.9838867 1.9667969
vt -0.0156250 1.9687500
vt 0.9838867 1.0078125
vt 0.9838867 1.9667969
vt -0.0156250 1.0097656
vt -0.0156250 1.0043945
vt 0.9838867 1.9638672
vt -0.0156250 1.9531250
vt 0.9838867 1.0151367
vt 0.9838867 1.9638672
vt -0.0156250 1.0043945
vn -0.0000134 0.0000067 -1.0000000
vn 0.0000020 0.0000319 -1.0000000
vn 0.0000013 -0.0000476 -1.0000000
vn 0.0000195 -0.0000017 -1.0000000
vn 0.0000187 -0.0000607 -1.0000000
vn 0.0000139 -0.0000024 -1.0000000
vn -0.0000055 0.0000463 -1.0000000
vn -0.0000177 -0.0000073 -1.0000000
vn 0.0000603 0.0000063 -1.0000000
vn 0.0000186 0.0000034 -1.0000000
vn -0.0000172 -0.0000065 -1.0000000
vn 0.0000991 0.0000114 -1.0000000
vn 0.0000055 -0.0000038 -1.0000000
vn 0.0000102 0.0000362 -1.0000000
vn -0.0000031 -0.0000582 -1.0000000
vn 0.0000134 -0.0000156 -1.0000000
vn -0.0000057 -0.0000132 -1.0000000
vn 0.0000061 -0.0000321 -1.0000000
vn 0.0000262 -0.0000088 -1.0000000
vn 0.0000009 -0.0000301 -1.0000000
vn -0.0000098 0.0000145 -1.0000000
vn -0.0000101 -0.0000176 -1.0000000
vn -0.0000023 0.0000121 -1.0000000
vn 0.0000061 0.0000378 -1.0000000
vn 0.0000063 -0.0000207 -1.0000000
vn -0.0000135 0.0000137 -1.0000000
vn -0.0000073 -0.0000386 -1.0000000
vn -0.0000159 0.0000040 -1.0000000
vn -0.0000109 0.0000082 -1.0000000
vn 0.0000210 -0.0000013 -1.0000000
vn -0.0000224 0.0000576 -1.0000000
vn 0.0000006 -0.0000334 -1.0000000
vn 0.0000056 0.0000015 -1.0000000
vn -0.0000443 0.0000380 -1.0000000
vn -0.0000127 0.0000237 -1.0000000
vn 0.0000047 0.0000240 -1.0000000
vn -0.0000141 -0.0000030 -1.0000000
vn -0.0000671 -0.0000176 -1.0000000
vn 0.0000208 0.0000161 -1.0000000
vn 0.0000053 -0.0000146 -1.0000000
vn 0.0000087 -0.0000106 -1.0000000
vn 0.0000022 0.0000227 -1.0000000
vn -0.0000007 0.0000279 -1.0000000
vn -0.0000013 0.0000064 -1.0000000
vn 0.0000127 -0.0000005 -1.0000000
vn 0.0000269 0.0000422 -1.0000000
vn 0.0000225 0.0000285 -1.0000000
vn 0.0000046 -0.0000131 -1.0000000
vn 0.0000191 0.0000317 -1.0000000
vn -0.0000024 -0.0000415 -1.0000000
vn -0.0000082 -0.0000343 -1.0000000
vn 0.0000042 -0.0000120 -1.0000000
vn 0.0000240 0.0000261 -1.0000000
vn 0.0000245 0.0000039 -1.0000000
vn 0.0000474 0.0000138 -1.0000000
vn 0.0000199 0.0000104 -1.0000000
vn -0.0000182 -0.0000040 -1.0000000
vn -0.0000101 -0.0000628 -1.0000000
vn -0.0000194 -0.0000417 -1.0000000
vn -0.0009656 0.0102326 -0.9999472
vn -0.0000137 -0.0000172 -1.0000000
vn 0.0000033 -0.0000307 -1.0000000
vn -0.0000045 0.0000325 -1.0000000
vn -0.0058679 0.0056269 -0.9999670
vn -0.0000009 0.0000287 -1.0000000
vn 0.0000369 -0.0000510 -1.0000000
vn 0.0000288 0.0000007 -1.0000000
vn -0.0000023 -0.0000016 -1.0000000
vn -0.0000107 0.0000573 -1.0000000
vn -0.0000045 0.0000447 -1.0000000
vn -0.0000119 0.0000583 -1.0000000
vn 0.0000085 -0.0000529 -1.0000000
vn -0.0000172 -0.0000171 -1.0000000
vn 0.0000190 -0.0000096 -1.0000000
vn 0.0000066 0.0000729 -1.0000000
vn 0.0000039 0.0003891 -0.9999999
vn 0.0000000 -0.0000028 -1.0000000
vn 0.0000218 0.0000019 -1.0000000
vn -0.0000287 -0.0000319 -1.0000000
vn -0.0092514 -0.0025294 -0.9999540
vn 0.0000180 -0.0000018 -1.0000000
vn 0.0000062 0.0000423 -1.0000000
vn -0.0000030 -0.0000025 -1.0000000
vn 0.0000012 0.0000134 -1.0000000
vn 0.0000107 -0.0000130 -1.0000000
vn -0.0000060 0.0000481 -1.0000000
vn -0.0000226 -0.0000239 -1.0000000
vn 0.0000479 0.0000016 -1.0000000
vn -0.0000209 -0.0000413 -1.0000000
vn -0.0000079 0.0000262 -1.0000000
vn 0.0000011 0.0000134 -1.0000000
vn 0.0000174 0.0000178 -1.0000000
vn -0.0000123 -0.0000230 -1.0000000
vn 0.0000290 -0.0000605 -1.0000000
vn -0.0000187 -0.0000035 -1.0000000
vn -0.0013561 0.0024166 -0.9999962
vn -0.0000318 0.0000620 -1.0000000
vn 0.0000294 -0.0000039 -1.0000000
vn 0.0000626 -0.0000315 -1.0000000
vn -0.0000157 -0.0000021 -1.0000000
vn 0.0000324 0.0000136 -1.0000000
vn -0.0000170 -0.0000007 -1.0000000
vn 0.0000383 -0.0000119 -1.0000000
vn 0.0000226 0.0000094 -1.0000000
vn 0.0000180 0.0000095 -1.0000000
vn 0.0000186 -0.0000057 -1.0000000
vn 0.0000182 0.0000001 -1.0000000
vn 0.0000153 0.0000738 -1.0000000
vn -0.0000105 -0.0000215 -1.0000000
vn -0.0000045 -0.0000125 -1.0000000
vn -0.0000691 -0.0000094 -1.0000000
vn 0.0000116 0.0000152 -1.0000000
f 1/1/1 2/2/2 3/3/3
f 4/4/4 2/5/2 1/6/1
f 5/7/5 6/8/6 7/9/7
f 8/10/8 6/11/6 5/12/5
f 9/13/9 10/14/10 11/15/11
f 11/16/11 10/17/10 12/18/12
f 13/19/13 14/20/14 15/21/15
f 16/22/16 14/23/14 13/24/13
f 17/25/17 18/26/18 19/27/19
f 19/28/19 18/29/18 20/30/20
f 21/31/21 22/32/22 23/33/23
f 23/34/23 22/35/22 24/36/24
f 25/37/25 26/38/26 27/39/27
f 28/40/28 26/41/26 25/42/25
f 29/43/29 30/44/30 31/45/31
f 32/46/32 30/47/30 29/48/29
f 33/49/33 34/50/34 35/51/35
f 36/52/36 34/53/34 33/54/33
f 37/55/37 38/56/38 39/57/39
f 40/58/40 38/59/38 37/60/37
f 41/61/41 42/62/42 43/63/43
f 44/64/44 42/65/42 41/66/41
f 45/67/45 46/68/46 47/69/47
f 48/70/48 46/71/46 45/72/45
f 49/73/49 50/74/50 51/75/51
f 52/76/52 50/77/50 49/78/49
f 53/79/53 54/80/54 55/81/55
f 56/82/56 54/83/54 53/84/53
f 57/85/57 58/86/58 59/87/59
f 60/88/60 58/89/58 57/90/57
f 61/91/61 62/92/62 63/93/63
f 64/94/64 62/95/62 61/96/61
f 65/97/65 66/98/66 67/99/67
f 67/100/67 66/101/66 68/102/68
f 69/103/69 70/104/70 71/105/71
f 71/106/71 70/107/70 72/108/72
f 73/109/73 74/110/74 75/111/75
f 76/112/76 74/113/74 73/114/73
f 77/115/77 78/116/78 79/117/79
f 80/118/80 78/119/78 77/120/77
f 81/121/81 82/122/82 83/123/83
f 84/124/84 82/125/82 81/126/81
f 85/127/85 86/128/86 87/129/87
f 88/130/88 86/131/86 85/132/85
f 89/133/89 90/134/90 91/135/91
f 92/136/92 90/137/90 89/138/89
f 93/139/93 94/140/94 95/141/95
f 96/142/96 94/143/94 93/144/93
f 97/145/97 98/146/98 99/147/99
f 100/148/100 98/149/98 97/150/97
f 101/151/101 102/152/102 103/153/103
f 104/154/104 102/155/102 101/156/101
f 105/157/105 106/158/106 107/159/107
f 108/160/108 106/161/106 105/162/105
f 109/163/109 110/164/110 111/165/111
f 112/166/112 110/167/110 109/168/109
