# Pieza completa de un material COLLADA para Raylib
o Freezeezy_Peak_material_0030-material
v -1.2457542 -1.6872502 0.7936004
v -1.2486851 -1.6014556 0.8863226
v -1.0818917 -1.6022549 0.8863226
v -1.0834904 -1.6883160 0.7898702
v -0.0640795 0.9955642 1.0962797
v -0.2362017 1.0456555 1.0392609
v -0.0800661 1.0336656 1.0392609
v -0.2529876 0.9990280 1.0962797
v -0.1187004 1.1754132 0.8668723
v -0.2473923 1.2526817 0.7656239
v -0.1088420 1.2604085 0.7656239
v -0.2362017 1.1698179 0.8668723
v -0.1187004 1.1754132 0.8668723
v -0.1080426 1.1058716 0.9492031
v -0.2362017 1.1698179 0.8668723
v -0.2236789 1.1125327 0.9492031
v -0.1080426 1.1058716 0.9492031
v -0.0800661 1.0336656 1.0392609
v -0.2236789 1.1125327 0.9492031
v -0.2362017 1.0456555 1.0392609
v -0.2343366 1.6304979 0.6393299
v -0.2210145 1.6917797 0.5585977
v -0.0965856 1.6771254 0.5585977
v -0.0936547 1.6259683 0.6393299
v -0.2164849 1.8540435 0.3862091
v -0.2186165 1.9449006 0.3025460
v -0.0776681 1.9265160 0.3025460
v -0.0848621 1.8369912 0.3862091
v -0.2186165 1.7655844 0.4746682
v -0.2164849 1.8540435 0.3862091
v -0.0848621 1.8369912 0.3862091
v -0.0901910 1.7506636 0.4746682
v -0.2210145 1.6917797 0.5585977
v -0.2186165 1.7655844 0.4746682
v -0.0901910 1.7506636 0.4746682
v -0.0965856 1.6771254 0.5585977
v 0.4855923 1.0872206 1.0176790
v 0.3712883 0.9670548 1.0576454
v 0.2231460 1.0928159 1.0576454
v 0.2785661 1.1788770 1.0206099
v 0.3712883 0.9670548 1.0576454
v 0.2764346 0.8769971 1.1008092
v 0.1522722 1.0144817 1.1008092
v 0.2231460 1.0928159 1.0576454
v 0.5308876 -1.6542113 0.7890709
v 0.5993635 -1.5212562 0.8253071
v 0.6611783 -1.5252529 0.8338333
v 0.5751172 -1.6592737 0.7853407
v 0.4432279 -1.7234865 0.7610944
v 0.5308876 -1.6542113 0.7890709
v 0.5751172 -1.6592737 0.7853407
v 0.4842601 -1.7626536 0.7605615
v 0.5993635 -1.5212562 0.8253071
v 0.6070903 -1.4112153 0.8458233
v 0.6630434 -1.4056200 0.8540830
v 0.6611783 -1.5252529 0.8338333
v -1.1682193 -0.7165984 1.1074703
v -1.1394434 -0.8399615 1.0624414
v -1.2422904 -0.8434253 1.0667045
v -1.3017072 -0.7397790 1.0992105
v -1.2252381 -0.9995609 0.9739823
v -1.1394434 -0.8399615 1.0624414
v -1.1077367 -0.9862387 0.9854394
v -1.2422904 -0.8434253 1.0667045
vt -0.0075684 1.9921875
vt -0.0075684 0.9924316
vt 0.9921875 0.9921875
vt 0.9921875 0.9921875
vt 0.9921875 1.9919434
vt -0.0075684 1.9921875
vt -0.0075684 0.9924316
vt 0.9921875 1.9921875
vt -0.0075684 1.9921875
vt 0.9921875 0.9924316
vt 0.9921875 1.9921875
vt -0.0075684 0.9924316
vt -0.0075684 0.9924316
vt 0.9919434 1.9919434
vt -0.0075684 1.9921875
vt 0.9919434 0.9921875
vt 0.9919434 1.9919434
vt -0.0075684 0.9924316
vt -0.0078125 1.9921875
vt -0.0075684 0.9924316
vt 0.9921875 1.9921875
vt 0.9921875 0.9924316
vt 0.9921875 1.9921875
vt -0.0075684 0.9924316
vt -0.0078125 1.9919434
vt -0.0078125 0.9921875
vt 0.9919434 1.9919434
vt -0.0078125 0.9921875
vt 0.9919434 0.9921875
vt 0.9919434 1.9919434
vt 0.9919434 0.9921875
vt 0.9919434 1.9919434
vt -0.0075684 1.9921875
vt -0.0075684 1.9921875
vt -0.0075684 0.9921875
vt 0.9919434 0.9921875
vt 0.9919434 0.9924316
vt 0.9919434 1.9921875
vt -0.0075684 1.9921875
vt -0.0075684 1.9921875
vt -0.0075684 0.9924316
vt 0.9919434 0.9924316
vt 0.9921875 0.9921875
vt 0.9921875 1.9921875
vt -0.0078125 1.9921875
vt -0.0078125 1.9921875
vt -0.0078125 0.9924316
vt 0.9921875 0.9921875
vt 0.9919434 0.9921875
vt 0.9919434 1.9919434
vt -0.0075684 1.9919434
vt -0.0075684 1.9919434
vt -0.0075684 0.9921875
vt 0.9919434 0.9921875
vt -0.0075684 1.9921875
vt -0.0075684 0.9924316
vt 0.9919434 0.9924316
vt 0.9919434 0.9924316
vt 0.9919434 1.9919434
vt -0.0075684 1.9921875
vt -0.0078125 1.9919434
vt -0.0075684 0.9921875
vt 0.9921875 0.9921875
vt 0.9921875 0.9921875
vt 0.9919434 1.9919434
vt -0.0078125 1.9919434
vt -0.0078125 1.9919434
vt -0.0078125 0.9921875
vt 0.9921875 0.9924316
vt 0.9921875 0.9924316
vt 0.9921875 1.9921875
vt -0.0078125 1.9919434
vt -0.0075684 1.9919434
vt -0.0075684 0.9924316
vt 0.9919434 0.9924316
vt 0.9919434 0.9924316
vt 0.9919434 1.9919434
vt -0.0075684 1.9919434
vt -0.0078125 1.9921875
vt -0.0078125 0.9921875
vt 0.9919434 0.9921875
vt 0.9919434 0.9921875
vt 0.9919434 1.9921875
vt -0.0078125 1.9921875
vt 0.9921875 0.9924316
vt 0.9921875 1.9921875
vt -0.0078125 1.9921875
vt -0.0078125 1.9921875
vt -0.0078125 0.9924316
vt 0.9921875 0.9924316
vt -0.0078125 1.9921875
vt 0.9921875 0.9921875
vt 0.9919434 1.9921875
vt -0.0078125 0.9921875
vt 0.9921875 0.9921875
vt -0.0078125 1.9921875
vn -0.0000419 -0.0000035 -1.0000000
vn -0.0000104 0.0000198 -1.0000000
vn -0.0000123 0.0000208 -1.0000000
vn 0.0000105 -0.0000208 -1.0000000
vn -0.0000495 -0.0000018 -1.0000000
vn 0.0000055 0.0000126 -1.0000000
vn -0.0000062 -0.0000113 -1.0000000
vn 0.0000521 -0.0000168 -1.0000000
vn 0.0000020 0.0000148 -1.0000000
vn 0.0000167 -0.0000108 -1.0000000
vn 0.0000225 0.0000078 -1.0000000
vn -0.0000072 0.0000178 -1.0000000
vn 0.0000214 0.0000084 -1.0000000
vn -0.0000342 0.0000108 -1.0000000
vn -0.0000560 -0.0000147 -1.0000000
vn -0.0000051 0.0000013 -1.0000000
vn -0.0000384 -0.0000095 -1.0000000
vn -0.0000540 -0.0000159 -1.0000000
vn -0.0000137 -0.0000223 -1.0000000
vn -0.0000162 -0.0000087 -1.0000000
vn -0.0000083 -0.0000096 -1.0000000
vn -0.0000392 0.0000227 -1.0000000
vn -0.0000397 -0.0000120 -1.0000000
vn 0.0000594 -0.0000205 -1.0000000
vn 0.0000051 -0.0000217 -1.0000000
vn -0.0000271 0.0000184 -1.0000000
vn 0.0000341 -0.0000245 -1.0000000
vn 0.0000385 0.0000159 -1.0000000
vn -0.0000141 -0.0000061 -1.0000000
vn 0.0000473 0.0000039 -1.0000000
vn 0.0000041 0.0000031 -1.0000000
vn -0.0000449 -0.0000077 -1.0000000
vn 0.0000151 -0.0000255 -1.0000000
vn -0.0000519 0.0000047 -1.0000000
vn 0.0000347 -0.0000116 -1.0000000
vn -0.0000458 0.0000093 -1.0000000
vn -0.0000016 0.0000085 -1.0000000
vn 0.0000132 0.0000203 -1.0000000
vn -0.0000026 0.0000222 -1.0000000
vn -0.0000018 0.0000064 -1.0000000
vn -0.0000148 0.0000172 -1.0000000
vn -0.0000029 -0.0000107 -1.0000000
vn -0.0033860 0.0031202 -0.9999894
vn 0.0000122 -0.0000271 -1.0000000
vn 0.0000168 0.0000141 -1.0000000
vn -0.0000207 -0.0000014 -1.0000000
vn 0.0000019 -0.0000203 -1.0000000
vn 0.0000183 0.0000036 -1.0000000
vn -0.0000001 -0.0000052 -1.0000000
vn -0.0000125 0.0000189 -1.0000000
vn -0.0000139 -0.0000097 -1.0000000
vn 0.0000018 0.0000033 -1.0000000
vn -0.0000198 -0.0000040 -1.0000000
vn 0.0000070 0.0000148 -1.0000000
vn 0.0000127 0.0000125 -1.0000000
vn -0.0000044 -0.0000256 -1.0000000
vn 0.0000061 0.0000208 -1.0000000
vn -0.0000162 0.0000044 -1.0000000
vn 0.0000076 -0.0000133 -1.0000000
vn 0.0000025 0.0000131 -1.0000000
vn -0.0000225 0.0000246 -1.0000000
vn 0.0000056 0.0000165 -1.0000000
vn 0.0000023 -0.0000122 -1.0000000
vn -0.0000174 -0.0000200 -1.0000000
f 1/1/1 2/2/2 3/3/3
f 3/4/3 4/5/4 1/6/1
f 5/7/5 6/8/6 7/9/7
f 8/10/8 6/11/6 5/12/5
f 9/13/9 10/14/10 11/15/11
f 12/16/12 10/17/10 9/18/9
f 13/19/13 14/20/14 15/21/15
f 16/22/16 15/23/15 14/24/14
f 17/25/17 18/26/18 19/27/19
f 18/28/18 20/29/20 19/30/19
f 21/31/21 22/32/22 23/33/23
f 23/34/23 24/35/24 21/36/21
f 25/37/25 26/38/26 27/39/27
f 27/40/27 28/41/28 25/42/25
f 29/43/29 30/44/30 31/45/31
f 31/46/31 32/47/32 29/48/29
f 33/49/33 34/50/34 35/51/35
f 35/52/35 36/53/36 33/54/33
f 37/55/37 38/56/38 39/57/39
f 39/58/39 40/59/40 37/60/37
f 41/61/41 42/62/42 43/63/43
f 43/64/43 44/65/44 41/66/41
f 45/67/45 46/68/46 47/69/47
f 47/70/47 48/71/48 45/72/45
f 49/73/49 50/74/50 51/75/51
f 51/76/51 52/77/52 49/78/49
f 53/79/53 54/80/54 55/81/55
f 55/82/55 56/83/56 53/84/53
f 57/85/57 58/86/58 59/87/59
f 59/88/59 60/89/60 57/90/57
f 61/91/61 62/92/62 63/93/63
f 64/94/64 62/95/62 61/96/61
