# Pieza completa de un material COLLADA para Raylib
o Freezeezy_Peak_material_0023-material
v -0.0315735 0.0502245 -0.3579662
v -0.0400997 0.2228796 -0.3454433
v -0.0323728 0.0502245 -0.3164010
v -0.0459614 0.1925051 -0.3022796
v -0.0400997 0.2228796 -0.3454433
v -0.0267775 0.3177333 -0.2122218
v -0.0395668 0.2785661 -0.1879755
v -0.0267775 0.3177333 -0.2122218
v -0.0299748 0.3806138 -0.0774017
v -0.0427641 0.3374500 -0.0614151
v -0.0299748 0.3806138 -0.0774017
v -0.0342379 0.4517541 0.0845956
v -0.0467607 0.4067252 0.0936547
v -0.1477426 0.0448956 -0.3164010
v -0.1560024 0.1906400 -0.3014802
v -0.1610648 0.0414319 -0.3579662
v -0.1757191 0.2154192 -0.3446440
v -0.1605319 0.2719051 -0.1879755
v -0.1757191 0.2154192 -0.3446440
v -0.1775843 0.3092071 -0.2122218
v -0.1631963 0.3307890 -0.0614151
v -0.1775843 0.3092071 -0.2122218
v -0.1807816 0.3720876 -0.0774017
v -0.1671930 0.3997977 0.0936547
v -0.1807816 0.3720876 -0.0774017
v -0.1847782 0.4434944 0.0845956
v -0.1631963 0.3307890 -0.0614151
v -0.0467607 0.4067252 0.0936547
v -0.1671930 0.3997977 0.0936547
v -0.0427641 0.3374500 -0.0614151
v -0.1605319 0.2719051 -0.1879755
v -0.0395668 0.2785661 -0.1879755
v -0.1560024 0.1906400 -0.3014802
v -0.0395668 0.2785661 -0.1879755
v -0.1605319 0.2719051 -0.1879755
v -0.0459614 0.1925051 -0.3022796
v -0.1477426 0.0448956 -0.3164010
v -0.0459614 0.1925051 -0.3022796
v -0.1560024 0.1906400 -0.3014802
v -0.0323728 0.0502245 -0.3164010
v -0.0299748 0.3806138 -0.0774017
v -0.1847782 0.4434944 0.0845956
v -0.0342379 0.4517541 0.0845956
v -0.1807816 0.3720876 -0.0774017
v -0.0267775 0.3177333 -0.2122218
v -0.1807816 0.3720876 -0.0774017
v -0.0299748 0.3806138 -0.0774017
v -0.1775843 0.3092071 -0.2122218
v -0.0400997 0.2228796 -0.3454433
v -0.1775843 0.3092071 -0.2122218
v -0.0267775 0.3177333 -0.2122218
v -0.1757191 0.2154192 -0.3446440
v -0.0315735 0.0502245 -0.3579662
v -0.1757191 0.2154192 -0.3446440
v -0.0400997 0.2228796 -0.3454433
v -0.1610648 0.0414319 -0.3579662
v -0.1970346 0.6513199 0.4709380
v -0.1911728 0.8066561 0.5252923
v -0.2055608 0.7922682 0.4818621
v -0.1815809 0.6427937 0.5151675
v -0.1922386 0.5695219 0.3936695
v -0.1970346 0.6513199 0.4709380
v -0.1751863 0.5343514 0.4211131
v -0.1890413 0.5178319 0.2572507
v -0.1922386 0.5695219 0.3936695
v -0.1717225 0.4746682 0.2681749
v -0.1847782 0.4434944 0.0845956
v -0.1890413 0.5178319 0.2572507
v -0.1671930 0.3997977 0.0936547
v -0.0608822 0.6494548 0.5151675
v -0.0547540 0.8007944 0.4818621
v -0.0707406 0.8133172 0.5252923
v -0.0464943 0.6598461 0.4709380
v -0.0544876 0.5410125 0.4211131
v -0.0464943 0.6598461 0.4709380
v -0.0414319 0.5777816 0.3936695
v -0.0464943 0.6598461 0.4709380
v -0.0544876 0.5410125 0.4211131
v -0.0510238 0.4813293 0.2681749
v -0.0414319 0.5777816 0.3936695
v -0.0544876 0.5410125 0.4211131
v -0.0385010 0.5260917 0.2572507
v -0.0467607 0.4067252 0.0936547
v -0.0385010 0.5260917 0.2572507
v -0.0342379 0.4517541 0.0845956
v -0.1847782 0.4434944 0.0845956
v -0.1890413 0.5178319 0.2572507
v -0.0342379 0.4517541 0.0845956
v -0.0342379 0.4517541 0.0845956
v -0.1890413 0.5178319 0.2572507
v -0.0385010 0.5260917 0.2572507
v -0.1890413 0.5178319 0.2572507
v -0.1922386 0.5695219 0.3936695
v -0.0385010 0.5260917 0.2572507
v -0.0414319 0.5777816 0.3936695
v -0.1922386 0.5695219 0.3936695
v -0.1970346 0.6513199 0.4709380
v -0.0414319 0.5777816 0.3936695
v -0.0464943 0.6598461 0.4709380
v -0.1970346 0.6513199 0.4709380
v -0.2055608 0.7922682 0.4818621
v -0.0464943 0.6598461 0.4709380
v -0.0547540 0.8007944 0.4818621
v -0.0467607 0.4067252 0.0936547
v -0.0510238 0.4813293 0.2681749
v -0.1671930 0.3997977 0.0936547
v -0.1717225 0.4746682 0.2681749
v -0.0544876 0.5410125 0.4211131
v -0.1751863 0.5343514 0.4211131
v -0.0608822 0.6494548 0.5151675
v -0.1815809 0.6427937 0.5151675
v -0.0608822 0.6494548 0.5151675
v -0.0707406 0.8133172 0.5252923
v -0.1815809 0.6427937 0.5151675
v -0.1911728 0.8066561 0.5252923
v -0.2226131 0.8881877 0.4336360
v -0.2314057 1.0384615 0.3779494
v -0.2519218 1.0070213 0.3443776
v -0.2068930 0.9164307 0.4696058
v -0.2055608 0.7922682 0.4818621
v -0.2068930 0.9164307 0.4696058
v -0.2226131 0.8881877 0.4336360
v -0.1911728 0.8066561 0.5252923
v -0.0678097 0.9241575 0.4696058
v -0.0313071 1.0192776 0.3443776
v -0.0550205 1.0483199 0.3779494
v -0.0488923 0.8977796 0.4336360
v -0.0313071 1.0192776 0.3443776
v -0.0678097 0.9241575 0.4696058
v -0.0707406 0.8133172 0.5252923
v -0.0488923 0.8977796 0.4336360
v -0.0678097 0.9241575 0.4696058
v -0.0547540 0.8007944 0.4818621
v -0.0488923 0.8977796 0.4336360
v -0.0707406 0.8133172 0.5252923
v -0.2055608 0.7922682 0.4818621
v -0.2226131 0.8881877 0.4336360
v -0.0547540 0.8007944 0.4818621
v -0.0488923 0.8977796 0.4336360
v -0.2226131 0.8881877 0.4336360
v -0.2519218 1.0070213 0.3443776
v -0.0488923 0.8977796 0.4336360
v -0.0313071 1.0192776 0.3443776
v -0.0707406 0.8133172 0.5252923
v -0.0678097 0.9241575 0.4696058
v -0.1911728 0.8066561 0.5252923
v -0.2068930 0.9164307 0.4696058
v -0.0678097 0.9241575 0.4696058
v -0.0550205 1.0483199 0.3779494
v -0.2068930 0.9164307 0.4696058
v -0.2314057 1.0384615 0.3779494
v -0.2814970 -1.3837716 0.4259091
v -0.3257266 -1.2622736 0.4717373
v -0.2972172 -1.3867025 0.3808802
v -0.3382494 -1.2700005 0.4280407
v -0.3257266 -1.2622736 0.4717373
v -0.4163172 -1.1991267 0.5383481
v -0.3382494 -1.2700005 0.4280407
v -0.3382494 -1.2700005 0.4280407
v -0.4163172 -1.1991267 0.5383481
v -0.4208467 -1.2129817 0.4946514
v -0.4163172 -1.1991267 0.5383481
v -0.4997138 -1.1818079 0.5916367
v -0.4208467 -1.2129817 0.4946514
v -0.4208467 -1.2129817 0.4946514
v -0.4997138 -1.1818079 0.5916367
v -0.4957172 -1.1959293 0.5479400
v -0.4997138 -1.1818079 0.5916367
v -0.5852420 -1.2321656 0.6316031
v -0.4957172 -1.1959293 0.5479400
v -0.5713870 -1.2366951 0.5879064
v -0.5852420 -1.2321656 0.6316031
v -0.6065575 -1.3248877 0.6715695
v -0.5713870 -1.2366951 0.5879064
v -0.5921695 -1.3222233 0.6278729
v -0.6065575 -1.3248877 0.6715695
v -0.5625944 -1.4519811 0.7115360
v -0.5921695 -1.3222233 0.6278729
v -0.5506044 -1.4437213 0.6678393
v -0.5625944 -1.4519811 0.7115360
v -0.4557507 -1.5764099 0.7525682
v -0.5506044 -1.4437213 0.6678393
v -0.4464252 -1.5652193 0.7088716
v -0.4557507 -1.5764099 0.7525682
v -0.2857601 -1.6981744 0.7717521
v -0.4464252 -1.5652193 0.7088716
v -0.2798984 -1.6848522 0.7280555
v -0.1544037 -1.3611240 0.3454433
v -0.2148863 -1.1921991 0.4280407
v -0.1685252 -1.3637884 0.3910051
v -0.2271426 -1.1999260 0.4717373
v -0.2148863 -1.1921991 0.4280407
v -0.3760843 -1.0741649 0.4946514
v -0.2271426 -1.1999260 0.4717373
v -0.3806138 -1.0880199 0.5383481
v -0.3760843 -1.0741649 0.4946514
v -0.5346179 -1.0555139 0.5479400
v -0.3806138 -1.0880199 0.5383481
v -0.5306212 -1.0693689 0.5916367
v -0.5346179 -1.0555139 0.5479400
v -0.7096709 -1.1900676 0.5879064
v -0.5306212 -1.0693689 0.5916367
v -0.6958159 -1.1945971 0.6316031
v -0.7096709 -1.1900676 0.5879064
v -0.7357823 -1.3475354 0.6278729
v -0.6958159 -1.1945971 0.6316031
v -0.7213944 -1.3451374 0.6715695
v -0.7357823 -1.3475354 0.6278729
v -0.6721024 -1.5244535 0.6678393
v -0.7213944 -1.3451374 0.6715695
v -0.6598461 -1.5161938 0.7115360
v -0.6721024 -1.5244535 0.6678393
v -0.5404796 -1.6768589 0.7088716
v -0.6598461 -1.5161938 0.7115360
v -0.5308876 -1.6656683 0.7525682
v -0.5404796 -1.6768589 0.7088716
v -0.3569004 -1.8060838 0.7272561
v -0.5308876 -1.6656683 0.7525682
v -0.3507722 -1.7927616 0.7709528
v -0.1544037 -1.3611240 0.3454433
v -0.3382494 -1.2700005 0.4280407
v -0.2148863 -1.1921991 0.4280407
v -0.2972172 -1.3867025 0.3808802
v -0.2814970 -1.3837716 0.4259091
v -0.2271426 -1.1999260 0.4717373
v -0.3257266 -1.2622736 0.4717373
v -0.1685252 -1.3637884 0.3910051
v -0.2148863 -1.1921991 0.4280407
v -0.4208467 -1.2129817 0.4946514
v -0.3760843 -1.0741649 0.4946514
v -0.3382494 -1.2700005 0.4280407
v -0.3257266 -1.2622736 0.4717373
v -0.3806138 -1.0880199 0.5383481
v -0.4163172 -1.1991267 0.5383481
v -0.2271426 -1.1999260 0.4717373
v -0.3760843 -1.0741649 0.4946514
v -0.4957172 -1.1959293 0.5479400
v -0.5346179 -1.0555139 0.5479400
v -0.4208467 -1.2129817 0.4946514
v -0.5306212 -1.0693689 0.5916367
v -0.4997138 -1.1818079 0.5916367
v -0.5346179 -1.0555139 0.5479400
v -0.5713870 -1.2366951 0.5879064
v -0.7096709 -1.1900676 0.5879064
v -0.4957172 -1.1959293 0.5479400
v -0.6958159 -1.1945971 0.6316031
v -0.5852420 -1.2321656 0.6316031
v -0.7096709 -1.1900676 0.5879064
v -0.5921695 -1.3222233 0.6278729
v -0.7357823 -1.3475354 0.6278729
v -0.5713870 -1.2366951 0.5879064
v -0.5852420 -1.2321656 0.6316031
v -0.7213944 -1.3451374 0.6715695
v -0.6065575 -1.3248877 0.6715695
v -0.6958159 -1.1945971 0.6316031
v -0.7357823 -1.3475354 0.6278729
v -0.5506044 -1.4437213 0.6678393
v -0.6721024 -1.5244535 0.6678393
v -0.5921695 -1.3222233 0.6278729
v -0.5506044 -1.4437213 0.6678393
v -0.7357823 -1.3475354 0.6278729
v -0.6065575 -1.3248877 0.6715695
v -0.6598461 -1.5161938 0.7115360
v -0.5625944 -1.4519811 0.7115360
v -0.7213944 -1.3451374 0.6715695
v -0.6721024 -1.5244535 0.6678393
v -0.4464252 -1.5652193 0.7088716
v -0.5404796 -1.6768589 0.7088716
v -0.5506044 -1.4437213 0.6678393
v -0.4464252 -1.5652193 0.7088716
v -0.6721024 -1.5244535 0.6678393
v -0.5625944 -1.4519811 0.7115360
v -0.5308876 -1.6656683 0.7525682
v -0.4557507 -1.5764099 0.7525682
v -0.6598461 -1.5161938 0.7115360
v -0.5404796 -1.6768589 0.7088716
v -0.2798984 -1.6848522 0.7280555
v -0.3569004 -1.8060838 0.7272561
v -0.4464252 -1.5652193 0.7088716
v -0.2798984 -1.6848522 0.7280555
v -0.5404796 -1.6768589 0.7088716
v -0.4557507 -1.5764099 0.7525682
v -0.3507722 -1.7927616 0.7709528
v -0.2857601 -1.6981744 0.7717521
v -0.5308876 -1.6656683 0.7525682
v 0.1157695 -1.4756945 -0.0059950
v -0.0507574 -1.4501160 0.0302413
v -0.0297084 -1.5689495 0.0302413
v 0.0166527 -1.4064193 -0.0049292
v -0.0507574 -1.4501160 0.0302413
v 0.1157695 -1.4756945 -0.0059950
v 0.0035970 -1.3978931 -0.0499581
v -0.0275768 -1.5838703 -0.0150540
v -0.0542211 -1.4351951 -0.0150540
v 0.1274930 -1.4842207 -0.0515567
v 0.1194997 -1.4748951 0.2655104
v -0.0470272 -1.4493166 0.3017467
v -0.0257117 -1.5681502 0.3017467
v 0.0206493 -1.4058864 0.2668427
v -0.0470272 -1.4493166 0.3017467
v 0.1194997 -1.4748951 0.2655104
v 0.0075936 -1.3973602 0.2215473
v -0.0238466 -1.5830710 0.2564514
v -0.0502245 -1.4346623 0.2564514
v 0.1314896 -1.4836878 0.2202151
v 0.1525386 -1.3065032 -0.0411654
v 0.0337050 -1.3275522 -0.0393003
v 0.0166527 -1.4064193 -0.0049292
v 0.1525386 -1.3065032 -0.0411654
v 0.0179849 -1.3304831 -0.0843292
v 0.1274930 -1.4842207 -0.0515567
v 0.0035970 -1.3978931 -0.0499581
v 0.1666601 -1.3038388 -0.0864607
v 0.1562688 -1.3057039 0.2306064
v 0.0374352 -1.3270193 0.2324715
v 0.0206493 -1.4058864 0.2668427
v 0.1562688 -1.3057039 0.2306064
v 0.0219815 -1.3296837 0.1871762
v 0.1314896 -1.4836878 0.2202151
v 0.0075936 -1.3973602 0.2215473
v 0.1703903 -1.3033059 0.1850447
v 0.0624809 -1.1599595 0.1975675
v 0.0374352 -1.3270193 0.2324715
v 0.1562688 -1.3057039 0.2306064
v -0.0065279 -1.2588099 0.1988997
v -0.0158534 -1.2713327 0.1536044
v 0.1703903 -1.3033059 0.1850447
v 0.0219815 -1.3296837 0.1871762
v 0.0704742 -1.1477032 0.1522722
v -0.1072433 -1.1229240 0.1658608
v -0.0065279 -1.2588099 0.1988997
v 0.0624809 -1.1599595 0.1975675
v -0.0861943 -1.2417575 0.1658608
v -0.0840628 -1.2566783 0.1205655
v 0.0704742 -1.1477032 0.1522722
v -0.0158534 -1.2713327 0.1536044
v -0.1107071 -1.1080032 0.1205655
v 0.0219815 -1.3296837 0.1871762
v 0.0075936 -1.3973602 0.2215473
v 0.0374352 -1.3270193 0.2324715
v 0.0206493 -1.4058864 0.2668427
v 0.0075936 -1.3973602 0.2215473
v -0.0502245 -1.4346623 0.2564514
v -0.0470272 -1.4493166 0.3017467
v 0.1562688 -1.3057039 0.2306064
v 0.1194997 -1.4748951 0.2655104
v 0.1703903 -1.3033059 0.1850447
v 0.1314896 -1.4836878 0.2202151
v 0.1194997 -1.4748951 0.2655104
v -0.0257117 -1.5681502 0.3017467
v 0.1314896 -1.4836878 0.2202151
v -0.0238466 -1.5830710 0.2564514
v 0.0179849 -1.3304831 -0.0843292
v 0.0035970 -1.3978931 -0.0499581
v 0.0337050 -1.3275522 -0.0393003
v 0.0166527 -1.4064193 -0.0049292
v 0.0035970 -1.3978931 -0.0499581
v -0.0542211 -1.4351951 -0.0150540
v -0.0507574 -1.4501160 0.0302413
v -0.0840628 -1.2566783 0.1205655
v -0.0158534 -1.2713327 0.1536044
v -0.0861943 -1.2417575 0.1658608
v -0.0065279 -1.2588099 0.1988997
v -0.0158534 -1.2713327 0.1536044
v 0.0219815 -1.3296837 0.1871762
v -0.0065279 -1.2588099 0.1988997
v 0.0374352 -1.3270193 0.2324715
v 0.1525386 -1.3065032 -0.0411654
v 0.1157695 -1.4756945 -0.0059950
v 0.1666601 -1.3038388 -0.0864607
v 0.1274930 -1.4842207 -0.0515567
v -0.0297084 -1.5689495 0.0302413
v 0.1274930 -1.4842207 -0.0515567
v -0.0275768 -1.5838703 -0.0150540
v -0.1072433 -1.1229240 0.1658608
v 0.0624809 -1.1599595 0.1975675
v -0.1107071 -1.1080032 0.1205655
v 0.0704742 -1.1477032 0.1522722
v 0.0624809 -1.1599595 0.1975675
v 0.1562688 -1.3057039 0.2306064
v 0.0704742 -1.1477032 0.1522722
v 0.1703903 -1.3033059 0.1850447
v -0.0238466 -1.5830710 0.2564514
v -0.2039621 -1.5433710 0.2929541
v -0.0502245 -1.4346623 0.2564514
v -0.0502245 -1.4346623 0.2564514
v -0.2039621 -1.5433710 0.2929541
v -0.1176346 -1.4197415 0.2913554
v -0.0470272 -1.4493166 0.3017467
v -0.1256279 -1.4319978 0.3369172
v -0.0257117 -1.5681502 0.3017467
v -0.1946366 -1.5308482 0.3379829
v -0.0275768 -1.5838703 -0.0150540
v -0.2076923 -1.5441703 0.0211822
v -0.0542211 -1.4351951 -0.0150540
v -0.0542211 -1.4351951 -0.0150540
v -0.2076923 -1.5441703 0.0211822
v -0.1213648 -1.4202743 0.0198500
v -0.0507574 -1.4501160 0.0302413
v -0.1293581 -1.4325307 0.0651453
v -0.0297084 -1.5689495 0.0302413
v -0.1983668 -1.5316475 0.0664775
v -0.2039621 -1.5433710 0.2929541
v -0.2972172 -1.3867025 0.3808802
v -0.1176346 -1.4197415 0.2913554
v -0.1176346 -1.4197415 0.2913554
v -0.2972172 -1.3867025 0.3808802
v -0.1544037 -1.3611240 0.3454433
v -0.1256279 -1.4319978 0.3369172
v -0.1685252 -1.3637884 0.3910051
v -0.1946366 -1.5308482 0.3379829
v -0.2814970 -1.3837716 0.4259091
v -0.2076923 -1.5441703 0.0211822
v -0.3068091 -1.3883012 0.0563527
v -0.1213648 -1.4202743 0.0198500
v -0.1213648 -1.4202743 0.0198500
v -0.3068091 -1.3883012 0.0563527
v -0.1581339 -1.3619233 0.0539547
v -0.1293581 -1.4325307 0.0651453
v -0.1725218 -1.3643213 0.0995165
v -0.1983668 -1.5316475 0.0664775
v -0.2913554 -1.3856367 0.1013816
v -0.3068091 -1.3883012 0.0563527
v -0.2668427 -1.2076528 0.0891252
v -0.1581339 -1.3619233 0.0539547
v -0.1429467 -1.2939804 0.0875265
v -0.1725218 -1.3643213 0.0995165
v -0.1546702 -1.2854542 0.1330883
v -0.2913554 -1.3856367 0.1013816
v -0.2537869 -1.2161790 0.1344205
v -0.2668427 -1.2076528 0.0891252
v -0.1107071 -1.1080032 0.1205655
v -0.1429467 -1.2939804 0.0875265
v -0.0840628 -1.2566783 0.1205655
v -0.1546702 -1.2854542 0.1330883
v -0.0861943 -1.2417575 0.1658608
v -0.2537869 -1.2161790 0.1344205
v -0.1072433 -1.1229240 0.1658608
v -0.2668427 -1.2076528 0.0891252
v -0.1072433 -1.1229240 0.1658608
v -0.1107071 -1.1080032 0.1205655
v -0.2537869 -1.2161790 0.1344205
v -0.3068091 -1.3883012 0.0563527
v -0.2537869 -1.2161790 0.1344205
v -0.2668427 -1.2076528 0.0891252
v -0.2913554 -1.3856367 0.1013816
v -0.2076923 -1.5441703 0.0211822
v -0.2913554 -1.3856367 0.1013816
v -0.3068091 -1.3883012 0.0563527
v -0.1983668 -1.5316475 0.0664775
v -0.0275768 -1.5838703 -0.0150540
v -0.2076923 -1.5441703 0.0211822
v -0.0297084 -1.5689495 0.0302413
v -0.1546702 -1.2854542 0.1330883
v -0.0840628 -1.2566783 0.1205655
v -0.0861943 -1.2417575 0.1658608
v -0.1429467 -1.2939804 0.0875265
v -0.1725218 -1.3643213 0.0995165
v -0.1429467 -1.2939804 0.0875265
v -0.1546702 -1.2854542 0.1330883
v -0.1581339 -1.3619233 0.0539547
v -0.1293581 -1.4325307 0.0651453
v -0.1581339 -1.3619233 0.0539547
v -0.1725218 -1.3643213 0.0995165
v -0.1213648 -1.4202743 0.0198500
v -0.0507574 -1.4501160 0.0302413
v -0.1213648 -1.4202743 0.0198500
v -0.0542211 -1.4351951 -0.0150540
v -0.2039621 -1.5433710 0.2929541
v -0.2814970 -1.3837716 0.4259091
v -0.2972172 -1.3867025 0.3808802
v -0.1946366 -1.5308482 0.3379829
v -0.0238466 -1.5830710 0.2564514
v -0.2039621 -1.5433710 0.2929541
v -0.0257117 -1.5681502 0.3017467
v -0.1946366 -1.5308482 0.3379829
v -0.0238466 -1.5830710 0.2564514
v -0.1256279 -1.4319978 0.3369172
v -0.1544037 -1.3611240 0.3454433
v -0.1685252 -1.3637884 0.3910051
v -0.1176346 -1.4197415 0.2913554
v -0.0470272 -1.4493166 0.3017467
v -0.1176346 -1.4197415 0.2913554
v -0.0502245 -1.4346623 0.2564514
v 0.0107909 -1.2028569 -0.0779346
v 0.0179849 -1.3304831 -0.0843292
v 0.0337050 -1.3275522 -0.0393003
v -0.0041299 -1.2095179 -0.1226970
v -0.0065279 -1.1088025 -0.1163024
v -0.0041299 -1.2095179 -0.1226970
v -0.0206493 -1.1189273 -0.1605319
v -0.0243795 -1.0150146 -0.1786500
v -0.0206493 -1.1189273 -0.1605319
v -0.0361030 -1.0376622 -0.2188829
v 0.1445453 -1.1831401 -0.1248285
v 0.1525386 -1.3065032 -0.0411654
v 0.1666601 -1.3038388 -0.0864607
v 0.1296245 -1.1818079 -0.0795332
v 0.1277594 -1.0922830 -0.1629299
v 0.1445453 -1.1831401 -0.1248285
v 0.1123057 -1.0874870 -0.1179010
v 0.1125722 -1.0112844 -0.2210145
v 0.1277594 -1.0922830 -0.1629299
v 0.0947205 -0.9936991 -0.1805151
v 0.1123057 -1.0874870 -0.1179010
v 0.0107909 -1.2028569 -0.0779346
v 0.1296245 -1.1818079 -0.0795332
v -0.0206493 -1.1189273 -0.1605319
v 0.1445453 -1.1831401 -0.1248285
v -0.0041299 -1.2095179 -0.1226970
v 0.0107909 -1.2028569 -0.0779346
v 0.0337050 -1.3275522 -0.0393003
v 0.1296245 -1.1818079 -0.0795332
v 0.1525386 -1.3065032 -0.0411654
v 0.1445453 -1.1831401 -0.1248285
v 0.1666601 -1.3038388 -0.0864607
v -0.0041299 -1.2095179 -0.1226970
v 0.0179849 -1.3304831 -0.0843292
v 0.0947205 -0.9936991 -0.1805151
v -0.0065279 -1.1088025 -0.1163024
v 0.1123057 -1.0874870 -0.1179010
v 0.0107909 -1.2028569 -0.0779346
v -0.0361030 -1.0376622 -0.2188829
v 0.1277594 -1.0922830 -0.1629299
v -0.0206493 -1.1189273 -0.1605319
v 0.1277594 -1.0922830 -0.1629299
v 0.1445453 -1.1831401 -0.1248285
v -0.0206493 -1.1189273 -0.1605319
v -0.0243795 -1.0150146 -0.1786500
v 0.1125722 -1.0112844 -0.2210145
v -0.0374352 -0.9476045 -0.2615138
v -0.0361030 -1.0376622 -0.2188829
v -0.0243795 -1.0150146 -0.1786500
v -0.0488923 -0.9718508 -0.2977500
v -0.0526225 -0.8652736 -0.2966843
v -0.0488923 -0.9718508 -0.2977500
v -0.0680762 -0.8679380 -0.3417131
v -0.0651453 -0.7928011 -0.2588494
v -0.0680762 -0.8679380 -0.3417131
v -0.0853950 -0.7677555 -0.2937534
v -0.0779346 -0.7155326 -0.1887749
v -0.0853950 -0.7677555 -0.2937534
v -0.0968520 -0.6976810 -0.2284749
v 0.0995165 -0.9452065 -0.2998816
v 0.0947205 -0.9936991 -0.1805151
v 0.1125722 -1.0112844 -0.2210145
v 0.0813983 -0.9262890 -0.2633789
v 0.0803326 -0.8415602 -0.3441111
v 0.0995165 -0.9452065 -0.2998816
v 0.0662111 -0.8439582 -0.2985494
v 0.0632802 -0.7411112 -0.2958849
v 0.0803326 -0.8415602 -0.3441111
v 0.0536883 -0.7717521 -0.2604480
v 0.0515567 -0.6710367 -0.2308728
v 0.0632802 -0.7411112 -0.2958849
v 0.0408990 -0.6944836 -0.1903735
v -0.0374352 -0.9476045 -0.2615138
v -0.0243795 -1.0150146 -0.1786500
v 0.0813983 -0.9262890 -0.2633789
v 0.0947205 -0.9936991 -0.1805151
v 0.0995165 -0.9452065 -0.2998816
v 0.1125722 -1.0112844 -0.2210145
v -0.0488923 -0.9718508 -0.2977500
v -0.0361030 -1.0376622 -0.2188829
v -0.0651453 -0.7928011 -0.2588494
v -0.0526225 -0.8652736 -0.2966843
v 0.0536883 -0.7717521 -0.2604480
v 0.0662111 -0.8439582 -0.2985494
v -0.0374352 -0.9476045 -0.2615138
v 0.0813983 -0.9262890 -0.2633789
v 0.0632802 -0.7411112 -0.2958849
v 0.0803326 -0.8415602 -0.3441111
v -0.0853950 -0.7677555 -0.2937534
v -0.0680762 -0.8679380 -0.3417131
v 0.0803326 -0.8415602 -0.3441111
v 0.0995165 -0.9452065 -0.2998816
v -0.0680762 -0.8679380 -0.3417131
v -0.0488923 -0.9718508 -0.2977500
v -0.0779346 -0.7155326 -0.1887749
v 0.0408990 -0.6944836 -0.1903735
v 0.0515567 -0.6710367 -0.2308728
v 0.0632802 -0.7411112 -0.2958849
v -0.0968520 -0.6976810 -0.2284749
v -0.0853950 -0.7677555 -0.2937534
v -0.0965856 -0.6086890 -0.1738540
v -0.0968520 -0.6976810 -0.2284749
v -0.0779346 -0.7155326 -0.1887749
v -0.1120393 -0.6124192 -0.2188829
v -0.1176346 -0.5013125 -0.2346030
v -0.1120393 -0.6124192 -0.2188829
v -0.1277594 -0.5330192 -0.2687078
v -0.1328218 -0.4464252 -0.3065427
v -0.1277594 -0.5330192 -0.2687078
v -0.1440124 -0.4624118 -0.3558346
v -0.1418809 -0.3760843 -0.3121380
v -0.1440124 -0.4624118 -0.3558346
v -0.1576010 -0.3784823 -0.3571668
v 0.0366359 -0.5860413 -0.2212809
v 0.0408990 -0.6944836 -0.1903735
v 0.0515567 -0.6710367 -0.2308728
v 0.0222480 -0.5876400 -0.1757191
v 0.0209158 -0.5063749 -0.2708393
v 0.0366359 -0.5860413 -0.2212809
v 0.0011990 -0.4799970 -0.2364682
v 0.0046628 -0.4357675 -0.3579662
v 0.0209158 -0.5063749 -0.2708393
v -0.0139883 -0.4253762 -0.3081413
v -0.0089258 -0.3518380 -0.3579662
v 0.0046628 -0.4357675 -0.3579662
v -0.0230473 -0.3547688 -0.3140031
v 0.0222480 -0.5876400 -0.1757191
v -0.0779346 -0.7155326 -0.1887749
v 0.0408990 -0.6944836 -0.1903735
v -0.1328218 -0.4464252 -0.3065427
v -0.1176346 -0.5013125 -0.2346030
v -0.0139883 -0.4253762 -0.3081413
v -0.0139883 -0.4253762 -0.3081413
v -0.1176346 -0.5013125 -0.2346030
v 0.0011990 -0.4799970 -0.2364682
v -0.0965856 -0.6086890 -0.1738540
v 0.0222480 -0.5876400 -0.1757191
v -0.0779346 -0.7155326 -0.1887749
v 0.0046628 -0.4357675 -0.3579662
v 0.0209158 -0.5063749 -0.2708393
v -0.1440124 -0.4624118 -0.3558346
v -0.1277594 -0.5330192 -0.2687078
v 0.0209158 -0.5063749 -0.2708393
v 0.0366359 -0.5860413 -0.2212809
v -0.1277594 -0.5330192 -0.2687078
v -0.1120393 -0.6124192 -0.2188829
v 0.0366359 -0.5860413 -0.2212809
v 0.0515567 -0.6710367 -0.2308728
v -0.1120393 -0.6124192 -0.2188829
v -0.0968520 -0.6976810 -0.2284749
v -0.1418809 -0.3760843 -0.3121380
v -0.1328218 -0.4464252 -0.3065427
v -0.0230473 -0.3547688 -0.3140031
v -0.0089258 -0.3518380 -0.3579662
v 0.0046628 -0.4357675 -0.3579662
v -0.1576010 -0.3784823 -0.3571668
v -0.1440124 -0.4624118 -0.3558346
v -0.1807816 -0.4107219 -0.3592984
v -0.1653279 -0.3174668 -0.3592984
v -0.0355701 -0.2870923 -0.3592984
v 0.0195836 -0.3638279 -0.3592984
v -0.1845118 -0.4339024 -0.3046776
v -0.1807816 -0.4107219 -0.3592984
v 0.0195836 -0.3638279 -0.3592984
v 0.0334386 -0.3827453 -0.3046776
v -0.1765185 -0.3859427 -0.2378004
v 0.0049292 -0.3433118 -0.2378004
v -0.3555682 -0.3022796 -0.3592984
v -0.2788326 -0.2471259 -0.3592984
v -0.1807816 -0.4107219 -0.3592984
v -0.3747521 -0.3161346 -0.3046776
v -0.3555682 -0.3022796 -0.3592984
v -0.1807816 -0.4107219 -0.3592984
v -0.1845118 -0.4339024 -0.3046776
v -0.3350521 -0.2876252 -0.2378004
v -0.1765185 -0.3859427 -0.2378004
v 0.0043963 -0.0438299 -0.3592984
v 0.0811319 0.0115903 -0.3592984
v 0.1280259 -0.1887749 -0.3592984
v 0.0347708 -0.1735876 -0.3592984
v 0.1512064 -0.1927715 -0.3046776
v 0.1280259 -0.1887749 -0.3592984
v 0.0811319 0.0115903 -0.3592984
v 0.1000493 0.0251789 -0.3046776
v 0.1032467 -0.1847782 -0.2378004
v 0.0606158 -0.0033305 -0.2378004
v 0.1280259 -0.1887749 -0.3592984
v 0.0195836 -0.3638279 -0.3592984
v 0.0334386 -0.3827453 -0.3046776
v 0.1280259 -0.1887749 -0.3592984
v 0.1512064 -0.1927715 -0.3046776
v 0.0195836 -0.3638279 -0.3592984
v 0.0049292 -0.3433118 -0.2378004
v 0.1032467 -0.1847782 -0.2378004
v -0.2391326 -0.0038634 -0.3592984
v -0.2942863 0.0728722 -0.3592984
v -0.0939212 0.1200326 -0.3592984
v -0.1091084 0.0265111 -0.3592984
v -0.0899245 0.1429467 -0.3046776
v -0.0939212 0.1200326 -0.3592984
v -0.2942863 0.0728722 -0.3592984
v -0.3078749 0.0920561 -0.3046776
v -0.0979178 0.0949869 -0.2378004
v -0.2793655 0.0523560 -0.2378004
v -0.0939212 0.1200326 -0.3592984
v 0.0811319 0.0115903 -0.3592984
v 0.0043963 -0.0438299 -0.3592984
v 0.1000493 0.0251789 -0.3046776
v -0.0939212 0.1200326 -0.3592984
v -0.0899245 0.1429467 -0.3046776
v 0.0811319 0.0115903 -0.3592984
v 0.0606158 -0.0033305 -0.2378004
v -0.0979178 0.0949869 -0.2378004
v -0.4027286 -0.1019144 -0.3592984
v -0.2788326 -0.2471259 -0.3592984
v -0.3555682 -0.3022796 -0.3592984
v -0.3092071 -0.1173681 -0.3592984
v -0.4256427 -0.0981842 -0.3046776
v -0.4027286 -0.1019144 -0.3592984
v -0.3555682 -0.3022796 -0.3592984
v -0.3555682 -0.3022796 -0.3592984
v -0.3747521 -0.3161346 -0.3046776
v -0.4256427 -0.0981842 -0.3046776
v -0.3776829 -0.1061775 -0.2378004
v -0.3350521 -0.2876252 -0.2378004
v -0.2942863 0.0728722 -0.3592984
v -0.3092071 -0.1173681 -0.3592984
v -0.4027286 -0.1019144 -0.3592984
v -0.2391326 -0.0038634 -0.3592984
v -0.3078749 0.0920561 -0.3046776
v -0.2942863 0.0728722 -0.3592984
v -0.4027286 -0.1019144 -0.3592984
v -0.4256427 -0.0981842 -0.3046776
v -0.2793655 0.0523560 -0.2378004
v -0.3776829 -0.1061775 -0.2378004
vt 3.6391600 0.9843750
vt -0.0156250 0.9843750
vt 3.5761720 0.1240234
vt 3.5761720 0.1240234
vt -0.0156250 0.9843750
vt 0.5473633 0.0209961
vt -0.0156250 0.9843750
vt -2.1962890 -1.5576170
vt 0.5473633 0.0209961
vt 0.5473633 0.0209961
vt -2.1962890 -1.5576170
vt -1.4267580 -2.1738280
vt -2.1962890 -1.5576170
vt -3.7260740 -4.2548830
vt -1.4267580 -2.1738280
vt -1.4267580 -2.1738280
vt -3.7260740 -4.2548830
vt -2.8583980 -4.7080080
vt -3.7260740 -4.2548830
vt -5.4716800 -7.4990240
vt -2.8583980 -4.7080080
vt -2.8583980 -4.7080080
vt -5.4716800 -7.4990240
vt -4.5498050 -7.8076180
vt 0.0844726 1.6826172
vt 2.7822270 1.7368164
vt -0.0151367 0.9848633
vt -0.0151367 0.9848633
vt 2.7822270 1.7368164
vt 3.2065430 0.9843750
vt 2.7822270 1.7368164
vt 4.4340820 3.6635740
vt 3.2065430 0.9843750
vt 3.2065430 0.9843750
vt 4.4340820 3.6635740
vt 5.1093750 3.2202150
vt 4.4340820 3.6635740
vt 5.6918950 5.8618160
vt 5.1093750 3.2202150
vt 5.1093750 3.2202150
vt 5.6918950 5.8618160
vt 6.4536130 5.5600590
vt 5.6918950 5.8618160
vt 7.1787110 8.5522460
vt 6.4536130 5.5600590
vt 6.4536130 5.5600590
vt 7.1787110 8.5522460
vt 7.9882810 8.3764650
vt 1.0488280 6.3647460
vt -1.2871090 9.0830080
vt 1.0913090 9.0986330
vt -1.3271480 6.3496090
vt -1.2871090 9.0830080
vt 1.0488280 6.3647460
vt 1.0234380 4.1123050
vt -1.3271480 6.3496090
vt 1.0488280 6.3647460
vt -1.3603520 4.0971680
vt -1.3271480 6.3496090
vt 1.0234380 4.1123050
vt 0.9912109 1.9091797
vt -1.3603520 4.0971680
vt 1.0234380 4.1123050
vt -1.1728520 1.8559570
vt -1.3603520 4.0971680
vt 0.9912109 1.9091797
vt 2.2758790 1.0961914
vt 0.0776367 3.8833010
vt 2.2446290 3.9902340
vt -0.0034180 1.0463867
vt 0.0776367 3.8833010
vt 2.2758790 1.0961914
vt -1.6259770 6.3852540
vt 1.3906250 9.2563480
vt -1.5820310 9.2373050
vt 1.3466800 6.4042970
vt 1.3906250 9.2563480
vt -1.6259770 6.3852540
vt -1.6591800 3.9853520
vt 1.3466800 6.4042970
vt -1.6259770 6.3852540
vt 1.3164060 4.0048830
vt 1.3466800 6.4042970
vt -1.6591800 3.9853520
vt -1.3266600 1.4135742
vt 1.3164060 4.0048830
vt -1.6591800 3.9853520
vt 1.3500980 1.4443359
vt 1.3164060 4.0048830
vt -1.3266600 1.4135742
vt -0.0156250 0.9848633
vt 2.6054690 4.4394530
vt -0.0756836 4.4042970
vt 2.5454100 0.9848633
vt 2.6054690 4.4394530
vt -0.0156250 0.9848633
vt 12.3501000 15.0400400
vt 15.2573200 15.7397500
vt 14.9560500 15.0312500
vt 12.2299800 15.8012700
vt 15.2573200 15.7397500
vt 12.3501000 15.0400400
vt 10.7363300 13.7651400
vt 12.2299800 15.8012700
vt 12.3501000 15.0400400
vt 10.1064500 14.2622100
vt 12.2299800 15.8012700
vt 10.7363300 13.7651400
vt 9.5961920 11.3818400
vt 10.1064500 14.2622100
vt 10.7363300 13.7651400
vt 8.7973640 11.5918000
vt 10.1064500 14.2622100
vt 9.5961920 11.3818400
vt 7.9882810 8.3764650
vt 8.7973640 11.5918000
vt 9.5961920 11.3818400
vt 7.1787110 8.5522460
vt 8.7973640 11.5918000
vt 7.9882810 8.3764650
vt -10.3051800 -14.1723600
vt -13.4262700 -13.2055700
vt -13.7744100 -14.1377000
vt -10.4394500 -13.1850600
vt -13.4262700 -13.2055700
vt -10.3051800 -14.1723600
vt -7.8784180 -12.3837900
vt -10.4394500 -13.1850600
vt -10.3051800 -14.1723600
vt -8.5961920 -12.7050800
vt -10.4394500 -14.1850600
vt -7.8784180 -13.3837900
vt -6.3911130 -11.3090800
vt -8.5961920 -13.7050800
vt -7.8784180 -14.3837900
vt -7.3007810 -10.9614300
vt -8.5961920 -13.7050800
vt -6.3911130 -11.3090800
vt -4.5498050 -7.8076180
vt -7.3007810 -10.9614300
vt -6.3911130 -11.3090800
vt -5.4716800 -7.4990240
vt -7.3007810 -10.9614300
vt -4.5498050 -7.8076180
vt 1.3906250 9.2563480
vt 1.4379880 12.2880900
vt -1.5820310 9.2373050
vt -1.5820310 9.2373050
vt 1.4379880 12.2880900
vt -1.5351560 12.2690400
vt 1.4379880 12.2880900
vt 1.4750980 14.6357400
vt -1.5351560 12.2690400
vt -1.5351560 12.2690400
vt 1.4750980 14.6357400
vt -1.4975590 14.6167000
vt 1.4750980 14.6357400
vt 1.5063480 16.3095700
vt -1.4975590 14.6167000
vt -1.4975590 14.6167000
vt 1.5063480 16.3095700
vt -1.4667970 16.2900400
vt 1.0126950 0.9790039
vt 1.0239260 3.9790040
vt -1.9687500 0.9804688
vt -1.9687500 0.9804688
vt 1.0239260 3.9790040
vt -1.9570310 3.9804690
vt -1.2871090 9.0830080
vt -1.2397460 12.1460000
vt 1.0913090 9.0986330
vt 1.0913090 9.0986330
vt -1.2397460 12.1460000
vt 1.1386720 12.1611300
vt -1.2397460 12.1460000
vt -1.1977540 14.7895500
vt 1.1386720 12.1611300
vt 1.1386720 12.1611300
vt -1.1977540 14.7895500
vt 1.1801760 14.8046900
vt -1.1977540 14.7895500
vt -1.1606450 16.8837900
vt 1.1801760 14.8046900
vt 1.1801760 14.8046900
vt -1.1606450 16.8837900
vt 1.2172850 16.8989300
vt -1.6704100 0.8525391
vt -1.6586910 4.3369140
vt 0.7143555 0.8510742
vt 0.7143555 0.8510742
vt -1.6586910 4.3369140
vt 0.7260742 4.3359380
vt 12.6669900 14.0556600
vt 15.3515600 12.8349600
vt 14.7622100 12.3452100
vt 13.2085000 14.6088900
vt 15.3515600 12.8349600
vt 12.6669900 14.0556600
vt 12.9560500 15.0312500
vt 15.2085000 14.6088900
vt 14.6669900 14.0556600
vt 13.2573200 15.7397500
vt 15.2085000 14.6088900
vt 12.9560500 15.0312500
vt -13.0122100 -14.7929700
vt -14.7856400 -11.9038100
vt -15.4687500 -12.6425800
vt -13.3862300 -14.0180700
vt -15.7856400 -11.9038100
vt -14.0122100 -14.7929700
vt -12.7744100 -14.1377000
vt -14.3862300 -12.0180700
vt -15.0122100 -12.7929700
vt -13.4262700 -13.2055700
vt -15.3862300 -12.0180700
vt -13.7744100 -14.1377000
vt 1.0239260 3.9790040
vt 1.2597660 5.9399410
vt -1.9570310 3.9804690
vt -1.9570310 3.9804690
vt 1.2597660 5.9399410
vt -2.1811520 5.9418950
vt 1.2597660 5.9399410
vt 1.7026370 8.3359380
vt -2.1811520 5.9418950
vt -2.1811520 5.9418950
vt 1.7026370 8.3359380
vt -2.6577150 8.3378910
vt -1.6586910 4.3369140
vt -1.8369140 6.5761720
vt 0.7260742 4.3359380
vt 0.7260742 4.3359380
vt -1.8369140 6.5761720
vt 0.9160156 6.5747070
vt -1.8369140 6.5761720
vt -2.2211910 9.0302740
vt 0.9160156 6.5747070
vt 0.9160156 6.5747070
vt -2.2211910 9.0302740
vt 1.2670900 9.0283210
vt 6.6572270 0.1347656
vt 1.5126950 -1.3715820
vt 6.6108400 1.2568359
vt 6.6108400 1.2568359
vt 1.5126950 -1.3715820
vt 0.9409180 -0.2656250
vt 15.5127000 -1.3715820
vt 13.1728500 -3.5429690
vt 14.9409200 -0.2656250
vt 15.9409200 -0.2656250
vt 14.1728500 -3.5429690
vt 13.8481400 -2.3994140
vt 15.1728500 -3.5429690
vt 13.7788100 -5.2890630
vt 14.8481400 -2.3994140
vt 15.8481400 -2.3994140
vt 14.7788100 -5.2890630
vt 14.6093800 -4.1118160
vt 15.7788100 -5.2890630
vt 13.9843800 -6.6254880
vt 15.6093800 -4.1118160
vt 15.6093800 -4.1118160
vt 13.9843800 -6.6254880
vt 14.0249000 -5.4184570
vt 14.9843800 -6.6254880
vt 13.1684600 -7.6616220
vt 15.0249000 -5.4184570
vt 15.0249000 -5.4184570
vt 13.1684600 -7.6616220
vt 13.3017600 -6.4599610
vt 15.1684600 -7.6616220
vt 12.0112300 -8.4047860
vt 15.3017600 -6.4599610
vt 15.3017600 -6.4599610
vt 12.0112300 -8.4047860
vt 12.1889600 -7.2177740
vt 15.0112300 -8.4047860
vt 10.9409200 -8.9282230
vt 15.1889600 -7.2177740
vt 15.1889600 -7.2177740
vt 10.9409200 -8.9282230
vt 10.9409200 -7.7553720
vt 14.9409200 -8.9282230
vt 12.3100600 -8.6298830
vt 14.9409200 -7.7553720
vt 14.9409200 -7.7553720
vt 12.3100600 -8.6298830
vt 12.2431600 -7.4726570
vt 6.2636720 2.7241210
vt 2.8603520 0.1450195
vt 6.3364260 1.4775391
vt 6.3364260 1.4775391
vt 2.8603520 0.1450195
vt 2.8823240 -1.0429690
vt 15.8603500 0.1450195
vt 12.9809600 -2.3637700
vt 15.8823200 -1.0429690
vt 15.8823200 -1.0429690
vt 12.9809600 -2.3637700
vt 13.0112300 -3.5146480
vt 14.9809600 -2.3637700
vt 13.0927700 -4.4106450
vt 15.0112300 -3.5146480
vt 15.0112300 -3.5146480
vt 13.0927700 -4.4106450
vt 13.1303700 -5.5278320
vt 15.0927700 -4.4106450
vt 12.4262700 -6.0156250
vt 15.1303700 -5.5278320
vt 15.1303700 -5.5278320
vt 12.4262700 -6.0156250
vt 12.4907200 -7.1030280
vt 15.4262700 -6.0156250
vt 13.4340800 -7.0048830
vt 15.4907200 -7.1030280
vt 15.4907200 -7.1030280
vt 13.4340800 -7.0048830
vt 13.4746100 -8.0976570
vt 15.4340800 -7.0048830
vt 12.7993200 -7.6181650
vt 15.4746100 -8.0976570
vt 15.4746100 -8.0976570
vt 12.7993200 -7.6181650
vt 12.7500000 -8.7255860
vt 15.7993200 -7.6181650
vt 12.8701200 -8.0136720
vt 15.7500000 -8.7255860
vt 15.7500000 -8.7255860
vt 12.8701200 -8.0136720
vt 12.7182600 -9.1352500
vt 15.8701200 -8.0136720
vt 13.4731400 -7.6333010
vt 15.7182600 -9.1352500
vt 15.7182600 -9.1352500
vt 13.4731400 -7.6333010
vt 13.3271500 -8.7705080
vt -3.0112300 16.9223600
vt -5.8720700 14.8325200
vt -3.5332030 13.8842800
vt -5.5219730 16.9316400
vt -5.8720700 14.8325200
vt -3.0112300 16.9223600
vt -5.2534180 16.9438500
vt -3.7709960 13.9907200
vt -5.6420900 14.7495100
vt -3.2651370 16.9345700
vt -3.7709960 13.9907200
vt -5.2534180 16.9438500
vt -3.5332030 14.8842800
vt -7.1127930 14.6269500
vt -5.9277340 12.3989300
vt -5.8720700 15.8325200
vt -7.1127930 14.6269500
vt -3.5332030 14.8842800
vt -5.6420900 15.7495100
vt -6.0498050 12.6337900
vt -6.9985350 14.4160200
vt -3.7709960 14.9907200
vt -6.0498050 12.6337900
vt -5.6420900 15.7495100
vt -5.9277340 12.3989300
vt -8.3432620 14.1259800
vt -8.5756840 11.6127900
vt -7.1127930 14.6269500
vt -8.3432620 14.1259800
vt -5.9277340 12.3989300
vt -6.9985350 14.4160200
vt -8.5561530 11.8759800
vt -8.3701180 13.8862300
vt -6.0498050 12.6337900
vt -8.5561530 11.8759800
vt -6.9985350 14.4160200
vt -8.5756840 11.6127900
vt -9.7587900 14.6005900
vt -11.9702100 13.3837900
vt -8.3432620 14.1259800
vt -9.7587900 14.6005900
vt -8.5756840 11.6127900
vt -8.3701180 13.8862300
vt -11.7529300 13.5175800
vt -9.9838870 14.4907200
vt -8.5561530 11.8759800
vt -11.7529300 13.5175800
vt -8.3701180 13.8862300
vt -11.9702100 13.3837900
vt -10.3735400 16.0068400
vt -12.8974600 16.0014600
vt -9.7587900 14.6005900
vt -10.3735400 16.0068400
vt -11.9702100 13.3837900
vt -9.9838870 14.4907200
vt -12.6489300 16.0136700
vt -10.6298800 16.0180700
vt -11.7529300 13.5175800
vt -12.6489300 16.0136700
vt -9.9838870 14.4907200
vt -12.8974600 13.0014600
vt -10.0380900 15.2133800
vt -12.3544900 16.2148400
vt -10.3735400 14.0068400
vt -10.0380900 16.2133800
vt -12.8974600 14.0014600
vt -10.6298800 13.0180700
vt -12.1269500 16.1264600
vt -10.2739300 15.3252000
vt -12.6489300 13.0136700
vt -12.1269500 16.1264600
vt -10.6298800 13.0180700
vt -12.3544900 13.2148400
vt -8.6386720 14.6088900
vt -10.5781300 16.2236300
vt -10.0380900 14.2133800
vt -8.6386720 16.6088900
vt -12.3544900 15.2148400
vt -10.2739300 12.3252000
vt -10.3877000 16.0742200
vt -8.8364260 14.7822300
vt -12.1269500 13.1264600
vt -10.3877000 16.0742200
vt -10.2739300 12.3252000
vt -10.5781300 14.2236300
vt -6.1645510 15.1567400
vt -7.8452150 16.9863300
vt -8.6386720 13.6088900
vt -6.1645510 16.1567400
vt -10.5781300 15.2236300
vt -8.8364260 12.7822300
vt -7.7070310 16.7900400
vt -6.3105470 15.3769500
vt -10.3877000 14.0742200
vt -7.7070310 16.7900400
vt -8.8364260 12.7822300
vt 1.2749020 15.5976600
vt -1.4892580 14.6655300
vt -1.4892580 16.7548800
vt -0.2021484 15.1206100
vt -1.4892580 15.6655300
vt 1.2749020 16.5976600
vt -0.3940430 12.9238300
vt -1.4965820 16.0034200
vt -1.4965820 13.3920900
vt 1.4521480 14.7700200
vt -1.4965820 16.0034200
vt -0.3940430 12.9238300
vt 1.3183590 15.6704100
vt -1.4458010 14.7387700
vt -1.4458010 16.8276400
vt -0.1586914 15.1938500
vt -1.4458010 15.7387700
vt 1.3183590 16.6704100
vt -0.3505859 12.9970700
vt -1.4526370 16.0766600
vt -1.4531250 13.4653300
vt 1.4956050 14.8432600
vt -1.4526370 16.0766600
vt -0.3505859 12.9970700
vt 2.4165040 13.8183600
vt -0.2021484 15.1206100
vt 1.2749020 16.5976600
vt 0.3271484 14.8188500
vt -0.2021484 16.1206100
vt 2.4165040 14.8183600
vt 0.0585938 13.8066400
vt 1.4521480 16.7700200
vt -0.3940430 14.9238300
vt 2.6704100 13.8061500
vt 1.4521480 16.7700200
vt 0.0585938 13.8066400
vt 2.4599610 13.8916000
vt -0.1586914 15.1938500
vt 1.3183590 16.6704100
vt 0.3706055 14.8920900
vt -0.1586914 16.1938500
vt 2.4599610 14.8916000
vt 0.1025391 13.8798800
vt 1.4956050 16.8432600
vt -0.3505859 14.9970700
vt 2.7138670 13.8793900
vt 1.4956050 16.8432600
vt 0.1025391 13.8798800
vt 1.3071290 14.1127900
vt 0.3706055 16.8920900
vt 2.4599610 16.8916000
vt -0.1699219 15.5903300
vt 0.3706055 16.8920900
vt 1.3071290 14.1127900
vt -0.3618164 15.7627000
vt 2.7138670 16.8793900
vt 0.1025391 16.8798800
vt 1.4843750 13.9160200
vt 2.7138670 16.8793900
vt -0.3618164 15.7627000
vt -1.4682620 13.9570300
vt -0.1699219 16.5903300
vt 1.3071290 15.1127900
vt -1.4677730 16.0459000
vt -0.1699219 16.5903300
vt -1.4682620 13.9570300
vt -1.4750980 16.2949200
vt 1.4843750 14.9160200
vt -0.3618164 16.7627000
vt -1.4755860 13.6835900
vt 1.4843750 14.9160200
vt -1.4750980 16.2949200
vt 4.4204100 1.5668945
vt 7.4648440 0.8920898
vt 4.4204100 0.6088867
vt 4.4204100 0.6088867
vt 7.4648440 0.8920898
vt 7.4477540 -0.0615230
vt 7.4648440 0.8920898
vt 10.1342800 0.2602539
vt 7.4477540 -0.0615230
vt 7.4477540 -0.0615230
vt 10.1342800 0.2602539
vt 10.1074200 -0.6811520
vt 4.4204100 0.4692383
vt 7.1494140 -0.1601560
vt 4.4204100 1.3925781
vt 4.4204100 1.3925781
vt 7.1494140 -0.1601560
vt 7.1083980 0.7690430
vt 7.1494140 -0.1601560
vt 9.7451180 -0.6811520
vt 7.1083980 0.7690430
vt 7.1083980 0.7690430
vt 9.7451180 -0.6811520
vt 9.6918950 0.2602539
vt 4.4204100 7.2138670
vt 7.0175780 6.5385740
vt 4.4204100 6.2553710
vt 4.4204100 6.2553710
vt 7.0175780 6.5385740
vt 7.0610350 5.5849610
vt 7.0175780 6.5385740
vt 9.6162110 5.9067380
vt 7.0610350 5.5849610
vt 7.0610350 5.5849610
vt 9.6162110 5.9067380
vt 9.6640640 4.9653320
vt 12.9628900 3.0830080
vt 15.4975600 2.3032230
vt 12.9531300 2.1420900
vt 12.9531300 2.1420900
vt 15.4975600 2.3032230
vt 15.4975600 1.3496094
vt 1.4975590 2.3032230
vt 4.4204100 1.5668945
vt 1.4975590 1.3496094
vt 1.4975590 1.3496094
vt 4.4204100 1.5668945
vt 4.4204100 0.6088867
vt 4.4204100 6.1157230
vt 6.9858400 5.4863280
vt 4.4204100 7.0395510
vt 4.4204100 7.0395510
vt 6.9858400 5.4863280
vt 6.9580080 6.4155270
vt 6.9858400 5.4863280
vt 9.5341800 4.9653320
vt 6.9580080 6.4155270
vt 6.9580080 6.4155270
vt 9.5341800 4.9653320
vt 9.4941410 5.9067380
vt 13.2011700 2.1420900
vt 15.7338900 1.2514648
vt 13.2480500 3.0830080
vt 13.2480500 3.0830080
vt 15.7338900 1.2514648
vt 15.7719700 2.1801760
vt 1.7338870 1.2514648
vt 4.4204100 0.4692383
vt 1.7719730 2.1801760
vt 1.7719730 2.1801760
vt 4.4204100 0.4692383
vt 4.4204100 1.3925781
vt -1.4526370 16.0766600
vt -4.4023440 14.8627900
vt -1.4531250 13.4653300
vt -1.4531250 15.4653300
vt -4.4023440 16.8627900
vt -2.5556640 15.0156300
vt -1.4458010 14.7387700
vt -2.7329100 14.2124000
vt -1.4458010 16.8276400
vt -1.4458010 16.8276400
vt -2.7329100 14.2124000
vt -4.2104490 15.6904300
vt -1.4965820 16.0034200
vt -4.4458010 14.7895500
vt -1.4965820 13.3920900
vt -1.4965820 15.3920900
vt -4.4458010 16.7895500
vt -2.5991210 14.9428700
vt -1.4892580 14.6655300
vt -2.7763670 14.1396500
vt -1.4892580 16.7548800
vt -1.4892580 16.7548800
vt -2.7763670 14.1396500
vt -4.2539060 15.6171900
vt -4.4023440 16.8627900
vt -5.5219730 13.9316400
vt -2.5556640 15.0156300
vt -2.5556640 16.0156300
vt -5.5219730 14.9316400
vt -3.0112300 14.9223600
vt -2.7329100 15.2124000
vt -3.2651370 13.9345700
vt -4.2104490 16.6904300
vt -4.2104490 16.6904300
vt -3.2651370 13.9345700
vt -5.2534180 13.9438500
vt -4.4458010 16.7895500
vt -5.6645510 13.8447300
vt -2.5991210 14.9428700
vt -2.5991210 16.9428700
vt -5.6645510 15.8447300
vt -3.0527340 15.8442400
vt -2.7763670 15.1396500
vt -3.3066410 13.8564500
vt -4.2539060 16.6171900
vt -4.2539060 16.6171900
vt -3.3066410 13.8564500
vt -5.3959960 13.8569300
vt -5.6645510 16.8447300
vt -4.4355470 13.8989300
vt -3.0527340 16.8442400
vt -3.0527340 16.8442400
vt -4.4355470 13.8989300
vt -2.5883790 15.7451200
vt -3.3066410 16.8564500
vt -2.7661130 15.5727500
vt -5.3959960 16.8569300
vt -5.3959960 16.8569300
vt -2.7661130 15.5727500
vt -4.2436520 14.0957000
vt -4.4355470 14.8989300
vt -1.4755860 13.6835900
vt -2.5883790 16.7451200
vt -2.5883790 16.7451200
vt -1.4755860 13.6835900
vt -1.4750980 16.2949200
vt -2.7661130 16.5727500
vt -1.4677730 16.0459000
vt -4.2436520 15.0957000
vt -4.2436520 15.0957000
vt -1.4677730 16.0459000
vt -1.4682620 13.9570300
vt 12.8217800 3.9863280
vt 15.2011700 2.1420900
vt 15.2480500 3.0830080
vt 12.7919900 3.0327150
vt 15.2011700 2.1420900
vt 12.8217800 3.9863280
vt 13.4204100 4.7739260
vt 15.7919900 3.0327150
vt 15.8217800 3.9863280
vt 13.4204100 3.8154300
vt 15.7919900 3.0327150
vt 13.4204100 4.7739260
vt 11.9863300 5.3979490
vt 14.4204100 3.8154300
vt 14.4204100 4.7739260
vt 12.0146500 4.4443360
vt 14.4204100 3.8154300
vt 11.9863300 5.3979490
vt 9.4941410 5.9067380
vt 12.0146500 4.4443360
vt 11.9863300 5.3979490
vt 9.5341800 4.9653320
vt 12.0146500 4.4443360
vt 9.4941410 5.9067380
vt 13.6552700 2.9340820
vt 15.9628900 3.0830080
vt 15.9531300 2.1420900
vt 13.6665000 3.8627930
vt 15.9628900 3.0830080
vt 13.6552700 2.9340820
vt 13.4204100 3.6757810
vt 15.6665000 3.8627930
vt 15.6552700 2.9340820
vt 13.4204100 4.5996090
vt 15.6665000 3.8627930
vt 13.4204100 3.6757810
vt 12.1171900 4.3457030
vt 14.4204100 4.5996090
vt 14.4204100 3.6757810
vt 12.0932600 5.2749020
vt 14.4204100 4.5996090
vt 12.1171900 4.3457030
vt 9.6640640 4.9653320
vt 12.0932600 5.2749020
vt 12.1171900 4.3457030
vt 9.6162110 5.9067380
vt 12.0932600 5.2749020
vt 9.6640640 4.9653320
vt 12.1152300 -0.2485350
vt 14.4209000 -2.9384770
vt 14.4209000 -1.9799800
vt 12.1489300 -1.2021480
vt 14.4209000 -2.9384770
vt 12.1152300 -0.2485350
vt 9.6918950 0.2602539
vt 12.1489300 -1.2021480
vt 12.1152300 -0.2485350
vt 9.7451180 -0.6811520
vt 12.1489300 -1.2021480
vt 9.6918950 0.2602539
vt 12.3725600 -1.3007810
vt 14.4209000 -1.4570310
vt 14.4209000 -2.3803710
vt 12.3916000 -0.3715820
vt 14.4209000 -1.4570310
vt 12.3725600 -1.3007810
vt 10.1074200 -0.6811520
vt 12.3916000 -0.3715820
vt 12.3725600 -1.3007810
vt 10.1342800 0.2602539
vt 12.3916000 -0.3715820
vt 10.1074200 -0.6811520
vt -5.0571290 -0.8408200
vt -6.9521480 0.1000977
vt -7.2402340 -0.6357420
vt -4.8286130 -0.0839840
vt -6.9521480 0.1000977
vt -5.0571290 -0.8408200
vt -3.3471680 -0.8627930
vt -4.8286130 -0.0839840
vt -5.0571290 -0.8408200
vt -3.1782230 -0.0908200
vt -4.8286130 -0.0839840
vt -3.3471680 -0.8627930
vt -1.4912110 -0.5356450
vt -3.1782230 -0.0908200
vt -3.3471680 -0.8627930
vt -1.5449220 0.2529297
vt -3.1782230 -0.0908200
vt -1.4912110 -0.5356450
vt 6.5771480 -0.0664060
vt 8.9467780 -0.6083980
vt 8.6635750 0.1147461
vt 6.8012700 -0.8100590
vt 8.9467780 -0.6083980
vt 6.5771480 -0.0664060
vt 4.9550780 -0.0732420
vt 6.8012700 -0.8100590
vt 6.5771480 -0.0664060
vt 5.1210940 -0.8320310
vt 6.8012700 -0.8100590
vt 4.9550780 -0.0732420
vt 3.3496090 0.2651367
vt 5.1210940 -0.8320310
vt 4.9550780 -0.0732420
vt 3.2968750 -0.5097660
vt 5.1210940 -0.8320310
vt 3.3496090 0.2651367
vt 2.4038090 13.9462900
vt 0.3208008 15.6157200
vt 2.4101560 15.6152300
vt 0.0463867 14.0654300
vt 2.6640630 15.6699200
vt 0.0522461 15.6704100
vt 0.3208008 14.6157200
vt 0.3271484 16.8188500
vt 2.4101560 14.6152300
vt 2.4101560 14.6152300
vt 0.3271484 16.8188500
vt 2.4165040 16.8183600
vt 2.6640630 14.6699200
vt 2.6704100 16.8061500
vt 0.0522461 14.6704100
vt 0.0522461 14.6704100
vt 2.6704100 16.8061500
vt 0.0585938 16.8066400
vt 2.3935550 12.2797900
vt 0.3144531 13.9467800
vt 2.4038090 13.9462900
vt 0.3144531 13.9467800
vt 0.3208008 15.6157200
vt 2.4038090 13.9462900
vt 0.0366211 12.6215800
vt 2.6577150 14.0649400
vt 0.0463867 14.0654300
vt 2.6577150 14.0649400
vt 2.6640630 15.6699200
vt 0.0463867 14.0654300
vt 0.3041992 12.2802700
vt 0.3144531 13.9467800
vt 2.3935550 12.2797900
vt 2.6484380 12.6210900
vt 2.6577150 14.0649400
vt 0.0366211 12.6215800
vt 0.0869141 0.2431641
vt -1.5449220 0.2529297
vt -1.4912110 -0.5356450
vt -0.0151367 0.9843750
vt -1.5449220 0.2529297
vt 0.0869141 0.2431641
vt 1.5908200 0.2485352
vt -0.0151367 0.9843750
vt 0.0869141 0.2431641
vt 1.8793950 0.9843750
vt -0.0151367 0.9843750
vt 1.5908200 0.2485352
vt 2.4702150 -0.7363280
vt 1.8793950 0.9843750
vt 1.5908200 0.2485352
vt 3.1293950 -0.3154300
vt 1.8793950 0.9843750
vt 2.4702150 -0.7363280
vt 3.2216800 -2.2138670
vt 3.1293950 -0.3154300
vt 2.4702150 -0.7363280
vt 3.7998050 -1.6796880
vt 3.1293950 -0.3154300
vt 3.2216800 -2.2138670
vt 1.8466800 0.9848633
vt 3.2968750 -0.5097660
vt 3.3496090 0.2651367
vt 1.7456050 0.2563477
vt 3.2968750 -0.5097660
vt 1.8466800 0.9848633
vt -0.0151367 0.9848633
vt 1.7456050 0.2563477
vt 1.8466800 0.9848633
vt 0.2675781 0.2612305
vt 1.7456050 0.2563477
vt -0.0151367 0.9848633
vt -1.2436520 -0.2939450
vt 0.2675781 0.2612305
vt -0.0151367 0.9848633
vt -0.5961914 -0.7075200
vt 0.2675781 0.2612305
vt -1.2436520 -0.2939450
vt -1.9023440 -1.6357420
vt -0.5961914 -0.7075200
vt -1.2436520 -0.2939450
vt -1.3344730 -2.1606450
vt -0.5961914 -0.7075200
vt -1.9023440 -1.6357420
vt 0.2910156 11.0683600
vt 0.3041992 12.2802700
vt 2.3803710 11.0678700
vt 2.3803710 11.0678700
vt 0.3041992 12.2802700
vt 2.3935550 12.2797900
vt 2.6357420 11.4375000
vt 2.6484380 12.6210900
vt 0.0239258 11.4379900
vt 0.0239258 11.4379900
vt 2.6484380 12.6210900
vt 0.0366211 12.6215800
vt 0.2910156 8.3520510
vt 0.2851563 9.6108400
vt 2.3803710 8.3515630
vt 2.3803710 8.3515630
vt 0.2851563 9.6108400
vt 2.3745120 9.6103520
vt 0.2851563 9.6108400
vt 0.2910156 11.0683600
vt 2.3745120 9.6103520
vt 2.3745120 9.6103520
vt 0.2910156 11.0683600
vt 2.3803710 11.0678700
vt 2.6357420 7.8500980
vt 2.6284180 9.5981450
vt 0.0244141 7.8510740
vt 0.0244141 7.8510740
vt 2.6284180 9.5981450
vt 0.0166016 9.5986330
vt 2.6284180 9.5981450
vt 2.6357420 11.4375000
vt 0.0166016 9.5986330
vt 0.0166016 9.5986330
vt 2.6357420 11.4375000
vt 0.0239258 11.4379900
vt 0.3022461 7.0156250
vt 0.2910156 8.3520510
vt 2.3916020 7.0146480
vt 2.3916020 7.0146480
vt 0.2910156 8.3520510
vt 2.3803710 8.3515630
vt 2.6459960 6.6386720
vt 2.6357420 7.8500980
vt 0.0346680 6.6391600
vt 0.0346680 6.6391600
vt 2.6357420 7.8500980
vt 0.0244141 7.8510740
vt 4.7866210 -3.0771480
vt 3.7998050 -1.6796880
vt 3.2216800 -2.2138670
vt 5.0595700 -2.3354490
vt 3.7998050 -1.6796880
vt 4.7866210 -3.0771480
vt 6.8481450 -2.8559570
vt 5.0595700 -2.3354490
vt 4.7866210 -3.0771480
vt 6.6157230 -2.1005860
vt 5.0595700 -2.3354490
vt 6.8481450 -2.8559570
vt 8.1713870 -2.1352540
vt 6.6157230 -2.1005860
vt 6.8481450 -2.8559570
vt 8.2768560 -1.2675780
vt 6.6157230 -2.1005860
vt 8.1713870 -2.1352540
vt 9.2924810 -2.5004880
vt 8.2768560 -1.2675780
vt 8.1713870 -2.1352540
vt 9.5854500 -1.7666020
vt 8.2768560 -1.2675780
vt 9.2924810 -2.5004880
vt -3.1406250 -2.2807620
vt -1.3344730 -2.1606450
vt -1.9023440 -1.6357420
vt -2.8725590 -3.0102540
vt -1.3344730 -2.1606450
vt -3.1406250 -2.2807620
vt -4.6699220 -2.0590820
vt -2.8725590 -3.0102540
vt -3.1406250 -2.2807620
vt -4.8984380 -2.8012700
vt -2.8725590 -3.0102540
vt -4.6699220 -2.0590820
vt -6.3022460 -1.2656250
vt -4.8984380 -2.8012700
vt -4.6699220 -2.0590820
vt -6.1987300 -2.1406250
vt -4.8984380 -2.8012700
vt -6.3022460 -1.2656250
vt -7.5795900 -1.7597660
vt -6.1987300 -2.1406250
vt -6.3022460 -1.2656250
vt -7.3002930 -2.4614260
vt -6.1987300 -2.1406250
vt -7.5795900 -1.7597660
vt 2.3935550 5.1406250
vt 0.3022461 7.0156250
vt 2.3916020 7.0146480
vt 0.1933594 2.2319340
vt 0.2802734 3.2294920
vt 2.2822270 2.2314450
vt 2.2822270 2.2314450
vt 0.2802734 3.2294920
vt 2.3696290 3.2290040
vt 0.2802734 3.2294920
vt 0.3041992 5.1411130
vt 2.3696290 3.2290040
vt 2.3696290 3.2290040
vt 0.3041992 5.1411130
vt 2.3935550 5.1406250
vt 0.3041992 5.1411130
vt 0.3022461 7.0156250
vt 2.3935550 5.1406250
vt 2.5708010 2.4555660
vt 2.6254880 3.7309570
vt -0.0400391 2.4560550
vt -0.0400391 2.4560550
vt 2.6254880 3.7309570
vt 0.0136719 3.7314450
vt 2.6254880 3.7309570
vt 2.6474610 5.1464840
vt 0.0136719 3.7314450
vt 0.0136719 3.7314450
vt 2.6474610 5.1464840
vt 0.0361328 5.1469730
vt 2.6474610 5.1464840
vt 2.6459960 6.6386720
vt 0.0361328 5.1469730
vt 0.0361328 5.1469730
vt 2.6459960 6.6386720
vt 0.0346680 6.6391600
vt 0.2524414 1.0014648
vt 0.1933594 2.2319340
vt 2.3417970 1.0009766
vt 2.3417970 1.0009766
vt 0.1933594 2.2319340
vt 2.2822270 2.2314450
vt 2.5957030 0.9848633
vt 2.5708010 2.4555660
vt -0.0151367 0.9848633
vt -0.0151367 0.9848633
vt 2.5708010 2.4555660
vt -0.0400391 2.4560550
vt -1.2734380 10.3691410
vt -0.7929688 8.6899410
vt 1.6557620 8.4091800
vt 1.6557620 8.4091800
vt 2.5043950 9.9360360
vt -1.2734380 10.3691410
vt 12.1967800 -0.0122070
vt 12.1958000 -1.0356450
vt 15.9492200 -1.0366210
vt 15.9492200 -1.0366210
vt 15.9502000 -0.0131840
vt 12.1967800 -0.0122070
vt 12.1943400 1.2456055
vt 12.1967800 -0.0122070
vt 15.9502000 -0.0131840
vt 15.9502000 -0.0131840
vt 15.9482400 1.2451172
vt 12.1943400 1.2456055
vt -4.2509770 8.0034180
vt -2.7231450 7.1562500
vt -0.7929688 8.6899410
vt -0.7929688 8.6899410
vt -1.2734380 10.3691410
vt -4.2509770 8.0034180
vt 11.4502000 -0.0131840
vt 11.4502000 -1.0366210
vt 15.1958000 -1.0356450
vt 15.1958000 -1.0356450
vt 15.1967800 -0.0122070
vt 11.4502000 -0.0131840
vt 11.4492200 1.2451172
vt 11.4502000 -0.0131840
vt 15.1967800 -0.0122070
vt 15.1967800 -0.0122070
vt 15.1943400 1.2456055
vt 11.4492200 1.2451172
vt 2.9086910 4.0297850
vt 4.4370120 3.1806640
vt 4.8696290 6.9584960
vt 4.8696290 6.9584960
vt 3.1889650 6.4790040
vt 2.9086910 4.0297850
vt 6.7089840 -0.0151370
vt 6.7084960 -1.0385740
vt 10.4682600 -1.0405270
vt 10.4682600 -1.0405270
vt 10.4677700 -0.0175780
vt 6.7089840 -0.0151370
vt 6.7084960 1.2431641
vt 6.7089840 -0.0151370
vt 10.4677700 -0.0175780
vt 10.4677700 -0.0175780
vt 10.4692400 1.2412109
vt 6.7084960 1.2431641
vt 3.1889650 6.4790040
vt 4.8696290 6.9584960
vt 2.5043950 9.9360360
vt 2.5043950 9.9360360
vt 1.6557620 8.4091800
vt 3.1889650 6.4790040
vt 2.9501950 -0.0131840
vt 6.7084960 -1.0385740
vt 6.7089840 -0.0151370
vt 2.9492190 -1.0366210
vt 6.7084960 -1.0385740
vt 2.9501950 -0.0131840
vt 2.9482420 1.2451172
vt 2.9501950 -0.0131840
vt 6.7089840 -0.0151370
vt 6.7089840 -0.0151370
vt 6.7084960 1.2431641
vt 2.9482420 1.2451172
vt -1.4702150 2.7768550
vt -2.3178710 1.2480469
vt 1.4594730 0.8154297
vt 1.4594730 0.8154297
vt 0.9785156 2.4965820
vt -1.4702150 2.7768550
vt 12.2216800 -0.0185550
vt 12.2226600 -1.0410160
vt 15.9687500 -1.0405270
vt 15.9687500 -1.0405270
vt 15.9677700 -0.0175780
vt 12.2216800 -0.0185550
vt 12.2241200 1.2407227
vt 12.2216800 -0.0185550
vt 15.9677700 -0.0175780
vt 15.9677700 -0.0175780
vt 15.9702100 1.2412109
vt 12.2241200 1.2407227
vt 0.9785156 2.4965820
vt 1.4594730 0.8154297
vt 4.4370120 3.1806640
vt 4.4370120 3.1806640
vt 2.9086910 4.0297850
vt 0.9785156 2.4965820
vt 10.4677700 -0.0175780
vt 14.2226600 -1.0410160
vt 14.2216800 -0.0185550
vt 10.4682600 -1.0405270
vt 14.2226600 -1.0410160
vt 10.4677700 -0.0175780
vt 10.4692400 1.2412109
vt 10.4677700 -0.0175780
vt 14.2216800 -0.0185550
vt 14.2216800 -0.0185550
vt 14.2241200 1.2407227
vt 10.4692400 1.2412109
vt -4.6835940 4.2255860
vt -2.7231450 7.1562500
vt -4.2509770 8.0034180
vt -3.0039060 4.7070310
vt -2.7231450 7.1562500
vt -4.6835940 4.2255860
vt 11.7089800 -0.0151370
vt 11.7094700 -1.0385740
vt 15.4502000 -1.0366210
vt 15.4502000 -1.0366210
vt 15.4502000 -0.0131840
vt 11.7089800 -0.0151370
vt 11.7099600 1.2431641
vt 11.7089800 -0.0151370
vt 15.4502000 -0.0131840
vt 15.4502000 -0.0131840
vt 15.4492200 1.2451172
vt 11.7099600 1.2431641
vt -2.3178710 1.2480469
vt -3.0039060 4.7070310
vt -4.6835940 4.2255860
vt -1.4702150 2.7768550
vt -3.0039060 4.7070310
vt -2.3178710 1.2480469
vt 11.9677700 -0.0175780
vt 11.9687500 -1.0405270
vt 15.7094700 -1.0385740
vt 15.7094700 -1.0385740
vt 15.7089800 -0.0151370
vt 11.9677700 -0.0175780
vt 11.9702100 1.2412109
vt 11.9677700 -0.0175780
vt 15.7089800 -0.0151370
vt 15.7089800 -0.0151370
vt 15.7099600 1.2431641
vt 11.9702100 1.2412109
vn -0.0000677 0.0000534 -1.0000000
vn -0.0000288 0.0000628 -1.0000000
vn 0.0000975 -0.0010042 -0.9999995
vn 0.0000302 0.0000182 -1.0000000
vn -0.0000810 -0.0000552 -1.0000000
vn 0.0000772 0.0000565 -1.0000000
vn 0.0000047 -0.0000407 -1.0000000
vn -0.0000065 -0.0000082 -1.0000000
vn -0.0000385 0.0000459 -1.0000000
vn -0.0000066 -0.0000697 -1.0000000
vn 0.0000467 0.0000150 -1.0000000
vn 0.0000121 -0.0000134 -1.0000000
vn 0.0000355 -0.0000179 -1.0000000
vn 0.0000534 0.0000592 -1.0000000
vn -0.0000464 -0.0000113 -1.0000000
vn -0.0000035 0.0000116 -1.0000000
vn 0.0000434 0.0000038 -1.0000000
vn -0.0000028 0.0000277 -1.0000000
vn -0.0000356 0.0000104 -1.0000000
vn 0.0000142 0.0000118 -1.0000000
vn 0.0000110 0.0000359 -1.0000000
vn 0.0000551 -0.0000025 -1.0000000
vn -0.0000256 -0.0000215 -1.0000000
vn -0.0000191 0.0000504 -1.0000000
vn -0.0000383 0.0000592 -1.0000000
vn 0.0000618 0.0000162 -1.0000000
vn -0.0000218 0.0000159 -1.0000000
vn -0.0000497 -0.0000210 -1.0000000
vn 0.0000085 -0.0000632 -1.0000000
vn -0.0000559 -0.0000327 -1.0000000
vn 0.0000461 0.0000383 -1.0000000
vn -0.0000684 0.0000378 -1.0000000
vn -0.0040182 -0.0001716 -0.9999919
vn -0.0000062 -0.0000194 -1.0000000
vn 0.0001431 0.0000484 -1.0000000
vn 0.0000798 0.0000565 -1.0000000
vn 0.0000550 0.0000381 -1.0000000
vn 0.0001190 0.0000165 -1.0000000
vn -0.0000507 0.0000013 -1.0000000
vn -0.0000039 -0.0000291 -1.0000000
vn 0.0003138 0.0000685 -0.9999999
vn -0.0000050 -0.0000069 -1.0000000
vn 0.0000070 -0.0000244 -1.0000000
vn -0.0000037 0.0000475 -1.0000000
vn -0.0000039 0.0000396 -1.0000000
vn -0.0000065 0.0000380 -1.0000000
vn -0.0000101 -0.0000239 -1.0000000
vn -0.0000028 0.0000121 -1.0000000
vn 0.0018563 0.0000841 -0.9999983
vn -0.0001583 0.0000149 -1.0000000
vn 0.0000125 0.0000114 -1.0000000
vn -0.0000005 0.0000107 -1.0000000
vn -0.0021722 -0.0001110 -0.9999976
vn -0.0000302 0.0000090 -1.0000000
vn -0.0000362 0.0000145 -1.0000000
vn -0.0000075 -0.0000066 -1.0000000
vn 0.0000511 0.0000164 -1.0000000
vn -0.0000425 -0.0000138 -1.0000000
vn 0.0000028 0.0000011 -1.0000000
vn -0.0000002 0.0000123 -1.0000000
vn -0.0000028 0.0000085 -1.0000000
vn 0.0000006 -0.0000121 -1.0000000
vn 0.0000000 0.0000045 -1.0000000
vn -0.0000477 0.0000412 -1.0000000
vn 0.0000316 0.0000362 -1.0000000
vn 0.0000399 -0.0000235 -1.0000000
vn 0.0000065 -0.0000121 -1.0000000
vn -0.0000227 0.0000079 -1.0000000
vn 0.0000436 -0.0000020 -1.0000000
vn 0.0000185 -0.0000353 -1.0000000
vn 0.0000704 0.0000018 -1.0000000
vn -0.0000468 -0.0000007 -1.0000000
vn -0.0000186 -0.0000642 -1.0000000
vn -0.0000528 -0.0000084 -1.0000000
vn 0.0000202 0.0000612 -1.0000000
vn 0.0000510 0.0000035 -1.0000000
vn -0.0000037 0.0000572 -1.0000000
vn 0.0000298 0.0000829 -1.0000000
vn 0.0000078 0.0000103 -1.0000000
vn -0.0000490 -0.0000171 -1.0000000
vn 0.0000570 -0.0000124 -1.0000000
vn 0.0000093 0.0000632 -1.0000000
vn 0.0000254 0.0000356 -1.0000000
vn 0.0000256 0.0000365 -1.0000000
vn 0.0000180 -0.0000043 -1.0000000
vn 0.0000146 0.0000457 -1.0000000
vn 0.0000109 0.0000243 -1.0000000
vn 0.0000056 -0.0000071 -1.0000000
vn -0.0000747 -0.0000217 -1.0000000
vn -0.0000502 0.0000642 -1.0000000
vn -0.0000377 -0.0000020 -1.0000000
vn -0.0000632 -0.0000373 -1.0000000
vn -0.0000132 0.0000586 -1.0000000
vn 0.0000264 -0.0000093 -1.0000000
vn -0.0000638 0.0000327 -1.0000000
vn 0.0000710 0.0000297 -1.0000000
vn 0.0000808 -0.0000175 -1.0000000
vn -0.0000419 -0.0000242 -1.0000000
vn -0.0000388 -0.0000241 -1.0000000
vn -0.0000462 -0.0000245 -1.0000000
vn 0.0000323 -0.0000202 -1.0000000
vn 0.0008990 0.0000277 -0.9999996
vn 0.0000097 -0.0000179 -1.0000000
vn 0.0000395 0.0000060 -1.0000000
vn 0.0000389 0.0000079 -1.0000000
vn 0.0006387 0.0000143 -0.9999998
vn -0.0000164 -0.0000075 -1.0000000
vn -0.0000369 0.0000042 -1.0000000
vn -0.0000250 -0.0000211 -1.0000000
vn 0.0025073 0.0001527 -0.9999968
vn 0.0000035 -0.0000184 -1.0000000
vn 0.0000002 -0.0000148 -1.0000000
vn -0.0000042 -0.0000147 -1.0000000
vn 0.0001586 -0.0000013 -1.0000000
vn -0.0000889 -0.0000128 -1.0000000
vn 0.0000152 0.0000477 -1.0000000
vn 0.0000462 0.0000044 -1.0000000
vn 0.0019303 0.0001178 -0.9999981
vn 0.0000182 -0.0000148 -1.0000000
vn 0.0008694 0.0000271 -0.9999996
vn 0.0000127 -0.0000487 -1.0000000
vn 0.0018646 0.0000557 -0.9999983
vn 0.0000012 -0.0000009 -1.0000000
vn 0.0000012 0.0000007 -1.0000000
vn -0.0000025 -0.0000006 -1.0000000
vn 0.0001971 0.0000158 -1.0000000
vn 0.0000195 -0.0000129 -1.0000000
vn 0.0000222 0.0000550 -1.0000000
vn -0.0000166 0.0000395 -1.0000000
vn -0.0000047 -0.0000210 -1.0000000
vn 0.0000658 0.0000556 -1.0000000
vn 0.0000719 0.0000062 -1.0000000
vn 0.0000362 0.0000263 -1.0000000
vn 0.0000392 -0.0000120 -1.0000000
vn 0.0000152 -0.0000205 -1.0000000
vn 0.0000093 0.0000025 -1.0000000
vn 0.0000201 -0.0000397 -1.0000000
vn 0.0000631 0.0000339 -1.0000000
vn 0.0000696 -0.0000072 -1.0000000
vn 0.0000660 0.0000157 -1.0000000
vn 0.0000650 -0.0000184 -1.0000000
vn 0.0000676 -0.0000331 -1.0000000
vn 0.0000537 0.0000469 -1.0000000
vn 0.0000413 0.0000137 -1.0000000
vn 0.0000387 0.0000380 -1.0000000
vn 0.0000435 -0.0000066 -1.0000000
vn 0.0000014 0.0000069 -1.0000000
vn -0.0000009 0.0000164 -1.0000000
vn 0.0000004 -0.0000167 -1.0000000
vn 0.0000177 -0.0000165 -1.0000000
vn 0.0000013 -0.0000204 -1.0000000
vn -0.0000087 -0.0000136 -1.0000000
vn -0.0000024 -0.0000144 -1.0000000
vn 0.0000008 0.0000058 -1.0000000
vn -0.0000010 -0.0000420 -1.0000000
vn -0.0000006 0.0000155 -1.0000000
vn -0.0000084 0.0000097 -1.0000000
vn -0.0000240 -0.0000150 -1.0000000
vn -0.0000022 0.0000632 -1.0000000
vn -0.0000331 0.0000447 -1.0000000
vn 0.0000048 0.0000383 -1.0000000
vn 0.0000154 0.0000011 -1.0000000
vn -0.0000736 0.0000317 -1.0000000
vn 0.0000574 -0.0000032 -1.0000000
vn -0.0000277 -0.0000675 -1.0000000
vn 0.0000544 -0.0000250 -1.0000000
vn 0.0000117 -0.0000375 -1.0000000
vn -0.0000690 0.0000003 -1.0000000
vn -0.0000762 0.0000036 -1.0000000
vn 0.0000586 -0.0000805 -1.0000000
vn 0.0000059 -0.0000593 -1.0000000
vn -0.0000045 -0.0000552 -1.0000000
vn 0.0000342 -0.0000135 -1.0000000
vn 0.0000340 -0.0000135 -1.0000000
vn 0.0000439 -0.0000135 -1.0000000
vn -0.0000331 0.0000224 -1.0000000
vn -0.0000311 0.0000224 -1.0000000
vn 0.0000238 0.0000225 -1.0000000
vn -0.0000754 0.0000135 -1.0000000
vn -0.0000116 -0.0000324 -1.0000000
vn -0.0000109 0.0000102 -1.0000000
vn 0.0000172 0.0000664 -1.0000000
vn 0.0000226 -0.0000156 -1.0000000
vn 0.0000571 -0.0000258 -1.0000000
vn 0.0000547 -0.0000448 -1.0000000
vn 0.0000112 -0.0000512 -1.0000000
vn 0.0000276 0.0000525 -1.0000000
vn -0.0000312 0.0000397 -1.0000000
vn 0.0000203 0.0000805 -1.0000000
vn -0.0000119 -0.0000239 -1.0000000
vn 0.0000264 0.0000728 -1.0000000
vn 0.0000641 0.0000324 -1.0000000
vn 0.0000366 -0.0000523 -1.0000000
vn 0.0000232 0.0000655 -1.0000000
vn -0.0000320 0.0000665 -1.0000000
vn -0.0000470 0.0000071 -1.0000000
vn -0.0000036 -0.0000720 -1.0000000
vn 0.0000085 -0.0000422 -1.0000000
vn 0.0000551 -0.0000142 -1.0000000
vn -0.0000227 -0.0000403 -1.0000000
vn 0.0006429 -0.0033153 -0.9999943
vn -0.0000252 0.0000099 -1.0000000
vn 0.0000185 -0.0000179 -1.0000000
vn 0.0000416 -0.0000459 -1.0000000
vn 0.0000330 0.0000574 -1.0000000
vn -0.0000129 0.0000086 -1.0000000
vn 0.0000557 -0.0000399 -1.0000000
vn -0.0000584 -0.0000437 -1.0000000
vn 0.0000315 0.0000555 -1.0000000
vn -0.0000050 -0.0000704 -1.0000000
vn 0.0000103 0.0000613 -1.0000000
vn -0.0000039 -0.0000584 -1.0000000
vn 0.0000052 -0.0000278 -1.0000000
vn 0.0000249 -0.0000683 -1.0000000
vn 0.0000108 0.0000341 -1.0000000
vn 0.0000730 0.0000159 -1.0000000
vn -0.0000437 0.0000356 -1.0000000
vn 0.0000412 0.0000030 -1.0000000
vn 0.0000533 -0.0000069 -1.0000000
vn 0.0000138 -0.0000496 -1.0000000
vn 0.0000205 0.0000095 -1.0000000
vn -0.0000524 0.0000055 -1.0000000
vn 0.0000087 -0.0000594 -1.0000000
vn -0.0000382 0.0000007 -1.0000000
vn 0.0000321 0.0000050 -1.0000000
vn 0.0000413 0.0000131 -1.0000000
vn -0.0000105 -0.0000319 -1.0000000
vn 0.0000530 0.0000324 -1.0000000
vn 0.0000164 0.0000352 -1.0000000
vn 0.0000124 0.0000165 -1.0000000
vn -0.0000121 0.0000085 -1.0000000
vn -0.0000045 -0.0000024 -1.0000000
vn 0.0000197 0.0000271 -1.0000000
vn -0.0000190 0.0000092 -1.0000000
vn -0.0000424 0.0000197 -1.0000000
vn -0.0000044 0.0000165 -1.0000000
vn 0.0000331 -0.0000622 -1.0000000
vn 0.0000140 0.0000331 -1.0000000
vn 0.0000186 -0.0000044 -1.0000000
vn -0.0000082 0.0000199 -1.0000000
vn -0.0000131 -0.0000166 -1.0000000
vn -0.0000391 -0.0000057 -1.0000000
vn -0.0000285 0.0000125 -1.0000000
vn -0.0000517 0.0000409 -1.0000000
vn 0.0000083 -0.0000156 -1.0000000
vn 0.0000430 -0.0000575 -1.0000000
vn 0.0000116 0.0000059 -1.0000000
vn -0.0000145 -0.0000098 -1.0000000
vn -0.0000154 -0.0000205 -1.0000000
vn 0.0000068 0.0000340 -1.0000000
vn 0.0000232 -0.0000065 -1.0000000
vn -0.0000531 -0.0000265 -1.0000000
vn -0.0000045 -0.0000236 -1.0000000
vn 0.0000053 0.0000052 -1.0000000
vn -0.0000125 -0.0000003 -1.0000000
vn -0.0000271 0.0000104 -1.0000000
vn -0.0000477 -0.0000339 -1.0000000
vn 0.0000189 0.0000529 -1.0000000
vn -0.0000244 -0.0000151 -1.0000000
vn -0.0000011 -0.0000136 -1.0000000
vn -0.0000063 -0.0000032 -1.0000000
vn 0.0000157 -0.0000094 -1.0000000
vn 0.0000015 -0.0000206 -1.0000000
vn 0.0000061 -0.0000361 -1.0000000
vn -0.0000096 0.0000628 -1.0000000
vn -0.0000325 -0.0000624 -1.0000000
vn -0.0000039 0.0000004 -1.0000000
vn -0.0000018 0.0000018 -1.0000000
vn 0.0000066 0.0000075 -1.0000000
vn 0.0000118 -0.0000039 -1.0000000
vn -0.0000209 -0.0000097 -1.0000000
vn 0.0000089 -0.0000044 -1.0000000
vn -0.0000079 0.0000665 -1.0000000
vn -0.0000138 0.0000314 -1.0000000
vn 0.0000280 -0.0000414 -1.0000000
vn -0.0000054 0.0000087 -1.0000000
vn -0.0000106 0.0000081 -1.0000000
vn -0.0000051 0.0000146 -1.0000000
vn -0.0000068 0.0000127 -1.0000000
vn 0.0000006 -0.0000017 -1.0000000
vn 0.0000113 0.0000054 -1.0000000
vn 0.0000040 0.0000006 -1.0000000
vn 0.0000238 -0.0000267 -1.0000000
vn -0.0000119 0.0000229 -1.0000000
vn -0.0000069 0.0000128 -1.0000000
vn 0.0000024 -0.0000139 -1.0000000
vn -0.0000093 0.0000086 -1.0000000
vn -0.0000120 0.0000037 -1.0000000
vn -0.0000085 0.0000100 -1.0000000
vn -0.0000110 0.0000039 -1.0000000
vn -0.0000095 0.0000057 -1.0000000
vn -0.0000035 0.0000128 -1.0000000
vn 0.0000278 -0.0000258 -1.0000000
vn 0.0000267 -0.0000189 -1.0000000
vn -0.0000381 0.0000237 -1.0000000
vn 0.0000361 -0.0000307 -1.0000000
vn 0.0000181 -0.0000107 -1.0000000
vn 0.0000179 -0.0000099 -1.0000000
vn 0.0000153 0.0000050 -1.0000000
vn 0.0000327 0.0000351 -1.0000000
vn 0.0000087 -0.0000245 -1.0000000
vn 0.0000223 0.0000448 -1.0000000
vn 0.0000022 0.0000201 -1.0000000
vn -0.0000228 0.0000022 -1.0000000
vn -0.0000099 -0.0000126 -1.0000000
vn 0.0000101 -0.0000075 -1.0000000
vn 0.0000029 -0.0000173 -1.0000000
vn 0.0000015 -0.0000100 -1.0000000
vn -0.0000013 0.0000057 -1.0000000
vn -0.0000131 -0.0000411 -1.0000000
vn -0.0000127 -0.0000531 -1.0000000
vn 0.0000395 0.0000351 -1.0000000
vn -0.0000099 0.0000037 -1.0000000
vn 0.0000025 -0.0000176 -1.0000000
vn 0.0000227 0.0000056 -1.0000000
vn 0.0000017 0.0000038 -1.0000000
vn -0.0000179 -0.0000100 -1.0000000
vn 0.0000051 0.0000066 -1.0000000
vn -0.0000243 0.0000024 -1.0000000
vn 0.0000297 0.0000101 -1.0000000
vn 0.0000258 0.0000158 -1.0000000
vn 0.0000260 0.0000182 -1.0000000
vn -0.0000088 0.0000090 -1.0000000
vn -0.0000110 -0.0000069 -1.0000000
vn 0.0000423 0.0000462 -1.0000000
vn -0.0000246 0.0000293 -1.0000000
vn 0.0000123 0.0000347 -1.0000000
vn 0.0000288 0.0000370 -1.0000000
vn -0.0000093 0.0000215 -1.0000000
vn 0.0000242 0.0000076 -1.0000000
vn 0.0000036 0.0000098 -1.0000000
vn -0.0000055 0.0000210 -1.0000000
vn -0.0000237 0.0000211 -1.0000000
vn -0.0000340 0.0000417 -1.0000000
vn 0.0000042 -0.0000015 -1.0000000
vn -0.0000709 0.0000243 -1.0000000
vn 0.0000020 0.0000139 -1.0000000
vn 0.0000156 -0.0000144 -1.0000000
vn -0.0000067 -0.0000244 -1.0000000
vn -0.0000061 0.0000049 -1.0000000
vn 0.0000302 0.0000025 -1.0000000
vn -0.0000520 0.0000055 -1.0000000
vn -0.0000273 0.0000299 -1.0000000
vn -0.0000205 0.0000170 -1.0000000
vn 0.0000014 -0.0000085 -1.0000000
vn -0.0000040 0.0000049 -1.0000000
vn -0.0000184 -0.0000027 -1.0000000
vn 0.0000049 -0.0000046 -1.0000000
vn -0.0000395 0.0000000 -1.0000000
vn -0.0000455 0.0000143 -1.0000000
vn 0.0000034 -0.0000415 -1.0000000
vn -0.0000427 -0.0000510 -1.0000000
vn 0.0000434 0.0000120 -1.0000000
vn -0.0000187 -0.0000211 -1.0000000
vn -0.0000167 0.0000544 -1.0000000
vn -0.0000262 -0.0000574 -1.0000000
vn 0.0000286 -0.0000252 -1.0000000
vn 0.0000640 -0.0000133 -1.0000000
vn 0.0000184 -0.0000364 -1.0000000
vn -0.0000062 -0.0000067 -1.0000000
vn 0.0000183 -0.0000203 -1.0000000
vn 0.0000230 -0.0000177 -1.0000000
vn -0.0000385 0.0000218 -1.0000000
vn 0.0000650 0.0000236 -1.0000000
vn -0.0000643 -0.0000412 -1.0000000
vn 0.0000650 0.0000360 -1.0000000
vn 0.0000405 -0.0000561 -1.0000000
vn 0.0000525 -0.0000529 -1.0000000
vn 0.0000433 0.0000204 -1.0000000
vn -0.0000646 0.0000000 -1.0000000
vn -0.0000310 0.0000481 -1.0000000
vn 0.0000437 -0.0000237 -1.0000000
vn 0.0000164 0.0000094 -1.0000000
vn -0.0000237 -0.0000612 -1.0000000
vn 0.0000204 -0.0000659 -1.0000000
vn -0.0000751 -0.0000002 -1.0000000
vn 0.0000608 -0.0000080 -1.0000000
vn 0.0000417 -0.0000091 -1.0000000
vn -0.0000390 -0.0000178 -1.0000000
vn -0.0000667 0.0000366 -1.0000000
vn 0.0000161 0.0000070 -1.0000000
vn -0.0000432 0.0000105 -1.0000000
vn 0.0000027 0.0000245 -1.0000000
vn 0.0000218 -0.0000048 -1.0000000
vn -0.0000334 0.0000233 -1.0000000
vn 0.0000079 -0.0000487 -1.0000000
vn -0.0000207 -0.0000403 -1.0000000
vn -0.0000083 -0.0000418 -1.0000000
vn 0.0000182 0.0000397 -1.0000000
vn -0.0000138 -0.0000529 -1.0000000
vn -0.0000347 0.0000593 -1.0000000
vn -0.0000607 -0.0000627 -1.0000000
vn 0.0000072 -0.0000177 -1.0000000
vn 0.0000242 0.0000267 -1.0000000
vn 0.0000311 -0.0000570 -1.0000000
vn 0.0000095 -0.0000709 -1.0000000
vn -0.0000192 0.0000109 -1.0000000
vn -0.0000164 -0.0000050 -1.0000000
vn -0.0000163 -0.0000054 -1.0000000
vn -0.0000274 -0.0000189 -1.0000000
vn -0.0000176 -0.0000043 -1.0000000
vn -0.0000178 -0.0000046 -1.0000000
vn 0.0000713 0.0000035 -1.0000000
vn 0.0000021 0.0000012 -1.0000000
vn -0.0000369 0.0000196 -1.0000000
vn 0.0000480 -0.0000434 -1.0000000
vn 0.0000128 0.0000170 -1.0000000
vn 0.0000154 0.0000026 -1.0000000
vn 0.0000143 0.0000087 -1.0000000
vn -0.0000338 -0.0000110 -1.0000000
vn -0.0000418 -0.0000229 -1.0000000
vn -0.0000253 0.0000017 -1.0000000
vn -0.0000512 -0.0000159 -1.0000000
vn -0.0000452 0.0000197 -1.0000000
vn -0.0000261 0.0000082 -1.0000000
vn 0.0000387 -0.0000425 -1.0000000
vn 0.0000300 0.0000170 -1.0000000
vn 0.0000101 -0.0000127 -1.0000000
vn 0.0000168 -0.0000028 -1.0000000
vn -0.0000123 -0.0000079 -1.0000000
vn -0.0000042 -0.0000036 -1.0000000
vn 0.0000121 0.0000052 -1.0000000
vn -0.0000032 -0.0000343 -1.0000000
vn 0.0000550 -0.0000084 -1.0000000
vn -0.0000290 0.0000103 -1.0000000
vn -0.0000219 0.0000224 -1.0000000
vn 0.0000250 0.0000003 -1.0000000
vn 0.0000173 -0.0000118 -1.0000000
vn 0.0000154 -0.0000146 -1.0000000
vn 0.0000060 -0.0000179 -1.0000000
vn -0.0000058 -0.0000204 -1.0000000
vn -0.0000021 -0.0000196 -1.0000000
vn -0.0000328 0.0000187 -1.0000000
vn -0.0000307 0.0000435 -1.0000000
vn -0.0000179 0.0000107 -1.0000000
vn 0.0000035 -0.0000706 -1.0000000
vn -0.0000010 -0.0000173 -1.0000000
vn 0.0000060 0.0000211 -1.0000000
vn 0.0000034 -0.0000173 -1.0000000
vn -0.0000093 0.0000092 -1.0000000
vn 0.0000281 -0.0000604 -1.0000000
vn 0.0000100 0.0000274 -1.0000000
vn 0.0000080 0.0000052 -1.0000000
vn -0.0000260 -0.0000465 -1.0000000
vn 0.0000146 0.0000105 -1.0000000
vn -0.0000253 0.0000012 -1.0000000
vn 0.0000067 0.0000024 -1.0000000
vn -0.0000199 -0.0000150 -1.0000000
vn 0.0000141 0.0000126 -1.0000000
vn -0.0000260 -0.0000219 -1.0000000
vn 0.0000467 0.0000126 -1.0000000
vn 0.0000299 0.0000105 -1.0000000
vn 0.0000366 -0.0000032 -1.0000000
vn 0.0000248 -0.0000702 -1.0000000
vn -0.0000016 0.0000660 -1.0000000
vn 0.0000148 -0.0000611 -1.0000000
vn 0.0000409 0.0000017 -1.0000000
vn -0.0000334 0.0000259 -1.0000000
vn 0.0000433 0.0000149 -1.0000000
vn 0.0000289 0.0000002 -1.0000000
vn -0.0000160 -0.0000722 -1.0000000
vn 0.0000350 0.0000074 -1.0000000
vn -0.0000213 0.0000540 -1.0000000
vn 0.0000125 0.0000097 -1.0000000
vn -0.0000376 0.0000441 -1.0000000
vn 0.0000090 -0.0000148 -1.0000000
vn 0.0000145 -0.0000108 -1.0000000
vn -0.0000156 0.0000487 -1.0000000
vn 0.0000223 0.0000277 -1.0000000
vn -0.0000377 -0.0000506 -1.0000000
vn 0.0000094 0.0000340 -1.0000000
vn -0.0000647 -0.0000248 -1.0000000
vn -0.0000247 0.0000101 -1.0000000
vn 0.0000588 -0.0000342 -1.0000000
vn 0.0000198 0.0000514 -1.0000000
vn -0.0000081 0.0000387 -1.0000000
vn 0.0000681 0.0000131 -1.0000000
vn 0.0000167 0.0000227 -1.0000000
vn -0.0000439 -0.0000692 -1.0000000
vn 0.0000274 -0.0000169 -1.0000000
vn -0.0000325 0.0000264 -1.0000000
vn 0.0000085 -0.0000540 -1.0000000
vn -0.0000309 0.0000432 -1.0000000
vn -0.0000413 0.0000062 -1.0000000
vn -0.0000119 -0.0000009 -1.0000000
vn -0.0000153 0.0000064 -1.0000000
vn -0.0000598 0.0000140 -1.0000000
vn 0.0000201 0.0000245 -1.0000000
vn 0.0000548 0.0000283 -1.0000000
vn -0.0000055 0.0000378 -1.0000000
vn 0.0000405 0.0000306 -1.0000000
vn -0.0000223 -0.0000693 -1.0000000
vn 0.0000285 -0.0000770 -1.0000000
vn 0.0000409 -0.0000789 -1.0000000
vn 0.0000485 0.0000562 -1.0000000
vn 0.0000187 -0.0000171 -1.0000000
vn -0.0000704 -0.0000041 -1.0000000
vn 0.0000048 0.0000061 -1.0000000
vn 0.0000167 -0.0000511 -1.0000000
vn 0.0000041 -0.0000147 -1.0000000
vn -0.0000201 0.0000388 -1.0000000
vn 0.0000056 0.0000304 -1.0000000
vn -0.0000224 0.0000431 -1.0000000
vn -0.0000444 -0.0000161 -1.0000000
vn -0.0000567 -0.0000021 -1.0000000
vn 0.0000297 -0.0000184 -1.0000000
vn 0.0000441 0.0000402 -1.0000000
vn -0.0000098 0.0000534 -1.0000000
vn -0.0000386 0.0000076 -1.0000000
vn -0.0000419 0.0000588 -1.0000000
vn -0.0000137 0.0000397 -1.0000000
vn 0.0000557 0.0000171 -1.0000000
vn -0.0000087 0.0000128 -1.0000000
vn -0.0000437 0.0000550 -1.0000000
vn 0.0000230 -0.0000533 -1.0000000
vn 0.0000033 0.0000156 -1.0000000
vn 0.0000541 0.0000362 -1.0000000
vn -0.0000280 0.0000426 -1.0000000
vn -0.0000210 -0.0000543 -1.0000000
vn 0.0000603 0.0000299 -1.0000000
vn -0.0000367 0.0000233 -1.0000000
vn -0.0000149 0.0000564 -1.0000000
vn 0.0000396 0.0000248 -1.0000000
vn -0.0000623 -0.0000315 -1.0000000
vn -0.0000110 -0.0000111 -1.0000000
vn 0.0000381 -0.0000117 -1.0000000
vn -0.0000172 0.0000158 -1.0000000
vn 0.0000154 0.0000205 -1.0000000
vn -0.0000086 0.0000170 -1.0000000
vn 0.0000260 0.0000139 -1.0000000
vn -0.0000037 0.0000097 -1.0000000
vn -0.0000047 0.0000096 -1.0000000
vn 0.0000165 0.0000314 -1.0000000
vn -0.0000149 0.0000691 -1.0000000
vn -0.0000031 -0.0000384 -1.0000000
vn 0.0000016 -0.0000277 -1.0000000
vn 0.0000139 -0.0000081 -1.0000000
vn 0.0000107 0.0000020 -1.0000000
vn -0.0000035 0.0000170 -1.0000000
vn -0.0000002 0.0000036 -1.0000000
vn -0.0000110 0.0000080 -1.0000000
vn 0.0000182 0.0000249 -1.0000000
vn -0.0000327 0.0000549 -1.0000000
vn 0.0000010 -0.0000409 -1.0000000
vn -0.0000043 -0.0000092 -1.0000000
vn -0.0000273 -0.0000028 -1.0000000
vn 0.0000137 -0.0000173 -1.0000000
vn 0.0000054 0.0000007 -1.0000000
vn -0.0000171 -0.0000025 -1.0000000
vn 0.0000073 0.0000010 -1.0000000
vn -0.0000256 -0.0000335 -1.0000000
vn -0.0000273 0.0000180 -1.0000000
vn 0.0000494 0.0000453 -1.0000000
vn 0.0000303 -0.0000155 -1.0000000
vn 0.0000690 -0.0000102 -1.0000000
vn 0.0000699 -0.0000053 -1.0000000
vn -0.0000262 -0.0000160 -1.0000000
vn -0.0000719 0.0000588 -1.0000000
vn -0.0000072 -0.0000031 -1.0000000
vn -0.0000475 -0.0000579 -1.0000000
vn 0.0000112 -0.0000012 -1.0000000
vn -0.0000079 0.0000094 -1.0000000
vn -0.0000115 -0.0000507 -1.0000000
vn -0.0000426 0.0000124 -1.0000000
vn -0.0000649 -0.0000250 -1.0000000
vn -0.0000438 -0.0000329 -1.0000000
vn -0.0000369 -0.0000202 -1.0000000
vn 0.0000284 -0.0000245 -1.0000000
vn -0.0000318 -0.0000666 -1.0000000
vn 0.0000539 0.0000198 -1.0000000
vn 0.0000407 0.0000517 -1.0000000
vn -0.0000489 0.0000436 -1.0000000
vn -0.0000190 -0.0000749 -1.0000000
vn -0.0000098 0.0000196 -1.0000000
vn -0.0000245 0.0000556 -1.0000000
vn -0.0000010 -0.0000009 -1.0000000
vn -0.0000280 0.0000327 -1.0000000
vn -0.0000037 -0.0000256 -1.0000000
vn 0.0000364 0.0000717 -1.0000000
vn -0.0000232 -0.0000258 -1.0000000
vn -0.0000027 0.0000363 -1.0000000
vn 0.0000516 0.0000290 -1.0000000
vn 0.0000511 0.0000587 -1.0000000
vn -0.0000392 0.0000076 -1.0000000
vn -0.0000154 0.0000245 -1.0000000
vn 0.0000029 -0.0000582 -1.0000000
vn -0.0000150 -0.0000383 -1.0000000
vn 0.0000272 0.0000512 -1.0000000
vn 0.0000098 0.0000074 -1.0000000
vn 0.0000498 0.0000008 -1.0000000
vn 0.0000082 -0.0000115 -1.0000000
vn 0.0000056 -0.0000212 -1.0000000
vn -0.0000258 0.0000027 -1.0000000
vn 0.0000074 -0.0000146 -1.0000000
vn -0.0000221 0.0000065 -1.0000000
vn 0.0000028 -0.0000082 -1.0000000
vn -0.0000005 -0.0000367 -1.0000000
vn -0.0000098 -0.0000381 -1.0000000
vn 0.0000122 0.0000094 -1.0000000
vn 0.0000226 -0.0000129 -1.0000000
vn 0.0000049 -0.0000204 -1.0000000
vn -0.0000025 -0.0000229 -1.0000000
vn 0.0000014 -0.0000076 -1.0000000
vn 0.0000196 0.0000145 -1.0000000
vn -0.0000064 -0.0000213 -1.0000000
vn -0.0000037 0.0000016 -1.0000000
vn 0.0000122 0.0000103 -1.0000000
vn -0.0000168 0.0000046 -1.0000000
vn -0.0000102 0.0000024 -1.0000000
vn 0.0000392 0.0000078 -1.0000000
vn 0.0000111 -0.0000160 -1.0000000
vn -0.0000479 0.0000092 -1.0000000
vn 0.0012301 -0.0058488 -0.9999821
vn -0.0000027 0.0000382 -1.0000000
vn 0.0000379 -0.0000643 -1.0000000
vn -0.0000498 -0.0000482 -1.0000000
vn 0.0000383 0.0000222 -1.0000000
vn -0.0000496 0.0000363 -1.0000000
vn 0.0000434 -0.0000086 -1.0000000
vn -0.0000562 -0.0000172 -1.0000000
vn 0.0000515 -0.0000448 -1.0000000
vn -0.0000306 -0.0000611 -1.0000000
vn 0.0000247 -0.0000197 -1.0000000
vn 0.0000447 -0.0000309 -1.0000000
vn 0.0005497 -0.0041125 -0.9999914
vn 0.0000626 -0.0000200 -1.0000000
vn -0.0000162 -0.0000095 -1.0000000
vn 0.0000760 -0.0000290 -1.0000000
vn 0.0000100 0.0000373 -1.0000000
vn 0.0000051 -0.0000302 -1.0000000
vn 0.0000323 0.0000192 -1.0000000
vn -0.0000238 -0.0000410 -1.0000000
vn -0.0000209 -0.0000713 -1.0000000
vn 0.0000522 0.0000118 -1.0000000
vn 0.0000009 0.0000445 -1.0000000
vn -0.0000461 -0.0000107 -1.0000000
vn -0.0000162 0.0000144 -1.0000000
vn -0.0000418 -0.0000161 -1.0000000
vn 0.0000215 0.0000148 -1.0000000
vn -0.0000227 -0.0000649 -1.0000000
vn 0.0000294 0.0000188 -1.0000000
vn -0.0000607 -0.0000081 -1.0000000
vn 0.0000153 -0.0000066 -1.0000000
vn -0.0000601 0.0000151 -1.0000000
vn -0.0000068 0.0000219 -1.0000000
vn -0.0000147 0.0000197 -1.0000000
vn 0.0000010 0.0000241 -1.0000000
vn -0.0000618 0.0000481 -1.0000000
vn -0.0000101 0.0000567 -1.0000000
vn 0.0000082 0.0000598 -1.0000000
vn -0.0000157 0.0000534 -1.0000000
vn -0.0000170 -0.0000276 -1.0000000
vn 0.0000074 -0.0000331 -1.0000000
vn -0.0000010 0.0000485 -1.0000000
vn -0.0000072 -0.0000599 -1.0000000
vn -0.0000106 0.0000639 -1.0000000
vn 0.0000071 0.0000009 -1.0000000
vn -0.0000342 -0.0000061 -1.0000000
vn 0.0000274 0.0000042 -1.0000000
vn -0.0000015 -0.0000006 -1.0000000
vn -0.0000343 -0.0000156 -1.0000000
vn 0.0000094 -0.0000169 -1.0000000
vn 0.0000002 0.0000196 -1.0000000
vn -0.0000070 -0.0000043 -1.0000000
vn -0.0000002 0.0000016 -1.0000000
vn -0.0000092 0.0000050 -1.0000000
vn -0.0000066 0.0000196 -1.0000000
vn -0.0000043 -0.0000080 -1.0000000
vn -0.0000010 0.0000089 -1.0000000
vn 0.0000004 -0.0000457 -1.0000000
vn -0.0000032 -0.0000239 -1.0000000
vn -0.0000014 0.0000597 -1.0000000
vn -0.0000192 -0.0000035 -1.0000000
vn 0.0000071 0.0000066 -1.0000000
vn -0.0000132 -0.0000157 -1.0000000
vn -0.0000051 -0.0000073 -1.0000000
vn 0.0000000 0.0000000 -1.0000000
vn 0.0000134 0.0000238 -1.0000000
vn -0.0000423 0.0000055 -1.0000000
vn -0.0000677 0.0000048 -1.0000000
vn -0.0000444 0.0000075 -1.0000000
vn 0.0000076 0.0000235 -1.0000000
vn 0.0000059 0.0000188 -1.0000000
vn 0.0000110 0.0000113 -1.0000000
vn -0.0000305 0.0000261 -1.0000000
vn -0.0000346 -0.0000039 -1.0000000
vn 0.0000454 -0.0000254 -1.0000000
vn 0.0000401 0.0000502 -1.0000000
vn -0.0000354 -0.0000317 -1.0000000
vn 0.0000216 0.0000121 -1.0000000
vn 0.0000014 -0.0000648 -1.0000000
vn -0.0000163 0.0000009 -1.0000000
vn -0.0000163 -0.0000008 -1.0000000
vn -0.0000235 0.0000076 -1.0000000
vn -0.0000188 0.0000059 -1.0000000
vn 0.0000058 -0.0000069 -1.0000000
vn -0.0000087 0.0000227 -1.0000000
vn 0.0000186 0.0000085 -1.0000000
vn 0.0000273 0.0000341 -1.0000000
vn -0.0000109 0.0000231 -1.0000000
vn 0.0000317 -0.0000354 -1.0000000
vn -0.0000470 0.0000087 -1.0000000
vn 0.0000275 0.0000205 -1.0000000
vn 0.0000164 0.0000054 -1.0000000
vn -0.0000233 -0.0000195 -1.0000000
vn 0.0000079 0.0000475 -1.0000000
vn 0.0000071 0.0000660 -1.0000000
vn -0.0000164 -0.0000151 -1.0000000
vn -0.0000335 0.0000387 -1.0000000
vn -0.0000353 0.0000355 -1.0000000
vn 0.0000386 -0.0000301 -1.0000000
vn -0.0000232 -0.0000110 -1.0000000
vn 0.0000354 0.0000317 -1.0000000
vn 0.0000130 -0.0000710 -1.0000000
vn -0.0000059 0.0000085 -1.0000000
vn -0.0000030 -0.0000029 -1.0000000
vn -0.0000152 0.0000547 -1.0000000
vn 0.0000000 0.0000214 -1.0000000
vn -0.0000336 -0.0000597 -1.0000000
vn -0.0000474 0.0000079 -1.0000000
vn -0.0000659 0.0000071 -1.0000000
vn -0.0000090 -0.0000007 -1.0000000
vn -0.0000199 0.0000120 -1.0000000
vn -0.0000117 0.0000031 -1.0000000
vn 0.0000155 0.0000300 -1.0000000
vn 0.0000501 -0.0000401 -1.0000000
vn -0.0000317 0.0000354 -1.0000000
f 1/1/1 2/2/2 3/3/3
f 3/4/3 2/5/2 4/6/4
f 5/7/5 6/8/6 4/9/7
f 4/10/7 6/11/6 7/12/8
f 8/13/9 9/14/10 7/15/11
f 7/16/11 9/17/10 10/18/12
f 11/19/13 12/20/14 10/21/15
f 10/22/15 12/23/14 13/24/16
f 14/25/17 15/26/18 16/27/19
f 16/28/19 15/29/18 17/30/20
f 15/31/21 18/32/22 19/33/23
f 19/34/23 18/35/22 20/36/24
f 18/37/25 21/38/26 22/39/27
f 22/40/27 21/41/26 23/42/28
f 21/43/29 24/44/30 25/45/31
f 25/46/31 24/47/30 26/48/32
f 27/49/33 28/50/34 29/51/35
f 30/52/36 28/53/34 27/54/33
f 31/55/37 30/56/36 27/57/33
f 32/58/38 30/59/36 31/60/37
f 33/61/39 34/62/40 35/63/41
f 36/64/42 34/65/40 33/66/39
f 37/67/43 38/68/44 39/69/45
f 40/70/46 38/71/44 37/72/43
f 41/73/47 42/74/48 43/75/49
f 44/76/50 42/77/48 41/78/47
f 45/79/51 46/80/52 47/81/53
f 48/82/54 46/83/52 45/84/51
f 49/85/55 50/86/56 51/87/57
f 52/88/58 50/89/56 49/90/55
f 53/91/59 54/92/60 55/93/61
f 56/94/62 54/95/60 53/96/59
f 57/97/63 58/98/64 59/99/65
f 60/100/66 58/101/64 57/102/63
f 61/103/67 60/104/68 62/105/69
f 63/106/70 60/107/68 61/108/67
f 64/109/71 63/110/72 65/111/73
f 66/112/74 63/113/72 64/114/71
f 67/115/75 66/116/76 68/117/77
f 69/118/78 66/119/76 67/120/75
f 70/121/79 71/122/80 72/123/81
f 73/124/82 71/125/80 70/126/79
f 74/127/83 75/128/84 70/129/85
f 76/130/86 77/131/87 78/132/88
f 79/133/89 80/134/90 81/135/91
f 82/136/92 80/137/90 79/138/89
f 83/139/93 84/140/94 79/141/95
f 85/142/96 84/143/94 83/144/93
f 86/145/97 87/146/98 88/147/99
f 89/148/100 90/149/101 91/150/102
f 92/151/103 93/152/104 94/153/105
f 94/154/105 93/155/104 95/156/106
f 96/157/107 97/158/108 98/159/109
f 98/160/109 97/161/108 99/162/110
f 100/163/111 101/164/112 102/165/113
f 102/166/113 101/167/112 103/168/114
f 104/169/115 105/170/116 106/171/117
f 106/172/117 105/173/116 107/174/118
f 105/175/116 108/176/119 107/177/118
f 107/178/118 108/179/119 109/180/120
f 108/181/119 110/182/121 109/183/120
f 109/184/120 110/185/121 111/186/122
f 112/187/123 113/188/124 114/189/125
f 114/190/125 113/191/124 115/192/126
f 116/193/127 117/194/128 118/195/129
f 119/196/130 117/197/128 116/198/127
f 120/199/131 121/200/132 122/201/133
f 123/202/134 121/203/132 120/204/131
f 124/205/135 125/206/136 126/207/137
f 127/208/138 128/209/139 129/210/140
f 130/211/141 131/212/142 132/213/143
f 133/214/144 134/215/145 135/216/146
f 136/217/147 137/218/148 138/219/149
f 138/220/149 137/221/148 139/222/150
f 140/223/151 141/224/152 142/225/153
f 142/226/153 141/227/152 143/228/154
f 144/229/155 145/230/156 146/231/157
f 146/232/157 145/233/156 147/234/158
f 148/235/159 149/236/160 150/237/161
f 150/238/161 149/239/160 151/240/162
f 152/241/163 153/242/164 154/243/165
f 154/244/165 153/245/164 155/246/166
f 156/247/167 157/248/168 158/249/169
f 159/250/170 160/251/171 161/252/172
f 162/253/173 163/254/174 164/255/175
f 165/256/176 166/257/177 167/258/178
f 168/259/179 169/260/180 170/261/181
f 170/262/181 169/263/180 171/264/182
f 172/265/183 173/266/184 174/267/185
f 174/268/185 173/269/184 175/270/186
f 176/271/187 177/272/188 178/273/189
f 178/274/189 177/275/188 179/276/190
f 180/277/191 181/278/192 182/279/193
f 182/280/193 181/281/192 183/282/194
f 184/283/195 185/284/196 186/285/197
f 186/286/197 185/287/196 187/288/198
f 188/289/199 189/290/200 190/291/201
f 190/292/201 189/293/200 191/294/202
f 192/295/203 193/296/204 194/297/205
f 194/298/205 193/299/204 195/300/206
f 196/301/207 197/302/208 198/303/209
f 198/304/209 197/305/208 199/306/210
f 200/307/211 201/308/212 202/309/213
f 202/310/213 201/311/212 203/312/214
f 204/313/215 205/314/216 206/315/217
f 206/316/217 205/317/216 207/318/218
f 208/319/219 209/320/220 210/321/221
f 210/322/221 209/323/220 211/324/222
f 212/325/223 213/326/224 214/327/225
f 214/328/225 213/329/224 215/330/226
f 216/331/227 217/332/228 218/333/229
f 218/334/229 217/335/228 219/336/230
f 220/337/231 221/338/232 222/339/233
f 223/340/234 221/341/232 220/342/231
f 224/343/235 225/344/236 226/345/237
f 227/346/238 225/347/236 224/348/235
f 228/349/239 229/350/240 230/351/241
f 231/352/242 229/353/240 228/354/239
f 232/355/243 233/356/244 234/357/245
f 235/358/246 233/359/244 232/360/243
f 236/361/247 237/362/248 238/363/249
f 239/364/250 237/365/248 236/366/247
f 234/367/245 240/368/251 241/369/252
f 233/370/244 240/371/251 234/372/245
f 242/373/253 243/374/254 244/375/255
f 245/376/256 243/377/254 242/378/253
f 241/379/252 246/380/257 247/381/258
f 240/382/251 246/383/257 241/384/252
f 248/385/259 249/386/260 250/387/261
f 251/388/262 249/389/260 248/390/259
f 252/391/263 253/392/264 254/393/265
f 255/394/266 253/395/264 252/396/263
f 256/397/267 257/398/268 258/399/269
f 259/400/270 260/401/271 261/402/272
f 262/403/273 263/404/274 264/405/275
f 265/406/276 263/407/274 262/408/273
f 266/409/277 267/410/278 268/411/279
f 269/412/280 270/413/281 271/414/282
f 272/415/283 273/416/284 274/417/285
f 275/418/286 273/419/284 272/420/283
f 276/421/287 277/422/288 278/423/289
f 279/424/290 280/425/291 281/426/292
f 282/427/293 283/428/294 284/429/295
f 285/430/296 283/431/294 282/432/293
f 286/433/297 287/434/298 288/435/299
f 289/436/300 290/437/301 291/438/302
f 292/439/303 293/440/304 294/441/305
f 295/442/306 293/443/304 292/444/303
f 296/445/307 297/446/308 298/447/309
f 299/448/310 300/449/311 301/450/312
f 302/451/313 303/452/314 304/453/315
f 305/454/316 303/455/314 302/456/313
f 306/457/317 289/458/300 291/459/302
f 307/460/318 308/461/319 309/462/320
f 310/463/321 311/464/322 312/465/323
f 313/466/324 311/467/322 310/468/321
f 314/469/325 299/470/310 301/471/312
f 315/472/326 316/473/327 317/474/328
f 318/475/329 319/476/330 320/477/331
f 321/478/332 319/479/330 318/480/329
f 322/481/333 323/482/334 324/483/335
f 325/484/336 323/485/334 322/486/333
f 326/487/337 327/488/338 328/489/339
f 329/490/340 327/491/338 326/492/337
f 330/493/341 331/494/342 332/495/343
f 333/496/344 331/497/342 330/498/341
f 334/499/345 335/500/346 336/501/347
f 337/502/348 335/503/346 334/504/345
f 338/505/349 339/506/350 340/507/351
f 340/508/351 339/509/350 341/510/352
f 342/511/353 343/512/354 341/513/355
f 341/514/355 343/515/354 344/516/356
f 345/517/357 346/518/358 347/519/359
f 347/520/359 346/521/358 348/522/360
f 349/523/361 350/524/362 351/525/363
f 351/526/363 350/527/362 352/528/364
f 353/529/365 354/530/366 355/531/367
f 355/532/367 354/533/366 356/534/368
f 357/535/369 358/536/370 356/537/371
f 356/538/371 358/539/370 359/540/372
f 360/541/373 361/542/374 362/543/375
f 362/544/375 361/545/374 363/546/376
f 364/547/377 365/548/378 366/549/379
f 366/550/379 365/551/378 367/552/380
f 368/553/381 369/554/382 370/555/383
f 370/556/383 369/557/382 371/558/384
f 369/559/385 372/560/386 373/561/387
f 373/562/387 372/563/386 374/564/388
f 375/565/389 376/566/390 377/567/391
f 377/568/391 376/569/390 378/570/392
f 379/571/393 380/572/394 381/573/395
f 381/574/395 380/575/394 382/576/396
f 383/577/397 384/578/398 385/579/399
f 386/580/400 387/581/401 388/582/402
f 389/583/403 390/584/404 391/585/405
f 391/586/405 390/587/404 392/588/406
f 393/589/407 394/590/408 395/591/409
f 396/592/410 397/593/411 398/594/412
f 399/595/413 400/596/414 401/597/415
f 401/598/415 400/599/414 402/600/416
f 403/601/417 404/602/418 405/603/419
f 406/604/420 407/605/421 408/606/422
f 409/607/423 410/608/424 411/609/425
f 411/610/425 410/611/424 412/612/426
f 413/613/427 414/614/428 415/615/429
f 416/616/430 417/617/431 418/618/432
f 419/619/433 420/620/434 421/621/435
f 421/622/435 420/623/434 422/624/436
f 423/625/437 424/626/438 425/627/439
f 425/628/439 424/629/438 426/630/440
f 427/631/441 428/632/442 429/633/443
f 429/634/443 428/635/442 430/636/444
f 431/637/445 432/638/446 433/639/447
f 433/640/447 432/641/446 434/642/448
f 435/643/449 436/644/450 437/645/451
f 437/646/451 436/647/450 438/648/452
f 439/649/453 440/650/454 441/651/455
f 442/652/456 440/653/454 439/654/453
f 443/655/457 444/656/458 445/657/459
f 446/658/460 444/659/458 443/660/457
f 447/661/461 448/662/462 449/663/463
f 450/664/464 448/665/462 447/666/461
f 451/667/465 450/668/466 452/669/467
f 453/670/468 450/671/466 451/672/465
f 454/673/469 455/674/470 456/675/471
f 457/676/472 455/677/470 454/678/469
f 458/679/473 459/680/474 460/681/475
f 461/682/476 459/683/474 458/684/473
f 462/685/477 463/686/478 464/687/479
f 465/688/480 463/689/478 462/690/477
f 466/691/481 467/692/482 462/693/483
f 468/694/484 467/695/482 466/696/481
f 469/697/485 470/698/486 471/699/487
f 472/700/488 470/701/486 469/702/485
f 473/703/489 472/704/490 474/705/491
f 475/706/492 476/707/493 477/708/494
f 478/709/495 479/710/496 480/711/497
f 481/712/498 479/713/496 478/714/495
f 482/715/499 483/716/500 478/717/501
f 484/718/502 483/719/500 482/720/499
f 485/721/503 486/722/504 487/723/505
f 488/724/506 486/725/504 485/726/503
f 489/727/507 490/728/508 485/729/509
f 491/730/510 490/731/508 489/732/507
f 492/733/511 493/734/512 489/735/513
f 494/736/514 493/737/512 492/738/511
f 495/739/515 496/740/516 497/741/517
f 498/742/518 496/743/516 495/744/515
f 499/745/519 498/746/520 500/747/521
f 501/748/522 498/749/520 499/750/519
f 502/751/523 501/752/524 503/753/525
f 504/754/526 501/755/524 502/756/523
f 505/757/527 506/758/528 507/759/529
f 508/760/530 509/761/531 510/762/532
f 511/763/533 512/764/534 513/765/535
f 513/766/535 512/767/534 514/768/536
f 515/769/537 516/770/538 517/771/539
f 517/772/539 516/773/538 518/774/540
f 519/775/541 520/776/542 521/777/543
f 520/778/542 522/779/544 521/780/543
f 523/781/545 524/782/546 525/783/547
f 526/784/548 527/785/549 528/786/550
f 529/787/551 520/788/542 519/789/541
f 530/790/552 524/791/546 523/792/545
f 531/793/553 532/794/554 533/795/555
f 534/796/556 532/797/554 531/798/553
f 535/799/557 536/800/558 531/801/559
f 537/802/560 536/803/558 535/804/557
f 538/805/561 539/806/562 535/807/563
f 540/808/564 539/809/562 538/810/561
f 541/811/565 542/812/566 538/813/567
f 543/814/568 542/815/566 541/816/565
f 544/817/569 545/818/570 546/819/571
f 547/820/572 545/821/570 544/822/569
f 548/823/573 547/824/574 549/825/575
f 550/826/576 547/827/574 548/828/573
f 551/829/577 550/830/578 552/831/579
f 553/832/580 550/833/578 551/834/577
f 554/835/581 553/836/582 555/837/583
f 556/838/584 553/839/582 554/840/581
f 557/841/585 558/842/586 559/843/587
f 559/844/587 558/845/586 560/846/588
f 561/847/589 562/848/590 563/849/591
f 563/850/591 562/851/590 564/852/592
f 565/853/593 566/854/594 567/855/595
f 567/856/595 566/857/594 568/858/596
f 566/859/594 569/860/597 568/861/596
f 568/862/596 569/863/597 570/864/598
f 571/865/599 572/866/600 573/867/601
f 573/868/601 572/869/600 574/870/602
f 575/871/603 576/872/604 577/873/605
f 577/874/605 576/875/604 578/876/606
f 579/877/607 565/878/593 580/879/608
f 580/880/608 565/881/593 567/882/595
f 581/883/609 582/884/610 583/885/611
f 583/886/611 582/887/610 584/888/612
f 585/889/613 586/890/614 587/891/615
f 588/892/616 586/893/614 585/894/613
f 589/895/617 590/896/618 585/897/619
f 591/898/620 590/899/618 589/900/617
f 592/901/621 593/902/622 589/903/623
f 594/904/624 593/905/622 592/906/621
f 595/907/625 596/908/626 592/909/627
f 597/910/628 596/911/626 595/912/625
f 598/913/629 599/914/630 600/915/631
f 601/916/632 599/917/630 598/918/629
f 602/919/633 601/920/634 603/921/635
f 604/922/636 601/923/634 602/924/633
f 605/925/637 604/926/638 606/927/639
f 607/928/640 604/929/638 605/930/637
f 608/931/641 607/932/642 609/933/643
f 610/934/644 607/935/642 608/936/641
f 611/937/645 612/938/646 613/939/647
f 614/940/648 615/941/649 616/942/650
f 617/943/651 618/944/652 619/945/653
f 618/946/652 620/947/654 619/948/653
f 619/949/653 620/950/654 621/951/655
f 620/952/654 622/953/656 621/954/655
f 623/955/657 624/956/658 625/957/659
f 625/958/659 624/959/658 626/960/660
f 627/961/661 628/962/662 629/963/663
f 629/964/663 628/965/662 630/966/664
f 631/967/665 632/968/666 633/969/667
f 633/970/667 632/971/666 634/972/668
f 635/973/669 636/974/670 637/975/671
f 637/976/671 636/977/670 617/978/672
f 638/979/673 639/980/674 640/981/675
f 640/982/675 639/983/674 641/984/676
f 642/985/677 643/986/677 644/987/677
f 644/988/677 645/989/677 642/990/677
f 646/991/678 647/992/679 648/993/680
f 648/994/680 649/995/681 646/996/678
f 650/997/682 646/998/678 649/999/681
f 649/1000/681 651/1001/683 650/1002/682
f 652/1003/677 653/1004/677 643/1005/677
f 643/1006/677 654/1007/677 652/1008/677
f 655/1009/684 656/1010/685 657/1011/686
f 657/1012/686 658/1013/687 655/1014/684
f 659/1015/688 655/1016/684 658/1017/687
f 658/1018/687 660/1019/689 659/1020/688
f 661/1021/677 662/1022/677 663/1023/677
f 663/1024/677 664/1025/677 661/1026/677
f 665/1027/690 666/1028/691 667/1029/692
f 667/1030/692 668/1031/693 665/1032/690
f 669/1033/694 665/1034/690 668/1035/693
f 668/1036/693 670/1037/695 669/1038/694
f 664/1039/677 671/1040/677 672/1041/677
f 672/1042/677 644/1043/677 664/1044/677
f 673/1045/696 674/1046/697 675/1047/698
f 676/1048/699 674/1049/697 673/1050/696
f 677/1051/700 673/1052/696 675/1053/698
f 675/1054/698 678/1055/701 677/1056/700
f 679/1057/677 680/1058/677 681/1059/677
f 681/1060/677 682/1061/677 679/1062/677
f 683/1063/702 684/1064/703 685/1065/704
f 685/1066/704 686/1067/705 683/1068/702
f 687/1069/706 683/1070/702 686/1071/705
f 686/1072/705 688/1073/707 687/1074/706
f 682/1075/677 689/1076/677 690/1077/677
f 690/1078/677 691/1079/677 682/1080/677
f 692/1081/708 693/1082/709 694/1083/710
f 695/1084/711 693/1085/709 692/1086/708
f 696/1087/712 692/1088/708 694/1089/710
f 694/1090/710 697/1091/713 696/1092/712
f 698/1093/677 699/1094/677 700/1095/677
f 701/1096/677 699/1097/677 698/1098/677
f 702/1099/714 703/1100/715 704/1101/716
f 705/1102/717 706/1103/718 707/1104/719
f 708/1105/720 707/1106/719 706/1107/718
f 706/1108/718 709/1109/721 708/1110/720
f 710/1111/677 711/1112/677 712/1113/677
f 713/1114/677 711/1115/677 710/1116/677
f 714/1117/722 715/1118/723 716/1119/724
f 716/1120/724 717/1121/725 714/1122/722
f 718/1123/726 714/1124/722 717/1125/725
f 717/1126/725 719/1127/727 718/1128/726
