# Pieza completa de un material COLLADA para Raylib
o Freezeezy_Peak_material_0037-material
v -1.0720334 0.5729856 1.1341146
v -1.0123501 0.4573494 1.1341146
v -1.0365964 0.4048601 1.1874032
v -1.1175951 0.5380816 1.1874032
v -1.1844723 0.6489219 1.1341146
v -1.0720334 0.5729856 1.1341146
v -1.1175951 0.5380816 1.1874032
v -1.2151132 0.6022944 1.1874032
v -1.2129817 1.2244387 1.1341146
v -1.3478018 1.3779099 1.1874032
v -1.2023240 1.2814575 1.1874032
v -1.3944294 1.3448710 1.1341146
v -1.3845710 1.5510978 1.1874032
v -1.4405240 1.5609562 1.1341146
v -1.3845710 1.5510978 1.1874032
v -1.3944294 1.3448710 1.1341146
v -1.4405240 1.5609562 1.1341146
v -1.2881186 1.6995066 1.1874032
v -1.3845710 1.5510978 1.1874032
v -1.3200918 1.7464006 1.1341146
v -1.1037401 1.7922287 1.1341146
v -1.1149307 1.7365422 1.1874032
v -1.3200918 1.7464006 1.1341146
v -0.9665219 1.6400898 1.1874032
v -0.9182958 1.6720630 1.1341146
v -0.9297528 1.4669019 1.1874032
v -0.8724676 1.4557113 1.1341146
v -1.0248729 1.3235555 1.1874032
v -0.9915676 1.2769280 1.1341146
v -1.2023240 1.2814575 1.1874032
v -1.2129817 1.2244387 1.1341146
v -1.2881186 1.6995066 1.1874032
v -0.9180293 0.3875413 1.1874032
v -1.0365964 0.4048601 1.1874032
v -1.0123501 0.4573494 1.1341146
v -0.8245078 0.6427937 1.1341146
v -0.6968816 0.7373810 1.1335817
v -0.6619776 0.6990132 1.1868703
v -0.7688212 0.6148172 1.1874032
v -0.8309025 0.5026447 1.1341146
v -0.8245078 0.6427937 1.1341146
v -0.7688212 0.6148172 1.1874032
v -0.7994622 0.4608131 1.1874032
v -0.9111018 0.4397641 1.1341146
v -0.8309025 0.5026447 1.1341146
v -0.7994622 0.4608131 1.1874032
v -0.9180293 0.3875413 1.1874032
v -0.9111018 0.4397641 1.1341146
v -0.4789313 0.6790300 1.1301179
v -0.6619776 0.6990132 1.1868703
v -0.6968816 0.7373810 1.1335817
v -0.5290225 0.6784971 1.1874032
v -0.6619776 0.6990132 1.1868703
v 1.7258844 0.2420635 1.0142152
v 1.9110623 0.2926876 1.0142152
v 1.8857502 0.2569843 1.0600434
v 1.7029703 0.2087581 1.0576454
v 1.5407066 0.1914393 1.0142152
v 1.7258844 0.2420635 1.0142152
v 1.7029703 0.2087581 1.0576454
v 1.5337790 0.1621306 1.0576454
v 1.4378596 0.2175507 1.0142152
v 1.5407066 0.1914393 1.0142152
v 1.5337790 0.1621306 1.0576454
v 1.4157448 0.1887749 1.0576454
v 1.4194750 0.3776829 1.0142152
v 1.4378596 0.2175507 1.0142152
v 1.4157448 0.1887749 1.0576454
v 1.3914985 0.3467755 1.0576454
v 1.2974441 0.5471407 1.0142152
v 1.2875857 0.5055756 1.0576454
v 1.1125327 0.5292890 1.0142152
v 1.1357132 0.4871910 1.0576454
v 1.1290522 -0.1786500 1.0142152
v 1.0296689 -0.1144373 1.0142152
v 1.0608427 -0.0896581 1.0576454
v 1.1394434 -0.1522722 1.0576454
v 0.9894360 0.3614299 1.0142152
v 1.1125327 0.5292890 1.0142152
v 1.1357132 0.4871910 1.0576454
v 1.0294025 0.3483742 1.0576454
v 0.9369468 0.2207480 1.0142152
v 0.9795776 0.2124883 1.0576454
v 0.9398776 0.0145211 1.0142152
v 0.9369468 0.2207480 1.0142152
v 0.9795776 0.2124883 1.0576454
v 0.9795776 0.2124883 1.0576454
v 0.9907682 0.0086594 1.0576454
v 0.9398776 0.0145211 1.0142152
v 1.0296689 -0.1144373 1.0142152
v 0.9398776 0.0145211 1.0142152
v 0.9907682 0.0086594 1.0576454
v 1.0608427 -0.0896581 1.0576454
v 1.5628213 -0.2521883 1.0576454
v 1.5518972 -0.3715547 1.0576454
v 1.5004737 -0.3598313 1.0142152
v 1.4543790 -0.4224454 1.0142152
v 1.5004737 -0.3598313 1.0142152
v 1.5518972 -0.3715547 1.0576454
v 1.4874180 -0.4514876 1.0576454
v 1.2401589 -0.6097548 1.0142152
v 1.4543790 -0.4224454 1.0142152
v 1.4874180 -0.4514876 1.0576454
v 1.2710663 -0.6555830 1.0576454
v 1.1429072 -0.8849904 1.0142152
v 1.2401589 -0.6097548 1.0142152
v 1.2710663 -0.6555830 1.0576454
v 1.1916663 -0.9023092 1.0576454
v 1.5247200 -0.2623131 1.0142152
v 1.4586421 -0.0707406 1.0179454
v 1.4820891 -0.0342379 1.0579119
v 1.5628213 -0.2521883 1.0576454
v 1.5247200 -0.2623131 1.0142152
v 1.2574777 -0.1418809 1.0142152
v 1.1290522 -0.1786500 1.0142152
v 1.1394434 -0.1522722 1.0576454
v 1.2473528 -0.1131050 1.0576454
v 1.3147629 -0.0718064 1.0142152
v 1.3086347 -0.0241131 1.0579119
v 1.4586421 -0.0707406 1.0179454
v 1.3147629 -0.0718064 1.0142152
v 1.3086347 -0.0241131 1.0579119
v 1.4820891 -0.0342379 1.0579119
v 1.1916663 -0.9023092 1.0576454
v 1.2017911 -1.0901515 1.0576454
v 1.1455716 -1.1104011 1.0142152
v 1.1455716 -1.1104011 1.0142152
v 1.2017911 -1.0901515 1.0576454
v 1.2398924 -1.2172448 1.0600434
v 1.1429072 -0.8849904 1.0142152
v 1.2396260 -1.2172448 1.0600434
v 1.1365126 -1.1996595 1.0142152
v -0.0139883 -1.0595105 1.1341146
v -0.0406326 -0.9262890 1.1341146
v 0.0110574 -0.9268219 1.1874032
v 0.0587507 -0.8050575 1.1874032
v 0.0110574 -0.9268219 1.1874032
v -0.0406326 -0.9262890 1.1341146
v 0.0126560 -0.8197118 1.1341146
v -0.0611487 -0.6321360 1.1874032
v 0.0587507 -0.8050575 1.1874032
v 0.0126560 -0.8197118 1.1341146
v -0.0805990 -0.6731682 1.1341146
v -0.2814970 -0.6302709 1.1874032
v -0.0611487 -0.6321360 1.1874032
v -0.0805990 -0.6731682 1.1341146
v -0.2537869 -0.6731682 1.1341146
v -0.3691568 -0.8298367 1.1874032
v -0.2814970 -0.6302709 1.1874032
v -0.2537869 -0.6731682 1.1341146
v -0.3203977 -0.8330340 1.1341146
v -0.3195984 -0.9457394 1.1874032
v -0.3691568 -0.8298367 1.1874032
v -0.3203977 -0.8330340 1.1341146
v -0.3014802 -0.9428085 1.1341146
v -0.3329205 -1.0198105 1.1874032
v -0.3195984 -0.9457394 1.1874032
v -0.3014802 -0.9428085 1.1341146
v -0.3116051 -1.1655548 1.1130656
v -0.3417131 -1.0968126 1.1874032
v 0.4922534 -1.2060542 1.1874032
v 0.2657769 -1.2460206 1.1341146
v 0.2695071 -1.2041891 1.1874032
v 0.1346869 -1.1394434 1.1874032
v 0.2695071 -1.2041891 1.1874032
v 0.2657769 -1.2460206 1.1341146
v 0.1096413 -1.1775448 1.1341146
v 0.0243795 -1.0368629 1.1874032
v 0.1346869 -1.1394434 1.1874032
v 0.1096413 -1.1775448 1.1341146
v -0.0139883 -1.0595105 1.1341146
v 0.0110574 -0.9268219 1.1874032
v 0.0243795 -1.0368629 1.1874032
v -0.0139883 -1.0595105 1.1341146
v -1.2007253 -0.6062910 1.1341146
v -1.0331327 -0.4981152 1.1341146
v -1.1077367 -0.6102877 1.1874032
v -0.9793112 -0.5050427 1.1874032
v -1.0331327 -0.4981152 1.1341146
v -0.9992944 -0.3345192 1.1341146
v -0.9793112 -0.5050427 1.1874032
v -0.9611931 -0.3065427 1.1874032
v -0.9992944 -0.3345192 1.1341146
v -1.1346475 -0.2367346 1.1341146
v -0.9611931 -0.3065427 1.1874032
v -1.1277199 -0.1975675 1.1874032
v -1.1346475 -0.2367346 1.1341146
v -1.3104998 -0.2625796 1.1341146
v -1.1277199 -0.1975675 1.1874032
v -1.3403414 -0.2290077 1.1874032
v -1.3104998 -0.2625796 1.1341146
v -1.5273844 -0.3856762 1.1341146
v -1.3403414 -0.2290077 1.1874032
v -1.5641536 -0.3776829 1.1874032
v -1.5273844 -0.3856762 1.1341146
v -1.7016381 -0.4237776 1.1898012
v -1.5641536 -0.3776829 1.1874032
v -0.4789313 0.6790300 1.1301179
v -0.3521044 0.4760004 1.1301179
v -0.5290225 0.6784971 1.1874032
v -0.3811467 0.4370997 1.1874032
v -0.3521044 0.4760004 1.1301179
v -0.1309567 0.4136527 1.1301179
v -0.3811467 0.4370997 1.1874032
v -0.1325554 0.3614299 1.1874032
v -0.1309567 0.4136527 1.1301179
v 0.0614151 0.4866581 1.1301179
v -0.1325554 0.3614299 1.1874032
v 0.0947205 0.4477574 1.1874032
v 0.0614151 0.4866581 1.1301179
v 0.1514728 0.6326689 1.1301179
v 0.0947205 0.4477574 1.1874032
v 0.1954359 0.6100212 1.1874032
v -0.1786500 -0.5911038 1.1903340
v -0.4538856 -0.4978487 1.1341146
v -0.1759856 -0.5250259 1.1341146
v -0.4922534 -0.5556668 1.1903340
v -0.7051414 -0.4096561 1.1903340
v -0.4538856 -0.4978487 1.1341146
v -0.4922534 -0.5556668 1.1903340
v -0.6414615 -0.3758178 1.1341146
v -0.7051414 -0.4096561 1.1903340
v -0.7602951 -0.1925051 1.1903340
v -0.6414615 -0.3758178 1.1341146
v -0.6883555 -0.1917057 1.1341146
v -0.6427937 0.0377017 1.1903340
v -0.6883555 -0.1917057 1.1341146
v -0.7602951 -0.1925051 1.1903340
v -0.5817783 0.0054621 1.1341146
v -0.6427937 0.0377017 1.1903340
v -0.3843440 0.2194158 1.1903340
v -0.5817783 0.0054621 1.1341146
v -0.3507722 0.1626634 1.1341146
v -0.0542211 0.3038782 1.1903340
v -0.0566191 0.2378004 1.1341146
v 0.2593822 0.2684413 1.1903340
v 0.2212809 0.2106232 1.1341146
v 0.3662259 0.0646124 1.1892683
v 0.3025460 0.0307742 1.1330488
v 0.3880742 -0.1522722 1.1892683
v 0.3161346 -0.1533379 1.1330488
v 0.3030789 -0.3707554 1.1898012
v 0.2420635 -0.3385158 1.1335817
v 0.1517393 -0.5066413 1.1903340
v 0.2420635 -0.3385158 1.1335817
v 0.3030789 -0.3707554 1.1898012
v 0.1179010 -0.4498890 1.1341146
v 0.1517393 -0.5066413 1.1903340
v -0.1786500 -0.5911038 1.1903340
v 0.1179010 -0.4498890 1.1341146
v -0.1759856 -0.5250259 1.1341146
v 0.4989145 -0.9468052 1.1874032
v 0.4701386 -0.8287709 1.1293186
v 0.5127695 -0.8114521 1.1874032
v 0.4592145 -0.9361474 1.1293186
v 0.3739527 -1.0520501 1.1874032
v 0.3603641 -1.0192776 1.1293186
v 0.2111561 -1.0653723 1.1874032
v 0.2314057 -1.0299354 1.1293186
v 0.1056446 -0.9790448 1.1874032
v 0.1482755 -0.9617260 1.1293186
v 0.1194997 -0.8436917 1.1874032
v 0.1591997 -0.8543494 1.1293186
v 0.2444614 -0.7384467 1.1874032
v 0.1591997 -0.8543494 1.1293186
v 0.1194997 -0.8436917 1.1874032
v 0.2580500 -0.7712192 1.1293186
v 0.4072581 -0.7248581 1.1874032
v 0.3870084 -0.7605615 1.1293186
v -1.0648394 1.5628213 1.1921991
v -1.1072038 1.5319139 1.1335817
v -1.1207924 1.6033207 1.1921991
v -1.1370454 1.5537623 1.1335817
v -1.1900676 1.6033207 1.1921991
v -1.1738146 1.5537623 1.1335817
v -1.2460206 1.5628213 1.1921991
v -1.2036562 1.5319139 1.1335817
v -1.2673361 1.4970099 1.1921991
v -1.2151132 1.4970099 1.1335817
v -1.2673361 1.4970099 1.1921991
v -1.2151132 1.4970099 1.1335817
v -1.2460206 1.4311985 1.1921991
v -1.2036562 1.4621059 1.1335817
v -1.1900676 1.3904327 1.1921991
v -1.1738146 1.4402576 1.1335817
v -1.1207924 1.3904327 1.1921991
v -1.1370454 1.4402576 1.1335817
v -1.0648394 1.4311985 1.1921991
v -1.1072038 1.4621059 1.1335817
v -1.0435240 1.4970099 1.1921991
v -1.0957468 1.4970099 1.1335817
v 0.5743179 0.6798293 1.1818079
v 0.5418118 0.6451917 1.1293186
v 0.4123205 0.6843588 1.1293186
v 0.4072581 0.7312528 1.1818079
v 0.2889574 0.6329353 1.1818079
v 0.3297232 0.6100212 1.1293186
v 0.3014802 0.4698722 1.1818079
v 0.2889574 0.6329353 1.1818079
v 0.3297232 0.6100212 1.1293186
v 0.3361178 0.5090393 1.1293186
v 0.4714709 0.4195145 1.1818079
v 0.4656091 0.4698722 1.1293186
v 0.5980313 0.5151675 1.1818079
v 0.5479400 0.5442098 1.1293186
v -0.7672226 0.1266936 1.1818079
v -0.8181132 0.1418809 1.1293186
v -0.8372971 0.2180836 1.1293186
v -0.7997286 0.2556520 1.1818079
v -0.9473380 0.2732373 1.1818079
v -0.9374796 0.2332708 1.1293186
v -1.0653723 0.1885084 1.1818079
v -1.0179454 0.1725218 1.1293186
v -1.0325998 0.0595500 1.1818079
v -1.0653723 0.1885084 1.1818079
v -1.0179454 0.1725218 1.1293186
v -0.9987615 0.0960527 1.1293186
v -0.8887206 0.0411654 1.1818079
v -0.8988454 0.0808654 1.1293186
vt 0.9814453 1.9716797
vt 0.1208496 1.9252930
vt -0.0444336 1.0605469
vt -0.0444336 1.0605469
vt 0.9916992 1.0214844
vt 0.9814453 1.9716797
vt 1.4431150 1.9663086
vt 0.2939453 1.9658203
vt 0.3500977 1.4101563
vt 0.3500977 1.4101563
vt 1.3386230 1.4033203
vt 1.4431150 1.9663086
vt 6.1533200 1.9365234
vt 7.0036620 0.9843750
vt 6.1379390 0.9843750
vt 7.0415040 1.9365234
vt 7.0036620 0.9843750
vt 6.1533200 1.9365234
vt 7.0415040 1.9365234
vt 7.9919430 0.9843750
vt 7.0036620 0.9843750
vt 7.0385740 1.9365234
vt 6.9919430 0.9843750
vt 6.0415040 1.9365234
vt 0.0385742 1.9365234
vt 1.1435550 0.9843750
vt -0.0078125 0.9843750
vt 1.1633300 1.9365234
vt 1.1435550 0.9843750
vt 0.0385742 1.9365234
vt 2.3398440 1.9365234
vt 2.3684080 0.9848633
vt 1.1633300 1.9365234
vt 2.3398440 1.9365234
vt 3.4709470 0.9848633
vt 2.3684080 0.9848633
vt 3.4248050 1.9365234
vt 3.4709470 0.9848633
vt 2.3398440 1.9365234
vt 3.4248050 1.9365234
vt 4.4194340 0.9848633
vt 3.4709470 0.9848633
vt 4.3854980 1.9365234
vt 4.4194340 0.9848633
vt 3.4248050 1.9365234
vt 4.3854980 1.9365234
vt 5.2641600 0.9848633
vt 4.4194340 0.9848633
vt 5.2531740 1.9365234
vt 5.2641600 0.9848633
vt 4.3854980 1.9365234
vt 5.2531740 1.9365234
vt 6.1379390 0.9843750
vt 5.2641600 0.9848633
vt 6.1533200 1.9365234
vt 6.1379390 0.9843750
vt 5.2531740 1.9365234
vt 1.1633300 1.9365234
vt 2.3684080 0.9848633
vt 1.1435550 0.9843750
vt -0.0017090 1.0239258
vt 0.9919434 1.0078125
vt 0.9919434 1.9614258
vt 0.9909668 1.9628906
vt -0.1750488 1.9677734
vt -0.0429688 1.1059570
vt -0.0429688 1.1059570
vt 0.9614258 1.0668945
vt 0.9909668 1.9628906
vt 0.9631348 1.9335938
vt 0.1306152 1.9711914
vt 0.0283203 1.0151367
vt 0.0283203 1.0151367
vt 1.0085450 1.1479492
vt 0.9631348 1.9335938
vt 0.9733887 1.9609375
vt 0.1782227 1.9536133
vt -0.0075684 0.9843750
vt -0.0075684 0.9843750
vt 1.1059570 1.1171875
vt 0.9733887 1.9609375
vt 0.9919434 1.9614258
vt 0.1379395 1.9526367
vt -0.0017090 1.0239258
vt -0.3674316 1.9526367
vt 0.9912109 1.0336914
vt 1.3029790 1.9418945
vt -0.0117188 1.0332031
vt 0.9912109 1.0336914
vt -0.3674316 1.9526367
vt 0.8593750 1.9716797
vt -0.1291504 1.9218750
vt -0.0012207 1.0673828
vt -0.0012207 1.0673828
vt 0.9743652 1.1655273
vt 0.8593750 1.9716797
vt 0.9919434 1.9604492
vt -0.1083984 1.9609375
vt -0.0134277 1.0400391
vt -0.0134277 1.0400391
vt 0.9919434 1.0351562
vt 0.9919434 1.9604492
vt 0.9816895 1.9677734
vt 0.1059570 1.9394531
vt -0.0029297 1.0234375
vt -0.0029297 1.0234375
vt 0.9916992 1.0219726
vt 0.9816895 1.9677734
vt 5.0119630 1.9433594
vt 5.9606930 1.9433594
vt 6.1479490 1.0395508
vt 6.1479490 1.0395508
vt 5.0964360 1.0395508
vt 5.0119630 1.9433594
vt 3.8950200 1.9433594
vt 5.0119630 1.9433594
vt 5.0964360 1.0395508
vt 5.0964360 1.0395508
vt 3.9526370 1.0395508
vt 3.8950200 1.9433594
vt 2.9104000 1.9433594
vt 3.8950200 1.9433594
vt 3.9526370 1.0395508
vt 3.9526370 1.0395508
vt 3.0573730 1.0395508
vt 2.9104000 1.9433594
vt 6.9785160 1.9433594
vt 7.5405270 1.9433594
vt 7.3991700 1.0395508
vt 7.3991700 1.0395508
vt 6.9228520 1.0395508
vt 6.9785160 1.9433594
vt 1.5747070 1.9433594
vt 2.9104000 1.9433594
vt 3.0573730 1.0395508
vt 3.0573730 1.0395508
vt 1.8115230 1.0395508
vt 1.5747070 1.9433594
vt 0.0751953 1.9433594
vt 1.5747070 1.9433594
vt 1.8115230 1.0395508
vt 1.8115230 1.0395508
vt -0.0078125 1.0395508
vt 0.0751953 1.9433594
vt 5.4350590 1.9433594
vt 7.0751950 1.9433594
vt 6.9921880 1.0395508
vt 7.9921880 1.0395508
vt 6.1123050 1.0395508
vt 6.4350590 1.9433594
vt 6.5405270 1.9433594
vt 7.4350590 1.9433594
vt 7.1123050 1.0395508
vt 7.1123050 1.0395508
vt 6.3991700 1.0395508
vt 6.5405270 1.9433594
vt -0.0002441 1.1230469
vt 0.9921875 0.9848633
vt 0.9826660 1.9560547
vt 0.9790039 1.9433594
vt 0.3666992 1.9350586
vt 0.1826172 0.9931641
vt 0.1826172 0.9931641
vt 0.9924316 1.0537109
vt 0.9790039 1.9433594
vt 0.9907227 1.9208984
vt -0.8061523 1.9492188
vt -0.8808594 1.1943359
vt -0.8808594 1.1943359
vt 0.9919434 1.0546875
vt 0.9907227 1.9208984
vt 2.3662110 1.9721680
vt -0.7661133 1.9643555
vt -0.3530273 1.1562500
vt -0.3530273 1.1562500
vt 2.4289550 1.0937500
vt 2.3662110 1.9721680
vt 0.9970703 1.9575195
vt -0.5017090 1.9291992
vt -0.5544434 1.0644531
vt -0.5544434 1.0644531
vt 0.9921875 0.9848633
vt 0.9970703 1.9575195
vt 0.9826660 1.9560547
vt 0.1535645 1.9062500
vt -0.0002441 1.1230469
vt 7.3144530 1.9433594
vt 7.9785160 1.9433594
vt 7.9228520 1.0395508
vt 7.9228520 1.0395508
vt 7.3120120 1.0395508
vt 7.3144530 1.9433594
vt 6.8735350 1.9433594
vt 7.3144530 1.9433594
vt 7.3120120 1.0395508
vt 7.3120120 1.0395508
vt 6.7656250 1.0395508
vt 6.8735350 1.9433594
vt 0.9204102 1.9511719
vt -0.1777344 1.9614258
vt -0.2890625 0.9702148
vt -0.2890625 0.9702148
vt 1.0859380 1.2426758
vt 0.9204102 1.9511719
vt -0.5019531 1.1464844
vt 0.9743652 1.0878906
vt 1.1035160 1.9624023
vt 0.1584473 1.9013672
vt -0.0942383 1.2812500
vt 0.9919434 0.9848633
vt 1.1035160 1.9624023
vt -0.6652832 1.9472656
vt -0.5019531 1.1464844
vt 0.1584473 1.9013672
vt 0.9919434 0.9848633
vt 0.9074707 1.9755859
vt 0.9921875 1.9472656
vt -0.0109863 1.9697266
vt 0.1804199 0.9902344
vt 0.1328125 1.0639648
vt 0.9921875 0.9848633
vt 0.9921875 1.9648438
vt 0.9921875 1.9648438
vt 0.2231445 1.9370117
vt 0.1328125 1.0639648
vt 0.3183594 1.0673828
vt 1.6313480 1.0566406
vt 1.5551760 1.9663086
vt 1.5551760 1.9663086
vt 0.4699707 1.9238281
vt 0.3183594 1.0673828
vt 0.1135254 0.9960938
vt 1.5563960 1.0375976
vt 1.4377440 1.9702148
vt 1.4377440 1.9702148
vt 0.3046875 1.9501953
vt 0.1135254 0.9960938
vt 0.1809082 1.0058594
vt 2.5375980 1.0380859
vt 2.2519530 1.9653320
vt 2.2519530 1.9653320
vt 0.3791504 1.9663086
vt 0.1809082 1.0058594
vt 0.0500488 1.1865234
vt 0.9921875 0.9843750
vt 0.9921875 1.9589844
vt 0.9921875 1.9589844
vt 0.1418457 1.9125977
vt 0.0500488 1.1865234
vt 0.4841309 1.1250000
vt 0.9614258 1.2861328
vt 0.9921875 1.9843750
vt 0.9921875 1.9843750
vt -0.4221191 1.8916016
vt 0.4841309 1.1250000
vt 0.4841309 1.1250000
vt -0.4221191 1.8916016
vt -0.0075684 0.9848633
vt 1.1235350 1.8901367
vt -0.0632324 1.9501953
vt 0.0510254 1.1367188
vt 0.1306152 1.0361328
vt 0.9919434 1.0625000
vt 0.9912109 1.9257813
vt 0.9912109 1.9257813
vt 0.0063477 1.9384766
vt 0.1306152 1.0361328
vt 0.0739746 1.0581055
vt 0.9946289 1.0605469
vt 1.0244140 1.9492188
vt 1.0244140 1.9492188
vt -0.0197754 1.9296875
vt 0.0739746 1.0581055
vt 0.1804199 0.9902344
vt 0.9921875 1.0415039
vt 0.9921875 1.9472656
vt 1.3913570 1.9628906
vt 0.2314453 1.9526367
vt 1.4216310 1.3681641
vt 1.4216310 1.3681641
vt 0.2314453 1.9526367
vt 0.3767090 1.4653320
vt 0.9794922 1.9843750
vt 0.1650391 1.9121094
vt 0.9763184 1.0830078
vt 0.9763184 1.0830078
vt 0.1650391 1.9121094
vt 0.0019531 1.1464844
vt 0.9914551 1.9672852
vt 0.1577148 1.9291992
vt 0.9919434 1.0214844
vt 0.9919434 1.0214844
vt 0.1577148 1.9291992
vt 0.0029297 1.0468750
vt 0.9235840 1.9775391
vt 0.1118164 1.9599609
vt 0.9848633 1.0878906
vt 0.9848633 1.0878906
vt 0.1118164 1.9599609
vt 0.0024414 1.0693359
vt 0.9919434 1.9726563
vt 0.0957031 1.9384766
vt 0.9919434 1.1225586
vt 0.9919434 1.1225586
vt 0.0957031 1.9384766
vt 0.0190430 1.2324219
vt 0.9477539 1.9741211
vt -0.3913574 1.9409180
vt 0.9304199 1.3012695
vt 0.9921875 1.9541016
vt 0.1477051 1.9707031
vt 0.9921875 0.9843750
vt 0.9921875 0.9843750
vt 0.1477051 1.9707031
vt -0.0075684 0.9843750
vt 0.9919434 1.9326172
vt 0.1103516 1.9370117
vt 0.9919434 1.0209961
vt 0.9919434 1.0209961
vt 0.1103516 1.9370117
vt -0.0078125 0.9843750
vt 0.9921875 1.9711914
vt 0.1452637 1.9682617
vt 0.9921875 0.9843750
vt 0.9921875 0.9843750
vt 0.1452637 1.9682617
vt -0.0078125 0.9848633
vt 0.9919434 1.9609375
vt 0.0942383 1.9658203
vt 0.9919434 0.9848633
vt 0.9919434 0.9848633
vt 0.0942383 1.9658203
vt -0.0078125 0.9848633
vt 6.3078610 1.0224609
vt 7.8906250 1.9404297
vt 6.2583010 1.9404297
vt 7.8774410 1.0224609
vt 7.8906250 1.9404297
vt 6.3078610 1.0224609
vt 7.9697270 1.0224609
vt 6.8906250 1.9404297
vt 6.8774410 1.0224609
vt 7.9792480 1.9404297
vt 6.8906250 1.9404297
vt 7.9697270 1.0224609
vt 6.9697270 1.0224609
vt 7.8879390 1.0224609
vt 6.9792480 1.9404297
vt 7.8879390 1.0224609
vt 7.8762210 1.9404297
vt 6.9792480 1.9404297
vt 7.9838870 1.0224609
vt 6.8762210 1.9404297
vt 6.8879390 1.0224609
vt 7.9685060 1.9404297
vt 6.8762210 1.9404297
vt 7.9838870 1.0224609
vt 0.9838867 1.0224609
vt 2.5654300 1.0224609
vt 0.9685059 1.9404297
vt 2.6154790 1.9404297
vt 0.9685059 1.9404297
vt 2.5654300 1.0224609
vt 4.2204590 1.0224609
vt 2.6154790 1.9404297
vt 2.5654300 1.0224609
vt 4.3168950 1.9404297
vt 2.6154790 1.9404297
vt 4.2204590 1.0224609
vt 4.2204590 1.0224609
vt 5.3352050 1.0224609
vt 4.3168950 1.9404297
vt 5.3989260 1.9404297
vt 4.3168950 1.9404297
vt 5.3352050 1.0224609
vt 5.3352050 1.0224609
vt 6.1457520 1.0410156
vt 5.3989260 1.9404297
vt 6.1457520 1.0410156
vt 6.1767580 1.9589844
vt 5.3989260 1.9404297
vt 6.9382320 1.0419922
vt 6.1767580 1.9589844
vt 6.1457520 1.0410156
vt 6.9345700 1.9599609
vt 6.1767580 1.9589844
vt 6.9382320 1.0419922
vt 6.9382320 1.0419922
vt 7.8286130 1.0322266
vt 6.9345700 1.9599609
vt 7.8286130 1.0322266
vt 7.7939450 1.9501953
vt 6.9345700 1.9599609
vt 7.6608890 1.0224609
vt 6.7939450 1.9501953
vt 6.8286130 1.0322266
vt 7.5661620 1.9404297
vt 6.7939450 1.9501953
vt 7.6608890 1.0224609
vt 5.6608890 1.0224609
vt 7.3078610 1.0224609
vt 5.5661620 1.9404297
vt 7.3078610 1.0224609
vt 7.2583010 1.9404297
vt 5.5661620 1.9404297
vt 3.4355470 1.0996094
vt 2.4936520 1.9375000
vt 2.5302730 1.0996094
vt 3.5129390 1.9375000
vt 2.4936520 1.9375000
vt 3.4355470 1.0996094
vt 4.4921880 1.0996094
vt 3.5129390 1.9375000
vt 3.4355470 1.0996094
vt 4.5871580 1.9375000
vt 3.5129390 1.9375000
vt 4.4921880 1.0996094
vt 5.1911620 1.0996094
vt 4.5871580 1.9375000
vt 4.4921880 1.0996094
vt 5.2309570 1.9375000
vt 4.5871580 1.9375000
vt 5.1911620 1.0996094
vt 5.6674800 1.0996094
vt 5.2309570 1.9375000
vt 5.1911620 1.0996094
vt 5.6767580 1.9375000
vt 5.2309570 1.9375000
vt 5.6674800 1.0996094
vt 6.1435550 1.0996094
vt 5.6767580 1.9375000
vt 5.6674800 1.0996094
vt 6.1242680 1.9375000
vt 5.6767580 1.9375000
vt 6.1435550 1.0996094
vt 0.7995605 1.0996094
vt 0.1242676 1.9375000
vt 0.1435547 1.0996094
vt 0.7309570 1.9375000
vt 0.1242676 1.9375000
vt 0.7995605 1.0996094
vt 1.6899410 1.0996094
vt 0.7309570 1.9375000
vt 0.7995605 1.0996094
vt 1.5920410 1.9375000
vt 0.7309570 1.9375000
vt 1.6899410 1.0996094
vt 2.5302730 1.0996094
vt 1.5920410 1.9375000
vt 1.6899410 1.0996094
vt 2.4936520 1.9375000
vt 1.5920410 1.9375000
vt 2.5302730 1.0996094
vt 1.5637210 1.0258789
vt 1.5356450 1.9414063
vt 1.1477050 1.0258789
vt 1.1477050 1.0258789
vt 1.5356450 1.9414063
vt 1.1076660 1.9414063
vt 1.1477050 1.0258789
vt 1.1076660 1.9414063
vt 0.7497559 1.0258789
vt 0.7497559 1.0258789
vt 1.1076660 1.9414063
vt 0.7143555 1.9414063
vt 0.7497559 1.0258789
vt 0.7143555 1.9414063
vt 0.3666992 1.0258789
vt 0.3666992 1.0258789
vt 0.7143555 1.9414063
vt 0.3466797 1.9414063
vt 0.3666992 1.0258789
vt 0.3466797 1.9414063
vt -0.0075684 1.0258789
vt -0.0075684 1.0258789
vt 0.3466797 1.9414063
vt -0.0075684 1.9414063
vt 3.9921880 1.0258789
vt 3.9921880 1.9414063
vt 3.6174320 1.0258789
vt 3.6174320 1.0258789
vt 3.9921880 1.9414063
vt 3.6374510 1.9414063
vt 3.6174320 1.0258789
vt 3.6374510 1.9414063
vt 3.2343750 1.0258789
vt 3.2343750 1.0258789
vt 3.6374510 1.9414063
vt 3.2697750 1.9414063
vt 3.2343750 1.0258789
vt 3.2697750 1.9414063
vt 2.8364260 1.0258789
vt 2.8364260 1.0258789
vt 3.2697750 1.9414063
vt 2.8764650 1.9414063
vt 2.8364260 1.0258789
vt 2.8764650 1.9414063
vt 2.4204100 1.0258789
vt 2.4204100 1.0258789
vt 2.8764650 1.9414063
vt 2.4484860 1.9414063
vt 2.4204100 1.0258789
vt 2.4484860 1.9414063
vt 1.9919430 1.0258789
vt 1.9919430 1.0258789
vt 2.4484860 1.9414063
vt 1.9919430 1.9414063
vt 1.9919430 1.0258789
vt 1.9919430 1.9414063
vt 1.5637210 1.0258789
vt 1.5637210 1.0258789
vt 1.9919430 1.9414063
vt 1.5356450 1.9414063
vt 2.4567870 1.1508789
vt 2.4990230 1.9682617
vt 1.5107420 1.9682617
vt 1.5107420 1.9682617
vt 1.4921880 1.1508789
vt 2.4567870 1.1508789
vt 0.3872070 1.1508789
vt 1.4921880 1.1508789
vt 1.5107420 1.9682617
vt 1.5107420 1.9682617
vt 0.4291992 1.9682617
vt 0.3872070 1.1508789
vt 5.3188480 1.1508789
vt 6.3872070 1.1508789
vt 6.4291990 1.9682617
vt 6.4291990 1.9682617
vt 5.3295900 1.9682617
vt 5.3188480 1.1508789
vt 4.1086430 1.1508789
vt 5.3188480 1.1508789
vt 5.3295900 1.9682617
vt 5.3295900 1.9682617
vt 4.0102540 1.9682617
vt 4.1086430 1.1508789
vt 3.1906740 1.1508789
vt 4.1086430 1.1508789
vt 4.0102540 1.9682617
vt 4.0102540 1.9682617
vt 3.1718750 1.9682617
vt 3.1906740 1.1508789
vt 2.4567870 1.1508789
vt 3.1906740 1.1508789
vt 3.1718750 1.9682617
vt 3.1718750 1.9682617
vt 2.4990230 1.9682617
vt 2.4567870 1.1508789
vt 3.1086430 1.0712891
vt 3.1005860 1.9243164
vt 2.4904790 1.9243164
vt 2.4904790 1.9243164
vt 2.4643550 1.0712891
vt 3.1086430 1.0712891
vt 1.4919430 1.0712891
vt 2.4643550 1.0712891
vt 2.4904790 1.9243164
vt 2.4904790 1.9243164
vt 1.5756840 1.9243164
vt 1.4919430 1.0712891
vt 0.1782227 1.0712891
vt 1.4919430 1.0712891
vt 1.5756840 1.9243164
vt 1.5756840 1.9243164
vt 0.1975098 1.9243164
vt 0.1782227 1.0712891
vt 5.2502440 1.0712891
vt 6.1782230 1.0712891
vt 6.1975100 1.9243164
vt 6.1975100 1.9243164
vt 5.1965330 1.9243164
vt 5.2502440 1.0712891
vt 4.0412600 1.0712891
vt 5.2502440 1.0712891
vt 5.1965330 1.9243164
vt 5.1965330 1.9243164
vt 3.9748540 1.9243164
vt 4.0412600 1.0712891
vt 3.1086430 1.0712891
vt 4.0412600 1.0712891
vt 3.9748540 1.9243164
vt 3.9748540 1.9243164
vt 3.1005860 1.9243164
vt 3.1086430 1.0712891
vn 0.0000042 0.0000012 -1.0000000
vn 0.0000222 -0.0000105 -1.0000000
vn 0.0000265 -0.0000398 -1.0000000
vn 0.0000017 -0.0000143 -1.0000000
vn 0.0000124 0.0000193 -1.0000000
vn -0.0000013 -0.0000220 -1.0000000
vn -0.0000105 -0.0000081 -1.0000000
vn -0.0003980 0.0002368 -0.9999999
vn -0.0000398 0.0000029 -1.0000000
vn -0.0000233 0.0000000 -1.0000000
vn -0.0000053 0.0000252 -1.0000000
vn 0.0000210 -0.0000070 -1.0000000
vn 0.0000321 -0.0000397 -1.0000000
vn 0.0000023 0.0000445 -1.0000000
vn 0.0000137 -0.0000087 -1.0000000
vn 0.0000057 0.0000288 -1.0000000
vn 0.0000054 -0.0000208 -1.0000000
vn 0.0000083 -0.0000046 -1.0000000
vn 0.0000157 -0.0000004 -1.0000000
vn 0.0000051 0.0000308 -1.0000000
vn 0.0000010 0.0000079 -1.0000000
vn 0.0000197 -0.0000170 -1.0000000
vn -0.0000090 -0.0000155 -1.0000000
vn -0.0000029 -0.0000133 -1.0000000
vn -0.0000049 0.0000104 -1.0000000
vn 0.0000078 0.0000176 -1.0000000
vn 0.0000221 0.0000226 -1.0000000
vn -0.0000054 -0.0000265 -1.0000000
vn -0.0000346 -0.0000127 -1.0000000
vn -0.0000171 -0.0000047 -1.0000000
vn -0.0000030 -0.0000167 -1.0000000
vn -0.0000011 -0.0000197 -1.0000000
vn 0.0000391 0.0000037 -1.0000000
vn 0.0000057 -0.0000163 -1.0000000
vn -0.0000037 -0.0000029 -1.0000000
vn 0.0000304 0.0000119 -1.0000000
vn -0.0000009 -0.0000113 -1.0000000
vn -0.0000269 0.0000074 -1.0000000
vn 0.0000060 0.0000209 -1.0000000
vn -0.0000048 -0.0000068 -1.0000000
vn 0.0000175 0.0000168 -1.0000000
vn 0.0000196 0.0000014 -1.0000000
vn 0.0000021 -0.0000018 -1.0000000
vn -0.0000464 -0.0000129 -1.0000000
vn -0.0000187 -0.0000214 -1.0000000
vn -0.0000430 -0.0000083 -1.0000000
vn 0.0000110 -0.0000204 -1.0000000
vn -0.0000005 0.0000183 -1.0000000
vn 0.0000072 -0.0000201 -1.0000000
vn 0.0000164 -0.0000226 -1.0000000
vn -0.0000498 -0.0000043 -1.0000000
vn 0.0000030 -0.0000153 -1.0000000
vn 0.0000433 -0.0000215 -1.0000000
vn -0.0000068 -0.0000138 -1.0000000
vn -0.0000209 -0.0000159 -1.0000000
vn -0.0000420 -0.0000312 -1.0000000
vn 0.0000077 0.0000026 -1.0000000
vn -0.0000499 -0.0000105 -1.0000000
vn -0.0000203 0.0000191 -1.0000000
vn -0.0000645 -0.0000013 -1.0000000
vn 0.0000074 -0.0000218 -1.0000000
vn -0.0000392 -0.0000240 -1.0000000
vn 0.0000009 -0.0000175 -1.0000000
vn -0.0000192 0.0000236 -1.0000000
vn -0.0000424 0.0000214 -1.0000000
vn -0.0000550 -0.0000023 -1.0000000
vn 0.0000190 -0.0000298 -1.0000000
vn 0.0000183 0.0000072 -1.0000000
vn 0.0000120 0.0000333 -1.0000000
vn -0.0000006 0.0000159 -1.0000000
vn 0.0000208 -0.0000260 -1.0000000
vn 0.0000224 -0.0000053 -1.0000000
vn 0.0000374 0.0000272 -1.0000000
vn 0.0000067 -0.0000144 -1.0000000
vn -0.0000462 0.0000371 -1.0000000
vn -0.0000310 0.0000213 -1.0000000
vn -0.0000226 0.0000003 -1.0000000
vn -0.0000101 -0.0000200 -1.0000000
vn 0.0000223 0.0000199 -1.0000000
vn -0.0000331 -0.0000161 -1.0000000
vn -0.0000159 -0.0000015 -1.0000000
vn 0.0000125 0.0000279 -1.0000000
vn -0.0000286 -0.0000123 -1.0000000
vn 0.0000143 0.0000035 -1.0000000
vn 0.0000031 -0.0000539 -1.0000000
vn 0.0000018 0.0000403 -1.0000000
vn 0.0000026 -0.0000137 -1.0000000
vn -0.0000085 0.0000385 -1.0000000
vn -0.0000085 0.0000379 -1.0000000
vn -0.0000044 -0.0000362 -1.0000000
vn -0.0000176 0.0000053 -1.0000000
vn 0.0000155 -0.0000009 -1.0000000
vn -0.0000004 0.0000257 -1.0000000
vn 0.0000088 0.0000048 -1.0000000
vn -0.0000223 -0.0000457 -1.0000000
vn -0.0000189 0.0000284 -1.0000000
vn 0.0000006 -0.0000453 -1.0000000
vn 0.0000035 0.0000113 -1.0000000
vn 0.0000042 0.0000269 -1.0000000
vn 0.0000330 0.0000065 -1.0000000
vn -0.0000163 0.0000165 -1.0000000
vn 0.0000432 0.0000135 -1.0000000
vn 0.0000217 0.0000051 -1.0000000
vn -0.0000441 -0.0000170 -1.0000000
vn -0.0000145 -0.0000247 -1.0000000
vn 0.0000123 -0.0000047 -1.0000000
vn 0.0000037 0.0000211 -1.0000000
vn -0.0000128 0.0000243 -1.0000000
vn -0.0000258 -0.0000210 -1.0000000
vn 0.0000104 -0.0000481 -1.0000000
vn -0.0000019 -0.0000040 -1.0000000
vn 0.0000122 -0.0000249 -1.0000000
vn 0.0000327 -0.0000339 -1.0000000
vn -0.0000130 -0.0000394 -1.0000000
vn 0.0000011 0.0000143 -1.0000000
vn 0.0000237 0.0000219 -1.0000000
vn -0.0000022 -0.0000010 -1.0000000
vn 0.0000217 0.0000301 -1.0000000
vn -0.0000041 -0.0000278 -1.0000000
vn -0.0000173 0.0000041 -1.0000000
vn -0.0000249 -0.0000099 -1.0000000
vn 0.0000067 -0.0000045 -1.0000000
vn 0.0000458 0.0000177 -1.0000000
vn 0.0000062 -0.0000217 -1.0000000
vn -0.0000049 -0.0000177 -1.0000000
vn -0.0000089 0.0000026 -1.0000000
vn 0.0000012 0.0000008 -1.0000000
vn -0.0000265 0.0000156 -1.0000000
vn -0.0000102 -0.0000437 -1.0000000
vn -0.0000202 -0.0000073 -1.0000000
vn 0.0000185 -0.0000427 -1.0000000
vn 0.0000219 0.0000264 -1.0000000
vn 0.0000156 -0.0000349 -1.0000000
vn 0.0000197 0.0000044 -1.0000000
vn -0.0000111 0.0000580 -1.0000000
vn 0.0000066 -0.0000306 -1.0000000
vn 0.0000017 -0.0000062 -1.0000000
vn -0.0000302 -0.0000132 -1.0000000
vn -0.0000111 -0.0000118 -1.0000000
vn -0.0000155 -0.0000053 -1.0000000
vn -0.0000263 -0.0000038 -1.0000000
vn 0.0000085 -0.0000374 -1.0000000
vn -0.0000291 0.0000101 -1.0000000
vn -0.0000286 0.0000448 -1.0000000
vn -0.0000439 0.0000276 -1.0000000
vn -0.0000093 -0.0000215 -1.0000000
vn -0.0000139 0.0000000 -1.0000000
vn 0.0000389 0.0000136 -1.0000000
vn -0.0000313 0.0000182 -1.0000000
vn 0.0000126 -0.0000101 -1.0000000
vn 0.0000227 0.0000381 -1.0000000
vn 0.0000000 0.0000532 -1.0000000
vn 0.0000137 0.0000041 -1.0000000
vn 0.0000230 -0.0000018 -1.0000000
vn 0.0000013 -0.0000357 -1.0000000
vn -0.0000201 -0.0000061 -1.0000000
vn 0.0000028 -0.0000572 -1.0000000
vn -0.0000166 0.0000028 -1.0000000
vn 0.0000001 0.0000191 -1.0000000
vn 0.0000169 -0.0000048 -1.0000000
vn -0.0000130 0.0000020 -1.0000000
vn 0.0000205 -0.0000042 -1.0000000
vn 0.0000503 -0.0000096 -1.0000000
vn 0.0000243 -0.0000093 -1.0000000
vn 0.0000160 -0.0000092 -1.0000000
vn -0.0000045 0.0000186 -1.0000000
vn -0.0000154 -0.0000181 -1.0000000
vn -0.0000222 -0.0000138 -1.0000000
vn 0.0000338 0.0000027 -1.0000000
vn 0.0000015 0.0000254 -1.0000000
vn 0.0000121 0.0000060 -1.0000000
vn -0.0000345 0.0000235 -1.0000000
vn -0.0000420 0.0000103 -1.0000000
vn 0.0000161 0.0000058 -1.0000000
vn 0.0000161 0.0000060 -1.0000000
vn 0.0000231 -0.0000518 -1.0000000
vn 0.0000115 0.0000359 -1.0000000
vn -0.0000307 -0.0000085 -1.0000000
vn 0.0000077 0.0000019 -1.0000000
vn -0.0000302 -0.0000066 -1.0000000
vn 0.0000113 0.0000194 -1.0000000
vn 0.0000190 -0.0000203 -1.0000000
vn -0.0000113 0.0000049 -1.0000000
vn 0.0000063 -0.0000026 -1.0000000
vn -0.0000179 -0.0000025 -1.0000000
vn -0.0000257 0.0000263 -1.0000000
vn -0.0000098 0.0000285 -1.0000000
vn -0.0000385 0.0000035 -1.0000000
vn 0.0000185 -0.0000148 -1.0000000
vn 0.0000439 -0.0000040 -1.0000000
vn 0.0000365 -0.0000022 -1.0000000
vn -0.0000124 0.0000176 -1.0000000
vn -0.0000126 -0.0000006 -1.0000000
vn -0.0000031 0.0000214 -1.0000000
vn 0.0000118 -0.0000036 -1.0000000
vn -0.0000593 -0.0000345 -1.0000000
vn 0.0000239 -0.0000151 -1.0000000
vn 0.0000769 0.0000031 -1.0000000
vn 0.0000082 -0.0000205 -1.0000000
vn 0.0000316 -0.0000246 -1.0000000
vn 0.0000139 -0.0000491 -1.0000000
vn -0.0000131 0.0000146 -1.0000000
vn 0.0000035 0.0000109 -1.0000000
vn -0.0000435 0.0000246 -1.0000000
vn -0.0000398 0.0000116 -1.0000000
vn -0.0000257 0.0000278 -1.0000000
vn -0.0000484 -0.0000003 -1.0000000
vn 0.0000382 -0.0000051 -1.0000000
vn -0.0000480 -0.0000054 -1.0000000
vn 0.0000170 0.0000265 -1.0000000
vn -0.0000292 -0.0000342 -1.0000000
vn -0.0000211 -0.0000444 -1.0000000
vn 0.0000186 -0.0000088 -1.0000000
vn -0.0000173 -0.0000279 -1.0000000
vn -0.0000167 -0.0000423 -1.0000000
vn 0.0000285 -0.0000034 -1.0000000
vn -0.0000032 0.0000027 -1.0000000
vn -0.0000221 -0.0000014 -1.0000000
vn -0.0000074 -0.0000228 -1.0000000
vn -0.0000439 0.0000038 -1.0000000
vn -0.0000226 0.0000157 -1.0000000
vn -0.0000429 0.0000086 -1.0000000
vn 0.0000202 0.0000130 -1.0000000
vn 0.0000063 0.0000352 -1.0000000
vn 0.0000240 -0.0000188 -1.0000000
vn 0.0000032 -0.0000293 -1.0000000
vn 0.0000000 0.0000118 -1.0000000
vn 0.0009021 0.0016489 -0.9999982
vn 0.0000054 -0.0000300 -1.0000000
vn -0.0000201 -0.0000432 -1.0000000
vn -0.0000094 -0.0000330 -1.0000000
vn -0.0000365 -0.0000259 -1.0000000
vn 0.0000006 0.0000008 -1.0000000
vn 0.0000035 0.0000251 -1.0000000
vn 0.0000028 -0.0000168 -1.0000000
vn -0.0000139 -0.0000262 -1.0000000
vn -0.0000201 0.0000172 -1.0000000
vn 0.0000175 0.0000175 -1.0000000
vn -0.0000206 0.0000033 -1.0000000
vn 0.0000151 0.0000038 -1.0000000
vn -0.0000046 -0.0000008 -1.0000000
vn 0.0000225 -0.0000078 -1.0000000
vn 0.0000161 -0.0000002 -1.0000000
vn 0.0000155 0.0000276 -1.0000000
vn 0.0000162 0.0000414 -1.0000000
vn -0.0000095 -0.0000218 -1.0000000
vn -0.0000286 -0.0000154 -1.0000000
vn 0.0000083 0.0000083 -1.0000000
vn 0.0000063 0.0000089 -1.0000000
vn -0.0000190 0.0000195 -1.0000000
vn 0.0000053 -0.0000192 -1.0000000
vn -0.0000122 0.0000107 -1.0000000
vn 0.0000319 0.0000302 -1.0000000
vn 0.0000151 -0.0000103 -1.0000000
vn 0.0000035 -0.0000249 -1.0000000
vn 0.0000079 0.0000011 -1.0000000
vn 0.0000035 -0.0000344 -1.0000000
vn 0.0000247 0.0000090 -1.0000000
vn -0.0000238 -0.0000379 -1.0000000
vn 0.0000141 0.0000111 -1.0000000
vn -0.0000019 0.0000210 -1.0000000
vn 0.0000184 -0.0000240 -1.0000000
vn -0.0000035 0.0000249 -1.0000000
vn 0.0000136 -0.0000110 -1.0000000
vn 0.0000173 -0.0000518 -1.0000000
vn 0.0000050 0.0000090 -1.0000000
vn 0.0000235 0.0000265 -1.0000000
vn 0.0000158 0.0000351 -1.0000000
vn -0.0000060 -0.0000096 -1.0000000
vn -0.0000282 -0.0000130 -1.0000000
vn 0.0000080 0.0000029 -1.0000000
vn 0.0000128 -0.0000044 -1.0000000
vn -0.0000080 -0.0000311 -1.0000000
vn 0.0000119 -0.0000155 -1.0000000
vn 0.0000136 -0.0000042 -1.0000000
vn 0.0000029 0.0000159 -1.0000000
vn 0.0000108 -0.0000023 -1.0000000
vn -0.0000023 -0.0000318 -1.0000000
vn -0.0000024 -0.0000191 -1.0000000
vn -0.0000181 0.0000150 -1.0000000
vn 0.0000082 0.0000166 -1.0000000
vn 0.0000178 -0.0000129 -1.0000000
vn -0.0000302 0.0000212 -1.0000000
vn -0.0000087 -0.0000268 -1.0000000
vn -0.0000158 -0.0000165 -1.0000000
vn -0.0000122 0.0000161 -1.0000000
vn -0.0000245 0.0000097 -1.0000000
vn 0.0000002 -0.0000073 -1.0000000
vn -0.0000183 -0.0000071 -1.0000000
vn -0.0000111 0.0000008 -1.0000000
vn 0.0000024 0.0000191 -1.0000000
vn 0.0000054 -0.0000228 -1.0000000
vn 0.0000220 -0.0000135 -1.0000000
vn -0.0000069 0.0000201 -1.0000000
vn -0.0000131 0.0000000 -1.0000000
vn -0.0000194 0.0000221 -1.0000000
vn 0.0000085 -0.0000200 -1.0000000
vn 0.0000050 -0.0000125 -1.0000000
vn -0.0000254 -0.0000474 -1.0000000
vn 0.0000039 -0.0000255 -1.0000000
vn 0.0000059 -0.0000413 -1.0000000
vn 0.0000240 -0.0000379 -1.0000000
vn 0.0000169 0.0000012 -1.0000000
vn -0.0000022 -0.0000055 -1.0000000
vn -0.0000105 0.0000151 -1.0000000
vn -0.0000035 -0.0000043 -1.0000000
vn 0.0000099 -0.0000144 -1.0000000
vn -0.0000097 -0.0000189 -1.0000000
vn 0.0000043 0.0000128 -1.0000000
vn -0.0000103 0.0000040 -1.0000000
vn 0.0000331 0.0000013 -1.0000000
vn -0.0000004 -0.0000181 -1.0000000
vn 0.0000163 0.0000039 -1.0000000
vn 0.0000180 -0.0000060 -1.0000000
vn 0.0000407 0.0000214 -1.0000000
vn -0.0000126 0.0000185 -1.0000000
vn 0.0000147 -0.0000398 -1.0000000
vn -0.0000338 0.0000383 -1.0000000
vn -0.0000051 -0.0000215 -1.0000000
vn 0.0000172 0.0000149 -1.0000000
vn 0.0000102 -0.0000130 -1.0000000
f 1/1/1 2/2/2 3/3/3
f 3/4/3 4/5/4 1/6/1
f 5/7/5 6/8/6 7/9/7
f 7/10/7 8/11/8 5/12/5
f 9/13/9 10/14/10 11/15/11
f 12/16/12 10/17/10 9/18/9
f 12/19/12 13/20/13 10/21/10
f 14/22/14 15/23/15 16/24/16
f 17/25/17 18/26/18 19/27/19
f 20/28/20 18/29/18 17/30/17
f 21/31/21 22/32/22 23/33/23
f 21/34/21 24/35/24 22/36/22
f 25/37/25 24/38/24 21/39/21
f 25/40/25 26/41/26 24/42/24
f 27/43/27 26/44/26 25/45/25
f 27/46/27 28/47/28 26/48/26
f 29/49/29 28/50/28 27/51/27
f 29/52/29 30/53/30 28/54/28
f 31/55/31 30/56/30 29/57/29
f 23/58/23 22/59/22 32/60/32
f 33/61/33 34/62/34 35/63/35
f 36/64/36 37/65/37 38/66/38
f 38/67/38 39/68/39 36/69/36
f 40/70/40 41/71/41 42/72/42
f 42/73/42 43/74/43 40/75/40
f 44/76/44 45/77/45 46/78/46
f 46/79/46 47/80/47 44/81/44
f 35/82/35 48/83/48 33/84/33
f 49/85/49 50/86/50 51/87/51
f 52/88/52 53/89/53 49/90/54
f 54/91/55 55/92/56 56/93/57
f 56/94/57 57/95/58 54/96/55
f 58/97/59 59/98/60 60/99/61
f 60/100/61 61/101/62 58/102/59
f 62/103/63 63/104/64 64/105/65
f 64/106/65 65/107/66 62/108/63
f 66/109/67 67/110/68 68/111/69
f 68/112/69 69/113/70 66/114/67
f 70/115/71 66/116/67 69/117/70
f 69/118/70 71/119/72 70/120/71
f 72/121/73 70/122/71 71/123/72
f 71/124/72 73/125/74 72/126/73
f 74/127/75 75/128/76 76/129/77
f 76/130/77 77/131/78 74/132/75
f 78/133/79 79/134/80 80/135/81
f 80/136/81 81/137/82 78/138/79
f 82/139/83 78/140/79 81/141/82
f 81/142/82 83/143/84 82/144/83
f 84/145/85 85/146/86 86/147/87
f 87/148/88 88/149/89 89/150/90
f 90/151/91 91/152/92 92/153/93
f 92/154/93 93/155/94 90/156/91
f 94/157/95 95/158/96 96/159/97
f 97/160/98 98/161/99 99/162/100
f 99/163/100 100/164/101 97/165/98
f 101/166/102 102/167/103 103/168/104
f 103/169/104 104/170/105 101/171/102
f 105/172/106 106/173/107 107/174/108
f 107/175/108 108/176/109 105/177/106
f 109/178/110 110/179/111 111/180/112
f 111/181/112 112/182/113 109/183/110
f 96/184/97 113/185/114 94/186/95
f 114/187/115 115/188/116 116/189/117
f 116/190/117 117/191/118 114/192/115
f 118/193/119 114/194/115 117/195/118
f 117/196/118 119/197/120 118/198/119
f 120/199/121 121/200/122 122/201/123
f 122/202/123 123/203/124 120/204/121
f 124/205/125 125/206/126 126/207/127
f 127/208/128 128/209/129 129/210/130
f 126/211/127 130/212/131 124/213/125
f 127/214/132 131/215/133 132/216/134
f 133/217/135 134/218/136 135/219/137
f 136/220/138 137/221/139 138/222/140
f 138/223/140 139/224/141 136/225/138
f 140/226/142 141/227/143 142/228/144
f 142/229/144 143/230/145 140/231/142
f 144/232/146 145/233/147 146/234/148
f 146/235/148 147/236/149 144/237/146
f 148/238/150 149/239/151 150/240/152
f 150/241/152 151/242/153 148/243/150
f 152/244/154 153/245/155 154/246/156
f 154/247/156 155/248/157 152/249/154
f 156/250/158 157/251/159 158/252/160
f 158/253/160 159/254/161 156/255/158
f 156/256/158 159/257/161 160/258/162
f 161/259/163 162/260/164 163/261/165
f 164/262/166 165/263/167 166/264/168
f 166/265/168 167/266/169 164/267/166
f 168/268/170 169/269/171 170/270/172
f 170/271/172 171/272/173 168/273/170
f 172/274/174 173/275/175 174/276/176
f 175/277/177 176/278/178 177/279/179
f 177/280/179 176/281/178 178/282/180
f 179/283/181 180/284/182 181/285/183
f 181/286/183 180/287/182 182/288/184
f 183/289/185 184/290/186 185/291/187
f 185/292/187 184/293/186 186/294/188
f 187/295/189 188/296/190 189/297/191
f 189/298/191 188/299/190 190/300/192
f 191/301/193 192/302/194 193/303/195
f 193/304/195 192/305/194 194/306/196
f 195/307/197 196/308/198 197/309/199
f 198/310/200 199/311/201 200/312/202
f 200/313/202 199/314/201 201/315/203
f 202/316/204 203/317/205 204/318/206
f 204/319/206 203/320/205 205/321/207
f 206/322/208 207/323/209 208/324/210
f 208/325/210 207/326/209 209/327/211
f 210/328/212 211/329/213 212/330/214
f 212/331/214 211/332/213 213/333/215
f 214/334/216 215/335/217 216/336/218
f 217/337/219 215/338/217 214/339/216
f 218/340/220 219/341/221 220/342/222
f 221/343/223 219/344/221 218/345/220
f 222/346/224 223/347/225 224/348/226
f 223/349/225 225/350/227 224/351/226
f 226/352/228 227/353/229 228/354/230
f 229/355/231 227/356/229 226/357/228
f 230/358/232 231/359/233 232/360/234
f 233/361/235 232/362/234 231/363/233
f 234/364/236 233/365/235 231/366/233
f 235/367/237 233/368/235 234/369/236
f 234/370/236 236/371/238 235/372/237
f 237/373/239 235/374/237 236/375/238
f 236/376/238 238/377/240 237/378/239
f 238/379/240 239/380/241 237/381/239
f 240/382/242 239/383/241 238/384/240
f 241/385/243 239/386/241 240/387/242
f 240/388/242 242/389/244 241/390/243
f 242/391/244 243/392/245 241/393/243
f 244/394/246 245/395/247 246/396/248
f 247/397/249 245/398/247 244/399/246
f 248/400/250 249/401/251 250/402/252
f 249/403/251 251/404/253 250/405/252
f 252/406/254 253/407/255 254/408/256
f 255/409/257 253/410/255 252/411/254
f 256/412/258 255/413/257 252/414/254
f 257/415/259 255/416/257 256/417/258
f 258/418/260 257/419/259 256/420/258
f 259/421/261 257/422/259 258/423/260
f 260/424/262 259/425/261 258/426/260
f 261/427/263 259/428/261 260/429/262
f 262/430/264 261/431/263 260/432/262
f 263/433/265 261/434/263 262/435/264
f 264/436/266 265/437/267 266/438/268
f 267/439/269 265/440/267 264/441/266
f 268/442/270 267/443/269 264/444/266
f 269/445/271 267/446/269 268/447/270
f 254/448/256 269/449/271 268/450/270
f 253/451/255 269/452/271 254/453/256
f 270/454/272 271/455/273 272/456/274
f 272/457/274 271/458/273 273/459/275
f 272/460/274 273/461/275 274/462/276
f 274/463/276 273/464/275 275/465/277
f 274/466/276 275/467/277 276/468/278
f 276/469/278 275/470/277 277/471/279
f 276/472/278 277/473/279 278/474/280
f 278/475/280 277/476/279 279/477/281
f 280/478/282 281/479/283 282/480/284
f 282/481/284 281/482/283 283/483/285
f 282/484/284 283/485/285 284/486/286
f 284/487/286 283/488/285 285/489/287
f 284/490/286 285/491/287 286/492/288
f 286/493/288 285/494/287 287/495/289
f 286/496/288 287/497/289 288/498/290
f 288/499/290 287/500/289 289/501/291
f 288/502/290 289/503/291 290/504/292
f 290/505/292 289/506/291 291/507/293
f 290/508/292 291/509/293 270/510/272
f 270/511/272 291/512/293 271/513/273
f 292/514/294 293/515/295 294/516/296
f 294/517/296 295/518/297 292/519/294
f 296/520/298 295/521/297 294/522/296
f 294/523/296 297/524/299 296/525/298
f 298/526/300 299/527/301 300/528/302
f 300/529/302 301/530/303 298/531/300
f 302/532/304 298/533/300 301/534/303
f 301/535/303 303/536/305 302/537/304
f 304/538/306 302/539/304 303/540/305
f 303/541/305 305/542/307 304/543/306
f 292/544/294 304/545/306 305/546/307
f 305/547/307 293/548/295 292/549/294
f 306/550/308 307/551/309 308/552/310
f 308/553/310 309/554/311 306/555/308
f 310/556/312 309/557/311 308/558/310
f 308/559/310 311/560/313 310/561/312
f 312/562/314 310/563/312 311/564/313
f 311/565/313 313/566/315 312/567/314
f 314/568/316 315/569/317 316/570/318
f 316/571/318 317/572/319 314/573/316
f 318/574/320 314/575/316 317/576/319
f 317/577/319 319/578/321 318/579/320
f 306/580/308 318/581/320 319/582/321
f 319/583/321 307/584/309 306/585/308
