# Pieza completa de un material COLLADA para Raylib
o Freezeezy_Peak_material_0012-material
v -0.3417131 -1.0968126 1.1874032
v -0.3116051 -1.1655548 1.1130656
v -0.4400306 -1.5361770 1.2119159
v -0.4400306 -1.5361770 0.9987615
v -0.6990132 -1.4666354 1.2119159
v -0.8364978 -1.4298663 0.9987615
v -0.7752159 -1.4064193 1.2119159
v -0.7040756 -1.5479005 0.9987615
v -0.5713870 -1.5473676 1.2119159
v -0.5490058 -1.6139784 0.9987615
v -0.4400306 -1.5361770 1.2119159
v -0.5490058 -1.6139784 0.9987615
v -0.5713870 -1.5473676 1.2119159
v -0.4400306 -1.5361770 0.9987615
v -0.8737998 -1.1458381 0.9987615
v -0.9742488 -1.0541817 0.9987615
v -0.9742488 -1.0541817 1.2119159
v -0.8364978 -1.4298663 0.9987615
v -0.8250407 -1.3267528 0.9987615
v -0.7752159 -1.4064193 1.2119159
v -0.7714857 -1.3171609 1.2119159
v -0.8250407 -1.3267528 0.9987615
v -0.8737998 -1.1458381 0.9987615
v -0.7714857 -1.3171609 1.2119159
v -0.8205112 -1.1365126 1.2119159
v -0.8205112 -1.1365126 1.2119159
v -0.8266394 1.0986777 1.1788770
v -1.4927468 1.0986777 1.1788770
v -1.4927468 1.7647851 1.1788770
v -0.8266394 1.7647851 1.1788770
v -0.6006957 0.2090245 1.1788770
v -1.2881186 0.2090245 1.1788770
v -1.2881186 0.9521340 1.1788770
v -0.6006957 0.9521340 1.1788770
v -1.2881186 -0.5340850 1.1788770
v -1.9752751 -0.5340850 1.1788770
v -1.9752751 0.2090245 1.1788770
v -1.2881186 0.2090245 1.1788770
v -0.6006957 -0.5340850 1.1788770
v -1.2881186 -0.5340850 1.1788770
v -1.2881186 0.2090245 1.1788770
v -0.6006957 0.2090245 1.1788770
v 0.7736172 -1.2769280 1.1788770
v 0.0864607 -1.2769280 1.1788770
v 0.0864607 -0.5340850 1.1788770
v 0.7736172 -0.5340850 1.1788770
v 0.7736172 -0.5340850 1.1788770
v 0.0864607 -0.5340850 1.1788770
v 0.0864607 0.2090245 1.1788770
v 0.7736172 0.2090245 1.1788770
v 0.0864607 -1.6358267 1.1788770
v -0.6006957 -1.6358267 1.1788770
v -0.6006957 -0.5340850 1.1788770
v 0.0864607 -0.5340850 1.1788770
v 0.0864607 -0.5340850 1.1788770
v -0.6006957 -0.5340850 1.1788770
v -0.6006957 0.2090245 1.1788770
v 0.0864607 0.2090245 1.1788770
v -0.6006957 -1.6358267 1.1788770
v -1.2881186 -1.6358267 1.1788770
v -1.2881186 -0.5340850 1.1788770
v -0.6006957 -0.5340850 1.1788770
v 0.0864607 0.2090245 1.1788770
v -0.6006957 0.2090245 1.1788770
v -0.6006957 0.9521340 1.1788770
v 0.0864607 0.9521340 1.1788770
v 0.7736172 0.2090245 1.1788770
v 0.0864607 0.2090245 1.1788770
v 0.0864607 0.9521340 1.1788770
v 0.7736172 0.9521340 1.1788770
v 1.4677012 -1.3259535 1.0555139
v 1.4677012 -0.7011447 1.0555139
v 1.9598214 -0.7011447 1.0555139
v 1.9598214 -0.7011447 1.0555139
v 1.9598214 -1.3259535 1.0555139
v 1.4677012 -1.3259535 1.0555139
v 1.4677012 -0.7011447 1.0555139
v 1.4677012 -0.2468594 1.0555139
v 1.9598214 -0.2468594 1.0555139
v 1.9598214 -0.2468594 1.0555139
v 1.9598214 -0.7011447 1.0555139
v 1.4677012 -0.7011447 1.0555139
v 1.1831401 -1.3259535 1.0555139
v 1.1831401 -0.7011447 1.0555139
v 1.4677012 -0.7011447 1.0555139
v 1.4677012 -1.3259535 1.0555139
v 1.1831401 -0.7011447 1.0555139
v 0.9052400 -0.2468594 1.0555139
v 1.4677012 -0.2468594 1.0555139
v 1.4677012 -0.2468594 1.0555139
v 1.4677012 -0.7011447 1.0555139
v 1.1831401 -0.7011447 1.0555139
v 1.4677012 -0.2468594 1.0555139
v 1.4677012 0.5524695 1.0555139
v 1.9598214 0.5524695 1.0555139
v 1.9598214 0.5524695 1.0555139
v 1.9598214 -0.2468594 1.0555139
v 1.4677012 -0.2468594 1.0555139
v 0.9052400 -0.2468594 1.0555139
v 0.9766468 0.5047762 1.0555139
v 1.4677012 0.5524695 1.0555139
v 1.4677012 0.5524695 1.0555139
v 1.4677012 -0.2468594 1.0555139
v 0.9052400 -0.2468594 1.0555139
vt 2.0590820 1.0412598
vt 1.7341310 1.4377441
vt 0.0895996 1.2670898
vt 1.7341310 1.4377441
vt 0.1689453 1.7324219
vt 0.0895996 1.2670898
vt 0.5322266 0.8601074
vt 0.2700195 1.6125488
vt 0.0766601 1.0808105
vt 0.8999023 1.3315430
vt 0.2700195 1.6125488
vt 0.5322266 0.8601074
vt 1.2292480 0.4934082
vt 0.8999023 1.3315430
vt 0.5322266 0.8601074
vt 1.7622070 0.8916016
vt 0.8999023 1.3315430
vt 1.2292480 0.4934082
vt 0.7668457 1.0681152
vt 0.2172852 1.6269531
vt 0.2507324 1.1311035
vt 0.8259277 1.5527344
vt 0.2172852 1.6269531
vt 0.7668457 1.0681152
vt 0.6989746 1.3850098
vt 0.2666016 1.7956543
vt 0.1252441 1.1254883
vt 0.5429688 1.7153320
vt 0.0310059 1.7148438
vt 0.4987793 1.1149902
vt 0.4987793 1.1149902
vt 0.0310059 1.7148438
vt 0.0078125 1.1074219
vt -1.0827640 0.5578613
vt -0.2590332 0.3635254
vt -0.9792480 1.0446777
vt -0.9792480 1.0446777
vt -0.2590332 0.3635254
vt -0.1555176 0.8505859
vt 0.6989746 1.3850098
vt 0.1252441 1.1254883
vt 0.6982422 1.0292969
vt 1.0646970 -0.3918460
vt -0.9184570 0.9760742
vt -2.2863770 -1.0073240
vt -2.2863770 -1.0073240
vt -0.3029785 -2.3752440
vt 1.0646970 -0.3918460
vt 3.5642090 1.7932129
vt 1.5178220 3.2043460
vt -0.0075684 0.9924316
vt -0.0075684 0.9924316
vt 2.0383300 -0.4189450
vt 3.5642090 1.7932129
vt 3.0437010 5.4167480
vt 0.9975586 6.8281250
vt -0.5280762 4.6157230
vt -0.5280762 4.6157230
vt 1.5178220 3.2043460
vt 3.0437010 5.4167480
vt 5.0900880 4.0056150
vt 3.0437010 5.4167480
vt 1.5178220 3.2043460
vt 1.5178220 3.2043460
vt 3.5642090 1.7932129
vt 5.0900880 4.0056150
vt 7.7084960 3.3952640
vt 5.6623540 4.8066410
vt 4.1364750 2.5942380
vt 4.1364750 2.5942380
vt 6.1826170 1.1828613
vt 7.7084960 3.3952640
vt 7.1826170 1.1828613
vt 5.1364750 2.5942380
vt 3.6105960 0.3820801
vt 3.6105960 0.3820801
vt 5.6567380 -1.0292970
vt 7.1826170 1.1828613
vt 7.6623540 4.8066410
vt 5.6159670 6.2177730
vt 4.0900880 4.0056150
vt 4.0900880 4.0056150
vt 6.1364750 2.5942380
vt 7.6623540 4.8066410
vt 7.1364750 2.5942380
vt 5.0900880 4.0056150
vt 3.5642090 1.7932129
vt 3.5642090 1.7932129
vt 5.6105960 0.3820801
vt 7.1364750 2.5942380
vt 6.6159670 6.2177730
vt 4.5695800 7.6291500
vt 3.0437010 5.4167480
vt 3.0437010 5.4167480
vt 5.0900880 4.0056150
vt 6.6159670 6.2177730
vt 5.6105960 0.3820801
vt 3.5642090 1.7932129
vt 2.0383300 -0.4189450
vt 2.0383300 -0.4189450
vt 4.0847170 -1.8303220
vt 5.6105960 0.3820801
vt 7.6567380 -1.0292970
vt 5.6105960 0.3820801
vt 4.0847170 -1.8303220
vt 4.0847170 -1.8303220
vt 6.1308590 -3.2416990
vt 7.6567380 -1.0292970
vt 7.8750000 2.1159670
vt 6.5920410 0.2561035
vt 7.8728030 -0.6271970
vt 5.8728030 -0.6271970
vt 7.1557620 1.2326660
vt 5.8750000 2.1159670
vt 7.5920410 0.2561035
vt 6.6589360 -1.0966800
vt 7.9396970 -1.9802250
vt 6.9396970 -1.9802250
vt 7.8728030 -0.6271970
vt 6.5920410 0.2561035
vt 7.0283200 2.6999510
vt 5.7453610 0.8400879
vt 6.5920410 0.2561035
vt 6.5920410 0.2561035
vt 7.8750000 2.1159670
vt 7.0283200 2.6999510
vt 7.7453610 0.8400879
vt 5.9846190 0.0581055
vt 7.6589360 -1.0966800
vt 6.6589360 -1.0966800
vt 7.5920410 0.2561035
vt 6.7453610 0.8400879
vt 7.6589360 -1.0966800
vt 6.0173340 -3.4768070
vt 7.2983400 -4.3601070
vt 6.2983400 -4.3601070
vt 7.9396970 -1.9802250
vt 6.6589360 -1.0966800
vt 6.9846190 0.0581055
vt 5.6533200 -2.3269040
vt 7.0173340 -3.4768070
vt 6.0173340 -3.4768070
vt 7.6589360 -1.0966800
vt 5.9846190 0.0581055
vn -0.0000262 -0.0000106 -1.0000000
vn 0.0000211 0.0000457 -1.0000000
vn -0.0000129 0.0000042 -1.0000000
vn 0.0000095 0.0000273 -1.0000000
vn 0.0000286 -0.0000074 -1.0000000
vn 0.0000444 -0.0000094 -1.0000000
vn -0.0000146 0.0000071 -1.0000000
vn -0.0000195 0.0000329 -1.0000000
vn -0.0000164 0.0000154 -1.0000000
vn -0.0000260 0.0000058 -1.0000000
vn 0.0000016 -0.0000056 -1.0000000
vn 0.0000082 0.0000245 -1.0000000
vn 0.0000251 0.0000100 -1.0000000
vn -0.0000390 -0.0000279 -1.0000000
vn 0.0000222 -0.0000257 -1.0000000
vn 0.0000353 -0.0000322 -1.0000000
vn 0.0000099 0.0000151 -1.0000000
vn -0.0000002 -0.0000560 -1.0000000
vn 0.0000017 -0.0000395 -1.0000000
vn 0.0000130 -0.0000040 -1.0000000
vn 0.0000203 0.0000612 -1.0000000
vn 0.0000205 -0.0000210 -1.0000000
vn 0.0000020 0.0000029 -1.0000000
vn 0.0000172 -0.0000328 -1.0000000
vn 0.0000107 -0.0000171 -1.0000000
vn 0.0000073 -0.0000148 -1.0000000
vn 0.0000000 0.0000000 -1.0000000
vn 0.0000000 0.0000000 -1.0000000
vn 0.0000000 0.0000000 -1.0000000
vn 0.0000000 0.0000000 -1.0000000
vn 0.0000000 0.0000000 -1.0000000
vn 0.0000000 0.0000000 -1.0000000
vn 0.0000000 0.0000000 -1.0000000
vn 0.0000000 0.0000000 -1.0000000
vn 0.0000000 0.0000000 -1.0000000
vn 0.0000000 0.0000000 -1.0000000
vn 0.0000000 0.0000000 -1.0000000
vn 0.0000000 0.0000000 -1.0000000
vn 0.0000000 0.0000000 -1.0000000
vn 0.0000000 0.0000000 -1.0000000
vn 0.0000000 0.0000000 -1.0000000
vn 0.0000000 0.0000000 -1.0000000
vn 0.0000000 0.0000000 -1.0000000
f 1/1/1 2/2/2 3/3/3
f 2/4/2 4/5/4 3/6/3
f 5/7/5 6/8/6 7/9/7
f 8/10/8 6/11/6 5/12/5
f 9/13/9 8/14/8 5/15/5
f 10/16/10 8/17/8 9/18/9
f 11/19/11 12/20/12 13/21/13
f 14/22/14 12/23/12 11/24/11
f 15/25/15 16/26/16 17/27/17
f 18/28/18 19/29/19 20/30/20
f 20/31/20 19/32/19 21/33/21
f 22/34/22 23/35/23 24/36/24
f 24/37/24 23/38/23 25/39/25
f 15/40/15 17/41/17 26/42/26
f 27/43/27 28/44/27 29/45/27
f 29/46/27 30/47/27 27/48/27
f 31/49/28 32/50/28 33/51/28
f 33/52/28 34/53/28 31/54/28
f 35/55/29 36/56/29 37/57/29
f 37/58/29 38/59/29 35/60/29
f 39/61/30 40/62/30 41/63/30
f 41/64/30 42/65/30 39/66/30
f 43/67/31 44/68/31 45/69/31
f 45/70/31 46/71/31 43/72/31
f 47/73/32 48/74/32 49/75/32
f 49/76/32 50/77/32 47/78/32
f 51/79/33 52/80/33 53/81/33
f 53/82/33 54/83/33 51/84/33
f 55/85/34 56/86/34 57/87/34
f 57/88/34 58/89/34 55/90/34
f 59/91/35 60/92/35 61/93/35
f 61/94/35 62/95/35 59/96/35
f 63/97/36 64/98/36 65/99/36
f 65/100/36 66/101/36 63/102/36
f 67/103/37 68/104/37 69/105/37
f 69/106/37 70/107/37 67/108/37
f 71/109/38 72/110/38 73/111/38
f 74/112/38 75/113/38 76/114/38
f 77/115/39 78/116/39 79/117/39
f 80/118/39 81/119/39 82/120/39
f 83/121/40 84/122/40 85/123/40
f 85/124/40 86/125/40 83/126/40
f 87/127/41 88/128/41 89/129/41
f 90/130/41 91/131/41 92/132/41
f 93/133/42 94/134/42 95/135/42
f 96/136/42 97/137/42 98/138/42
f 99/139/43 100/140/43 101/141/43
f 102/142/43 103/143/43 104/144/43
