# Pieza completa de un material COLLADA para Raylib
o Freezeezy_Peak_material_0035-material
v -1.0302018 0.8468890 1.1146642
v -1.0416589 0.8988454 1.1146642
v -0.9897025 0.9103025 1.1146642
v -0.9782454 0.8583461 1.1146642
v -1.0986777 1.1485025 1.1146642
v -1.1101347 1.2001924 1.1146642
v -1.0584448 1.2119159 1.1146642
v -1.0467213 1.1599595 1.1146642
v -1.0648394 0.9974293 1.1146642
v -1.0762964 1.0491193 1.1146642
v -1.0246065 1.0608427 1.1146642
v -1.0131495 1.0088864 1.1146642
vt 0.9838867 1.9843750
vt -0.0151367 1.9843750
vt -0.0151367 0.9848633
vt -0.0151367 0.9848633
vt 0.9843750 0.9848633
vt 0.9838867 1.9843750
vt -0.0156250 1.9843750
vt -0.0151367 0.9848633
vt 0.9843750 0.9848633
vt 0.9843750 0.9848633
vt 0.9843750 1.9843750
vt -0.0156250 1.9843750
vt 1.0078130 0.9609375
vt -0.0151367 0.9843750
vt -0.0390625 2.0078130
vt -0.0390625 2.0078130
vt 0.9843750 1.9843750
vt 1.0078130 0.9609375
vn 0.0000000 0.0000000 -1.0000000
f 1/1/1 2/2/1 3/3/1
f 3/4/1 4/5/1 1/6/1
f 5/7/1 6/8/1 7/9/1
f 7/10/1 8/11/1 5/12/1
f 9/13/1 10/14/1 11/15/1
f 11/16/1 12/17/1 9/18/1
