# Pieza completa de un material COLLADA para Raylib
o Freezeezy_Peak_material_0019-material
v -0.4839937 -0.3968668 -0.2897567
v -0.6670400 0.0424977 -0.1453446
v -0.6558494 0.0515567 -0.0859279
v -0.4570829 -0.4251098 -0.2425963
v -0.6670400 0.0424977 -0.1453446
v -0.7975971 -0.0001332 -0.1083091
v -0.6558494 0.0515567 -0.0859279
v -0.7672226 0.0059950 -0.1613312
v -0.5990971 -0.4767997 -0.2649775
v -0.7975971 -0.0001332 -0.1083091
v -0.7672226 0.0059950 -0.1613312
v -0.5841762 -0.4336360 -0.3057433
v -0.4570829 -0.4251098 -0.2425963
v -0.5990971 -0.4767997 -0.2649775
v -0.5841762 -0.4336360 -0.3057433
v -0.4839937 -0.3968668 -0.2897567
vt 1.7324220 1.9091797
vt -2.1423340 1.9091797
vt -2.1254880 0.9697266
vt -2.1254880 0.9697266
vt 2.0776370 0.9687500
vt 1.7324220 1.9091797
vt 0.9948730 1.9121094
vt -0.0075684 0.9697266
vt 0.9919434 0.9687500
vt 0.2878418 1.9121094
vt -0.0075684 0.9697266
vt 0.9948730 1.9121094
vt -0.0075684 0.9697266
vt 4.4370120 0.9687500
vt 4.2321780 1.9433594
vt 4.2321780 1.9433594
vt 0.1342773 1.9433594
vt -0.0075684 0.9697266
vt -0.0078125 0.9687500
vt 0.9921875 0.9687500
vt 0.6853027 1.9375000
vt 0.6853027 1.9375000
vt -0.0212402 1.9375000
vt -0.0078125 0.9687500
vn 0.0000161 -0.0000144 -1.0000000
vn 0.0000109 -0.0000532 -1.0000000
vn 0.0000218 -0.0000444 -1.0000000
vn 0.0000007 -0.0000174 -1.0000000
vn 0.0000426 -0.0000057 -1.0000000
vn 0.0000198 0.0000103 -1.0000000
vn 0.0000704 0.0000284 -1.0000000
vn -0.0000407 -0.0000368 -1.0000000
vn -0.0000243 0.0000547 -1.0000000
vn 0.0016016 -0.0073532 -0.9999717
vn -0.0000192 0.0000002 -1.0000000
vn 0.0000098 -0.0000338 -1.0000000
vn -0.0000352 -0.0000392 -1.0000000
vn 0.0000190 0.0000106 -1.0000000
vn 0.0000119 -0.0000019 -1.0000000
vn 0.0000044 0.0000002 -1.0000000
f 1/1/1 2/2/2 3/3/3
f 3/4/3 4/5/4 1/6/1
f 5/7/5 6/8/6 7/9/7
f 8/10/8 6/11/6 5/12/5
f 9/13/9 10/14/10 11/15/11
f 11/16/11 12/17/12 9/18/9
f 13/19/13 14/20/14 15/21/15
f 15/22/15 16/23/16 13/24/13
