# Pieza completa de un material COLLADA para Raylib
o Freezeezy_Peak_material_0020-material
v 0.0249124 -0.0046628 -0.7315192
v -0.0241131 0.0089258 -0.7525682
v -0.0672769 0.0544876 -0.7315192
v 0.0302413 0.0009326 -0.7208615
v -0.0699413 0.0651453 -0.7208615
v 0.0470272 0.0003997 -0.6811615
v -0.0832634 0.0837963 -0.6811615
v 0.0299748 0.0241131 -0.6305373
v -0.0622144 0.0829970 -0.6305373
v -0.0153205 0.0582178 -0.6097548
v -0.1179010 0.0635467 -0.7315192
v -0.1743869 0.0358366 -0.7525682
v -0.2250111 0.0400997 -0.7315192
v -0.1117728 0.0726057 -0.7208615
v -0.2282084 0.0472936 -0.7208615
v -0.0928554 0.0856614 -0.6811615
v -0.2439286 0.0526225 -0.6811615
v -0.1128386 0.0923225 -0.6305373
v -0.2196822 0.0688755 -0.6305373
v -0.1653279 0.0853950 -0.6097548
vt 0.8984375 2.0830080
vt 0.5493164 2.1999510
vt 0.1721191 1.9589844
vt 0.1721191 1.9589844
vt 0.9233398 1.9963379
vt 0.8984375 2.0830080
vt 0.1333008 1.8625488
vt 0.9233398 1.9963379
vt 0.1721191 1.9589844
vt 1.0651860 1.7165527
vt 0.9233398 1.9963379
vt 0.1333008 1.8625488
vt 0.1333008 1.8625488
vt 0.0383301 1.5415039
vt 1.0651860 1.7165527
vt 0.9448242 1.3095703
vt 1.0651860 1.7165527
vt 0.0383301 1.5415039
vt 0.0383301 1.5415039
vt 0.2185059 1.1857910
vt 0.9448242 1.3095703
vt 0.5939941 1.0898438
vt 0.9448242 1.3095703
vt 0.2185059 1.1857910
vt 0.8063965 1.9592285
vt 0.4038086 2.1933590
vt 0.0444336 2.0766600
vt 0.0444336 2.0766600
vt 0.8505859 1.8647461
vt 0.8063965 1.9592285
vt 0.0217285 1.9914551
vt 0.8505859 1.8647461
vt 0.0444336 2.0766600
vt 0.9624023 1.5500488
vt 0.8505859 1.8647461
vt 0.0217285 1.9914551
vt 0.0217285 1.9914551
vt -0.1149902 1.7160645
vt 0.9624023 1.5500488
vt 0.7883301 1.1999512
vt 0.9624023 1.5500488
vt -0.1149902 1.7160645
vt -0.1149902 1.7160645
vt 0.0266113 1.3171387
vt 0.7883301 1.1999512
vt 0.4008789 1.1035156
vt 0.7883301 1.1999512
vt 0.0266113 1.3171387
vn 0.0000200 -0.0000287 -1.0000000
vn -0.0000408 0.0000054 -1.0000000
vn 0.0000367 0.0000018 -1.0000000
vn 0.0000052 0.0000106 -1.0000000
vn 0.0000205 -0.0000073 -1.0000000
vn 0.0000048 -0.0000251 -1.0000000
vn 0.0000161 0.0000059 -1.0000000
vn -0.0000151 0.0000351 -1.0000000
vn 0.0000288 0.0000036 -1.0000000
vn 0.0000267 0.0000077 -1.0000000
vn 0.0000014 0.0000248 -1.0000000
vn 0.0000328 0.0000099 -1.0000000
vn 0.0000083 0.0000170 -1.0000000
vn -0.0000191 -0.0000295 -1.0000000
vn 0.0000048 -0.0000114 -1.0000000
vn -0.0000511 -0.0000334 -1.0000000
vn -0.0000077 0.0000065 -1.0000000
vn 0.0000181 0.0000061 -1.0000000
vn 0.0000298 0.0000183 -1.0000000
vn -0.0000060 -0.0000194 -1.0000000
f 1/1/1 2/2/2 3/3/3
f 3/4/3 4/5/4 1/6/1
f 5/7/5 4/8/4 3/9/3
f 6/10/6 4/11/4 5/12/5
f 5/13/5 7/14/7 6/15/6
f 8/16/8 6/17/6 7/18/7
f 7/19/7 9/20/9 8/21/8
f 10/22/10 8/23/8 9/24/9
f 11/25/11 12/26/12 13/27/13
f 13/28/13 14/29/14 11/30/11
f 15/31/15 14/32/14 13/33/13
f 16/34/16 14/35/14 15/36/15
f 15/37/15 17/38/17 16/39/16
f 18/40/18 16/41/16 17/42/17
f 17/43/17 19/44/19 18/45/18
f 20/46/20 18/47/18 19/48/19
