# Pieza completa de un material COLLADA para Raylib
o material_0000_001-material
v -0.4538856 -1.7408052 0.7131347
v -0.2649775 -1.6928455 0.7267232
v -0.3624957 -1.8084818 0.7251246
v -0.3563675 -1.6249026 0.7149998
v -0.5410125 -1.6773918 0.7064736
v -0.3563675 -1.6249026 0.7149998
v -0.4538856 -1.7408052 0.7131347
v -0.4445601 -1.5630878 0.7059407
v -0.0393003 0.8111857 0.4600138
v -0.2348695 0.8823259 0.4189816
v -0.0347708 0.8935166 0.4189816
v -0.0347708 0.8935166 0.4189816
v -0.2655104 1.0072877 0.3251937
v -0.0163862 1.0211427 0.3251937
v -0.2348695 0.8823259 0.4189816
v -0.2202151 0.8010608 0.4600138
v -0.2348695 0.8823259 0.4189816
v -0.0393003 0.8111857 0.4600138
v -0.0496916 0.8106528 0.4752011
v -0.2276755 0.8828588 0.4341688
v -0.0451621 0.8929837 0.4341688
v -0.0451621 0.8929837 0.4341688
v -0.2583165 1.0078206 0.3406474
v -0.0267775 1.0206099 0.3406474
v -0.2276755 0.8828588 0.4341688
v -0.2132876 0.8015937 0.4752011
v -0.2276755 0.8828588 0.4341688
v -0.0496916 0.8106528 0.4752011
vt 0.2163085 1.2539063
vt 0.3911133 1.0244141
vt 0.3835449 1.2578125
vt 0.2241210 1.0205078
vt 0.3911133 1.0244141
vt 0.2163085 1.2539063
vt 0.0568848 1.2487792
vt 0.2241210 1.0205078
vt 0.2163085 1.2539063
vt 0.0644531 1.0151367
vt 0.2241210 1.0205078
vt 0.0568848 1.2487792
vt -0.0480957 1.1896973
vt 0.2836914 0.9450684
vt 0.1171875 1.3010254
vt 0.1171875 1.3010254
vt 0.6069336 1.0400391
vt 0.3959961 1.4914551
vt 0.2836914 0.9450684
vt 0.6069336 1.0400391
vt 0.1171875 1.3010254
vt 0.0959473 0.8811035
vt 0.2836914 0.9450684
vt -0.0480957 1.1896973
vt -0.0480957 1.1896973
vt 0.2836914 0.9450684
vt 0.1171875 1.3010254
vt 0.1171875 1.3010254
vt 0.6069336 1.0400391
vt 0.3959961 1.4914551
vt 0.2836914 0.9450684
vt 0.6069336 1.0400391
vt 0.1171875 1.3010254
vt 0.0959473 0.8811035
vt 0.2836914 0.9450684
vt -0.0480957 1.1896973
vn 0.0000159 -0.0000081 -1.0000000
vn -0.0000026 0.0000027 -1.0000000
vn -0.0000059 0.0000111 -1.0000000
vn -0.0000137 0.0000037 -1.0000000
vn -0.0000118 0.0000026 -1.0000000
vn 0.0000073 0.0000007 -1.0000000
vn -0.0000222 0.0000104 -1.0000000
vn -0.0000119 0.0000073 -1.0000000
vn -0.0000008 -0.0000213 -1.0000000
vn -0.0000111 -0.0000218 -1.0000000
vn -0.0000114 -0.0000219 -1.0000000
vn -0.0000071 -0.0000113 -1.0000000
vn 0.0000230 0.0000010 -1.0000000
vn -0.0000104 0.0000215 -1.0000000
vn 0.0000120 -0.0000026 -1.0000000
vn -0.0000032 0.0000151 -1.0000000
vn -0.0000329 0.0000135 -1.0000000
vn -0.0000250 0.0000140 -1.0000000
vn 0.0000080 -0.0000008 -1.0000000
vn -0.0000225 -0.0000025 -1.0000000
vn -0.0000056 -0.0000016 -1.0000000
vn 0.0000030 -0.0000193 -1.0000000
vn 0.0000012 0.0000134 -1.0000000
vn -0.0000361 -0.0000210 -1.0000000
vn -0.0000164 0.0000221 -1.0000000
vn 0.0000081 0.0000106 -1.0000000
vn 0.0000058 0.0000104 -1.0000000
vn -0.0000215 0.0000089 -1.0000000
f 1/1/1 2/2/2 3/3/3
f 4/4/4 2/5/2 1/6/1
f 5/7/5 6/8/6 7/9/7
f 8/10/8 6/11/6 5/12/5
f 9/13/9 10/14/10 11/15/11
f 12/16/12 13/17/13 14/18/14
f 15/19/15 13/20/13 12/21/12
f 16/22/16 17/23/17 18/24/18
f 19/25/19 20/26/20 21/27/21
f 22/28/22 23/29/23 24/30/24
f 25/31/25 23/32/23 22/33/22
f 26/34/26 27/35/27 28/36/28
