# Pieza completa de un material COLLADA para Raylib
o material_0003-material
v -1.2777273 -1.0904179 0.6174816
v -1.4866186 -1.1796763 0.2505896
v -1.3795086 -1.0688360 0.2540534
v -1.4005576 -1.1796763 0.6126856
v 1.9667489 -0.1458775 0.7717521
v 1.9992549 0.2439286 0.4357675
v 2.0258992 -0.2127547 0.3169339
v 1.9379731 0.2588494 0.7459071
v 1.7586569 1.0464548 0.7405783
v 1.4637045 1.1708837 0.4333695
v 1.7980905 1.0648394 0.4333695
v 1.4106824 1.1223911 0.7387132
v 0.6779642 1.1138649 0.7293877
v 0.7416441 1.1093354 0.4155178
v 0.7309863 0.8817931 0.8253071
v 0.7680219 0.9241575 0.5316870
v 0.3611635 1.5812059 0.6513199
v 0.3550353 1.5889327 0.3321212
v 0.5679232 1.7069670 0.6414615
v 0.5679232 1.7069670 0.1085755
v -0.0201164 1.0086199 0.8522179
v 0.0075936 1.0499186 0.5538017
v 0.0955198 0.9801105 0.8506192
v 0.0891252 1.0296689 0.5452756
v 0.0414319 1.5300488 0.4331031
v -0.0267775 1.6145113 0.1562688
v 0.0816648 1.5417723 0.1562688
v -0.0611487 1.6046529 0.4141856
v -0.0611487 1.6046529 0.4141856
v -0.0227809 1.6829871 -0.0416983
v -0.0267775 1.6145113 0.1562688
v -0.0632802 1.6957764 0.2335373
v -0.2593822 2.5686436 -0.0480930
v -0.4970494 2.4972369 -0.3427789
v -0.2905561 2.6099423 -0.3454433
v -0.4469581 2.4735235 -0.0438299
v 0.5727192 2.3456308 -0.0470272
v 0.5825776 2.5137564 -0.3427789
v 0.6369320 2.3482953 -0.3427789
v 0.5356836 2.5044308 -0.0579513
v -0.2910890 1.3272857 0.4458923
v -0.2878916 1.0909508 0.4898554
v -0.3259930 1.3115656 0.1599990
v -0.2471259 1.0872206 0.7560320
v -0.7323185 1.7573247 0.8447575
v -0.6156165 1.8305965 0.4187152
v -0.6324024 1.5063354 0.7520353
v -0.5199635 1.5084670 0.4187152
v -1.5425717 2.0544086 0.7448414
v -1.8569744 1.8676321 0.4187152
v -1.6054522 2.1519268 0.4187152
v -1.7573247 1.8095475 0.7445749
v -1.6203730 -0.4986480 0.7165984
v -1.5193911 -0.7397790 0.4672078
v -1.6803227 -0.5556668 0.4917205
v -1.4343958 -0.6699709 0.8093206
v -1.3003750 -1.7503972 0.4043272
v -1.5601569 -1.9233187 0.0374352
v -1.3627227 -1.7341442 0.0147876
v -1.4615730 -1.9350422 0.4048601
v -1.3376770 -1.5447032 0.5961662
v -1.3909656 -1.6027878 0.2162185
v -1.4210737 -1.5447032 0.2505896
v -1.3083683 -1.6027878 0.5580648
v -1.4615730 -1.9350422 0.4048601
v -1.3696502 -2.2691617 0.0374352
v -1.5601569 -1.9233187 0.0374352
v -1.3195589 -2.2403858 0.4016628
v -0.8745991 -1.7639858 0.3904722
v -0.9907682 -1.6885824 0.0374352
v -0.8287709 -1.7485321 0.0374352
v -1.0499186 -1.7274831 0.4083239
v -0.0819312 -1.9830019 0.4325702
v 0.1807816 -2.0314945 0.1293581
v -0.0587507 -2.0426852 0.1293581
v 0.1466769 -1.9699462 0.4408299
vt -0.0151367 0.9848633
vt 0.9838867 1.9838867
vt -0.0156250 1.9838867
vt 0.9838867 0.9848633
vt 0.9838867 1.9838867
vt -0.0151367 0.9848633
vt -0.0151367 0.9843750
vt 0.9838867 1.9838867
vt -0.0156250 1.9838867
vt 0.9843750 0.9843750
vt 0.9838867 1.9838867
vt -0.0151367 0.9843750
vt -0.0151367 0.9843750
vt 0.9843750 1.9843750
vt -0.0156250 1.9843750
vt 0.9843750 0.9843750
vt 0.9843750 1.9843750
vt -0.0151367 0.9843750
vt 0.9838867 0.9843750
vt 0.9838867 1.9912109
vt -0.0151367 0.9843750
vt -0.0151367 0.9843750
vt 0.9838867 1.9912109
vt -0.0151367 1.9912109
vt 0.9843750 0.9843750
vt 0.9843750 1.9838867
vt -0.0156250 0.9843750
vt -0.0156250 0.9843750
vt 0.9843750 1.9838867
vt -0.0151367 1.9838867
vt 0.9843750 0.9848633
vt 0.9843750 1.9838867
vt -0.0156250 0.9848633
vt -0.0156250 0.9848633
vt 0.9843750 1.9838867
vt -0.0151367 1.9838867
vt -0.0151367 0.9843750
vt 0.9843750 1.9843750
vt -0.0151367 1.9843750
vt 0.9843750 0.9843750
vt 0.9843750 1.9843750
vt -0.0151367 0.9843750
vt -0.0151367 0.9843750
vt 0.9843750 1.9843750
vt -0.0156250 1.9843750
vt 0.9843750 0.9843750
vt 0.9843750 1.9843750
vt -0.0151367 0.9843750
vt -0.0151367 0.9843750
vt 0.9838867 1.9838867
vt -0.0151367 1.9838867
vt 0.9838867 0.9843750
vt 0.9838867 1.9838867
vt -0.0151367 0.9843750
vt -0.0156250 0.9848633
vt 0.9838867 1.9838867
vt -0.0156250 1.9838867
vt 0.9838867 0.9848633
vt 0.9838867 1.9838867
vt -0.0156250 0.9848633
vt -0.0151367 0.9843750
vt 0.9843750 1.9838867
vt -0.0151367 1.9838867
vt 0.9838867 0.9843750
vt 0.9843750 1.9838867
vt -0.0151367 0.9843750
vt 0.9838867 0.9843750
vt 0.9843750 1.9843750
vt -0.0156250 0.9843750
vt -0.0156250 0.9843750
vt 0.9843750 1.9843750
vt -0.0156250 1.9843750
vt -0.0151367 0.9848633
vt 0.9838867 1.9838867
vt -0.0156250 1.9838867
vt 0.9838867 0.9848633
vt 0.9838867 1.9838867
vt -0.0151367 0.9848633
vt -0.0151367 0.9843750
vt 0.9843750 1.9838867
vt -0.0151367 1.9838867
vt 0.9843750 0.9843750
vt 0.9843750 1.9838867
vt -0.0151367 0.9843750
vt -0.0151367 0.9848633
vt 0.9843750 1.9843750
vt -0.0151367 1.9843750
vt 0.9843750 0.9848633
vt 0.9843750 1.9843750
vt -0.0151367 0.9848633
vt -0.0156250 0.9843750
vt 0.9838867 1.9843750
vt -0.0156250 1.9843750
vt 0.9838867 0.9843750
vt 0.9838867 1.9843750
vt -0.0156250 0.9843750
vt -0.0156250 0.9848633
vt 0.9838867 1.9843750
vt -0.0156250 1.9843750
vt 0.9838867 0.9848633
vt 0.9838867 1.9843750
vt -0.0156250 0.9848633
vt -0.0151367 0.9843750
vt 0.9838867 1.9843750
vt -0.0156250 1.9843750
vt 0.9843750 0.9843750
vt 0.9838867 1.9843750
vt -0.0151367 0.9843750
vt -0.0156250 0.9843750
vt 0.9843750 1.9843750
vt -0.0156250 1.9843750
vt 0.9843750 0.9843750
vt 0.9843750 1.9843750
vt -0.0156250 0.9843750
vn -0.0000203 -0.0000390 -1.0000000
vn -0.0000026 0.0000177 -1.0000000
vn -0.0000399 -0.0000292 -1.0000000
vn 0.0000020 0.0000163 -1.0000000
vn -0.0000044 0.0000020 -1.0000000
vn -0.0000141 -0.0000150 -1.0000000
vn 0.0000016 0.0000311 -1.0000000
vn 0.0000139 -0.0000141 -1.0000000
vn 0.0000157 0.0000126 -1.0000000
vn 0.0000050 0.0000133 -1.0000000
vn 0.0000350 0.0000034 -1.0000000
vn -0.0000234 0.0000026 -1.0000000
vn 0.0000040 0.0000401 -1.0000000
vn -0.0000100 -0.0000343 -1.0000000
vn -0.0000169 0.0000139 -1.0000000
vn 0.0000213 0.0000049 -1.0000000
vn -0.0033044 -0.0019909 -0.9999926
vn 0.0000525 0.0000202 -1.0000000
vn -0.0000100 0.0000170 -1.0000000
vn -0.0000011 -0.0000006 -1.0000000
vn 0.0000583 -0.0000267 -1.0000000
vn 0.0000059 -0.0000159 -1.0000000
vn -0.0000593 0.0000239 -1.0000000
vn 0.0000529 -0.0000027 -1.0000000
vn -0.0000208 0.0000056 -1.0000000
vn 0.0000134 -0.0000176 -1.0000000
vn 0.0000001 -0.0000222 -1.0000000
vn 0.0000459 -0.0000148 -1.0000000
vn 0.0000174 -0.0000010 -1.0000000
vn -0.0000015 -0.0000639 -1.0000000
vn -0.0000052 0.0000354 -1.0000000
vn 0.0000040 -0.0000416 -1.0000000
vn 0.0000061 0.0000234 -1.0000000
vn 0.0000500 0.0000244 -1.0000000
vn 0.0000126 0.0000058 -1.0000000
vn 0.0000112 0.0000118 -1.0000000
vn 0.0000132 -0.0000030 -1.0000000
vn -0.0000122 0.0000240 -1.0000000
vn -0.0000102 -0.0000336 -1.0000000
vn 0.0017081 -0.0069851 -0.9999741
vn 0.0000019 -0.0000342 -1.0000000
vn -0.0000181 -0.0000217 -1.0000000
vn 0.0000069 -0.0000472 -1.0000000
vn 0.0001772 0.0114441 -0.9999345
vn 0.0000107 -0.0000163 -1.0000000
vn 0.0000241 -0.0000388 -1.0000000
vn -0.0000099 0.0000109 -1.0000000
vn -0.0000262 0.0000195 -1.0000000
vn -0.0000150 0.0000033 -1.0000000
vn 0.0000136 0.0000272 -1.0000000
vn -0.0000031 0.0000090 -1.0000000
vn -0.0000068 -0.0000174 -1.0000000
vn -0.0000173 0.0000556 -1.0000000
vn -0.0000338 0.0000016 -1.0000000
vn 0.0000316 -0.0000317 -1.0000000
vn -0.0039249 0.0045586 -0.9999819
vn -0.0000030 -0.0000016 -1.0000000
vn -0.0000436 -0.0000416 -1.0000000
vn 0.0000021 0.0000281 -1.0000000
vn 0.0000027 -0.0000279 -1.0000000
vn 0.0000133 -0.0000028 -1.0000000
vn 0.0000113 -0.0000051 -1.0000000
vn -0.0000014 0.0000114 -1.0000000
vn 0.0000172 -0.0000468 -1.0000000
vn -0.0000139 0.0000151 -1.0000000
vn -0.0000210 0.0000553 -1.0000000
vn 0.0000030 0.0000263 -1.0000000
vn 0.0055586 -0.0118333 -0.9999145
vn -0.0000020 -0.0000084 -1.0000000
vn 0.0000240 0.0000131 -1.0000000
vn 0.0000533 -0.0000326 -1.0000000
vn -0.0000465 -0.0000116 -1.0000000
vn 0.0000307 -0.0000187 -1.0000000
vn 0.0000234 0.0000225 -1.0000000
vn -0.0000076 0.0000234 -1.0000000
vn 0.0000158 0.0000055 -1.0000000
f 1/1/1 2/2/2 3/3/3
f 4/4/4 2/5/2 1/6/1
f 5/7/5 6/8/6 7/9/7
f 8/10/8 6/11/6 5/12/5
f 9/13/9 10/14/10 11/15/11
f 12/16/12 10/17/10 9/18/9
f 13/19/13 14/20/14 15/21/15
f 15/22/15 14/23/14 16/24/16
f 17/25/17 18/26/18 19/27/19
f 19/28/19 18/29/18 20/30/20
f 21/31/21 22/32/22 23/33/23
f 23/34/23 22/35/22 24/36/24
f 25/37/25 26/38/26 27/39/27
f 28/40/28 26/41/26 25/42/25
f 29/43/29 30/44/30 31/45/31
f 32/46/32 30/47/30 29/48/29
f 33/49/33 34/50/34 35/51/35
f 36/52/36 34/53/34 33/54/33
f 37/55/37 38/56/38 39/57/39
f 40/58/40 38/59/38 37/60/37
f 41/61/41 42/62/42 43/63/43
f 44/64/44 42/65/42 41/66/41
f 45/67/45 46/68/46 47/69/47
f 47/70/47 46/71/46 48/72/48
f 49/73/49 50/74/50 51/75/51
f 52/76/52 50/77/50 49/78/49
f 53/79/53 54/80/54 55/81/55
f 56/82/56 54/83/54 53/84/53
f 57/85/57 58/86/58 59/87/59
f 60/88/60 58/89/58 57/90/57
f 61/91/61 62/92/62 63/93/63
f 64/94/64 62/95/62 61/96/61
f 65/97/65 66/98/66 67/99/67
f 68/100/68 66/101/66 65/102/65
f 69/103/69 70/104/70 71/105/71
f 72/106/72 70/107/70 69/108/69
f 73/109/73 74/110/74 75/111/75
f 76/112/76 74/113/74 73/114/73
