# Pieza completa de un material COLLADA para Raylib
o material_0002-material
v -1.4005576 -1.1796763 0.6126856
v -1.5649529 -1.2846549 0.2505896
v -1.4866186 -1.1796763 0.2505896
v -1.4634381 -1.2785267 0.6153501
v 1.8961415 -0.4605467 0.7762816
v 2.0258992 -0.2127547 0.3169339
v 1.9584892 -0.5287561 0.4624118
v 1.9667489 -0.1458775 0.7717521
v 0.7309863 0.8817931 0.8253071
v 0.7680219 0.9241575 0.5316870
v 0.8868555 0.8836582 0.7600286
v 0.8951152 0.9297528 0.4482903
v 0.3156017 1.3835052 0.6427937
v 0.2519218 1.3891005 0.3321212
v 0.3611635 1.5812059 0.6513199
v 0.3550353 1.5889327 0.3321212
v -0.0632802 1.6957764 0.2335373
v -0.0145211 1.9846006 -0.3427789
v -0.0227809 1.6829871 -0.0416983
v -0.0480930 2.0149751 -0.0496916
v 0.5356836 2.5044308 -0.0579513
v 0.3843440 2.6632309 -0.3427789
v 0.5825776 2.5137564 -0.3427789
v 0.3587655 2.6261953 -0.0584842
v -0.4469581 2.4735235 -0.0438299
v -0.5426111 2.3291114 -0.3427789
v -0.4970494 2.4972369 -0.3427789
v -0.4879903 2.3293778 -0.0550205
v -0.2495239 2.0613362 -0.0459614
v -0.2881581 1.7125623 -0.0017319
v -0.2982829 2.0533429 -0.3427789
v -0.2412641 1.7106972 0.2775004
v -0.3926037 1.4029555 0.4466917
v -0.3259930 1.3115656 0.1599990
v -0.4267084 1.3875019 0.1599990
v -0.2910890 1.3272857 0.4458923
v -0.2798984 0.9886367 0.7637588
v -0.4807964 0.9473380 0.4416292
v -0.3078749 1.0318005 0.4416292
v -0.5151675 0.8863226 0.7664232
v -0.8897864 2.0181724 0.7592293
v -0.8372971 2.1204865 0.4187152
v -0.7323185 1.7573247 0.8447575
v -0.6156165 1.8305965 0.4187152
v -0.7203286 1.3312824 0.7499038
v -0.6278729 1.3390092 0.4187152
v -0.6180145 1.1551636 0.7515024
v -0.5551340 1.1708837 0.4187152
v -1.7573247 1.8095475 0.7445749
v -1.8636355 1.5433710 0.4285735
v -1.8569744 1.8676321 0.4187152
v -1.7479992 1.5393744 0.7600286
v -2.1202201 0.4171165 0.7395125
v -2.3016677 0.1256279 0.4245769
v -2.1703113 0.4456259 0.4189816
v -2.2086791 0.1485420 0.7448414
v -1.3195589 -2.2403858 0.4016628
v -0.8961810 -2.2958060 0.0374352
v -1.3696502 -2.2691617 0.0374352
v -0.9289535 -2.2425174 0.3041447
v -1.0499186 -1.7274831 0.4083239
v -1.0110179 -1.6288992 0.3878078
v -0.9907682 -1.6885824 0.0374352
v -1.0515172 -1.6352938 0.5644595
v 1.5982583 -1.1383777 0.7664232
v 1.6507475 -1.2055213 0.4624118
v 1.2763951 -1.2481522 0.7578971
v 1.3272857 -1.3174273 0.4357675
vt -0.0151367 0.9848633
vt 0.9843750 1.9838867
vt -0.0151367 1.9838867
vt 0.9838867 0.9848633
vt 0.9843750 1.9838867
vt -0.0151367 0.9848633
vt -0.0151367 0.9843750
vt 0.9843750 1.9843750
vt -0.0156250 1.9843750
vt 0.9843750 0.9843750
vt 0.9843750 1.9843750
vt -0.0151367 0.9843750
vt 0.9843750 0.9848633
vt 0.9843750 1.9838867
vt -0.0151367 0.9848633
vt -0.0151367 0.9848633
vt 0.9843750 1.9838867
vt -0.0151367 1.9838867
vt 0.9838867 0.9843750
vt 0.9838867 1.9838867
vt -0.0156250 0.9843750
vt -0.0156250 0.9843750
vt 0.9838867 1.9838867
vt -0.0156250 1.9838867
vt -0.0151367 0.9848633
vt 0.9843750 1.9838867
vt -0.0151367 1.9838867
vt 0.9843750 0.9848633
vt 0.9843750 1.9838867
vt -0.0151367 0.9848633
vt -0.0151367 0.9848633
vt 0.9843750 1.9843750
vt -0.0156250 1.9843750
vt 0.9843750 0.9848633
vt 0.9843750 1.9843750
vt -0.0151367 0.9848633
vt -0.0151367 0.9843750
vt 0.9843750 1.9838867
vt -0.0151367 1.9838867
vt 0.9843750 0.9843750
vt 0.9843750 1.9838867
vt -0.0151367 0.9843750
vt -0.0156250 0.9848633
vt 0.9838867 1.9838867
vt -0.0156250 1.9838867
vt 0.9838867 0.9848633
vt 0.9838867 1.9838867
vt -0.0156250 0.9848633
vt -0.0151367 0.9848633
vt 0.9843750 1.9843750
vt -0.0151367 1.9843750
vt 0.9843750 0.9848633
vt 0.9843750 1.9843750
vt -0.0151367 0.9848633
vt -0.0151367 0.9843750
vt 0.9843750 1.9843750
vt -0.0151367 1.9843750
vt 0.9843750 0.9843750
vt 0.9843750 1.9843750
vt -0.0151367 0.9843750
vt 0.9843750 0.9848633
vt 0.9843750 1.9843750
vt -0.0151367 0.9848633
vt -0.0151367 0.9848633
vt 0.9843750 1.9843750
vt -0.0151367 1.9843750
vt 0.9838867 0.9848633
vt 0.9843750 1.9843750
vt -0.0156250 0.9848633
vt -0.0156250 0.9848633
vt 0.9843750 1.9843750
vt -0.0156250 1.9843750
vt -0.0156250 0.9843750
vt 0.9843750 1.9838867
vt -0.0156250 1.9838867
vt 0.9843750 0.9843750
vt 0.9843750 1.9838867
vt -0.0156250 0.9843750
vt -0.0151367 0.9843750
vt 0.9843750 1.9843750
vt -0.0151367 1.9843750
vt 0.9843750 0.9843750
vt 0.9843750 1.9843750
vt -0.0151367 0.9843750
vt -0.0151367 0.9843750
vt 0.9838867 1.9838867
vt -0.0156250 1.9838867
vt 0.9838867 0.9843750
vt 0.9838867 1.9838867
vt -0.0151367 0.9843750
vt -0.0156250 0.9843750
vt 0.9843750 1.9843750
vt -0.0156250 1.9843750
vt 0.9843750 0.9843750
vt 0.9843750 1.9843750
vt -0.0156250 0.9843750
vt 0.9838867 0.9848633
vt 0.9838867 1.9838867
vt -0.0156250 0.9848633
vt -0.0156250 0.9848633
vt 0.9838867 1.9838867
vt -0.0156250 1.9838867
vn 0.0000070 -0.0000235 -1.0000000
vn -0.0000317 -0.0000111 -1.0000000
vn 0.0000466 0.0000265 -1.0000000
vn 0.0000110 0.0000119 -1.0000000
vn -0.0000113 0.0000058 -1.0000000
vn 0.0000240 0.0000108 -1.0000000
vn 0.0000236 0.0000418 -1.0000000
vn -0.0000230 -0.0000704 -1.0000000
vn 0.0000554 -0.0000091 -1.0000000
vn 0.0000508 -0.0000173 -1.0000000
vn 0.0000021 -0.0000238 -1.0000000
vn -0.0000096 0.0000007 -1.0000000
vn -0.0000152 -0.0000101 -1.0000000
vn -0.0000157 -0.0000456 -1.0000000
vn -0.0000128 -0.0000113 -1.0000000
vn -0.0000108 0.0000100 -1.0000000
vn -0.0000060 -0.0000091 -1.0000000
vn -0.0000028 0.0000767 -1.0000000
vn 0.0000217 -0.0000159 -1.0000000
vn -0.0000184 -0.0000102 -1.0000000
vn 0.0000123 0.0000195 -1.0000000
vn 0.0000033 -0.0000061 -1.0000000
vn -0.0000430 0.0000029 -1.0000000
vn 0.0002678 -0.0001597 -1.0000000
vn 0.0000043 0.0000024 -1.0000000
vn -0.0000264 -0.0000297 -1.0000000
vn -0.0000074 -0.0000315 -1.0000000
vn 0.0000003 -0.0000154 -1.0000000
vn -0.0000100 0.0000397 -1.0000000
vn -0.0000212 -0.0000511 -1.0000000
vn 0.0000050 -0.0000081 -1.0000000
vn -0.0000115 -0.0000079 -1.0000000
vn -0.0000013 0.0000007 -1.0000000
vn 0.0000480 -0.0000126 -1.0000000
vn 0.0000344 -0.0000475 -1.0000000
vn 0.0000614 -0.0000237 -1.0000000
vn -0.0000213 -0.0000338 -1.0000000
vn -0.0000521 -0.0000468 -1.0000000
vn 0.0000517 0.0000464 -1.0000000
vn 0.0000350 0.0000106 -1.0000000
vn 0.0000104 0.0000253 -1.0000000
vn 0.0000382 -0.0000132 -1.0000000
vn -0.0000039 0.0000080 -1.0000000
vn 0.0000127 0.0000179 -1.0000000
vn -0.0000281 0.0000045 -1.0000000
vn -0.0000193 -0.0000044 -1.0000000
vn -0.0000068 -0.0000243 -1.0000000
vn 0.0000361 -0.0000254 -1.0000000
vn -0.0000091 0.0000020 -1.0000000
vn 0.0000236 0.0000317 -1.0000000
vn 0.0000034 0.0000353 -1.0000000
vn -0.0000091 -0.0000383 -1.0000000
vn -0.0000090 -0.0000211 -1.0000000
vn 0.0000157 0.0000567 -1.0000000
vn -0.0000051 -0.0000191 -1.0000000
vn -0.0000006 -0.0000042 -1.0000000
vn 0.0000165 0.0000209 -1.0000000
vn -0.0000144 -0.0000081 -1.0000000
vn -0.0000625 -0.0000035 -1.0000000
vn 0.0000077 -0.0000101 -1.0000000
vn 0.0000178 -0.0000036 -1.0000000
vn -0.0000241 -0.0000101 -1.0000000
vn 0.0000458 0.0000749 -1.0000000
vn 0.0000204 -0.0000073 -1.0000000
vn 0.0000254 -0.0000025 -1.0000000
vn -0.0000175 0.0000002 -1.0000000
vn -0.0000370 -0.0000248 -1.0000000
vn 0.0000354 0.0000301 -1.0000000
f 1/1/1 2/2/2 3/3/3
f 4/4/4 2/5/2 1/6/1
f 5/7/5 6/8/6 7/9/7
f 8/10/8 6/11/6 5/12/5
f 9/13/9 10/14/10 11/15/11
f 11/16/11 10/17/10 12/18/12
f 13/19/13 14/20/14 15/21/15
f 15/22/15 14/23/14 16/24/16
f 17/25/17 18/26/18 19/27/19
f 20/28/20 18/29/18 17/30/17
f 21/31/21 22/32/22 23/33/23
f 24/34/24 22/35/22 21/36/21
f 25/37/25 26/38/26 27/39/27
f 28/40/28 26/41/26 25/42/25
f 29/43/29 30/44/30 31/45/31
f 32/46/32 30/47/30 29/48/29
f 33/49/33 34/50/34 35/51/35
f 36/52/36 34/53/34 33/54/33
f 37/55/37 38/56/38 39/57/39
f 40/58/40 38/59/38 37/60/37
f 41/61/41 42/62/42 43/63/43
f 43/64/43 42/65/42 44/66/44
f 45/67/45 46/68/46 47/69/47
f 47/70/47 46/71/46 48/72/48
f 49/73/49 50/74/50 51/75/51
f 52/76/52 50/77/50 49/78/49
f 53/79/53 54/80/54 55/81/55
f 56/82/56 54/83/54 53/84/53
f 57/85/57 58/86/58 59/87/59
f 60/88/60 58/89/58 57/90/57
f 61/91/61 62/92/62 63/93/63
f 64/94/64 62/95/62 61/96/61
f 65/97/65 66/98/66 67/99/67
f 67/100/67 66/101/66 68/102/68
