# Pieza completa de un material COLLADA para Raylib
o material_0004-material
v 2.0544086 -1.0160803 0.6787635
v 2.1068979 -1.0832240 0.3744856
v 1.9963241 -1.1367790 0.6840924
v 2.0485469 -1.1988602 0.3744856
v 1.9379731 0.2588494 0.7459071
v 1.9358415 0.7504367 0.4357675
v 1.9992549 0.2439286 0.4357675
v 1.8849509 0.7339172 0.7336508
v 0.6779642 1.1138649 0.7293877
v 0.7770810 1.2143139 0.3321212
v 0.7416441 1.1093354 0.4155178
v 0.7011447 1.2276361 0.6545172
v 0.7011447 1.2276361 0.6545172
v 0.8642078 1.3379435 0.3321212
v 0.7770810 1.2143139 0.3321212
v 0.8447575 1.3395421 0.6475897
v 0.8146494 1.5947945 0.6414615
v 0.5679232 1.7069670 0.1085755
v 0.8141165 1.5934623 0.3321212
v 0.5679232 1.7069670 0.6414615
v 0.0955198 0.9801105 0.8506192
v 0.0891252 1.0296689 0.5452756
v 0.2106232 1.1183944 0.6750333
v 0.1882420 1.1365126 0.4690729
v 0.0400997 1.4002911 0.4421621
v 0.0816648 1.5417723 0.1562688
v 0.0816648 1.3875019 0.1562688
v 0.0414319 1.5300488 0.4331031
v 0.3587655 2.6261953 -0.0584842
v 0.0270440 2.6621651 -0.3217299
v 0.3843440 2.6632309 -0.3427789
v 0.0377017 2.6320570 -0.0688755
v 0.2996151 2.0807865 -0.0536883
v 0.5911038 2.1801697 -0.3427789
v 0.3275917 2.0429516 -0.3427789
v 0.5343514 2.2009523 -0.0515567
v -0.3214635 2.1572556 -0.2260769
v -0.2982829 2.0533429 -0.3427789
v -0.3534366 2.1362066 -0.6718360
v -0.2495239 2.0613362 -0.0459614
v -0.2471259 1.0872206 0.7560320
v -0.3078749 1.0318005 0.4416292
v -0.2878916 1.0909508 0.4898554
v -0.2798984 0.9886367 0.7637588
v -0.5151675 0.8863226 0.7664232
v -0.5628608 1.0259387 0.4416292
v -0.4807964 0.9473380 0.4416292
v -0.6273400 0.9806434 0.7701535
v -0.6324024 1.5063354 0.7520353
v -0.5199635 1.5084670 0.4187152
v -0.7203286 1.3312824 0.7499038
v -0.6278729 1.3390092 0.4187152
v -1.4863522 1.0254058 0.7115360
v -1.5766764 0.7904031 0.3984655
v -1.5617556 0.9801105 0.3872749
v -1.5217891 0.7515024 0.7259239
v -1.9137267 0.5772487 0.7357823
v -2.1703113 0.4456259 0.4189816
v -1.9361080 0.6705038 0.4189816
v -2.1202201 0.4171165 0.7395125
v -1.7719791 -0.4682735 0.8727340
v -1.6803227 -0.5556668 0.4917205
v -1.8593724 -0.5391474 0.5204964
v -1.6203730 -0.4986480 0.7165984
v -1.3083683 -1.6027878 0.5580648
v -1.3627227 -1.7341442 0.0147876
v -1.3909656 -1.6027878 0.2162185
v -1.3003750 -1.7503972 0.4043272
v -0.7706863 -1.8673657 0.4099225
v -0.8287709 -1.7485321 0.0374352
v -0.7139340 -1.8660335 0.0459614
v -0.8745991 -1.7639858 0.3904722
v 0.7006118 -1.5617556 0.5604628
v 0.7376474 -1.4152119 0.2892239
v 0.7499038 -1.6265012 0.2553856
v 0.6899541 -1.3494005 0.5849756
v 0.1466769 -1.9699462 0.4408299
v 0.5689890 -1.8772241 0.1626634
v 0.1807816 -2.0314945 0.1293581
v 0.5247595 -1.8154093 0.4666749
v 1.0099521 -1.2076528 0.6987467
v 1.3272857 -1.3174273 0.4357675
v 1.0568461 -1.2723985 0.4107219
v 1.2763951 -1.2481522 0.7578971
vt 0.9843750 0.9848633
vt 0.9838867 1.9838867
vt -0.0151367 0.9843750
vt -0.0151367 0.9843750
vt 0.9838867 1.9838867
vt -0.0151367 1.9838867
vt -0.0151367 0.9848633
vt 0.9843750 1.9838867
vt -0.0151367 1.9838867
vt 0.9838867 0.9848633
vt 0.9843750 1.9838867
vt -0.0151367 0.9848633
vt -0.0156250 0.9843750
vt 0.9838867 1.9838867
vt -0.0156250 1.9838867
vt 0.9838867 0.9843750
vt 0.9838867 1.9838867
vt -0.0156250 0.9843750
vt -0.0151367 0.9848633
vt 0.9838867 1.9838867
vt -0.0156250 1.9838867
vt 0.9838867 0.9848633
vt 0.9838867 1.9838867
vt -0.0151367 0.9848633
vt -0.0151367 0.9843750
vt 0.9838867 1.9838867
vt -0.0156250 1.9838867
vt 0.9838867 0.9843750
vt 0.9838867 1.9838867
vt -0.0151367 0.9843750
vt 0.9838867 0.9843750
vt 0.9838867 1.9843750
vt -0.0151367 0.9843750
vt -0.0151367 0.9843750
vt 0.9838867 1.9843750
vt -0.0151367 1.9843750
vt -0.0151367 0.9843750
vt 0.9838867 1.9843750
vt -0.0151367 1.9843750
vt 0.9838867 0.9843750
vt 0.9838867 1.9843750
vt -0.0151367 0.9843750
vt -0.0156250 0.9848633
vt 0.9838867 1.9838867
vt -0.0156250 1.9838867
vt 0.9838867 0.9848633
vt 0.9838867 1.9838867
vt -0.0156250 0.9848633
vt -0.0151367 0.9848633
vt 0.9843750 1.9843750
vt -0.0151367 1.9843750
vt 0.9843750 0.9848633
vt 0.9843750 1.9843750
vt -0.0151367 0.9848633
vt -0.0156250 0.9843750
vt 0.9843750 1.9843750
vt -0.0151367 1.9843750
vt 0.9843750 0.9843750
vt 0.9843750 1.9843750
vt -0.0156250 0.9843750
vt -0.0151367 0.9848633
vt 0.9843750 1.9843750
vt -0.0151367 1.9843750
vt 0.9843750 0.9848633
vt 0.9843750 1.9843750
vt -0.0151367 0.9848633
vt -0.0151367 0.9843750
vt 0.9843750 1.9838867
vt -0.0151367 1.9838867
vt 0.9838867 0.9843750
vt 0.9843750 1.9838867
vt -0.0151367 0.9843750
vt 0.9843750 0.9848633
vt 0.9838867 1.9838867
vt -0.0151367 0.9848633
vt -0.0151367 0.9848633
vt 0.9838867 1.9838867
vt -0.0156250 1.9838867
vt -0.0156250 0.9848633
vt 0.9843750 1.9843750
vt -0.0156250 1.9843750
vt 0.9838867 0.9848633
vt 0.9843750 1.9843750
vt -0.0156250 0.9848633
vt -0.0151367 0.9843750
vt 0.9838867 1.9838867
vt -0.0156250 1.9838867
vt 0.9838867 0.9843750
vt 0.9838867 1.9838867
vt -0.0151367 0.9843750
vt -0.0156250 0.9843750
vt 0.9838867 1.9843750
vt -0.0156250 1.9843750
vt 0.9838867 0.9843750
vt 0.9838867 1.9843750
vt -0.0156250 0.9843750
vt -0.0151367 0.9848633
vt 0.9843750 1.9843750
vt -0.0151367 1.9843750
vt 0.9843750 0.9848633
vt 0.9843750 1.9843750
vt -0.0151367 0.9848633
vt -0.0151367 0.9848633
vt 0.9843750 1.9843750
vt -0.0151367 1.9843750
vt 0.9843750 0.9848633
vt 0.9843750 1.9843750
vt -0.0151367 0.9848633
vt -0.0156250 0.9843750
vt 0.9838867 1.9843750
vt -0.0156250 1.9843750
vt 0.9843750 0.9843750
vt 0.9838867 1.9843750
vt -0.0156250 0.9843750
vt -0.0156250 0.9843750
vt 0.9843750 1.9838867
vt -0.0151367 1.9838867
vt 0.9838867 0.9843750
vt 0.9843750 1.9838867
vt -0.0156250 0.9843750
vt -0.0151367 0.9843750
vt 0.9838867 1.9838867
vt -0.0151367 1.9838867
vt 0.9843750 0.9848633
vt 0.9838867 1.9838867
vt -0.0151367 0.9843750
vn 0.0000066 0.0000117 -1.0000000
vn -0.0000107 0.0000288 -1.0000000
vn -0.0000050 0.0000229 -1.0000000
vn -0.0000299 -0.0000246 -1.0000000
vn 0.0000063 0.0000095 -1.0000000
vn -0.0000166 0.0000067 -1.0000000
vn 0.0000155 0.0000673 -1.0000000
vn 0.0000066 0.0000130 -1.0000000
vn 0.0000096 -0.0000732 -1.0000000
vn -0.0000227 -0.0000451 -1.0000000
vn -0.0000107 -0.0000035 -1.0000000
vn -0.0000084 -0.0000253 -1.0000000
vn -0.0000554 -0.0000407 -1.0000000
vn 0.0000027 -0.0000306 -1.0000000
vn 0.0000410 0.0000361 -1.0000000
vn -0.0000066 0.0000002 -1.0000000
vn -0.0000407 -0.0000581 -1.0000000
vn -0.0000346 0.0000070 -1.0000000
vn 0.0001649 -0.0001086 -1.0000000
vn 0.0000000 0.0000000 -1.0000000
vn 0.0000547 0.0000186 -1.0000000
vn -0.0000171 -0.0000450 -1.0000000
vn -0.0000279 -0.0000214 -1.0000000
vn 0.0000236 0.0000069 -1.0000000
vn 0.0000175 -0.0000123 -1.0000000
vn -0.0000092 -0.0000112 -1.0000000
vn -0.0000151 -0.0000363 -1.0000000
vn 0.0000221 -0.0000140 -1.0000000
vn -0.0000214 -0.0000070 -1.0000000
vn 0.0000312 -0.0000170 -1.0000000
vn -0.0000682 -0.0000021 -1.0000000
vn -0.0000042 0.0000231 -1.0000000
vn 0.0000123 -0.0000011 -1.0000000
vn 0.0000167 -0.0000092 -1.0000000
vn -0.0000259 -0.0000329 -1.0000000
vn 0.0000026 0.0000156 -1.0000000
vn -0.0000002 -0.0000482 -1.0000000
vn 0.0000057 0.0000387 -1.0000000
vn 0.0000149 0.0000118 -1.0000000
vn 0.0000046 0.0000254 -1.0000000
vn 0.0000149 0.0000614 -1.0000000
vn 0.0000009 0.0000147 -1.0000000
vn 0.0000082 0.0000468 -1.0000000
vn 0.0000226 0.0000062 -1.0000000
vn 0.0000332 -0.0000437 -1.0000000
vn 0.0000288 0.0000023 -1.0000000
vn 0.0000076 0.0000094 -1.0000000
vn -0.0000375 0.0000566 -1.0000000
vn -0.0000241 -0.0000134 -1.0000000
vn 0.0000092 0.0000584 -1.0000000
vn -0.0000035 0.0000397 -1.0000000
vn 0.0000155 0.0000452 -1.0000000
vn 0.0000006 0.0000035 -1.0000000
vn -0.0000002 0.0000426 -1.0000000
vn 0.0000013 -0.0000451 -1.0000000
vn -0.0000096 -0.0000330 -1.0000000
vn -0.0000058 -0.0000276 -1.0000000
vn 0.0000458 0.0000196 -1.0000000
vn -0.0000115 -0.0000237 -1.0000000
vn -0.0000189 0.0000012 -1.0000000
vn -0.0000023 -0.0000129 -1.0000000
vn 0.0000334 -0.0000236 -1.0000000
vn 0.0000258 0.0000135 -1.0000000
vn -0.0000371 0.0000121 -1.0000000
vn -0.0000169 0.0000003 -1.0000000
vn 0.0000241 -0.0000323 -1.0000000
vn -0.0000306 0.0000459 -1.0000000
vn 0.0000035 -0.0000054 -1.0000000
vn -0.0000319 0.0000003 -1.0000000
vn -0.0000280 0.0000041 -1.0000000
vn -0.0000215 0.0000510 -1.0000000
vn -0.0000316 0.0000215 -1.0000000
vn -0.0000138 0.0000239 -1.0000000
vn 0.0000148 -0.0000190 -1.0000000
vn 0.0000072 -0.0000264 -1.0000000
vn -0.0000102 0.0000126 -1.0000000
vn 0.0000416 0.0000376 -1.0000000
vn 0.0000423 -0.0000016 -1.0000000
vn -0.0000403 -0.0000324 -1.0000000
vn -0.0000105 0.0000088 -1.0000000
vn 0.0000567 0.0000120 -1.0000000
vn 0.0000095 0.0000094 -1.0000000
vn 0.0000505 -0.0000187 -1.0000000
vn 0.0000007 0.0000113 -1.0000000
f 1/1/1 2/2/2 3/3/3
f 3/4/3 2/5/2 4/6/4
f 5/7/5 6/8/6 7/9/7
f 8/10/8 6/11/6 5/12/5
f 9/13/9 10/14/10 11/15/11
f 12/16/12 10/17/10 9/18/9
f 13/19/13 14/20/14 15/21/15
f 16/22/16 14/23/14 13/24/13
f 17/25/17 18/26/18 19/27/19
f 20/28/20 18/29/18 17/30/17
f 21/31/21 22/32/22 23/33/23
f 23/34/23 22/35/22 24/36/24
f 25/37/25 26/38/26 27/39/27
f 28/40/28 26/41/26 25/42/25
f 29/43/29 30/44/30 31/45/31
f 32/46/32 30/47/30 29/48/29
f 33/49/33 34/50/34 35/51/35
f 36/52/36 34/53/34 33/54/33
f 37/55/37 38/56/38 39/57/39
f 40/58/40 38/59/38 37/60/37
f 41/61/41 42/62/42 43/63/43
f 44/64/44 42/65/42 41/66/41
f 45/67/45 46/68/46 47/69/47
f 48/70/48 46/71/46 45/72/45
f 49/73/49 50/74/50 51/75/51
f 51/76/51 50/77/50 52/78/52
f 53/79/53 54/80/54 55/81/55
f 56/82/56 54/83/54 53/84/53
f 57/85/57 58/86/58 59/87/59
f 60/88/60 58/89/58 57/90/57
f 61/91/61 62/92/62 63/93/63
f 64/94/64 62/95/62 61/96/61
f 65/97/65 66/98/66 67/99/67
f 68/100/68 66/101/66 65/102/65
f 69/103/69 70/104/70 71/105/71
f 72/106/72 70/107/70 69/108/69
f 73/109/73 74/110/74 75/111/75
f 76/112/76 74/113/74 73/114/73
f 77/115/77 78/116/78 79/117/79
f 80/118/80 78/119/78 77/120/77
f 81/121/81 82/122/82 83/123/83
f 84/124/84 82/125/82 81/126/81
