# Pieza completa de un material COLLADA para Raylib
o material_0009-material
v 1.8215375 -0.6425273 1.0600434
v 1.8961415 -0.4605467 0.7762816
v 1.8881482 -0.6766320 0.7816105
v 1.8436522 -0.4285735 1.0600434
v 1.8857502 0.2569843 1.0600434
v 1.8849509 0.7339172 0.7336508
v 1.9379731 0.2588494 0.7459071
v 1.8223368 0.6830266 1.0166132
v 0.8785957 0.8322347 1.0944146
v 0.8868555 0.8836582 0.7600286
v 0.9404105 0.9627917 1.0142152
v 0.9982286 1.0176790 0.7152662
v 0.7573642 0.9068387 1.1210589
v 0.7309863 0.8817931 0.8253071
v 0.8785957 0.8322347 1.0944146
v 0.8868555 0.8836582 0.7600286
v 0.6497212 1.2329649 0.9587951
v 0.8447575 1.3395421 0.6475897
v 0.7011447 1.2276361 0.6545172
v 0.7912024 1.3398086 0.9611931
v 0.3499729 1.3765777 0.9611931
v 0.3156017 1.3835052 0.6427937
v 0.3888735 1.5401737 0.9611931
v 0.3611635 1.5812059 0.6513199
v 0.3888735 1.5401737 0.9611931
v 0.3611635 1.5812059 0.6513199
v 0.5679232 1.7069670 0.9611931
v 0.5679232 1.7069670 0.6414615
v -0.1266936 1.1423743 0.9196280
v -0.0837963 1.1479696 0.6206789
v -0.0568856 0.9635911 1.1365126
v -0.0201164 1.0086199 0.8522179
v 0.0891252 0.9265555 1.1365126
v 0.0955198 0.9801105 0.8506192
v 0.2236789 1.0909508 1.0693689
v 0.2106232 1.1183944 0.6750333
v -0.1266936 1.1423743 0.9196280
v -0.0659446 1.3235555 0.4474910
v -0.0837963 1.1479696 0.6206789
v -0.1008487 1.3368777 0.6763655
v 0.0017319 1.5183254 0.6763655
v -0.0611487 1.6046529 0.4141856
v 0.0414319 1.5300488 0.4331031
v -0.1008487 1.5934623 0.6763655
v -0.0723393 2.0368234 0.2002319
v 0.2996151 2.0807865 -0.0536883
v -0.0480930 2.0149751 -0.0496916
v 0.2785661 2.1090295 0.2002319
v 0.4858588 2.4692604 0.2002319
v 0.3587655 2.6261953 -0.0584842
v 0.5356836 2.5044308 -0.0579513
v 0.3233286 2.5593181 0.2002319
v -0.2378004 2.5404007 0.2002319
v -0.4469581 2.4735235 -0.0438299
v -0.2593822 2.5686436 -0.0480930
v -0.4123205 2.4580698 0.2002319
v -0.3217299 2.1583214 0.2002319
v -0.2495239 2.0613362 -0.0459614
v -0.3214635 2.1572556 -0.2260769
v -0.2154192 2.0682637 0.2002319
v -0.2460601 1.5934623 0.6763655
v -0.3934031 1.5364435 0.4408299
v -0.2892239 1.6094489 0.4461588
v -0.3486406 1.5183254 0.6763655
v -0.2460601 1.3368777 0.6763655
v -0.2471259 1.0872206 0.7560320
v -0.2910890 1.3272857 0.4458923
v -0.2066265 1.0826911 1.0214092
v -0.6542508 1.1442394 1.1053387
v -0.6180145 1.1551636 0.7515024
v -0.6667736 0.9468052 1.1365126
v -0.6273400 0.9806434 0.7701535
v -0.9182958 1.9624858 1.1053387
v -0.8897864 2.0181724 0.7592293
v -0.7653575 1.7365422 1.1053387
v -0.7323185 1.7573247 0.8447575
v -0.7653575 1.7365422 1.1053387
v -0.7323185 1.7573247 0.8447575
v -0.6966152 1.5052697 1.1053387
v -0.6324024 1.5063354 0.7520353
v -1.6811220 1.5372428 1.1151971
v -1.6089160 1.2593428 0.7453743
v -1.7479992 1.5393744 0.7600286
v -1.5494992 1.2899837 1.1053387
v -1.6773918 0.5823111 1.0696354
v -1.9137267 0.5772487 0.7357823
v -1.7557261 0.6649085 0.6286722
v -1.8921449 0.5282232 1.0672374
v -1.4415898 1.0467213 1.0826911
v -1.5217891 0.7515024 0.7259239
v -1.4863522 1.0254058 0.7115360
v -1.4940790 0.7347165 1.0536488
v -1.7016381 -0.4237776 1.1898012
v -1.6203730 -0.4986480 0.7165984
v -1.7719791 -0.4682735 0.8727340
v -1.5273844 -0.3856762 1.1341146
v -2.1063650 0.1719889 1.0672374
v -2.1436670 -0.0829970 0.7467065
v -2.2086791 0.1485420 0.7448414
v -2.0488133 -0.0347708 1.0696354
v -1.3619233 -0.6292051 1.1341146
v -1.3067696 -0.8857897 0.7717521
v -1.4343958 -0.6699709 0.8093206
v -1.2422904 -0.8434253 1.0667045
v -1.3888341 -1.9419697 0.7102038
v -1.3195589 -2.2403858 0.4016628
v -1.4615730 -1.9350422 0.4048601
v -1.2636059 -2.1449993 0.7102038
v -0.8388957 -1.8881482 0.7102038
v -0.8745991 -1.7639858 0.3904722
v -0.7706863 -1.8673657 0.4099225
v -0.9364139 -1.7978240 0.7102038
v -0.9747817 -2.1743080 0.7102038
v -0.7661568 -2.0786550 0.3979326
v -0.9289535 -2.2425174 0.3041447
v -0.8386293 -2.0584053 0.7102038
v -1.0917501 -1.5289831 0.9209602
v -1.0333991 -1.5534958 0.6326689
v -1.0877535 -1.6118468 0.8809937
v -1.0515172 -1.6352938 0.5644595
v -0.2700400 -1.9065328 0.7102038
v -0.0819312 -1.9830019 0.4325702
v -0.2631124 -1.9486308 0.4333695
v -0.0949869 -1.9425026 0.7102038
v -0.6771648 -1.7237529 0.8511521
v -0.4248433 -1.8503133 0.4296393
v -0.6963487 -1.7578576 0.5777816
v -0.4029950 -1.8154093 0.7102038
v 0.1293581 -1.9313120 0.7102038
v 0.5247595 -1.8154093 0.4666749
v 0.1466769 -1.9699462 0.4408299
v 0.4842601 -1.7626536 0.7605615
v 0.6614447 -1.5263186 0.8362313
v 0.6899541 -1.3494005 0.5849756
v 0.7006118 -1.5617556 0.5604628
v 0.6499877 -1.3139636 0.8676716
v 1.2398924 -1.2172448 1.0600434
v 1.5982583 -1.1383777 0.7664232
v 1.2763951 -1.2481522 0.7578971
v 1.5545616 -1.1053387 1.0600434
vt -0.0156250 1.0092773
vt 0.9843750 1.9628906
vt -0.0156250 1.9619141
vt 0.9838867 1.0097656
vt 0.9843750 1.9628906
vt -0.0156250 1.0092773
vt -0.0151367 1.0122070
vt 0.9843750 1.9638672
vt -0.0151367 1.9667969
vt 0.9843750 1.0092773
vt 0.9843750 1.9638672
vt -0.0151367 1.0122070
vt 0.9838867 1.0004883
vt 0.9843750 1.9677734
vt -0.0156250 1.0034180
vt -0.0156250 1.0034180
vt 0.9843750 1.9677734
vt -0.0156250 1.9707031
vt 0.9838867 1.0000000
vt 0.9838867 1.9677734
vt -0.0156250 1.0000000
vt -0.0156250 1.0000000
vt 0.9838867 1.9677734
vt -0.0156250 1.9667969
vt -0.0151367 1.0000000
vt 0.9843750 1.9667969
vt -0.0151367 1.9663086
vt 0.9843750 1.0004883
vt 0.9843750 1.9667969
vt -0.0151367 1.0000000
vt 0.9838867 1.0048828
vt 0.9838867 1.9677734
vt -0.0156250 1.0014648
vt -0.0156250 1.0014648
vt 0.9838867 1.9677734
vt -0.0156250 1.9643555
vt 0.9843750 1.0058594
vt 0.9843750 1.9663086
vt -0.0151367 1.0039062
vt -0.0151367 1.0039062
vt 0.9843750 1.9663086
vt -0.0151367 1.9643555
vt 0.9838867 0.9995117
vt 0.9838867 1.9643555
vt -0.0151367 1.0014648
vt -0.0151367 1.0014648
vt 0.9838867 1.9643555
vt -0.0151367 1.9667969
vt 0.9843750 1.0019531
vt 0.9843750 1.9658203
vt -0.0156250 1.0024414
vt -0.0156250 1.0024414
vt 0.9843750 1.9658203
vt -0.0151367 1.9663086
vt -0.0151367 1.0029297
vt 0.9843750 1.9667969
vt -0.0151367 1.9638672
vt 0.9843750 1.0058594
vt 0.9843750 1.9667969
vt -0.0151367 1.0029297
vt -0.0151367 1.0029297
vt 0.9843750 1.9648438
vt -0.0151367 1.9619141
vt 0.9843750 1.0053711
vt 0.9843750 1.9648438
vt -0.0151367 1.0029297
vt -0.0151367 0.9985352
vt 0.9843750 1.9677734
vt -0.0151367 1.9653320
vt 0.9843750 1.0004883
vt 0.9843750 1.9677734
vt -0.0151367 0.9985352
vt -0.0156250 1.0000000
vt 0.9838867 1.9682617
vt -0.0156250 1.9687500
vt 0.9843750 1.0000000
vt 0.9838867 1.9682617
vt -0.0156250 1.0000000
vt -0.0156250 1.0039062
vt 0.9843750 1.9638672
vt -0.0156250 1.9677734
vt 0.9843750 1.0000000
vt 0.9843750 1.9638672
vt -0.0156250 1.0039062
vt -0.0151367 1.0063477
vt 0.9843750 1.9663086
vt -0.0151367 1.9692383
vt 0.9843750 1.0029297
vt 0.9843750 1.9663086
vt -0.0151367 1.0063477
vt -0.0156250 1.0000000
vt 0.9843750 1.9672852
vt -0.0151367 1.9648438
vt 0.9843750 1.0029297
vt 0.9843750 1.9672852
vt -0.0156250 1.0000000
vt -0.0156250 1.0029297
vt 0.9843750 1.9653320
vt -0.0151367 1.9677734
vt 0.9838867 1.0009766
vt 0.9843750 1.9653320
vt -0.0156250 1.0029297
vt 0.9843750 1.0078125
vt 0.9843750 1.9633789
vt -0.0151367 1.0043945
vt -0.0151367 1.0043945
vt 0.9843750 1.9633789
vt -0.0156250 1.9599609
vt 0.9843750 1.0068359
vt 0.9843750 1.9614258
vt -0.0151367 1.0058594
vt -0.0151367 1.0058594
vt 0.9843750 1.9614258
vt -0.0151367 1.9604492
vt 0.9838867 1.0092773
vt 0.9838867 1.9653320
vt -0.0156250 1.0087891
vt -0.0156250 1.0087891
vt 0.9838867 1.9653320
vt -0.0156250 1.9648438
vt -0.0156250 1.0087891
vt 0.9843750 1.9648438
vt -0.0156250 1.9677734
vt 0.9843750 1.0063477
vt 0.9843750 1.9648438
vt -0.0156250 1.0087891
vt -0.0151367 1.0014648
vt 0.9838867 1.9667969
vt -0.0151367 1.9580078
vt 0.9838867 1.0107422
vt 0.9838867 1.9667969
vt -0.0151367 1.0014648
vt -0.0156250 1.0029297
vt 0.9843750 1.9648438
vt -0.0151367 1.9658203
vt 0.9843750 1.0019531
vt 0.9843750 1.9648438
vt -0.0156250 1.0029297
vt -0.0151367 1.0073242
vt 0.9838867 1.9604492
vt -0.0151367 1.9628906
vt 0.9838867 1.0048828
vt 0.9838867 1.9604492
vt -0.0151367 1.0073242
vt -0.0156250 1.0058594
vt 0.9838867 1.9697266
vt -0.0156250 1.9697266
vt 0.9838867 1.0058594
vt 0.9838867 1.9697266
vt -0.0156250 1.0058594
vt -0.0151367 1.0146484
vt 0.9843750 1.9648438
vt -0.0156250 1.9687500
vt 0.9843750 1.0107422
vt 0.9843750 1.9648438
vt -0.0151367 1.0146484
vt -0.0151367 1.0029297
vt 0.9843750 1.9638672
vt -0.0151367 1.9638672
vt 0.9843750 1.0029297
vt 0.9843750 1.9638672
vt -0.0151367 1.0029297
vt -0.0156250 1.0068359
vt 0.9838867 1.9643555
vt -0.0156250 1.9624023
vt 0.9838867 1.0087891
vt 0.9838867 1.9643555
vt -0.0156250 1.0068359
vt -0.0151367 1.0024414
vt 0.9838867 1.9638672
vt -0.0151367 1.9638672
vt 0.9838867 1.0029297
vt 0.9838867 1.9638672
vt -0.0151367 1.0024414
vt 0.9912109 1.0063477
vt 0.9843750 1.9643555
vt -0.0156250 1.0087891
vt -0.0156250 1.0087891
vt 0.9843750 1.9643555
vt -0.0229492 1.9667969
vt -0.0151367 1.0004883
vt 0.9843750 1.9667969
vt -0.0151367 1.9682617
vt 0.9843750 0.9995117
vt 0.9843750 1.9667969
vt -0.0151367 1.0004883
vt -0.0156250 1.0078125
vt 0.9843750 1.9633789
vt -0.0156250 1.9653320
vt 0.9843750 1.0063477
vt 0.9843750 1.9633789
vt -0.0156250 1.0078125
vt -0.0156250 1.0058594
vt 0.9838867 1.9653320
vt -0.0156250 1.9643555
vt 0.9838867 1.0068359
vt 0.9838867 1.9653320
vt -0.0156250 1.0058594
vt -0.0151367 1.0122070
vt 0.9843750 1.9697266
vt -0.0156250 1.9697266
vt 0.9843750 1.0122070
vt 0.9843750 1.9697266
vt -0.0151367 1.0122070
vt -0.0156250 1.0063477
vt 0.9838867 1.9638672
vt -0.0156250 1.9663086
vt 0.9838867 1.0034180
vt 0.9838867 1.9638672
vt -0.0156250 1.0063477
vn 0.0000199 0.0000204 -1.0000000
vn -0.0000190 0.0000430 -1.0000000
vn -0.0000047 -0.0000654 -1.0000000
vn -0.0000050 -0.0000412 -1.0000000
vn -0.0000034 -0.0000067 -1.0000000
vn 0.0000319 -0.0000660 -1.0000000
vn -0.0000098 0.0000249 -1.0000000
vn -0.0000002 0.0000022 -1.0000000
vn 0.0000144 0.0000424 -1.0000000
vn -0.0000385 0.0000415 -1.0000000
vn -0.0000576 0.0000080 -1.0000000
vn 0.0000112 -0.0000298 -1.0000000
vn 0.0000154 0.0000455 -1.0000000
vn -0.0000057 -0.0000177 -1.0000000
vn -0.0000200 0.0000027 -1.0000000
vn -0.0000747 0.0000173 -1.0000000
vn -0.0000507 -0.0000443 -1.0000000
vn 0.0000482 0.0000183 -1.0000000
vn -0.0000125 -0.0000178 -1.0000000
vn 0.0000088 -0.0000150 -1.0000000
vn -0.0008482 -0.0036629 -0.9999929
vn 0.0000102 -0.0000178 -1.0000000
vn -0.0000087 0.0000005 -1.0000000
vn -0.0000138 -0.0000481 -1.0000000
vn -0.0000321 -0.0000509 -1.0000000
vn -0.0000462 -0.0000331 -1.0000000
vn -0.0000034 0.0000043 -1.0000000
vn -0.0000559 -0.0000340 -1.0000000
vn -0.0000078 -0.0000043 -1.0000000
vn -0.0000133 0.0000035 -1.0000000
vn 0.0000115 -0.0000381 -1.0000000
vn -0.0000317 0.0000047 -1.0000000
vn 0.0000242 0.0000447 -1.0000000
vn 0.0000008 -0.0000197 -1.0000000
vn -0.0000053 -0.0000139 -1.0000000
vn 0.0000215 0.0000060 -1.0000000
vn 0.0000047 -0.0000018 -1.0000000
vn -0.0000222 0.0000637 -1.0000000
vn 0.0000065 -0.0000294 -1.0000000
vn 0.0000247 -0.0000487 -1.0000000
vn 0.0000015 -0.0000076 -1.0000000
vn -0.0000362 0.0000377 -1.0000000
vn 0.0000262 -0.0000289 -1.0000000
vn -0.0000595 0.0000252 -1.0000000
vn -0.0000045 -0.0000153 -1.0000000
vn -0.0000407 0.0000005 -1.0000000
vn -0.0000218 -0.0000185 -1.0000000
vn -0.0000097 -0.0000248 -1.0000000
vn 0.0000210 -0.0000109 -1.0000000
vn 0.0000277 -0.0000336 -1.0000000
vn 0.0000060 -0.0000224 -1.0000000
vn -0.0044172 0.0024341 -0.9999873
vn 0.0000404 0.0000189 -1.0000000
vn -0.0000146 -0.0000265 -1.0000000
vn -0.0000246 0.0000008 -1.0000000
vn 0.0000004 0.0000231 -1.0000000
vn 0.0000116 -0.0000412 -1.0000000
vn -0.0000098 -0.0000526 -1.0000000
vn 0.0000374 -0.0000328 -1.0000000
vn -0.0000487 0.0000250 -1.0000000
vn -0.0000066 -0.0000085 -1.0000000
vn 0.0000040 -0.0000231 -1.0000000
vn -0.0000083 0.0000179 -1.0000000
vn 0.0000085 0.0000000 -1.0000000
vn -0.0000195 -0.0000483 -1.0000000
vn -0.0000172 0.0000566 -1.0000000
vn 0.0000240 0.0000085 -1.0000000
vn 0.0004602 0.0087104 -0.9999620
vn 0.0000105 -0.0000174 -1.0000000
vn -0.0000128 -0.0000695 -1.0000000
vn 0.0000125 0.0000006 -1.0000000
vn 0.0000047 0.0000176 -1.0000000
vn 0.0000076 -0.0000077 -1.0000000
vn -0.0000195 0.0000616 -1.0000000
vn -0.0000012 -0.0000273 -1.0000000
vn 0.0000143 -0.0000507 -1.0000000
vn -0.0000248 0.0000186 -1.0000000
vn 0.0000016 -0.0000421 -1.0000000
vn -0.0000230 0.0000018 -1.0000000
vn -0.0000042 -0.0000186 -1.0000000
vn 0.0000200 0.0000005 -1.0000000
vn 0.0000291 -0.0000313 -1.0000000
vn -0.0000056 0.0000312 -1.0000000
vn -0.0016611 0.0030985 -0.9999938
vn -0.0000509 -0.0000043 -1.0000000
vn 0.0000529 0.0000142 -1.0000000
vn 0.0000175 0.0000112 -1.0000000
vn 0.0000032 -0.0000015 -1.0000000
vn -0.0000160 0.0000513 -1.0000000
vn 0.0000067 0.0000120 -1.0000000
vn 0.0000111 0.0000102 -1.0000000
vn 0.0000057 -0.0000189 -1.0000000
vn 0.0000128 0.0000094 -1.0000000
vn -0.0000403 0.0000014 -1.0000000
vn 0.0000296 -0.0000113 -1.0000000
vn 0.0000328 0.0000121 -1.0000000
vn 0.0000074 0.0000025 -1.0000000
vn -0.0000277 0.0000523 -1.0000000
vn -0.0000133 -0.0000269 -1.0000000
vn 0.0000028 -0.0000146 -1.0000000
vn 0.0000064 -0.0000151 -1.0000000
vn -0.0000147 0.0000567 -1.0000000
vn -0.0000434 0.0000547 -1.0000000
vn 0.0000138 -0.0000081 -1.0000000
vn 0.0000016 0.0000097 -1.0000000
vn 0.0000207 -0.0000507 -1.0000000
vn 0.0000212 -0.0000248 -1.0000000
vn 0.0000175 -0.0000182 -1.0000000
vn -0.0000311 0.0000029 -1.0000000
vn 0.0000052 -0.0000376 -1.0000000
vn 0.0000498 -0.0000214 -1.0000000
vn 0.0000493 -0.0000261 -1.0000000
vn -0.0000100 -0.0000115 -1.0000000
vn 0.0000456 0.0000163 -1.0000000
vn 0.0000170 -0.0000044 -1.0000000
vn -0.0000022 -0.0000020 -1.0000000
vn 0.0000030 -0.0000132 -1.0000000
vn 0.0000028 -0.0000262 -1.0000000
vn 0.0000108 -0.0000250 -1.0000000
vn 0.0000007 -0.0000095 -1.0000000
vn -0.0000172 -0.0000084 -1.0000000
vn -0.0000661 0.0000366 -1.0000000
vn 0.0000471 -0.0000169 -1.0000000
vn 0.0000024 0.0000054 -1.0000000
vn 0.0000008 0.0000182 -1.0000000
vn -0.0000273 -0.0000051 -1.0000000
vn 0.0000360 0.0000150 -1.0000000
vn 0.0000504 -0.0000375 -1.0000000
vn -0.0000301 -0.0000376 -1.0000000
vn -0.0000631 -0.0000164 -1.0000000
vn -0.0000382 -0.0000177 -1.0000000
vn 0.0000036 -0.0000226 -1.0000000
vn 0.0000191 -0.0000159 -1.0000000
vn 0.0000101 -0.0000037 -1.0000000
vn 0.0000128 -0.0000697 -1.0000000
vn -0.0000111 0.0000650 -1.0000000
vn 0.0000282 -0.0000003 -1.0000000
vn 0.0000273 0.0000211 -1.0000000
vn -0.0000415 -0.0000243 -1.0000000
vn -0.0000222 0.0000027 -1.0000000
f 1/1/1 2/2/2 3/3/3
f 4/4/4 2/5/2 1/6/1
f 5/7/5 6/8/6 7/9/7
f 8/10/8 6/11/6 5/12/5
f 9/13/9 10/14/10 11/15/11
f 11/16/11 10/17/10 12/18/12
f 13/19/13 14/20/14 15/21/15
f 15/22/15 14/23/14 16/24/16
f 17/25/17 18/26/18 19/27/19
f 20/28/20 18/29/18 17/30/17
f 21/31/21 22/32/22 23/33/23
f 23/34/23 22/35/22 24/36/24
f 25/37/25 26/38/26 27/39/27
f 27/40/27 26/41/26 28/42/28
f 29/43/29 30/44/30 31/45/31
f 31/46/31 30/47/30 32/48/32
f 33/49/33 34/50/34 35/51/35
f 35/52/35 34/53/34 36/54/36
f 37/55/37 38/56/38 39/57/39
f 40/58/40 38/59/38 37/60/37
f 41/61/41 42/62/42 43/63/43
f 44/64/44 42/65/42 41/66/41
f 45/67/45 46/68/46 47/69/47
f 48/70/48 46/71/46 45/72/45
f 49/73/49 50/74/50 51/75/51
f 52/76/52 50/77/50 49/78/49
f 53/79/53 54/80/54 55/81/55
f 56/82/56 54/83/54 53/84/53
f 57/85/57 58/86/58 59/87/59
f 60/88/60 58/89/58 57/90/57
f 61/91/61 62/92/62 63/93/63
f 64/94/64 62/95/62 61/96/61
f 65/97/65 66/98/66 67/99/67
f 68/100/68 66/101/66 65/102/65
f 69/103/69 70/104/70 71/105/71
f 71/106/71 70/107/70 72/108/72
f 73/109/73 74/110/74 75/111/75
f 75/112/75 74/113/74 76/114/76
f 77/115/77 78/116/78 79/117/79
f 79/118/79 78/119/78 80/120/80
f 81/121/81 82/122/82 83/123/83
f 84/124/84 82/125/82 81/126/81
f 85/127/85 86/128/86 87/129/87
f 88/130/88 86/131/86 85/132/85
f 89/133/89 90/134/90 91/135/91
f 92/136/92 90/137/90 89/138/89
f 93/139/93 94/140/94 95/141/95
f 96/142/96 94/143/94 93/144/93
f 97/145/97 98/146/98 99/147/99
f 100/148/100 98/149/98 97/150/97
f 101/151/101 102/152/102 103/153/103
f 104/154/104 102/155/102 101/156/101
f 105/157/105 106/158/106 107/159/107
f 108/160/108 106/161/106 105/162/105
f 109/163/109 110/164/110 111/165/111
f 112/166/112 110/167/110 109/168/109
f 113/169/113 114/170/114 115/171/115
f 116/172/116 114/173/114 113/174/113
f 117/175/117 118/176/118 119/177/119
f 119/178/119 118/179/118 120/180/120
f 121/181/121 122/182/122 123/183/123
f 124/184/124 122/185/122 121/186/121
f 125/187/125 126/188/126 127/189/127
f 128/190/128 126/191/126 125/192/125
f 129/193/129 130/194/130 131/195/131
f 132/196/132 130/197/130 129/198/129
f 133/199/133 134/200/134 135/201/135
f 136/202/136 134/203/134 133/204/133
f 137/205/137 138/206/138 139/207/139
f 140/208/140 138/209/138 137/210/137
