# Pieza completa de un material COLLADA para Raylib
o material_0031-material
v -1.2486851 -1.6014556 0.8863226
v -1.2731978 -1.5447032 0.9233582
v -1.0917501 -1.5289831 0.9209602
v -1.0818917 -1.6022549 0.8863226
v -1.2436226 -1.7698475 0.7102038
v -1.2457542 -1.6872502 0.7936004
v -1.0834904 -1.6883160 0.7898702
v -1.0944146 -1.7551932 0.7102038
v -0.1357527 1.3198253 0.6896877
v -0.2479252 1.3352790 0.6739675
v -0.1000493 1.3360784 0.6739675
v -0.2028963 1.3216904 0.6896877
v -0.2473923 1.2526817 0.7656239
v -0.1088420 1.2604085 0.7656239
v -0.1906400 0.9702521 1.1245226
v -0.2551192 0.9558642 1.1341146
v -0.2529876 0.9990280 1.0962797
v -0.0640795 0.9955642 1.0962797
v -0.1104406 0.9739823 1.1245226
v -0.0571520 0.9646568 1.1341146
v -0.1093748 2.0368234 0.2090245
v -0.2154192 2.0682637 0.2002319
v -0.0723393 2.0368234 0.2002319
v -0.1861104 2.0549415 0.2090245
v -0.2186165 1.9449006 0.3025460
v -0.0776681 1.9265160 0.3025460
v -0.2135541 1.6137119 0.6550501
v -0.2343366 1.6304979 0.6393299
v -0.0936547 1.6259683 0.6393299
v -0.1301574 1.6137119 0.6550501
v -0.0981842 1.5945281 0.6739675
v -0.2463265 1.5945281 0.6739675
v 0.2764346 0.8769971 1.1008092
v 0.1973010 0.8037253 1.1301179
v 0.0888587 0.9276213 1.1341146
v 0.1522722 1.0144817 1.1008092
v 0.5506044 1.1818079 0.9587951
v 0.4855923 1.0872206 1.0176790
v 0.2785661 1.1788770 1.0206099
v 0.3710219 1.2745300 0.9587951
v 0.6070903 -1.4112153 0.8458233
v 0.5468742 -1.3075690 0.8676716
v 0.6499877 -1.3139636 0.8676716
v 0.6630434 -1.4056200 0.8540830
v 0.3198648 -1.7570583 0.7245917
v 0.4432279 -1.7234865 0.7610944
v 0.4842601 -1.7626536 0.7605615
v 0.3958011 -1.8218039 0.7323185
v -1.2103173 -1.1080032 0.9095031
v -1.2252381 -0.9995609 0.9739823
v -1.1077367 -0.9862387 0.9854394
v -1.0842897 -1.0898850 0.9209602
v -1.2007253 -0.6062910 1.1341146
v -1.1682193 -0.7165984 1.1074703
v -1.3017072 -0.7397790 1.0992105
v -1.3619233 -0.6292051 1.1341146
v 0.9689199 -1.1711501 0.9894360
v 0.8125179 -1.2422904 0.9292199
v 0.7744165 -1.1439730 0.9356145
v 0.6723689 -1.1604924 0.8767306
v 0.7744165 -1.1439730 0.9356145
v 0.8125179 -1.2422904 0.9292199
v 0.6806286 -1.3003750 0.8793951
v 0.9158978 -1.0195441 0.9952978
vt -0.0078125 1.9816895
vt -0.0078125 1.0068359
vt 0.9919434 1.0080566
vt 0.9919434 1.0080566
vt 0.9919434 1.9829102
vt -0.0078125 1.9816895
vt -0.0075684 1.0126953
vt -0.0075684 1.9865723
vt 0.9921875 1.9812012
vt 0.9921875 1.9812012
vt 0.9921875 1.0075684
vt -0.0075684 1.0126953
vt 0.3254395 1.2446289
vt 0.9921875 1.0021973
vt -0.0078125 0.9985352
vt 0.8254395 1.2465820
vt 0.9921875 1.0021973
vt 0.3254395 1.2446289
vt 0.9921875 1.9824219
vt 0.9921875 1.0021973
vt 0.8254395 1.2465820
vt 0.8254395 1.2465820
vt -0.0075684 1.9787598
vt 0.9921875 1.9824219
vt 0.3254395 1.2446289
vt -0.0075684 1.9787598
vt 0.8254395 1.2465820
vt -0.0078125 0.9985352
vt -0.0075684 1.9787598
vt 0.3254395 1.2446289
vt 0.6496582 1.3308105
vt 0.9858398 1.0485840
vt 0.9909668 1.9946289
vt 0.9909668 1.9946289
vt -0.0092773 1.9641113
vt 0.6496582 1.3308105
vt 0.2253417 1.3784180
vt 0.6496582 1.3308105
vt -0.0092773 1.9641113
vt -0.0092773 1.9641113
vt -0.0603027 1.1618652
vt 0.2253417 1.3784180
vt 0.6496582 1.3308105
vt 0.2253417 1.3784180
vt -0.0603027 1.1618652
vt -0.0603027 1.1618652
vt 0.9858398 1.0485840
vt 0.6496582 1.3308105
vt 0.1921387 1.2434082
vt 0.9921875 0.9997559
vt -0.0075684 0.9978027
vt 0.7878418 1.2468262
vt 0.9921875 0.9997559
vt 0.1921387 1.2434082
vt 0.9921875 1.9812012
vt 0.9921875 0.9997559
vt 0.7878418 1.2468262
vt 0.7878418 1.2468262
vt 0.1921387 1.2434082
vt 0.9921875 1.9812012
vt 0.1921387 1.2434082
vt -0.0075684 1.9792480
vt 0.9921875 1.9812012
vt -0.0075684 0.9978027
vt -0.0075684 1.9792480
vt 0.1921387 1.2434082
vt 0.7919922 1.4936523
vt 0.9919434 1.9802246
vt -0.0078125 1.9807129
vt -0.0078125 1.9807129
vt 0.1921387 1.4938965
vt 0.7919922 1.4936523
vt -0.0075684 1.0070801
vt 0.1921387 1.4938965
vt -0.0078125 1.9807129
vt 0.9919434 1.0068359
vt 0.1921387 1.4938965
vt -0.0075684 1.0070801
vt 0.7919922 1.4936523
vt 0.1921387 1.4938965
vt 0.9919434 1.0068359
vt 0.9919434 1.0068359
vt 0.9919434 1.9802246
vt 0.7919922 1.4936523
vt -0.0078125 1.9843750
vt -0.0075684 1.0256348
vt 0.9921875 1.0163574
vt 0.9921875 1.0163574
vt 0.9919434 1.9753418
vt -0.0078125 1.9843750
vt -0.0078125 1.0000000
vt -0.0075684 1.9836426
vt 0.9921875 1.9821777
vt 0.9921875 1.9821777
vt 0.9919434 0.9985352
vt -0.0078125 1.0000000
vt -0.0078125 1.9816895
vt -0.0078125 1.0170898
vt 0.9921875 1.0151367
vt 0.9921875 1.0151367
vt 0.9921875 1.9797363
vt -0.0078125 1.9816895
vt -0.0075684 1.0007324
vt -0.0075684 1.9833984
vt 0.9921875 1.9812012
vt 0.9921875 1.9812012
vt 0.9921875 0.9987793
vt -0.0075684 1.0007324
vt -0.0078125 1.0036621
vt -0.0078125 1.9772949
vt 0.9921875 1.9802246
vt 0.9921875 1.9802246
vt 0.9921875 1.0068359
vt -0.0078125 1.0036621
vt 0.9921875 1.0053711
vt 0.9921875 1.9843750
vt -0.0075684 1.9843750
vt -0.0075684 1.9843750
vt -0.0075684 1.0053711
vt 0.9921875 1.0053711
vt 0.9921875 1.0163574
vt 0.9921875 1.9785156
vt -0.0075684 1.9641113
vt 0.0004883 0.9980469
vt 0.0004883 1.9582520
vt 0.9863281 1.9582520
vt 0.9863281 1.9582520
vt 0.9863281 0.9980469
vt 0.0004883 0.9980469
vt -0.0075684 1.9641113
vt -0.0075684 1.0019531
vt 0.9921875 1.0163574
vn -0.0000228 -0.0000118 -1.0000000
vn 0.0000396 -0.0000079 -1.0000000
vn 0.0000092 -0.0000230 -1.0000000
vn -0.0000169 -0.0000018 -1.0000000
vn -0.0000173 0.0000145 -1.0000000
vn -0.0000453 -0.0000028 -1.0000000
vn -0.0000473 -0.0000042 -1.0000000
vn -0.0000230 0.0000197 -1.0000000
vn -0.0000062 0.0000105 -1.0000000
vn -0.0000132 -0.0000182 -1.0000000
vn 0.0000111 0.0000228 -1.0000000
vn 0.0000029 0.0000044 -1.0000000
vn -0.0000055 0.0000108 -1.0000000
vn 0.0000031 -0.0000205 -1.0000000
vn 0.0000234 -0.0000185 -1.0000000
vn 0.0000253 0.0000063 -1.0000000
vn -0.0000129 -0.0000089 -1.0000000
vn -0.0000025 0.0000191 -1.0000000
vn -0.0000459 -0.0000095 -1.0000000
vn -0.0000092 -0.0000169 -1.0000000
vn 0.0000553 -0.0000185 -1.0000000
vn -0.0000362 0.0000151 -1.0000000
vn 0.0000283 0.0000062 -1.0000000
vn -0.0000675 -0.0000022 -1.0000000
vn 0.0000060 0.0000164 -1.0000000
vn -0.0000058 -0.0000195 -1.0000000
vn 0.0000112 -0.0000121 -1.0000000
vn 0.0000388 -0.0000172 -1.0000000
vn -0.0000069 0.0000009 -1.0000000
vn 0.0000046 -0.0000160 -1.0000000
vn -0.0000178 -0.0000028 -1.0000000
vn 0.0000185 0.0000157 -1.0000000
vn -0.0000026 0.0000083 -1.0000000
vn 0.0000141 0.0000193 -1.0000000
vn -0.0000177 -0.0000067 -1.0000000
vn 0.0000021 -0.0000280 -1.0000000
vn 0.0000237 0.0000010 -1.0000000
vn -0.0000051 -0.0000048 -1.0000000
vn -0.0000330 0.0000003 -1.0000000
vn 0.0000242 0.0000010 -1.0000000
vn 0.0000008 -0.0000198 -1.0000000
vn 0.0000031 0.0000128 -1.0000000
vn -0.0000021 0.0000082 -1.0000000
vn 0.0000041 0.0000239 -1.0000000
vn 0.0000047 -0.0000119 -1.0000000
vn -0.0000030 0.0000007 -1.0000000
vn -0.0000155 0.0000078 -1.0000000
vn -0.0000103 -0.0000034 -1.0000000
vn 0.0000272 0.0000144 -1.0000000
vn -0.0000308 0.0000050 -1.0000000
vn 0.0000098 -0.0000230 -1.0000000
vn 0.0000376 -0.0000055 -1.0000000
vn -0.0000009 -0.0000004 -1.0000000
vn 0.0000137 0.0000106 -1.0000000
vn 0.0000171 -0.0000196 -1.0000000
vn -0.0000078 -0.0000107 -1.0000000
vn -0.0000027 -0.0000163 -1.0000000
vn 0.0000061 0.0000164 -1.0000000
vn -0.0000133 0.0000159 -1.0000000
vn -0.0000047 0.0000249 -1.0000000
vn -0.0000150 -0.0000124 -1.0000000
vn 0.0000078 0.0000111 -1.0000000
vn 0.0000215 -0.0000113 -1.0000000
vn -0.0000113 -0.0000114 -1.0000000
f 1/1/1 2/2/2 3/3/3
f 3/4/3 4/5/4 1/6/1
f 5/7/5 6/8/6 7/9/7
f 7/10/7 8/11/8 5/12/5
f 9/13/9 10/14/10 11/15/11
f 12/16/12 10/17/10 9/18/9
f 13/19/13 10/20/10 12/21/12
f 12/22/12 14/23/14 13/24/13
f 9/25/9 14/26/14 12/27/12
f 11/28/11 14/29/14 9/30/9
f 15/31/15 16/32/16 17/33/17
f 17/34/17 18/35/18 15/36/15
f 19/37/19 15/38/15 18/39/18
f 18/40/18 20/41/20 19/42/19
f 15/43/15 19/44/19 20/45/20
f 20/46/20 16/47/16 15/48/15
f 21/49/21 22/50/22 23/51/23
f 24/52/24 22/53/22 21/54/21
f 25/55/25 22/56/22 24/57/24
f 24/58/24 21/59/21 25/60/25
f 21/61/21 26/62/26 25/63/25
f 23/64/23 26/65/26 21/66/21
f 27/67/27 28/68/28 29/69/29
f 29/70/29 30/71/30 27/72/27
f 31/73/31 30/74/30 29/75/29
f 32/76/32 30/77/30 31/78/31
f 27/79/27 30/80/30 32/81/32
f 32/82/32 28/83/28 27/84/27
f 33/85/33 34/86/34 35/87/35
f 35/88/35 36/89/36 33/90/33
f 37/91/37 38/92/38 39/93/39
f 39/94/39 40/95/40 37/96/37
f 41/97/41 42/98/42 43/99/43
f 43/100/43 44/101/44 41/102/41
f 45/103/45 46/104/46 47/105/47
f 47/106/47 48/107/48 45/108/45
f 49/109/49 50/110/50 51/111/51
f 51/112/51 52/113/52 49/114/49
f 53/115/53 54/116/54 55/117/55
f 55/118/55 56/119/56 53/120/53
f 57/121/57 58/122/58 59/123/59
f 60/124/60 61/125/61 62/126/62
f 62/127/62 63/128/63 60/129/60
f 59/130/59 64/131/64 57/132/57
