# Pieza completa de un material COLLADA para Raylib
o material_0038-material
v -0.0952534 -1.2028569 1.0597770
v -0.1133715 -1.3342133 0.9721172
v -0.2465930 -1.3486012 0.9721172
v -0.2721715 -1.2159126 1.0587112
v 0.0206493 -1.3600582 0.9721172
v 0.0321064 -1.2705334 1.0611092
v -0.1168352 -1.5812059 0.7245917
v -0.2303400 -1.5857354 0.7357823
v 0.0275768 -1.5788079 0.7277890
v 0.0568856 -1.6432871 0.7078058
v -0.1152366 -1.6427542 0.7078058
v 0.0275768 -1.5788079 0.7277890
v 0.0696748 -1.3872354 0.9987615
v 0.0736715 -1.2715992 1.1114669
v 0.0321064 -1.2705334 1.0611092
v -0.0877930 -1.1834065 1.1114669
v -0.2721715 -1.2159126 1.0587112
v -0.3182661 -1.1980609 1.1114669
v -0.2985494 -1.3728475 0.9987615
v -0.2551192 -1.6622046 0.7078058
v -0.2303400 -1.5857354 0.7357823
v 0.0206493 -1.3600582 0.9721172
v -0.1168352 -1.5812059 0.7245917
v -0.0952534 -1.2028569 1.0597770
v -0.2465930 -1.3486012 0.9721172
v -0.0859279 -1.2310998 1.0930824
v -0.1115064 -1.3616569 0.9966300
v -0.2444614 -1.3669857 0.9987615
v -0.2684413 -1.2340307 1.0816253
v 0.0227809 -1.3781763 0.9987615
v 0.0371688 -1.2713327 1.0874870
v -0.1147037 -1.5995905 0.7509696
v -0.2279420 -1.6041200 0.7624266
v 0.0299748 -1.5969260 0.7541669
v 0.0568856 -1.6432871 0.7078058
v -0.1152366 -1.6427542 0.7078058
v 0.0299748 -1.5969260 0.7541669
v 0.0696748 -1.3872354 0.9987615
v 0.0766024 -1.2540139 1.1114669
v 0.0371688 -1.2713327 1.0874870
v -0.0971185 -1.1676864 1.1127991
v -0.2684413 -1.2340307 1.0816253
v -0.3116051 -1.1655548 1.1130656
v -0.2985494 -1.3728475 0.9987615
v -0.2551192 -1.6622046 0.7078058
v -0.2279420 -1.6041200 0.7624266
v 0.0227809 -1.3781763 0.9987615
v -0.1147037 -1.5995905 0.7509696
v -0.0859279 -1.2310998 1.0930824
v -0.2444614 -1.3669857 0.9987615
vt 1.2363280 -0.6562500
vt 1.1816410 0.2871094
vt 0.3686523 0.3950195
vt 1.2363280 -0.6562500
vt 0.3686523 0.3950195
vt 0.1572266 -0.5317380
vt 2.0083010 0.3432617
vt 1.1816410 0.2871094
vt 1.2363280 -0.6562500
vt 2.0327150 -0.4316410
vt 2.0083010 0.3432617
vt 1.2363280 -0.6562500
vt 1.1816410 0.2871094
vt 1.2875980 2.4267580
vt 0.3686523 0.3950195
vt 0.3686523 0.3950195
vt 1.2875980 2.4267580
vt 0.5922852 2.4350590
vt 2.0083010 0.3432617
vt 1.2875980 2.4267580
vt 1.1816410 0.2871094
vt 2.1718750 2.3486330
vt 1.2875980 2.4267580
vt 2.0083010 0.3432617
vt 2.3598630 2.7407230
vt 1.3061520 2.8007810
vt 2.1718750 2.3486330
vt 2.1718750 2.3486330
vt 2.2973630 0.3627930
vt 2.3598630 2.7407230
vt 2.2622070 -0.6254880
vt 2.0327150 -0.4316410
vt 1.2519530 -0.9262700
vt 2.2973630 0.3627930
vt 2.0327150 -0.4316410
vt 2.2622070 -0.6254880
vt 1.2519530 -0.9262700
vt 0.1572266 -0.5317380
vt -0.1547852 -0.7817380
vt -0.1547852 -0.7817380
vt 0.1572266 -0.5317380
vt 0.0390625 0.4384766
vt 0.4555664 2.9321290
vt 0.0390625 0.4384766
vt 0.5922852 2.4350590
vt 0.5922852 2.4350590
vt 1.3061520 2.8007810
vt 0.4555664 2.9321290
vt 2.0083010 0.3432617
vt 2.2973630 0.3627930
vt 2.1718750 2.3486330
vt 2.1718750 2.3486330
vt 1.3061520 2.8007810
vt 1.2875980 2.4267580
vt 2.2973630 0.3627930
vt 2.0083010 0.3432617
vt 2.0327150 -0.4316410
vt 2.0327150 -0.4316410
vt 1.2363280 -0.6562500
vt 1.2519530 -0.9262700
vt 0.0390625 0.4384766
vt 0.1572266 -0.5317380
vt 0.3686523 0.3950195
vt 1.2519530 -0.9262700
vt 1.2363280 -0.6562500
vt 0.1572266 -0.5317380
vt 1.2875980 2.4267580
vt 1.3061520 2.8007810
vt 0.5922852 2.4350590
vt 0.5922852 2.4350590
vt 0.0390625 0.4384766
vt 0.3686523 0.3950195
vt 1.2363280 -0.6562500
vt 1.1816410 0.2871094
vt 0.3686523 0.3950195
vt 1.2363280 -0.6562500
vt 0.3686523 0.3950195
vt 0.1572266 -0.5317380
vt 2.0083010 0.3432617
vt 1.1816410 0.2871094
vt 1.2363280 -0.6562500
vt 2.0327150 -0.4316410
vt 2.0083010 0.3432617
vt 1.2363280 -0.6562500
vt 1.1816410 0.2871094
vt 1.2875980 2.4267580
vt 0.3686523 0.3950195
vt 0.3686523 0.3950195
vt 1.2875980 2.4267580
vt 0.5922852 2.4350590
vt 2.0083010 0.3432617
vt 1.2875980 2.4267580
vt 1.1816410 0.2871094
vt 2.1718750 2.3486330
vt 1.2875980 2.4267580
vt 2.0083010 0.3432617
vt 2.3598630 2.7407230
vt 1.3061520 2.8007810
vt 2.1718750 2.3486330
vt 2.1718750 2.3486330
vt 2.2973630 0.3627930
vt 2.3598630 2.7407230
vt 2.2622070 -0.6254880
vt 2.0327150 -0.4316410
vt 1.2519530 -0.9262700
vt 2.2973630 0.3627930
vt 2.0327150 -0.4316410
vt 2.2622070 -0.6254880
vt 1.2519530 -0.9262700
vt 0.1572266 -0.5317380
vt -0.1547852 -0.7817380
vt -0.1547852 -0.7817380
vt 0.1572266 -0.5317380
vt 0.0390625 0.4384766
vt 0.4555664 2.9321290
vt 0.0390625 0.4384766
vt 0.5922852 2.4350590
vt 0.5922852 2.4350590
vt 1.3061520 2.8007810
vt 0.4555664 2.9321290
vt 2.0083010 0.3432617
vt 2.2973630 0.3627930
vt 2.1718750 2.3486330
vt 2.1718750 2.3486330
vt 1.3061520 2.8007810
vt 1.2875980 2.4267580
vt 2.2973630 0.3627930
vt 2.0083010 0.3432617
vt 2.0327150 -0.4316410
vt 2.0327150 -0.4316410
vt 1.2363280 -0.6562500
vt 1.2519530 -0.9262700
vt 0.0390625 0.4384766
vt 0.1572266 -0.5317380
vt 0.3686523 0.3950195
vt 1.2519530 -0.9262700
vt 1.2363280 -0.6562500
vt 0.1572266 -0.5317380
vt 1.2875980 2.4267580
vt 1.3061520 2.8007810
vt 0.5922852 2.4350590
vt 0.5922852 2.4350590
vt 0.0390625 0.4384766
vt 0.3686523 0.3950195
vn -0.0000180 0.0000105 -1.0000000
vn -0.0000466 0.0000013 -1.0000000
vn -0.0000191 -0.0000108 -1.0000000
vn -0.0000022 -0.0000195 -1.0000000
vn -0.0000157 0.0000082 -1.0000000
vn 0.0000038 -0.0000241 -1.0000000
vn 0.0000176 0.0000003 -1.0000000
vn 0.0000045 -0.0000118 -1.0000000
vn -0.0000459 -0.0000158 -1.0000000
vn 0.0000072 0.0000009 -1.0000000
vn 0.0000082 -0.0000098 -1.0000000
vn -0.0000200 0.0000338 -1.0000000
vn -0.0000034 0.0000183 -1.0000000
vn -0.0000201 0.0000056 -1.0000000
vn -0.0000284 -0.0000019 -1.0000000
vn -0.0000208 -0.0000098 -1.0000000
vn 0.0000124 0.0000039 -1.0000000
vn -0.0000040 -0.0000292 -1.0000000
vn 0.0000249 0.0000044 -1.0000000
vn 0.0000135 0.0000061 -1.0000000
vn -0.0000353 -0.0000137 -1.0000000
vn 0.0000277 -0.0000091 -1.0000000
vn 0.0000080 0.0000193 -1.0000000
vn 0.0000317 -0.0000331 -1.0000000
vn 0.0000048 0.0000161 -1.0000000
vn 0.0000133 -0.0000110 -1.0000000
vn 0.0000024 0.0000002 -1.0000000
vn 0.0000110 0.0000085 -1.0000000
vn -0.0000148 -0.0000188 -1.0000000
vn 0.0000137 0.0000061 -1.0000000
vn 0.0000004 0.0000074 -1.0000000
vn -0.0000073 -0.0000218 -1.0000000
vn -0.0000242 0.0000020 -1.0000000
vn 0.0000243 0.0000156 -1.0000000
vn -0.0000227 -0.0000203 -1.0000000
vn -0.0000056 -0.0000212 -1.0000000
vn -0.0000153 0.0000201 -1.0000000
vn -0.0000295 -0.0000130 -1.0000000
vn 0.0000101 -0.0000115 -1.0000000
vn -0.0000104 -0.0000039 -1.0000000
vn -0.0000128 -0.0000063 -1.0000000
vn -0.0000207 0.0000223 -1.0000000
vn 0.0000276 -0.0000143 -1.0000000
vn -0.0000061 -0.0000040 -1.0000000
vn 0.0000191 0.0000211 -1.0000000
vn 0.0000095 0.0000015 -1.0000000
vn 0.0000132 -0.0000022 -1.0000000
vn -0.0000296 -0.0000085 -1.0000000
vn -0.0000060 0.0000092 -1.0000000
vn -0.0000067 0.0000044 -1.0000000
f 1/1/1 2/2/2 3/3/3
f 1/4/1 3/5/3 4/6/4
f 5/7/5 2/8/2 1/9/1
f 6/10/6 5/11/5 1/12/1
f 2/13/2 7/14/7 3/15/3
f 3/16/3 7/17/7 8/18/8
f 5/19/5 7/20/7 2/21/2
f 9/22/9 7/23/7 5/24/5
f 10/25/10 11/26/11 12/27/12
f 12/28/12 13/29/13 10/30/10
f 14/31/14 15/32/15 16/33/16
f 13/34/13 15/35/15 14/36/14
f 16/37/16 17/38/17 18/39/18
f 18/40/18 17/41/17 19/42/19
f 20/43/20 19/44/19 21/45/21
f 21/46/21 11/47/11 20/48/20
f 22/49/22 13/50/13 12/51/12
f 12/52/12 11/53/11 23/54/23
f 13/55/13 22/56/22 15/57/15
f 15/58/15 24/59/24 16/60/16
f 19/61/19 17/62/17 25/63/25
f 16/64/16 24/65/24 17/66/17
f 23/67/23 11/68/11 21/69/21
f 21/70/21 19/71/19 25/72/25
f 26/73/26 27/74/27 28/75/28
f 26/76/26 28/77/28 29/78/29
f 30/79/30 27/80/27 26/81/26
f 31/82/31 30/83/30 26/84/26
f 27/85/27 32/86/32 28/87/28
f 28/88/28 32/89/32 33/90/33
f 30/91/30 32/92/32 27/93/27
f 34/94/34 32/95/32 30/96/30
f 35/97/35 36/98/36 37/99/37
f 37/100/37 38/101/38 35/102/35
f 39/103/39 40/104/40 41/105/41
f 38/106/38 40/107/40 39/108/39
f 41/109/41 42/110/42 43/111/43
f 43/112/43 42/113/42 44/114/44
f 45/115/45 44/116/44 46/117/46
f 46/118/46 36/119/36 45/120/45
f 47/121/47 38/122/38 37/123/37
f 37/124/37 36/125/36 48/126/48
f 38/127/38 47/128/47 40/129/40
f 40/130/40 49/131/49 41/132/41
f 44/133/44 42/134/42 50/135/50
f 41/136/41 49/137/49 42/138/42
f 48/139/48 36/140/36 46/141/46
f 46/142/46 44/143/44 50/144/50
