# Pieza completa de un material COLLADA para Raylib
o material_0029-material
v -1.3062367 0.3776829 1.0672374
v -1.3062367 0.4858588 1.0992105
v -1.2604085 0.4802635 1.1874032
v -1.2500173 0.3688903 1.1874032
v -1.2500173 0.5849756 1.1874032
v -1.2604085 0.4802635 1.1874032
v -1.3062367 0.4858588 1.0992105
v -1.2396260 0.6590467 1.1293186
v -1.1844723 0.6489219 1.1341146
v -1.2151132 0.6022944 1.1874032
v -1.2151132 0.6022944 1.1874032
v -1.2500173 0.5849756 1.1874032
v -1.2396260 0.6590467 1.1293186
v -1.2929146 0.6190803 1.1261213
v -1.2929146 0.6190803 1.1261213
v -1.3112992 0.1813145 1.0672374
v -1.3062367 0.3776829 1.0672374
v -1.2500173 0.3688903 1.1874032
v -1.2604085 0.1701238 1.1874032
v -1.3656535 0.0379681 1.0672374
v -1.3112992 0.1813145 1.0672374
v -1.2604085 0.1701238 1.1874032
v -1.3267528 0.0027977 1.1874032
v -1.5074012 -0.0438299 1.0664381
v -1.3656535 0.0379681 1.0672374
v -1.3267528 0.0027977 1.1874032
v -1.4770267 -0.1067104 1.1874032
v -1.6715301 -0.1397493 1.0672374
v -1.5074012 -0.0438299 1.0664381
v -1.4770267 -0.1067104 1.1874032
v -1.6544777 -0.1890413 1.1874032
v -1.6715301 -0.1397493 1.0672374
v -1.6544777 -0.1890413 1.1874032
v -1.9944590 -0.1322889 1.0672374
v -1.9057335 -0.1959688 1.1874032
v -0.8364978 -1.4298663 0.9987615
v -0.7040756 -1.5479005 0.9987615
v -0.8807273 -1.5385750 0.8999112
v -0.6779642 -1.7242858 0.8503528
v -0.7877387 -1.6235703 0.8772635
v -0.7040756 -1.5479005 0.9987615
v -0.5490058 -1.6139784 0.9987615
v -0.5356836 -1.7717126 0.7773474
v -0.5490058 -1.6139784 0.9987615
v -0.4029950 -1.8154093 0.7102038
v -0.5356836 -1.7717126 0.7773474
v -0.7877387 -1.6235703 0.8772635
v -0.9630582 -1.4621059 0.9209602
v -1.0842897 -1.0898850 0.9209602
v -1.1077367 -0.9862387 0.9854394
v -0.9742488 -1.0541817 0.9987615
v -0.9742488 -1.0541817 0.9987615
v -1.1077367 -0.9862387 0.9854394
v -0.9742488 -1.0541817 1.2119159
v -1.1394434 -0.8399615 1.0624414
v -1.0272709 -0.8026595 1.1874032
v -1.1394434 -0.8399615 1.0624414
v -1.1682193 -0.7165984 1.1074703
v -1.0272709 -0.8026595 1.1874032
v -1.0877535 -0.6992796 1.1874032
v -1.2007253 -0.6062910 1.1341146
v -1.1077367 -0.6102877 1.1874032
v -0.9630582 -1.4621059 0.9209602
v -0.8847239 -1.3573938 0.9209602
v -0.8364978 -1.4298663 0.9987615
v -0.8250407 -1.3267528 0.9987615
v -0.8847239 -1.3573938 0.9209602
v -0.8964474 -1.2284354 0.9209602
v -0.8250407 -1.3267528 0.9987615
v -0.8737998 -1.1458381 0.9987615
v -0.9667884 -1.1338481 0.9209602
v -0.9742488 -1.0541817 0.9987615
v -0.8737998 -1.1458381 0.9987615
v -0.9667884 -1.1338481 0.9209602
v -1.0842897 -1.0898850 0.9209602
v 0.1514728 0.6326689 1.1301179
v 0.1973010 0.8037253 1.1301179
v 0.1954359 0.6100212 1.1874032
v 0.2399319 0.7786796 1.1874032
vt 0.9919434 1.9614258
vt 0.0012207 1.8500977
vt -0.0061035 1.1376953
vt -0.0061035 1.1376953
vt 0.9921875 1.0078125
vt 0.9919434 1.9614258
vt -0.0993652 1.2104492
vt 0.9919434 1.0327148
vt 0.9921875 1.9296875
vt 0.6457520 1.8168945
vt 0.4719238 1.8339844
vt 0.6091309 1.2075195
vt 0.6850586 1.0170898
vt 0.9921875 1.0322266
vt 0.4641113 1.9047852
vt 0.4641113 1.9047852
vt 0.9921875 1.0322266
vt 0.9921875 1.8759766
vt 0.9921875 1.9296875
vt -0.3952637 1.9404297
vt -0.0993652 1.2104492
vt 0.9921875 1.9248047
vt 0.0063477 1.9316406
vt -0.0073242 1.0146484
vt -0.0073242 1.0146484
vt 0.9921875 1.0229492
vt 0.9921875 1.9248047
vt 0.9921875 1.9423828
vt 0.1455078 1.9384766
vt -0.0021973 1.0175781
vt -0.0021973 1.0175781
vt 0.9921875 1.0292969
vt 0.9921875 1.9423828
vt 0.9921875 1.9638672
vt 0.1257324 1.9389648
vt 0.0000000 1.0400391
vt 0.0000000 1.0400391
vt 0.9921875 1.0219726
vt 0.9921875 1.9638672
vt 0.9919434 1.9204102
vt 0.0183105 1.9550781
vt -0.0063477 1.0307617
vt -0.0063477 1.0307617
vt 0.9919434 1.0327148
vt 0.9919434 1.9204102
vt 0.1628417 1.7167969
vt 0.0632324 1.2031250
vt 0.9921875 1.9843750
vt 0.9921875 1.9843750
vt 0.0632324 1.2031250
vt 0.9787598 1.4804688
vt -0.0114746 1.0849609
vt 0.9995117 0.9995117
vt 0.2878418 1.8837891
vt 0.4882813 1.8481445
vt 0.1264648 1.7802734
vt 0.2595215 1.1347656
vt 0.2595215 1.1347656
vt 0.6860352 1.0395508
vt 0.4882813 1.8481445
vt 0.8652344 1.8940430
vt 0.4882813 1.8481445
vt 0.6860352 1.0395508
vt -0.2370605 1.0644531
vt 0.5739746 1.8715820
vt -0.0056152 1.8149414
vt 1.0756840 1.9321289
vt 0.2878418 1.8837891
vt 0.9995117 0.9995117
vt 0.2878418 1.8837891
vt -0.3432617 1.8168945
vt -0.0114746 1.0849609
vt 0.4379883 1.9208984
vt -0.2194824 1.9589844
vt 0.2097167 1.2485352
vt 0.9575195 1.4360352
vt 0.6408691 1.8432617
vt 0.2058105 1.0209961
vt 0.6408691 1.8432617
vt 0.0085449 1.8266602
vt 0.2058105 1.0209961
vt 0.2058105 1.0209961
vt 0.0085449 1.8266602
vt -0.1965332 1.2866211
vt 0.9655762 1.9350586
vt 0.2658691 1.8193359
vt 0.9909668 1.0234375
vt 0.9909668 1.0234375
vt 0.2658691 1.8193359
vt 0.3359375 1.2055664
vt 0.2658691 1.8193359
vt -0.3696289 1.7934570
vt 0.3359375 1.2055664
vt 0.3359375 1.2055664
vt -0.3696289 1.7934570
vt -0.1520996 1.2397460
vt 0.5676270 1.7915039
vt 0.0695801 1.5869141
vt 0.6147461 1.0844726
vt 0.1274414 1.1289063
vt 0.6147461 1.0844726
vt 0.0695801 1.5869141
vt 0.8937988 1.7475586
vt 0.2807617 1.6655273
vt 0.8654785 1.0942383
vt -0.0412598 1.0776367
vt 0.8654785 1.0942383
vt 0.2807617 1.6655273
vt 0.2807617 1.6655273
vt -0.2585449 1.7934570
vt -0.0412598 1.0776367
vt 0.2329102 1.1616210
vt 0.8439941 1.1542969
vt 0.4997559 1.7197266
vt 0.4997559 1.7197266
vt -0.0222168 1.8842773
vt 0.2329102 1.1616210
vt 0.2741699 1.6025391
vt -1.1240230 1.9165039
vt 0.3041992 1.1660156
vt 0.3041992 1.1660156
vt -1.1240230 1.9165039
vt -1.0715330 1.4775391
vn 0.0000102 -0.0000070 -1.0000000
vn 0.0000126 0.0000476 -1.0000000
vn -0.0000055 0.0000034 -1.0000000
vn 0.0000018 0.0000433 -1.0000000
vn -0.0000128 0.0000122 -1.0000000
vn 0.0009399 0.0092295 -0.9999570
vn -0.0000128 -0.0000126 -1.0000000
vn 0.0000041 0.0000063 -1.0000000
vn 0.0000102 0.0000057 -1.0000000
vn 0.0000002 0.0000067 -1.0000000
vn 0.0000183 -0.0000129 -1.0000000
vn 0.0000218 0.0000029 -1.0000000
vn 0.0000358 0.0000137 -1.0000000
vn 0.0000268 0.0000437 -1.0000000
vn -0.0000131 -0.0000542 -1.0000000
vn 0.0000044 -0.0000314 -1.0000000
vn 0.0000038 0.0000285 -1.0000000
vn 0.0000206 0.0000020 -1.0000000
vn -0.0000104 0.0000526 -1.0000000
vn 0.0000115 -0.0000061 -1.0000000
vn -0.0000011 -0.0000288 -1.0000000
vn -0.0000003 0.0000590 -1.0000000
vn 0.0000061 0.0000637 -1.0000000
vn 0.0000452 0.0000459 -1.0000000
vn 0.0000193 0.0000114 -1.0000000
vn 0.0000310 0.0000201 -1.0000000
vn -0.0000354 -0.0000050 -1.0000000
vn -0.0000274 -0.0000197 -1.0000000
vn 0.0000122 0.0000097 -1.0000000
vn 0.0000041 0.0000162 -1.0000000
vn -0.0000307 0.0000048 -1.0000000
vn 0.0000015 -0.0000176 -1.0000000
vn 0.0000038 0.0000093 -1.0000000
vn -0.0000084 -0.0000127 -1.0000000
vn 0.0000116 -0.0000147 -1.0000000
vn 0.0000007 0.0000025 -1.0000000
vn -0.0000314 0.0000220 -1.0000000
vn 0.0000283 -0.0000007 -1.0000000
vn 0.0000042 -0.0000072 -1.0000000
vn 0.0000209 0.0000044 -1.0000000
vn 0.0000004 0.0000151 -1.0000000
vn 0.0000089 0.0000009 -1.0000000
vn -0.0000342 0.0000213 -1.0000000
vn 0.0000293 0.0000017 -1.0000000
vn -0.0000512 -0.0000009 -1.0000000
vn 0.0000266 0.0000016 -1.0000000
vn -0.0000351 0.0000304 -1.0000000
vn 0.0000156 -0.0000064 -1.0000000
vn 0.0000472 -0.0000139 -1.0000000
vn 0.0000413 -0.0000102 -1.0000000
vn -0.0000206 0.0000298 -1.0000000
vn -0.0000285 0.0000145 -1.0000000
vn 0.0000246 -0.0000339 -1.0000000
vn 0.0000151 0.0000102 -1.0000000
vn -0.0000065 0.0000064 -1.0000000
vn -0.0000167 0.0000002 -1.0000000
vn -0.0000162 0.0000200 -1.0000000
vn -0.0000098 -0.0000134 -1.0000000
vn -0.0000265 0.0000078 -1.0000000
vn -0.0000159 0.0000197 -1.0000000
vn -0.0000136 -0.0000148 -1.0000000
vn 0.0000204 0.0000052 -1.0000000
vn 0.0000263 0.0000450 -1.0000000
vn 0.0000069 -0.0000119 -1.0000000
vn -0.0000115 0.0000216 -1.0000000
vn 0.0000198 0.0000126 -1.0000000
vn -0.0000271 0.0000545 -1.0000000
vn -0.0000315 0.0000197 -1.0000000
vn -0.0000127 0.0000186 -1.0000000
vn 0.0000205 0.0000007 -1.0000000
vn -0.0000003 -0.0000243 -1.0000000
vn 0.0000136 -0.0000211 -1.0000000
vn -0.0000256 0.0000114 -1.0000000
vn 0.0000059 0.0000231 -1.0000000
vn -0.0000545 0.0000135 -1.0000000
vn -0.0000162 -0.0000240 -1.0000000
vn 0.0000123 0.0000293 -1.0000000
vn 0.0000011 -0.0000054 -1.0000000
vn 0.0000161 0.0000124 -1.0000000
f 1/1/1 2/2/2 3/3/3
f 3/4/3 4/5/4 1/6/1
f 5/7/5 6/8/6 7/9/7
f 8/10/8 9/11/9 10/12/10
f 11/13/11 12/14/12 13/15/13
f 13/16/13 12/17/12 14/18/14
f 7/19/7 15/20/15 5/21/5
f 16/22/16 17/23/17 18/24/18
f 18/25/18 19/26/19 16/27/16
f 20/28/20 21/29/21 22/30/22
f 22/31/22 23/32/23 20/33/20
f 24/34/24 25/35/25 26/36/26
f 26/37/26 27/38/27 24/39/24
f 28/40/28 29/41/29 30/42/30
f 30/43/30 31/44/31 28/45/28
f 32/46/32 33/47/33 34/48/34
f 34/49/34 33/50/33 35/51/35
f 36/52/36 37/53/37 38/54/38
f 39/55/39 40/56/40 41/57/41
f 41/58/41 42/59/42 39/60/39
f 43/61/43 39/62/39 42/63/42
f 44/64/44 45/65/45 46/66/46
f 47/67/47 38/68/38 37/69/37
f 38/70/38 48/71/48 36/72/36
f 49/73/49 50/74/50 51/75/51
f 52/76/52 53/77/53 54/78/54
f 53/79/53 55/80/55 54/81/54
f 54/82/54 55/83/55 56/84/56
f 57/85/57 58/86/58 59/87/59
f 59/88/59 58/89/58 60/90/60
f 58/91/58 61/92/61 60/93/60
f 60/94/60 61/95/61 62/96/62
f 63/97/63 64/98/64 65/99/65
f 66/100/66 65/101/65 64/102/64
f 67/103/67 68/104/68 69/105/69
f 70/106/70 69/107/69 68/108/68
f 68/109/68 71/110/71 70/111/70
f 72/112/72 73/113/73 74/114/74
f 74/115/74 75/116/75 72/117/72
f 76/118/76 77/119/77 78/120/78
f 78/121/78 77/122/77 79/123/79
