# Pieza completa de un material COLLADA para Raylib
o material_0033-material
v -0.3651601 -1.7306804 0.7147333
v -0.4029950 -1.8154093 0.7102038
v -0.5490058 -1.6139784 0.9987615
v -0.4400306 -1.5361770 0.9987615
v -0.2551192 -1.6622046 0.7078058
v -0.2985494 -1.3728475 0.9987615
v 0.2050279 -1.6811220 0.7078058
v 0.0568856 -1.6432871 0.7078058
v 0.0696748 -1.3872354 0.9987615
v 0.2090245 -1.5132629 0.9987615
v 0.0766024 -1.2540139 1.1114669
v 0.2090245 -1.5132629 0.9987615
v 0.0696748 -1.3872354 0.9987615
v 0.3419796 -1.3195589 1.1114669
v 0.3329205 -1.5244535 0.9987615
v 0.3329205 -1.5244535 0.9987615
v 0.3198648 -1.7570583 0.7245917
vt 0.4411621 1.9086914
vt 0.2363281 1.9729004
vt 0.1503906 1.3127441
vt 0.1503906 1.3127441
vt 0.5134277 1.2812500
vt 0.4411621 1.9086914
vt 0.7941895 1.8864746
vt 0.4411621 1.9086914
vt 0.5134277 1.2812500
vt 0.5134277 1.2812500
vt 0.9692383 1.2888184
vt 0.7941895 1.8864746
vt 0.5090332 1.8999023
vt 0.9816895 1.9077148
vt 0.9072266 1.1269531
vt 0.9072266 1.1269531
vt 0.5073242 1.1110840
vt 0.5090332 1.8999023
vt 0.9716797 1.8439941
vt 0.4392090 1.1096191
vt 0.8869629 1.3029785
vt 0.0490723 1.8447266
vt 0.4392090 1.1096191
vt 0.9716797 1.8439941
vt 0.0104980 0.9975586
vt 0.4392090 1.1096191
vt 0.0490723 1.8447266
vt 0.5090332 1.8999023
vt 0.5073242 1.1110840
vt 0.1286621 1.0681152
vt 0.1286621 1.0681152
vt 0.1430664 1.9511719
vt 0.5090332 1.8999023
vn 0.0000048 0.0000131 -1.0000000
vn -0.0000210 -0.0000559 -1.0000000
vn 0.0000108 -0.0000116 -1.0000000
vn 0.0000256 0.0000305 -1.0000000
vn -0.0000272 -0.0000085 -1.0000000
vn 0.0000052 0.0000236 -1.0000000
vn -0.0000268 -0.0000022 -1.0000000
vn -0.0000334 0.0000199 -1.0000000
vn -0.0000378 0.0000280 -1.0000000
vn 0.0000335 0.0000049 -1.0000000
vn 0.0000038 0.0000229 -1.0000000
vn 0.0000043 0.0000211 -1.0000000
vn 0.0000087 -0.0000186 -1.0000000
vn -0.0000008 -0.0000166 -1.0000000
vn 0.0000069 0.0000036 -1.0000000
vn 0.0000202 0.0000059 -1.0000000
vn 0.0000049 0.0000097 -1.0000000
f 1/1/1 2/2/2 3/3/3
f 3/4/3 4/5/4 1/6/1
f 5/7/5 1/8/1 4/9/4
f 4/10/4 6/11/6 5/12/5
f 7/13/7 8/14/8 9/15/9
f 9/16/9 10/17/10 7/18/7
f 11/19/11 12/20/12 13/21/13
f 14/22/14 12/23/12 11/24/11
f 15/25/15 12/26/12 14/27/14
f 7/28/7 10/29/10 16/30/16
f 16/31/16 17/32/17 7/33/7
